<svg xmlns="http://www.w3.org/2000/svg" viewBox="0 0 90.46 101.53"><defs><style>.cls-1{fill:#9bffff;}.cls-1,.cls-2,.cls-3,.cls-4,.cls-5,.cls-6{stroke:#000;stroke-linecap:round;stroke-linejoin:round;}.cls-1,.cls-2,.cls-3{stroke-width:2px;}.cls-2{fill:#c4c4c4;}.cls-3{fill:#f7c567;}.cls-4,.cls-5,.cls-6{fill:none;}.cls-5{stroke-dasharray:3.03 5.06;}.cls-6{stroke-dasharray:2.94 4.9;}</style></defs><title>webos</title><g id="Layer_2" data-name="Layer 2"><g id="Layer_1-2" data-name="Layer 1"><path id="_2" data-name="2" class="cls-1" d="M47,40.71C30.91,24.63,14.09,16.54,9.58,18.65a4.31,4.31,0,0,0-2,1c-10.85,11.93-7,35,9.55,51.5s39.57,20.41,51.51,9.55c.08-.06.63-.78.63-.78C71.4,75.4,63.08,56.79,47,40.71Zm17.08,35.2c-1.91,1.9-16.12-5-31.36-20.21S10.42,26.24,12.32,24.34s16.3,4.79,31.54,20S66,74,64.07,75.91Z"/><path id="_1" data-name="1" class="cls-2" d="M23.13,76.29a60.1,60.1,0,0,1-6.49-5.68L1,100.53H8.48c3.11,0,1.87-12.38,11.16-12.25,9.75,0,5.83,12.25,8.56,12.25h7.64L30.27,81A67.28,67.28,0,0,1,23.13,76.29Z"/><path class="cls-3" d="M58.77,30.5A9.75,9.75,0,0,0,43.3,42L31.59,53.75l3.93,3.94L47.25,46A9.75,9.75,0,0,0,58.77,30.5Z"/><path class="cls-4" d="M34.35,21.69c.27-.43.55-.84.84-1.25"/><path class="cls-5" d="M38.54,16.67A25.08,25.08,0,0,1,72.87,53.25"/><path class="cls-4" d="M71,54.91c-.39.31-.79.6-1.21.89"/><path class="cls-4" d="M24.7,17c.27-.42.55-.83.83-1.24"/><path class="cls-6" d="M28.59,11.89A35.37,35.37,0,1,1,77.73,62.62"/><path class="cls-4" d="M75.81,64.17c-.4.3-.8.59-1.21.87"/></g></g></svg>