<svg xmlns="http://www.w3.org/2000/svg" viewBox="0 0 98.97 96.96"><defs><style>.cls-1{fill:#f7c567;}.cls-1,.cls-2,.cls-3,.cls-6{stroke:#000;stroke-linecap:round;stroke-linejoin:round;}.cls-1,.cls-6{stroke-width:2px;}.cls-2{fill:#000121;}.cls-2,.cls-3{stroke-width:0.5px;}.cls-3{fill:#454a6d;}.cls-4{fill:#148c66;}.cls-5{fill:#3aba77;}.cls-6{fill:none;}.cls-7{fill:#7b65bf;}.cls-8{fill:#b8a3e4;}.cls-9{fill:#299cb9;}.cls-10{fill:#43cee2;}</style></defs><title>UI</title><g id="Layer_2" data-name="Layer 2"><g id="Layer_1-2" data-name="Layer 1"><path class="cls-1" d="M62.66,51.25a14.5,14.5,0,1,0-17.2,11.17A14.5,14.5,0,0,0,62.66,51.25Z"/><path class="cls-2" d="M38.56,95.67l1.87.36.1-.58c-.61-.11-1.23-.23-1.84-.36L38.26,95l-.13.57Z"/><path class="cls-2" d="M25,90.57c.67.38,1.37.75,2.07,1.1l.26-.53c-.69-.34-1.38-.71-2.05-1.08Z"/><path class="cls-2" d="M54.39,95.78c-.76.09-1.54.17-2.31.23l.05.59c.78-.06,1.56-.14,2.33-.24Z"/><path class="cls-2" d="M31.6,93l-.21.55c.72.28,1.47.54,2.21.79l.19-.57C33.05,93.54,32.32,93.28,31.6,93Z"/><path class="cls-2" d="M47.45,96.12c-.77,0-1.55-.05-2.32-.11l0,.59c.78.05,1.57.09,2.34.11Z"/><path class="cls-2" d="M13.91,82c.53.55,1.1,1.11,1.67,1.65l.4-.43c-.56-.53-1.12-1.08-1.65-1.63Z"/><path class="cls-2" d="M6.26,70.3l-.53.27c.36.69.74,1.38,1.13,2.06l.51-.29Q6.79,71.32,6.26,70.3Z"/><path class="cls-2" d="M67,3.89l-.23.54c.71.3,1.43.61,2.12.94l.25-.53C68.41,4.5,67.69,4.19,67,3.89Z"/><path class="cls-2" d="M46.32.3l0,.59c.78,0,1.56-.05,2.32-.05V.25C47.89.25,47.1.27,46.32.3Z"/><path class="cls-2" d="M61.2,94.42c-.73.21-1.49.4-2.24.57l.13.57c.76-.17,1.53-.36,2.27-.57Z"/><path class="cls-2" d="M19.15,86.69c.62.48,1.26,1,1.89,1.39l.34-.48c-.63-.44-1.26-.9-1.87-1.38Z"/><path class="cls-2" d="M9.41,76.58c.45.63.93,1.27,1.41,1.87l.46-.36c-.47-.6-.94-1.23-1.39-1.86Z"/><path class="cls-2" d="M55.68.78C54.91.66,54.13.57,53.35.49l-.06.58c.77.08,1.54.18,2.3.29Z"/><path class="cls-2" d="M74.2,89.33l-.31-.5c-.64.4-1.31.8-2,1.19l.29.51C72.88,90.14,73.56,89.74,74.2,89.33Z"/><path class="cls-2" d="M79,11.08l-.37.45c.6.5,1.2,1,1.76,1.52l.4-.44C80.23,12.09,79.63,11.58,79,11.08Z"/><path class="cls-2" d="M1.66,59.6l.57-.13c-.18-.76-.34-1.52-.48-2.27l-.58.11C1.31,58.06,1.47,58.83,1.66,59.6Z"/><path class="cls-2" d="M88.64,74.29c-.42.65-.86,1.3-1.31,1.92l.48.35c.46-.64.9-1.29,1.33-2Z"/><path class="cls-2" d="M65.81,93.53c.72-.28,1.45-.58,2.17-.9l-.23-.54c-.72.32-1.44.61-2.15.88Z"/><path class="cls-2" d="M22.07,8.22c-.65.44-1.3.89-1.93,1.34l.35.48c.62-.45,1.26-.9,1.91-1.32Z"/><path class="cls-2" d="M26.39,6.36c.68-.36,1.37-.71,2.07-1l-.25-.53c-.7.33-1.41.68-2.1,1Z"/><path class="cls-2" d="M94.61,34.07l-.56.18c.23.74.44,1.49.64,2.23l.57-.15C95.06,35.58,94.84,34.82,94.61,34.07Z"/><path class="cls-2" d="M15.19,14.53c.55-.54,1.12-1.07,1.69-1.58l-.39-.44c-.58.52-1.16,1.06-1.72,1.6Z"/><path class="cls-2" d="M11.59,17.56c-.51.6-1,1.22-1.47,1.84l.47.35c.46-.61.95-1.22,1.45-1.81Z"/><path class="cls-2" d="M39.34,1.15l.11.58c.76-.15,1.53-.28,2.28-.39L41.65.76C40.89.87,40.11,1,39.34,1.15Z"/><path class="cls-2" d="M34.78,2.28c-.74.23-1.49.47-2.23.73l.2.56c.73-.26,1.47-.5,2.2-.72Z"/><path class="cls-2" d="M60.28,1.69l-.14.58c.75.18,1.5.39,2.24.61l.17-.56C61.8,2.09,61,1.88,60.28,1.69Z"/><path class="cls-2" d="M3.79,66.31l.54-.22c-.29-.72-.56-1.46-.8-2.17L3,64.11C3.22,64.83,3.49,65.58,3.79,66.31Z"/><path class="cls-2" d="M7.47,23.27c-.4.66-.8,1.34-1.18,2l.51.28q.57-1,1.17-2Z"/><path class="cls-2" d="M96.23,40.92l-.59.09c.13.77.23,1.54.31,2.3l.59-.06C96.46,42.48,96.35,41.7,96.23,40.92Z"/><path class="cls-2" d="M79.49,84.72c-.6.51-1.2,1-1.8,1.46l.36.47c.61-.46,1.22-1,1.83-1.48Z"/><path class="cls-2" d="M84.45,79.84c-.51.59-1,1.16-1.58,1.71l.43.41c.54-.56,1.07-1.14,1.59-1.73Z"/><path class="cls-2" d="M94.24,64.08c.24-.74.48-1.49.7-2.24l-.57-.17c-.21.75-.45,1.49-.69,2.22Z"/><path class="cls-2" d="M.38,50.32c0,.77.08,1.56.15,2.34l.59,0C1.05,51.84,1,51.06,1,50.3Z"/><path class="cls-2" d="M96.82,47.93h-.59c0,.77,0,1.55,0,2.31l.59,0C96.82,49.5,96.83,48.71,96.82,47.93Z"/><path class="cls-2" d="M73.26,7l-.3.5c.67.4,1.33.82,2,1.24l.33-.49C74.61,7.87,73.94,7.44,73.26,7Z"/><path class="cls-2" d="M3.92,31.91c.27-.73.56-1.46.86-2.15l-.54-.24c-.31.71-.6,1.44-.87,2.18Z"/><path class="cls-2" d="M2.05,35.87c-.22.74-.43,1.5-.62,2.27l.57.14c.19-.76.4-1.51.62-2.24Z"/><path class="cls-2" d="M.84,45.13c.07-.77.16-1.55.27-2.3l-.58-.08c-.11.76-.21,1.54-.28,2.33Z"/><path class="cls-2" d="M91.48,70.55c.36-.7.71-1.41,1-2.11L92,68.19c-.31.7-.65,1.4-1,2.09Z"/><path class="cls-2" d="M96.39,55l-.59-.08c-.1.76-.22,1.53-.36,2.29l.58.11C96.16,56.5,96.28,55.72,96.39,55Z"/><path class="cls-2" d="M12.73,48.17c0-.77,0-1.56.1-2.34l-.59,0c-.06.79-.09,1.59-.1,2.38Z"/><path class="cls-2" d="M12.91,41.07l.57.12,0-.16c.17-.76.36-1.53.56-2.27l-.56-.16q-.33,1.14-.57,2.31Z"/><path class="cls-2" d="M15.34,61.9c-.29-.73-.56-1.47-.8-2.2l-.56.18c.24.74.52,1.5.82,2.24Z"/><path class="cls-2" d="M20,25.94c-.49.62-1,1.26-1.41,1.91l.48.34c.44-.64.91-1.28,1.39-1.89Z"/><path class="cls-2" d="M81.11,65c.36-.7.7-1.43,1-2.16l-.54-.23q-.45,1.08-1,2.13Z"/><path class="cls-2" d="M74.08,74.52l-.41-.42c-.55.54-1.14,1.07-1.73,1.58l.38.45C72.93,75.61,73.52,75.07,74.08,74.52Z"/><path class="cls-2" d="M83.83,41.89c.15.77.27,1.55.36,2.31l.59-.07c-.1-.77-.22-1.57-.37-2.35Z"/><path class="cls-2" d="M15.64,34.34c.3-.7.63-1.42,1-2.12L16.11,32c-.37.72-.71,1.44-1,2.16Z"/><path class="cls-2" d="M83.69,58.3c.21-.74.39-1.5.55-2.24l0-.07-.58-.13,0,.08c-.15.73-.33,1.47-.54,2.2Z"/><path class="cls-2" d="M84.93,51.27c.06-.78.1-1.58.11-2.38h-.59c0,.79,0,1.58-.11,2.34Z"/><path class="cls-2" d="M78.19,68.72c-.44.64-.9,1.28-1.39,1.89l.46.37c.5-.63,1-1.28,1.42-1.92Z"/><path class="cls-2" d="M79.11,28.6l-.49.32c.42.66.83,1.33,1.21,2l.52-.29C80,30,79.54,29.27,79.11,28.6Z"/><path class="cls-2" d="M30.77,16.71c-.68.39-1.37.8-2,1.23l.32.5c.65-.43,1.33-.84,2-1.22Z"/><path class="cls-2" d="M49,12v.59c.78,0,1.57,0,2.34.11l0-.59C50.62,12.09,49.82,12.05,49,12Z"/><path class="cls-2" d="M25.3,21.24l-.38-.45c-.6.52-1.2,1.06-1.76,1.61l.41.42C24.13,22.28,24.71,21.75,25.3,21.24Z"/><path class="cls-2" d="M83.22,37.17c-.24-.75-.52-1.51-.81-2.24l-.55.22c.29.72.56,1.46.81,2.2Z"/><path class="cls-2" d="M64.83,16.51l.26-.52c-.71-.37-1.44-.7-2.16-1l-.23.54C63.41,15.82,64.12,16.16,64.83,16.51Z"/><path class="cls-2" d="M35.29,15.2c.72-.29,1.46-.56,2.2-.8l-.18-.56c-.75.24-1.51.52-2.24.81Z"/><path class="cls-2" d="M71.11,19.84c-.62-.49-1.26-1-1.92-1.42l-.33.49c.64.44,1.28.91,1.89,1.39Z"/><path class="cls-2" d="M44.27,12.3c-.78.09-1.57.21-2.35.36l.11.57c.76-.14,1.54-.26,2.31-.35Z"/><path class="cls-2" d="M56.16,12.84h0l-.09.58c.74.16,1.5.35,2.24.55l.16-.56C57.68,13.19,56.92,13,56.16,12.84Z"/><path class="cls-2" d="M76.26,24.79c-.52-.61-1.06-1.2-1.61-1.76l-.42.41c.54.55,1.07,1.13,1.58,1.73Z"/><path class="cls-2" d="M12.41,52.92c.1.79.22,1.58.37,2.35l.58-.11c-.15-.75-.27-1.53-.37-2.31Z"/><path class="cls-2" d="M28.05,78.6l.34-.49c-.64-.43-1.28-.9-1.9-1.38l-.36.46C26.76,77.68,27.4,78.16,28.05,78.6Z"/><path class="cls-2" d="M66.47,80.23c.69-.39,1.37-.81,2-1.24l-.32-.49c-.66.42-1.33.83-2,1.21Z"/><path class="cls-2" d="M62,81.75c-.72.29-1.46.56-2.2.8l.19.56c.75-.25,1.5-.52,2.23-.82Z"/><path class="cls-2" d="M48.23,84.35c-.79,0-1.57,0-2.34-.11l0,.59c.77.06,1.57.1,2.38.11Z"/><path class="cls-2" d="M21,72.25c.51.6,1.06,1.19,1.61,1.76l.42-.42c-.54-.56-1.08-1.14-1.58-1.73Z"/><path class="cls-2" d="M55.23,83.73c-.78.14-1.56.26-2.32.36l.07.58c.78-.09,1.57-.22,2.36-.37Z"/><path class="cls-2" d="M16.87,66.41c.39.69.81,1.37,1.24,2l.49-.32c-.42-.65-.83-1.32-1.22-2Z"/><path class="cls-2" d="M48.23,72.56v.59a23,23,0,0,0,2.34-.08l0-.58C49.76,72.55,49,72.57,48.23,72.56Z"/><path class="cls-2" d="M29.66,64.29c.49.6,1,1.18,1.58,1.73l.42-.42a20.54,20.54,0,0,1-1.55-1.69Z"/><path class="cls-2" d="M30.23,32c-.52.59-1,1.2-1.48,1.82l.48.35a21.83,21.83,0,0,1,1.44-1.77Z"/><path class="cls-2" d="M57.19,71a21.21,21.21,0,0,1-2.17.72l.16.57c.74-.21,1.49-.46,2.22-.74Z"/><path class="cls-2" d="M72.47,45.45l.59-.08c-.1-.77-.24-1.55-.41-2.31l-.57.13A21.33,21.33,0,0,1,72.47,45.45Z"/><path class="cls-2" d="M24.11,51.56c.1.76.23,1.54.41,2.31l.57-.13a22.25,22.25,0,0,1-.39-2.26Z"/><path class="cls-2" d="M43.56,72.63l.12-.58-.09,0c-.75-.16-1.5-.35-2.22-.58l-.18.56a22.3,22.3,0,0,0,2.27.6Z"/><path class="cls-2" d="M35.62,27.51c-.66.41-1.31.86-1.93,1.33l.35.47c.61-.46,1.24-.9,1.89-1.3Z"/><path class="cls-2" d="M26,58.32a21.57,21.57,0,0,0,1,2.1l.51-.28c-.36-.66-.7-1.36-1-2.06Z"/><path class="cls-2" d="M63.18,67.64c-.61.46-1.24.9-1.89,1.3l.31.5c.66-.41,1.31-.86,1.93-1.33Z"/><path class="cls-2" d="M34.87,69c.65.43,1.32.84,2,1.21l.28-.52c-.67-.36-1.33-.76-2-1.18Z"/><path class="cls-2" d="M46.71,24.48c.75-.06,1.52-.08,2.29-.07v-.58a22.61,22.61,0,0,0-2.34.07Z"/><path class="cls-2" d="M55.94,25a23.18,23.18,0,0,0-2.25-.59l0,.15-.06.43c.73.16,1.46.35,2.17.57Z"/><path class="cls-2" d="M60,27.27c.66.36,1.32.75,2,1.18l.33-.49c-.66-.44-1.34-.84-2-1.21Z"/><path class="cls-2" d="M68,62.76c-.45.6-.93,1.2-1.44,1.77l.44.4c.52-.59,1-1.2,1.48-1.82Z"/><path class="cls-2" d="M65.49,31.34c.54.53,1.06,1.1,1.55,1.68l.45-.37c-.5-.6-1-1.18-1.59-1.73Z"/><path class="cls-2" d="M70.33,58.83l.53.25c.34-.7.64-1.43.91-2.16l-.56-.2A21.38,21.38,0,0,1,70.33,58.83Z"/><path class="cls-2" d="M72.61,50a21.58,21.58,0,0,1-.25,2.27l.58.1c.12-.77.21-1.56.26-2.34Z"/><path class="cls-2" d="M70.65,38.84l.54-.23c-.32-.72-.67-1.43-1-2.1l-.51.28C70,37.45,70.34,38.14,70.65,38.84Z"/><path class="cls-2" d="M42.05,24.71a22.33,22.33,0,0,0-2.23.73L40,26a22.23,22.23,0,0,1,2.18-.72Z"/><polygon class="cls-3" points="51.96 58.72 51.96 58.72 51.96 58.72 51.96 58.72"/><circle class="cls-4" cx="89.81" cy="20.82" r="7.51" transform="translate(50.78 104.34) rotate(-78)"/><path class="cls-5" d="M90.06,28.31a7.49,7.49,0,0,0,6.7-4.67,5.53,5.53,0,1,0-6.7,4.67Z"/><path class="cls-6" d="M88.29,28.91a8.14,8.14,0,0,0,9.44-6.14c1.18-4.35-2.13-8.37-6.13-9.45-4.35-1.17-8.37,2.13-9.45,6.14-1.17,4.34,2.13,8.37,6.14,9.45"/><path class="cls-7" d="M36,88.94a6.52,6.52,0,1,1,7.73-5A6.52,6.52,0,0,1,36,88.94Z"/><path class="cls-8" d="M37.6,89.07a6.51,6.51,0,0,0,5.82-4,4.8,4.8,0,1,0-5.82,4Z"/><path class="cls-6" d="M35.77,89.46a7,7,0,0,0,8.13-5.28c1-3.74-1.84-7.2-5.28-8.13-3.74-1-7.2,1.83-8.13,5.28-1,3.74,1.84,7.2,5.28,8.13"/><path class="cls-9" d="M22.56,46.66A4.7,4.7,0,1,1,28.13,43,4.7,4.7,0,0,1,22.56,46.66Z"/><path class="cls-10" d="M23.69,46.75a4.7,4.7,0,0,0,4.19-2.92,3.46,3.46,0,1,0-4.19,2.92Z"/><path class="cls-6" d="M22.34,47.1a5.31,5.31,0,0,0,6.15-4c.76-2.83-1.39-5.44-4-6.15-2.83-.76-5.45,1.39-6.15,4-.76,2.82,1.39,5.44,4,6.14"/></g></g></svg>