<svg xmlns="http://www.w3.org/2000/svg" viewBox="0 0 89.67 103.13"><defs><style>.cls-1{fill:#9bffff;}.cls-1,.cls-2,.cls-3{stroke:#000;stroke-linecap:round;stroke-linejoin:round;stroke-width:2px;}.cls-2{fill:none;}.cls-3{fill:#d6d6d6;}.cls-4{fill:#a6a6a6;}</style></defs><title>moonstone</title><g id="Layer_2" data-name="Layer 2"><g id="Layer_1-2" data-name="Layer 1"><path class="cls-1" d="M35.85,7.64A6.78,6.78,0,0,0,29.22,1c-3.75-.2-6.45,3.19-6.64,6.63-.2,3.75,3.19,6.45,6.64,6.64,3.74.2,6.45-3.19,6.63-6.64"/><path class="cls-2" d="M64.91,97.18a47.82,47.82,0,0,1-11.63,4.95"/><path class="cls-2" d="M67.79,15.74A48.36,48.36,0,0,1,70.3,93.47"/><path class="cls-2" d="M40.32,7.19A48.25,48.25,0,0,1,55.74,9.7"/><circle class="cls-3" cx="38.72" cy="55.92" r="37.71"/><path class="cls-2" d="M45.55,90.5c-1.78.16-3.14-.24-3.54-1.17-.66-1.56,1.6-4,5.05-5.48s6.79-1.4,7.45.15c.43,1-.4,2.44-2,3.7"/><path class="cls-2" d="M60.53,25.18c-.85,4-5.53,6.42-10.46,5.38s-8.23-5.15-7.38-9.16"/><path class="cls-2" d="M20.13,23.93c1.37.84,1.65,2.89.62,4.58s-3,2.38-4.35,1.55"/><path class="cls-4" d="M63.78,56.35C62.56,62.72,58.44,67.08,52,68.09c-8.16,1.29-10.74-6.45-7.3-8.74,2.58-1.72,15-2.72,7.3-14.74C50,41.42,65.28,48.47,63.78,56.35Z"/><path class="cls-2" d="M41.56,49.06a12.64,12.64,0,0,1,1.62-1.83,12,12,0,0,1,2.89-2"/><path class="cls-2" d="M51.52,44A12.07,12.07,0,1,1,39.3,55.62"/><path class="cls-4" d="M28.28,76.59c-3,3.51-5.22,3.4-8.67,2.52-3.64-.92-5.09-8.3-2.1-6.37,4.12,2.65,7.64-1,8.23-5.33C26.23,63.88,32.19,71.94,28.28,76.59Z"/><path class="cls-4" d="M24.71,49.85c-3.24.4-4.35-.69-5.69-2.73S20.5,40.6,21.09,43c.8,3.23,4.44,3,6.85,1.1C29.93,42.5,29,49.31,24.71,49.85Z"/><path class="cls-2" d="M17.49,68A7.08,7.08,0,0,1,21,66"/><path class="cls-2" d="M26.78,67.17a7,7,0,1,1-11.12,4.72"/><path class="cls-2" d="M29.07,42.81c1.15,2.54-.23,5.65-3.09,6.95s-6.11.3-7.27-2.24.23-5.64,3.09-6.94"/></g></g></svg>