<svg xmlns="http://www.w3.org/2000/svg" viewBox="0 0 106.48 106.48"><defs><style>.cls-1{fill:#ffd41d;opacity:0.2;}.cls-2{fill:#ffd60d;stroke:#000;stroke-linecap:round;stroke-linejoin:round;stroke-width:2px;}.cls-3{fill:#f99300;}.cls-4{fill:#ffba3e;}.cls-5,.cls-6{fill:#fff;}.cls-6{opacity:0.82;}</style></defs><title>spotlight</title><g id="Layer_2" data-name="Layer 2"><g id="Layer_1-2" data-name="Layer 1"><circle class="cls-1" cx="53.24" cy="53.24" r="53.24"/><circle class="cls-1" cx="53.24" cy="53.24" r="44.79" transform="translate(-2.85 103.47) rotate(-86.85)"/><circle class="cls-2" cx="53.24" cy="53.24" r="36.48"/><path class="cls-3" d="M40.4,67.84a1.92,1.92,0,0,1-1.93,1.93H23.7a1.92,1.92,0,0,1-1.93-1.93h0a1.93,1.93,0,0,1,1.93-1.93H38.47a1.93,1.93,0,0,1,1.93,1.93Z"/><path class="cls-4" d="M86.3,49.65a1.8,1.8,0,0,1-1.79,1.8H70.77A1.8,1.8,0,0,1,69,49.65h0a1.79,1.79,0,0,1,1.79-1.79H84.51a1.79,1.79,0,0,1,1.79,1.79Z"/><path class="cls-4" d="M86.72,41.76a1.79,1.79,0,0,1-1.8,1.79H71.19a1.8,1.8,0,0,1-1.8-1.79h0a1.8,1.8,0,0,1,1.8-1.8H84.92a1.79,1.79,0,0,1,1.8,1.8Z"/><path class="cls-3" d="M87.13,57.27c0,.91-1,1.64-2.32,1.64H67c-1.28,0-2.32-.73-2.32-1.64h0c0-.91,1-1.65,2.32-1.65H84.81c1.28,0,2.32.74,2.32,1.65Z"/><path class="cls-5" d="M65.26,27.15a3,3,0,1,1-3-3A3,3,0,0,1,65.26,27.15Z"/><circle class="cls-6" cx="71.26" cy="22.48" r="8.67"/></g></g></svg>