<svg xmlns="http://www.w3.org/2000/svg" viewBox="0 0 104.2 103.65"><defs><style>.cls-1{fill:#2eb4ff;}.cls-1,.cls-3{stroke:#000;}.cls-1,.cls-2{stroke-miterlimit:10;}.cls-1,.cls-2,.cls-3{stroke-width:2px;}.cls-2{fill:#b4ee94;stroke:#231f20;}.cls-3{fill:none;stroke-linecap:round;stroke-linejoin:round;}</style></defs><title>international</title><g id="Layer_2" data-name="Layer 2"><g id="Layer_1-2" data-name="Layer 1"><circle class="cls-1" cx="50.85" cy="53.03" r="43.89"/><path class="cls-2" d="M94.76,53A43,43,0,0,0,83.11,23.53c-6.1,2.74-10.76,8.14-8.29,13.82C82.37,54.76,63,55.76,62.55,64.52,62.29,70,67,81.22,74.88,89.36A43.14,43.14,0,0,0,94.76,53Z"/><path class="cls-2" d="M32.35,92.53c3.78,1.94,12.92,4.5,15.09,3.75C47,93.83,42.29,86.56,40,86.94c-7,1.16-5.59-5.94-8.71-6.88-2-.59-7.8,1-11.46,3.14A37.48,37.48,0,0,0,32.35,92.53Z"/><circle class="cls-2" cx="44.86" cy="68.17" r="4.53"/><circle class="cls-2" cx="34.26" cy="61.83" r="2.46"/><path class="cls-3" d="M51.77,1A52.16,52.16,0,0,1,67.23,3.57"/><path class="cls-3" d="M4.71,76.85c-.41-.8-.8-1.6-1.17-2.42A53.33,53.33,0,0,1,1,67.49"/><path class="cls-3" d="M34.94,102.65A51.86,51.86,0,0,1,7.18,81.16"/><path class="cls-3" d="M82.94,94.35l-1,.75"/><path class="cls-3" d="M92.31,85a52.11,52.11,0,0,1-7,7.4"/><path class="cls-3" d="M98.72,74.24c-.67,1.5-1.4,3-2.2,4.39"/><path class="cls-3" d="M93.76,23.22a52,52,0,0,1,8.15,41.37"/><path class="cls-3" d="M90.84,19.42c.33.39.65.79,1,1.19"/><path class="cls-3" d="M70,4.56c.59.23,1.16.46,1.74.71"/><path class="cls-2" d="M47.08,47.5c4.91-1,16.25-11.19,14.17-21.4A9.07,9.07,0,0,0,50.55,19C45.64,20,32,25.86,27.29,26.82A9.08,9.08,0,0,0,20.2,37.53c1,4.91,6.73,10.15,10.7,7.09C39.18,38.23,42.34,48.46,47.08,47.5Z"/></g></g></svg>