<svg xmlns="http://www.w3.org/2000/svg" viewBox="0 0 90.41 90.41"><defs><style>.cls-1{fill:#9bffff;}.cls-1,.cls-2,.cls-3,.cls-4,.cls-5,.cls-6{stroke:#000;stroke-width:2px;}.cls-1,.cls-2,.cls-3,.cls-4,.cls-6{stroke-linecap:round;stroke-linejoin:round;}.cls-2{fill:#f7f7f7;}.cls-3{fill:#d6d6d6;}.cls-4{fill:#c4c4c4;}.cls-5{fill:#f55;stroke-miterlimit:10;}.cls-6{fill:none;}</style></defs><title>core</title><g id="Layer_2" data-name="Layer 2"><g id="Layer_1-2" data-name="Layer 1"><circle class="cls-1" cx="45.24" cy="45.17" r="43.89"/><path class="cls-2" d="M45.37,1V44.37H88.71A43.52,43.52,0,0,0,78,15.7C71.72,8.3,61.62,2.14,45.37,1Z"/><path d="M45.2,0V2h0A43.2,43.2,0,1,1,4.14,31.82,43.16,43.16,0,0,1,45.2,2V0m0,0a45.24,45.24,0,1,0,14,2.24A45.2,45.2,0,0,0,45.19,0Z"/><path class="cls-3" d="M45.2,44.37,26,60S20.37,25,45.37,1.37Z"/><path class="cls-4" d="M45.2,44.37,26,60a67.52,67.52,0,0,0,35.72,0s17.83-4.14,26.95-15.62Z"/><path class="cls-5" d="M45.21,30.08s5.29-.81,10,4.27a15.56,15.56,0,0,1,4.06,11.17S55.86,50,51.72,51.21a22.59,22.59,0,0,1-14-.41s-3.05-6.09.41-14.22C38.11,36.58,41.56,29.88,45.21,30.08Z"/><line class="cls-6" x1="19.55" y1="79.7" x2="26.72" y2="75.06"/><path class="cls-6" d="M33,87.28c-.11,0,10.25-2.5,14.75-10.58"/><path class="cls-6" d="M25.46,84A33.57,33.57,0,0,0,40.29,73.4"/></g></g></svg>