<?xml version="1.0" encoding="UTF-8"?>
<svg width="90px" height="83px" viewBox="0 0 90 83" version="1.1" xmlns="http://www.w3.org/2000/svg" xmlns:xlink="http://www.w3.org/1999/xlink">
    <!-- Generator: Sketch 48.1 (47250) - http://www.bohemiancoding.com/sketch -->
    <title>Page 1illu</title>
    <desc>Created with Sketch.</desc>
    <defs>
        <polygon id="path-1" points="0 0.702082353 68.5314053 0.702082353 68.5314053 83 0 83"></polygon>
        <polygon id="path-3" points="0.08108 0.534111111 10.96388 0.534111111 10.96388 21.9957222 0.08108 21.9957222"></polygon>
    </defs>
    <g id="Enact---Game-Details-Page" stroke="none" stroke-width="1" fill="none" fill-rule="evenodd" transform="translate(-247.000000, -579.000000)">
        <g id="Page-1" transform="translate(247.000000, 579.000000)">
            <path d="M56.9488766,82 L11.0511234,82 C5.52221998,82 1,77.4243791 1,71.83141 L1,12.1698128 C1,6.57562094 5.52221998,2 11.0511234,2 L56.9488766,2 C62.4765715,2 67,6.57562094 67,12.1698128 L66.5806493,73.4405808 C66.5806493,80.1364922 62.4765715,82 56.9488766,82" id="Fill-1" fill="#FA58B1"></path>
            <g id="Group-5">
                <mask id="mask-2" fill="white">
                    <use xlink:href="#path-1"></use>
                </mask>
                <g id="Clip-4"></g>
                <path d="M11.2783526,3.14325882 C6.39387895,3.14325882 2.42093158,7.14922941 2.42093158,12.0730824 L2.42093158,71.6280235 C2.42093158,76.5530971 6.39387895,80.5590676 11.2783526,80.5590676 L57.2529316,80.5590676 C63.1675632,80.5590676 65.6915105,78.3693324 65.6915105,73.2355382 L66.1103526,12.0657588 C66.1103526,7.14922941 62.1374053,3.14325882 57.2529316,3.14325882 L11.2783526,3.14325882 Z M57.2529316,83.0002441 L11.2783526,83.0002441 C5.05987895,83.0002441 -0.000121052632,77.8981853 -0.000121052632,71.6280235 L-0.000121052632,12.0730824 C-0.000121052632,5.80414118 5.05987895,0.702082353 11.2783526,0.702082353 L57.2529316,0.702082353 C63.4726158,0.702082353 68.5314053,5.80414118 68.5314053,12.0730824 L68.1125632,73.2440824 C68.1125632,79.7144206 64.4591947,83.0002441 57.2529316,83.0002441 Z" id="Fill-3" fill="#000000" mask="url(#mask-2)"></path>
            </g>
            <path d="M68,59 C68,59 66.8789749,65.6043519 62.8740913,65.6043519 L15.7763671,65.6043519 L12.7323622,65.6043519 C12.7323622,65.6043519 6.96464523,67.5903275 9.76904172,73.6490277 C9.76904172,73.6490277 11.1296752,76 14.9744124,76 L60.3899877,76 C60.3899877,76 67.5195607,74.9148413 67.5195607,68.7664281 L68,59 Z" id="Fill-6" fill="#FFFFFF"></path>
            <path d="M11.0422382,72.9244852 C11.2279255,73.1873055 12.3566127,74.5998146 15.1443488,74.5998146 L60.1304234,74.5998146 C60.8755997,74.4678044 66.0954747,73.3697196 66.0954747,68.7373617 L66.2690255,65.2510924 C65.3721439,66.1847645 64.2046202,66.8496159 62.6972766,66.8496159 L13.1515483,66.8496159 C12.6758006,67.0536317 11.2716166,67.7580861 10.6914956,69.1249917 C10.2473026,70.1738727 10.3650259,71.4507713 11.0422382,72.9244852 M60.2311557,77 L15.1443488,77 C10.6817865,77 8.99603749,74.2265858 8.92685988,74.1077766 C7.86128205,71.8552026 7.72414049,69.8906508 8.46567586,68.1685178 C9.60164494,65.5295139 12.406372,64.5538386 12.5253089,64.5130354 C12.6515277,64.4710322 12.7850284,64.4494305 12.918529,64.4494305 L62.6972766,64.4494305 C65.5529766,64.4494305 66.5809316,59.0502134 66.5906407,58.9962092 C66.6998685,58.3709609 67.2763485,57.9377275 67.9195789,58.0073328 C68.5579547,58.0781383 69.0300615,58.6253806 68.9985068,59.2590295 L68.5203318,68.7973664 C68.522759,74.3021916 63.2179291,76.5667665 60.413202,76.986799 C60.3525199,76.9963997 60.2930514,77 60.2311557,77" id="Fill-8" fill="#000000"></path>
            <polygon id="Fill-10" fill="#EBEBEB" points="11 1.16973008 11 19.9572622 15.4560758 14.0753213 20 20 20 1"></polygon>
            <g id="Group-14" transform="translate(10.000000, 0.000000)">
                <mask id="mask-4" fill="white">
                    <use xlink:href="#path-3"></use>
                </mask>
                <g id="Clip-13"></g>
                <path d="M5.48108,13.6210556 C5.86268,13.6210556 6.22148,13.8056111 6.44828,14.1185 L8.56388,17.0493889 L8.56388,3.00238889 L2.48108,3.12338889 L2.48108,16.9687222 L4.51028,14.1246111 C4.73468,13.8092778 5.09468,13.6222778 5.47748,13.6210556 L5.48108,13.6210556 Z M9.76388,21.9957222 C9.38948,21.9957222 9.02828,21.8160556 8.79788,21.4970556 L5.48708,16.9137222 L2.25188,21.4481667 C1.94708,21.8771667 1.40588,22.0580556 0.91028,21.8930556 C0.41588,21.7292778 0.08108,21.2599444 0.08108,20.7295 L0.08108,1.92561111 C0.08108,1.2595 0.60428,0.715611111 1.25708,0.703388889 L9.74108,0.5335 C10.07348,0.560388889 10.37468,0.6545 10.60508,0.883055556 C10.83428,1.11283333 10.96388,1.42694444 10.96388,1.75572222 L10.96388,20.7735 C10.96388,21.3002778 10.63148,21.7696111 10.13828,21.9346111 C10.01588,21.9749444 9.88868,21.9957222 9.76388,21.9957222 Z" id="Fill-12" fill="#000000" mask="url(#mask-4)"></path>
            </g>
            <path d="M73.7379149,68.0803189 L58.8710481,53.1241133 C57.7096506,51.9557366 57.7096506,50.0449669 58.8710481,48.8753591 C60.0312218,47.7082136 61.9318016,47.7082136 63.0931991,48.8753591 L78.1693377,64.0433253 C79.2768874,65.1575306 79.2768874,66.9661136 78.1693377,68.0803189 C76.950421,69.3065604 74.9568315,69.3065604 73.7379149,68.0803189" id="Fill-15" fill="#EBEBEB"></path>
            <path d="M61.1261581,48.4120812 C60.6831694,48.4120812 60.2413811,48.5822393 59.9040374,48.9201418 C59.5798993,49.2459764 59.401023,49.6828361 59.401023,50.1486589 C59.401023,50.6156885 59.5798993,51.0525482 59.9040374,51.377176 L74.4878513,66.0373188 L74.4890519,66.0373188 C75.1913511,66.7432938 76.4338805,66.7457074 77.1373803,66.0373188 C77.7556437,65.4170263 77.7556437,64.4081459 77.1373803,63.7866466 L62.3482788,48.9201418 C62.0109351,48.5822393 61.5691469,48.4120812 61.1261581,48.4120812 M75.8132161,69 C74.6691286,69 73.5958713,68.5534859 72.7903281,67.7449334 L58.2065141,53.0835838 C57.4285826,52.3027876 57,51.2601169 57,50.1486589 C57,49.0384077 57.4285826,47.995737 58.2053136,47.213734 C59.8164,45.596629 62.4359162,45.5942154 64.0458021,47.213734 L78.8349036,62.0802388 C80.3883655,63.6418312 80.3883655,66.183341 78.8349036,67.7449334 C78.0305608,68.5534859 76.9573035,69 75.8132161,69" id="Fill-17" fill="#000000"></path>
            <path d="M67,34 C67,45.5978356 57.5983826,55 46,55 C34.4016174,55 25,45.5978356 25,34 C25,22.4021644 34.4016174,13 46,13 C57.5983826,13 67,22.4021644 67,34" id="Fill-19" fill="#FFFFFF"></path>
            <path d="M45,14.419244 C34.2032109,14.419244 25.4191775,23.2035189 25.4191775,33.9993952 C25.4191775,44.7964811 34.2032109,53.580756 45,53.580756 C55.7967891,53.580756 64.5808225,44.7964811 64.5808225,33.9993952 C64.5808225,23.2035189 55.7967891,14.419244 45,14.419244 M45,56 C32.8690345,56 23,46.1306942 23,33.9993952 C23,21.8693058 32.8690345,12 45,12 C57.1309655,12 67,21.8693058 67,33.9993952 C67,46.1306942 57.1309655,56 45,56" id="Fill-21" fill="#000000"></path>
            <path d="M59,34 C59,41.7325651 52.7316308,48 45.0006019,48 C37.2683692,48 31,41.7325651 31,34 C31,26.2674349 37.2683692,20 45.0006019,20 C52.7316308,20 59,26.2674349 59,34" id="Fill-23" fill="#9BFFFF"></path>
            <path d="M45.5,21.4546678 C38.3065959,21.4546678 32.4546678,27.3078233 32.4546678,34.5 C32.4546678,41.6921767 38.3065959,47.5453322 45.5,47.5453322 C52.6934041,47.5453322 58.5453322,41.6921767 58.5453322,34.5 C58.5453322,27.3078233 52.6934041,21.4546678 45.5,21.4546678 M45.5,50 C36.9528466,50 30,43.0471534 30,34.5 C30,25.9528466 36.9528466,19 45.5,19 C54.0471534,19 61,25.9528466 61,34.5 C61,43.0471534 54.0471534,50 45.5,50" id="Fill-25" fill="#000000"></path>
            <path d="M79.6406569,76.5368864 L64.38292,61.1554362 C62.5390267,59.2953819 62.5390267,56.2529771 64.38292,54.394133 C66.2280137,52.535289 69.244748,52.535289 71.0898418,54.394133 L86.6801037,70.1108045 C88.4399654,71.8849356 88.4399654,74.7615452 86.6801037,76.5368864 C84.7437757,78.4877045 81.5769849,78.4877045 79.6406569,76.5368864" id="Fill-27" fill="#9BFFFF"></path>
            <path d="M81.1013219,75.3936726 C82.6064641,76.9095903 85.0561536,76.9095903 86.5600691,75.3936726 C87.8763019,74.0667814 87.8775286,71.9071856 86.5600691,70.5802943 L70.629114,54.535288 C69.2171998,53.1145013 66.920846,53.1157368 65.5101585,54.535288 C64.099471,55.9573102 64.099471,58.2701039 65.5113852,59.6908906 L81.1013219,75.3936726 Z M83.8306955,79 C82.213925,79 80.5971544,78.3797957 79.3667896,77.1406226 L63.7756262,61.4378406 C61.4081246,59.0521543 61.4081246,55.1727888 63.7756262,52.7883381 C66.1431278,50.4038873 69.994918,50.4038873 72.3636463,52.7883381 L88.2946014,68.8333444 C90.5676483,71.1238997 90.5688749,74.8500673 88.2958281,77.1406226 C87.0642366,78.3797957 85.447466,79 83.8306955,79 Z" id="Fill-29" fill="#000000"></path>
            <path d="M37.9614567,43 C37.642665,43 37.3238734,42.8780251 37.0810438,42.6353198 C32.6802243,38.2367542 33.0363744,30.722849 37.8767777,25.8849247 C40.2042059,23.5586883 43.2152929,22.1858479 46.3546438,22.0203105 C49.5388247,21.8336142 52.4864024,22.9401011 54.6357556,25.0883536 C55.1214148,25.5750087 55.1214148,26.3628673 54.6357556,26.8482777 C54.1488511,27.3349329 53.3605889,27.3349329 52.8749297,26.8482777 C51.2311601,25.2065946 48.9672411,24.3826415 46.4878887,24.5058611 C43.9624609,24.6390378 41.5291838,25.7554819 39.6376036,27.6448488 C35.7685187,31.5119522 35.4123686,37.4464064 38.8418697,40.8753957 C39.3287741,41.3620508 39.3287741,42.1486647 38.8418697,42.6353198 C38.5990401,42.8780251 38.2802484,43 37.9614567,43" id="Fill-31" fill="#000000"></path>
        </g>
    </g>
</svg>