<?xml version="1.0" encoding="UTF-8"?>
<svg width="107px" height="192px" viewBox="0 0 107 192" version="1.1" xmlns="http://www.w3.org/2000/svg" xmlns:xlink="http://www.w3.org/1999/xlink">
    <!-- Generator: Sketch 48.1 (47250) - http://www.bohemiancoding.com/sketch -->
    <title>Page 1getstart_illu</title>
    <desc>Created with Sketch.</desc>
    <defs>
        <polygon id="path-1" points="0.837 0.766204819 53.2986923 0.766204819 53.2986923 113.722114 0.837 113.722114"></polygon>
    </defs>
    <g id="Enact---Game-Details-Page" stroke="none" stroke-width="1" fill="none" fill-rule="evenodd" transform="translate(-313.000000, -216.000000)">
        <g id="Page-1" transform="translate(313.000000, 216.000000)">
            <path d="M68.136301,192 C62.5115224,192 57.0545052,188.918554 54.1684646,183.481702 C53.8056636,182.799282 54.0484402,181.945201 54.7085743,181.570925 C55.3700722,181.198056 56.1993315,181.447104 56.5607686,182.129525 C60.046931,188.699054 68.0640136,191.113557 74.4321249,187.519944 C80.7988723,183.92211 83.1434393,175.651453 79.6572769,169.081924 C79.2958398,168.40091 79.5372525,167.546829 80.1987505,167.172553 C80.8588845,166.799684 81.6895077,167.051547 82.0495808,167.731153 C86.2586174,175.661303 83.4284972,185.645749 75.7428456,189.987914 C73.3273551,191.352756 70.7140972,192 68.136301,192" id="Fill-1" fill="#000000"></path>
            <path d="M26.1684646,172.481702 C25.8056636,171.799282 26.0484402,170.945201 26.7085743,170.570925 C27.3700722,170.198056 28.1993315,170.447104 28.5607686,171.129525 C32.046931,177.699054 40.0640136,180.113557 46.4321249,176.519944 C52.7988723,172.92211 55.1434393,164.651453 51.6572769,158.081924 C51.2958398,157.40091 51.5372525,156.546829 52.1987505,156.172553 C52.8588845,155.799684 53.6895077,156.051547 54.0495808,156.731153 C58.2586174,164.661303 55.4284972,174.645749 47.7428456,178.987914 C45.3273551,180.352756 42.7140972,181 40.136301,181 C34.5115224,181 29.0545052,177.918554 26.1684646,172.481702 Z" id="Fill-1" fill="#000000" transform="translate(41.000000, 168.500000) scale(-1, 1) translate(-41.000000, -168.500000) "></path>
            <path d="M90.8992609,162 C87.4198171,162 83.9499321,160.601489 81.3744882,157.828148 C80.8555758,157.269579 80.8787903,156.389242 81.4263794,155.859925 C81.9739685,155.332001 82.8383672,155.354288 83.3572796,155.912857 C87.2928201,160.15157 93.8775447,160.334045 98.0343058,156.319595 C102.189701,152.305145 102.367224,145.589786 98.4330489,141.34968 C97.9141366,140.791111 97.9359855,139.910774 98.4849402,139.381457 C99.0325293,138.853533 99.896928,138.87582 100.414475,139.434389 C105.385109,144.788846 105.159792,153.271844 99.9119491,158.343535 C97.3815687,160.78675 94.1370009,162 90.8992609,162" id="Fill-3" fill="#000000"></path>
            <path d="M13.3801933,166 C13.2562597,166 13.1323261,165.998635 13.007,165.994539 C9.43799093,165.90034 6.11824153,164.447768 3.66324229,161.904401 C1.20685054,159.363764 -0.0923634637,156.035406 0.00511239945,152.535034 C0.10119575,149.034662 1.58282887,145.78139 4.17707934,143.373178 C4.73547679,142.857132 5.61693709,142.87761 6.14469927,143.426421 C6.67385395,143.973866 6.65018124,144.838037 6.0917838,145.355448 C4.03782811,147.262632 2.86533273,149.838764 2.78874455,152.608755 C2.71215637,155.380111 3.73983047,158.014946 5.6851702,160.027251 C7.62911741,162.04092 10.2567882,163.190419 13.0835882,163.265505 C15.9076032,163.343321 18.597937,162.331708 20.6505002,160.425889 C21.2088977,159.909844 22.090358,159.930322 22.6181201,160.479132 C23.1472748,161.025212 23.1236021,161.889383 22.5652047,162.408159 C20.06286,164.731729 16.8127362,166 13.3801933,166" id="Fill-5" fill="#000000"></path>
            <path d="M68.5174711,127.284475 L68.5312348,127.284475 L68.5174711,127.284475 Z M67.9283871,128.790504 C66.9497918,128.790504 66.0056057,128.258001 65.5307599,127.33636 L65.2940252,126.873491 C64.9678268,126.238583 64.9113958,125.51629 65.1329905,124.84042 C65.3545852,124.163185 65.829431,123.612931 66.4694406,123.290698 C67.1080738,122.968465 67.8347943,122.912484 68.5174711,123.130947 C69.1987716,123.352141 69.7520702,123.821836 70.0782686,124.455379 L70.3163797,124.919613 C70.9880456,126.229025 70.460898,127.834729 69.1423407,128.501041 C69.1423407,128.501041 69.1409643,128.501041 69.1409643,128.502406 C68.7528295,128.697657 68.3371674,128.790504 67.9283871,128.790504 Z M71.721648,136.195035 C71.4436223,136.195035 71.1628439,136.151342 70.8903237,136.062592 C70.2076469,135.842763 69.6515956,135.371702 69.3267735,134.73816 L69.0886624,134.27256 C68.7652168,133.640383 68.7087858,132.91809 68.9303805,132.24222 C69.1519752,131.56635 69.626821,131.014731 70.2668306,130.692498 C70.902711,130.370265 71.6321843,130.312918 72.3148611,130.534112 C72.9961616,130.755306 73.5508365,131.225001 73.877035,131.85991 L74.1123933,132.324143 C74.4385917,132.956321 74.4950227,133.678614 74.273428,134.354484 C74.0518333,135.030354 73.5783638,135.580608 72.9383543,135.902841 C72.5557249,136.096727 72.1400628,136.195035 71.721648,136.195035 Z M76.1108747,142.08944 L76.123262,142.08944 L76.1108747,142.08944 Z M75.5217907,143.595469 C74.5431954,143.595469 73.5976329,143.062966 73.1241635,142.13996 L72.8874288,141.678456 C72.5612304,141.044914 72.5047994,140.32262 72.7277705,139.64675 C72.9493652,138.969515 73.4228346,138.419261 74.0628442,138.097028 C74.7014774,137.774796 75.4309506,137.718814 76.1108747,137.938643 C76.7935516,138.158471 77.3482265,138.629532 77.6730486,139.263075 L77.9097833,139.725943 C78.2359817,140.358121 78.2924127,141.080414 78.0694416,141.757649 C77.8478469,142.433519 77.3743775,142.983773 76.7357443,143.306006 C76.7357443,143.306006 76.7343679,143.306006 76.7343679,143.307371 C76.3448567,143.502623 75.930571,143.595469 75.5217907,143.595469 Z M79.3191807,151 C78.3405854,151 77.3950229,150.467496 76.9215535,149.545856 L76.6834424,149.078891 C76.3586204,148.448079 76.3021894,147.725786 76.5237841,147.049916 C76.7467552,146.37268 77.2202246,145.822427 77.8602342,145.498828 C78.4988673,145.177961 79.2269642,145.120614 79.9068884,145.340443 C80.5895652,145.560271 81.1456165,146.031332 81.4704386,146.664875 L81.7085496,147.131839 C82.0319953,147.762651 82.0884263,148.484945 81.8668316,149.160815 C81.6452369,149.836684 81.1717674,150.386938 80.5317579,150.710537 C80.1422467,150.907153 79.727961,151 79.3191807,151 Z" id="Fill-7" fill="#000000"></path>
            <path d="M40.1387513,126.157076 C40.1442574,126.146152 40.1456339,126.133862 40.1456339,126.122938 L40.1387513,126.157076 Z M40.0726786,128.789801 C39.6638535,128.789801 39.2495224,128.696945 38.8599685,128.50031 C37.5398902,127.833936 37.0126848,126.226718 37.6844243,124.918548 L37.6858009,124.917183 L37.923938,124.454271 C38.594301,123.146102 40.2144597,122.624473 41.5331614,123.288116 C42.8532397,123.955856 43.3790686,125.561709 42.7087056,126.871244 L42.4691919,127.335521 C41.9970471,128.257247 41.051381,128.789801 40.0726786,128.789801 Z M36.3395688,133.559565 L36.3409453,133.559565 C36.3464514,133.548641 36.3492044,133.537717 36.3478279,133.525427 L36.3395688,133.559565 Z M36.2748726,136.19229 C35.8660475,136.19229 35.4517163,136.099435 35.0621625,135.904165 C33.7434607,135.236425 33.2162553,133.630573 33.8866183,132.321038 C33.8879948,132.321038 33.8879948,132.321038 33.8879948,132.319672 L34.126132,131.856761 C34.4496131,131.224525 35.0057253,130.75342 35.6871005,130.533571 C36.3684756,130.312356 37.0966523,130.368343 37.7367319,130.691971 C38.3754351,131.014234 38.8489564,131.564539 39.0719519,132.241838 C39.2935709,132.917771 39.2371337,133.640131 38.9108996,134.273733 L38.6727624,134.73801 C38.1992411,135.659737 37.253575,136.19229 36.2748726,136.19229 Z M31.3180405,140.344839 L31.3318057,140.344839 L31.3180405,140.344839 Z M32.5500218,140.941572 L32.5445158,140.962055 C32.5472688,140.956593 32.5486453,140.9484 32.5500218,140.941572 Z M32.4798196,143.596145 C32.0709945,143.596145 31.6552868,143.50329 31.2671095,143.30802 C30.6270298,142.984392 30.152132,142.434087 29.930513,141.756788 C29.708894,141.080855 29.7653312,140.35986 30.0901888,139.726258 L30.3269495,139.264712 C30.9973125,137.955178 32.6174711,137.432183 33.9375494,138.097192 C34.5776291,138.419455 35.0525269,138.96976 35.2741458,139.645693 C35.4957648,140.322991 35.4393277,141.043986 35.1144701,141.678953 L34.8777094,142.1405 C34.4028116,143.063592 33.4571455,143.596145 32.4798196,143.596145 Z M28.7467098,148.368641 C28.7522158,148.357717 28.7535923,148.345427 28.7535923,148.334503 L28.7467098,148.368641 Z M28.680637,151 C28.2718119,151 27.8561043,150.907145 27.4679269,150.711875 C26.1478487,150.044135 25.6206433,148.438283 26.2910063,147.128748 L26.2923828,147.128748 L26.5305199,146.665836 C26.8553776,146.032235 27.4101133,145.56113 28.0928649,145.341281 C28.7756166,145.120066 29.5037932,145.178784 30.1411199,145.501047 C31.4598216,146.167421 31.987027,147.773274 31.316664,149.082808 L31.0771504,149.54572 C30.603629,150.468812 29.6593395,151 28.680637,151 Z" id="Fill-9" fill="#000000"></path>
            <path d="M53.5634453,126.178333 L53.5762625,126.178333 L53.5634453,126.178333 Z M53.4993591,128.83603 C52.1215073,128.83603 51,127.643474 51,126.178333 L51,125.65906 C51,124.192556 52.1215073,123 53.4993591,123 C54.8784927,123 56,124.192556 56,125.65906 L56,126.178333 C56,127.643474 54.8784927,128.83603 53.4993591,128.83603 Z M53.5634453,134.468985 L53.5762625,134.468985 L53.5634453,134.468985 Z M53.4993591,137.126682 C52.1215073,137.126682 51,135.934125 51,134.468985 L51,133.949712 C51,132.483208 52.1215073,131.290652 53.4993591,131.290652 C54.8784927,131.290652 56,132.483208 56,133.949712 L56,134.468985 C56,135.934125 54.8784927,137.126682 53.4993591,137.126682 Z M53.5634453,142.759637 L53.5762625,142.759637 L53.5634453,142.759637 Z M53.4993591,145.417334 C52.1215073,145.417334 51,144.224777 51,142.759637 L51,142.241726 C51,140.775223 52.1215073,139.582666 53.4993591,139.582666 C54.8784927,139.582666 56,140.775223 56,142.241726 L56,142.759637 C56,144.224777 54.8784927,145.417334 53.4993591,145.417334 Z M53.5634453,151.051651 L53.5762625,151.051651 L53.5634453,151.051651 Z M53.4993591,153.709348 C52.1215073,153.709348 51,152.516792 51,151.051651 L51,150.532378 C51,149.065875 52.1215073,147.873318 53.4993591,147.873318 C54.8784927,147.873318 56,149.065875 56,150.532378 L56,151.051651 C56,152.516792 54.8784927,153.709348 53.4993591,153.709348 Z M53.5634453,159.342303 L53.5762625,159.342303 L53.5634453,159.342303 Z M53.4993591,162 C52.1215073,162 51,160.807444 51,159.342303 L51,158.82303 C51,157.356526 52.1215073,156.16397 53.4993591,156.16397 C54.8784927,156.16397 56,157.356526 56,158.82303 L56,159.342303 C56,160.807444 54.8784927,162 53.4993591,162 Z" id="Fill-11" fill="#000000"></path>
            <path d="M45,28 L45,30 L45,28 Z" id="Fill-13" fill="#FFFFFF"></path>
            <path d="M45.4992109,32 C44.6722777,32 44,31.377563 44,30.6072056 L44,28.3927944 C44,27.6239016 44.6722777,27 45.4992109,27 C46.3277223,27 47,27.6239016 47,28.3927944 L47,30.6072056 C47,31.377563 46.3277223,32 45.4992109,32" id="Fill-15" fill="#63246B"></path>
            <path d="M45,38 L45,40 L45,38 Z" id="Fill-17" fill="#FFFFFF"></path>
            <path d="M45.4992109,42 C44.6722777,42 44,41.3777452 44,40.6076135 L44,38.3923865 C44,37.6222548 44.6722777,37 45.4992109,37 C46.3277223,37 47,37.6222548 47,38.3923865 L47,40.6076135 C47,41.3777452 46.3277223,42 45.4992109,42" id="Fill-19" fill="#63246B"></path>
            <path d="M51,34 L49,34 L51,34 Z" id="Fill-21" fill="#FFFFFF"></path>
            <path d="M51.6098917,36 L49.3915716,36 C48.6233538,36 48,35.3293004 48,34.4992109 C48,33.6706996 48.6233538,33 49.3915716,33 L51.6098917,33 C52.3766462,33 53,33.6706996 53,34.4992109 C53,35.3293004 52.3766462,36 51.6098917,36" id="Fill-23" fill="#63246B"></path>
            <path d="M41,34 L39,34 L41,34 Z" id="Fill-25" fill="#FFFFFF"></path>
            <path d="M41.6098917,36 L39.3915716,36 C38.6248171,36 38,35.3293004 38,34.4992109 C38,33.6706996 38.6248171,33 39.3915716,33 L41.6098917,33 C42.3766462,33 43,33.6706996 43,34.4992109 C43,35.3293004 42.3766462,36 41.6098917,36" id="Fill-27" fill="#63246B"></path>
            <polygon id="Fill-29" fill="#FFFFFF" points="96 87.9213628 96 103 10 103 10 87.9213628 52.9965436 75"></polygon>
            <path d="M11.7724561,101.195157 L95.2275439,101.195157 L95.2275439,88.4583662 L53.4979207,75.8660246 L11.7724561,88.4583662 L11.7724561,101.195157 Z M96.6137719,104 L10.3862281,104 C9.61964394,104 9,103.371715 9,102.597579 L9,87.4135623 C9,86.793692 9.40200614,86.2467477 9.98976683,86.0700426 L53.1000732,73.058377 C53.3606841,72.9812438 53.633771,72.9798414 53.8943819,73.058377 L97.0102332,86.0700426 C97.5979939,86.2467477 98,86.793692 98,87.4135623 L98,102.597579 C98,103.371715 97.3803561,104 96.6137719,104 Z" id="Fill-31" fill="#000000"></path>
            <path d="M106,116 L95,116 L95,80.7792466 C96.6473974,65.0735845 104.355416,65.0735845 106,80.7792466 L106,116 Z" id="Fill-33" fill="#FFFFFF"></path>
            <path d="M95.8516142,115.241379 L104.148386,115.241379 L104.148386,81.2910345 C103.297179,73.3351724 100.990223,70.7586207 100.000713,70.7586207 C99.0140544,70.7586207 96.7056727,73.3351724 95.8516142,81.2910345 L95.8516142,115.241379 Z M105.574193,118 L94.4258071,118 C93.6373358,118 93,117.382069 93,116.62069 L93,81.2193103 C93,81.1724138 93.0028516,81.1268966 93.007129,81.08 C93.872594,72.8896552 96.4875242,68 100.000713,68 C103.515327,68 106.128832,72.8896552 106.992871,81.08 C106.997148,81.1268966 107,81.1724138 107,81.2193103 L107,116.62069 C107,117.382069 106.362664,118 105.574193,118 Z" id="Fill-35" fill="#333366"></path>
            <path d="M14,116 L3,116 L3,80.7792466 C4.64859335,65.0735845 12.3556266,65.0735845 14,80.7792466 L14,116 Z" id="Fill-37" fill="#FFFFFF"></path>
            <path d="M3.85132383,115.241379 L12.1486762,115.241379 L12.1486762,81.2910345 C11.297556,73.3351724 8.98940937,70.7586207 8.00142566,70.7586207 C7.01486762,70.7586207 4.70529532,73.3351724 3.85132383,81.2910345 L3.85132383,115.241379 Z M13.5743381,118 L2.42566191,118 C1.63727088,118 1,117.382069 1,116.62069 L1,81.2193103 C1,81.1724138 1.00285132,81.1268966 1.00712831,81.0786207 C1.87393075,72.8896552 4.4885947,68 8.00142566,68 C11.5156823,68 14.1289206,72.8896552 14.9928717,81.08 C14.9971487,81.1268966 15,81.1724138 15,81.2193103 L15,116.62069 C15,117.382069 14.3627291,118 13.5743381,118 Z" id="Fill-39" fill="#000000"></path>
            <path d="M34.0463974,108.700745 L28,117.449898 C28,117.449898 30.0099553,122 54.2038106,122 C75.3076523,122 81,117.566463 81,117.566463 L74.952225,108" id="Fill-41" fill="#FFFFFF"></path>
            <path d="M27.3838178,116.993033 L27.3976545,116.993033 L27.3838178,116.993033 Z M53.7025658,123 C29.7111473,123 26.512107,118.454784 26.1149943,117.541879 C25.9254318,117.10887 25.9724765,116.608289 26.2395244,116.21803 L32.312443,107.316521 C32.7413801,106.686314 33.6006379,106.52497 34.2343578,106.951084 C34.8653104,107.378577 35.0299668,108.236321 34.6010298,108.866528 L29.1881208,116.801351 C30.8153143,117.854914 36.4164021,120.24198 53.7025658,120.24198 C69.1816591,120.24198 76.2148432,117.785964 78.6791558,116.619322 L73.3658709,108.108073 C72.9632236,107.459938 73.1624717,106.610468 73.811412,106.207797 C74.4575849,105.806505 75.3140754,106.003704 75.7181064,106.650459 L81.7910251,116.383511 C82.1632317,116.979243 82.0262486,117.757005 81.4755488,118.192772 C81.2251049,118.388591 75.1341986,123 53.7025658,123 Z" id="Fill-43" fill="#000000"></path>
            <path d="M53.9993034,112 C40.2499652,112 29,108.785413 29,101.464068 L29,56.8208739 C29,43.1699466 40.2499652,2 53.9993034,2 C67.7500348,2 79,43.1699466 79,56.8208739 L79,101.464068 C79,109.857403 67.7500348,112 53.9993034,112" id="Fill-45" fill="#6699FF"></path>
            <g id="Group-49" transform="translate(27.000000, 0.000000)">
                <mask id="mask-2" fill="white">
                    <use xlink:href="#path-1"></use>
                </mask>
                <g id="Clip-48"></g>
                <path d="M27.0671538,3.53687349 C15.0154615,3.53687349 3.60623077,42.4886205 3.60623077,57.0659096 L3.60623077,101.784283 C3.60623077,108.542958 15.7257692,110.95103 27.0671538,110.95103 C42.8545385,110.95103 50.5294615,107.952717 50.5294615,101.784283 L50.5294615,57.0659096 C50.5294615,42.4886205 39.1202308,3.53687349 27.0671538,3.53687349 M27.0671538,113.722114 C10.6428462,113.722114 0.837,109.259283 0.837,101.784283 L0.837,57.0659096 C0.837,43.8741627 12.0163846,0.765789157 27.0671538,0.765789157 C42.1193077,0.765789157 53.2986923,43.8741627 53.2986923,57.0659096 L53.2986923,101.784283 C53.2986923,112.484825 38.3282308,113.722114 27.0671538,113.722114" id="Fill-47" fill="#463464" mask="url(#mask-2)"></path>
            </g>
            <path d="M60,116 L49,116 L49,80.7792466 C50.6485934,65.0735845 58.3556266,65.0735845 60,80.7792466 L60,116 Z" id="Fill-50" fill="#FFFFFF"></path>
            <path d="M49.8513238,115.241379 L58.1486762,115.241379 L58.1486762,81.2910345 C57.297556,73.3351724 54.9894094,70.7586207 54.0014257,70.7586207 C53.0148676,70.7586207 50.7052953,73.3351724 49.8513238,81.2910345 L49.8513238,115.241379 Z M59.5743381,118 L48.4256619,118 C47.6372709,118 47,117.382069 47,116.62069 L47,81.2193103 C47,81.1724138 47.0028513,81.1268966 47.0071283,81.0786207 C47.8739308,72.8896552 50.4885947,68 54.0014257,68 C57.5156823,68 60.1289206,72.8896552 60.9928717,81.08 C60.9971487,81.1268966 61,81.1724138 61,81.2193103 L61,116.62069 C61,117.382069 60.3627291,118 59.5743381,118 Z" id="Fill-52" fill="#000000"></path>
            <path d="M35,76 L35,108 L35,76 Z" id="Fill-54" fill="#FFFFFF"></path>
            <path d="M34.5,110 C33.6705,110 33,109.384664 33,108.626481 L33,76.3735186 C33,75.6139628 33.6705,75 34.5,75 C35.3295,75 36,75.6139628 36,76.3735186 L36,108.626481 C36,109.384664 35.3295,110 34.5,110" id="Fill-56" fill="#000000"></path>
            <path d="M74,76 L74,108 L74,76 Z" id="Fill-58" fill="#FFFFFF"></path>
            <path d="M73.5,110 C72.6705,110 72,109.384664 72,108.626481 L72,76.3735186 C72,75.6139628 72.6705,75 73.5,75 C74.3295,75 75,75.6139628 75,76.3735186 L75,108.626481 C75,109.384664 74.3295,110 73.5,110" id="Fill-60" fill="#000000"></path>
            <path d="M40,85 L40,110 L40,85 Z" id="Fill-62" fill="#FFFFFF"></path>
            <path d="M40.5,111 C39.6705,111 39,110.390752 39,109.640073 L39,85.3599275 C39,84.6092475 39.6705,84 40.5,84 C41.3295,84 42,84.6092475 42,85.3599275 L42,109.640073 C42,110.390752 41.3295,111 40.5,111" id="Fill-64" fill="#000000"></path>
            <path d="M68,85 L68,110 L68,85 Z" id="Fill-66" fill="#FFFFFF"></path>
            <path d="M68.5,111 C67.6705,111 67,110.390752 67,109.640073 L67,85.3599275 C67,84.6092475 67.6705,84 68.5,84 C69.3295,84 70,84.6092475 70,85.3599275 L70,109.640073 C70,110.390752 69.3295,111 68.5,111" id="Fill-68" fill="#000000"></path>
            <path d="M52,7 C50.9002158,9.83382789 45.9246223,16.1516051 44,22" id="Fill-70" fill="#FFFFFF"></path>
            <path d="M44.3707983,24 C44.2268474,24 44.0801545,23.9766805 43.9362036,23.9286698 C43.2178199,23.688616 42.8312088,22.9122137 43.0711271,22.1934243 C44.347492,18.3690256 46.8179641,14.4444902 48.801745,11.2908702 C49.9629491,9.44725768 50.9651218,7.85467272 51.3531038,6.86976661 C51.6314089,6.16469454 52.4293084,5.81627371 53.1312405,6.0974795 C53.8359146,6.37457008 54.1813968,7.17154842 53.9044626,7.87662049 C53.4218843,9.10020859 52.407373,10.7119978 51.1227823,12.7531403 C49.2157753,15.7819324 46.8440123,19.5514617 45.6704695,23.0617329 C45.4799059,23.6364901 44.945231,24 44.3707983,24" id="Fill-72" fill="#000000"></path>
            <path d="M67,33.6472992 L53.5084103,41.0149406 L40,33.6404887 L40,28.0054484 L53.4929914,34.415528 L67,28 L67,33.6472992 Z M66.9985983,50.5142808 L53.5056069,60 L40,50.5061082 L40,44.8697059 L53.4943931,53.4346401 L66.9985983,44.8669817 L66.9985983,50.5142808 Z M40,36.2816158 L53.4929914,43.9189546 L62.9686429,38.557698 L62.9686429,44.4951262 L53.5042052,50.5088324 L40,41.9221045 L40,36.2816158 Z" id="Fill-74" fill="#FFFFFF"></path>
            <path d="M53,34.4128038 L53,41.0081301 L53.0094477,41.0135785 L66,33.6472992 L66,28 L53,34.4128038 Z M53,43.9148683 L53,50.5047461 L53.0053987,50.5074703 L62.1183555,44.4951262 L62.1183555,38.557698 L53,43.9148683 Z M53,53.4319159 L53,59.9945516 L53.0067483,60 L65.9986503,50.5129187 L65.9986503,44.8656195 L53,53.4319159 Z" id="Fill-76" fill="#E0EBFF"></path>
            <polygon id="Fill-78" fill="#FFFFFF" points="40 49 45 49 45 31 40 31"></polygon>
        </g>
    </g>
</svg>