<?xml version="1.0" encoding="UTF-8"?>
<svg width="96px" height="88px" viewBox="0 0 96 88" version="1.1" xmlns="http://www.w3.org/2000/svg" xmlns:xlink="http://www.w3.org/1999/xlink">
    <!-- Generator: Sketch 48.1 (47250) - http://www.bohemiancoding.com/sketch -->
    <title>Page 1</title>
    <desc>Created with Sketch.</desc>
    <defs>
        <polygon id="path-1" points="0 88 96 88 96 0 0 0"></polygon>
    </defs>
    <g id="Enact---Game-Details-Page" stroke="none" stroke-width="1" fill="none" fill-rule="evenodd" transform="translate(-238.000000, -855.000000)">
        <g id="Page-1" transform="translate(238.000000, 855.000000)">
            <path d="M1,49.0496258 L1,73.6521486 C1,74.5385957 1.52929056,75.3394011 2.34616605,75.691978 L22.6997938,85.3628159 C22.6997938,85.3628159 25.8721801,86.7964801 28.1795736,85.3628159 L46.2951864,76.723015 C47.138918,76.3826727 47.6928268,75.5674082 47.6928268,74.660941 L47.9983158,49.907155 C48.0710513,47.0353777 45.7636578,46.4103045 45.7636578,46.4103045 L25.2455359,38.135315 C24.660295,37.9462359 24.0157467,37.9551338 23.4383388,38.1631207 L3.23801504,45.642866 C3.23801504,45.642866 1,46.5471088 1,49.0496258" id="Fill-1" fill="#FFFFFF"></path>
            <path d="M24.4077023,39.2099104 C24.2161645,39.2099104 24.0134908,39.2409156 23.8219531,39.3106773 L3.7305321,46.7541404 C3.70714668,46.7652137 2.22718334,47.4174303 2.22718334,49.1072138 L2.22718334,73.6024307 C2.22718334,74.0431475 2.48999098,74.4406785 2.89756553,74.6178511 L23.1883194,84.2626836 C23.1916602,84.2637909 25.8197365,85.4131981 27.5714162,84.3224793 L27.6794346,84.2637909 L45.7073702,75.6609547 C46.1928962,75.4627429 46.4668397,75.0596752 46.4668397,74.6067778 L46.7708502,49.9465689 C46.8209619,47.9655579 45.3822014,47.5525244 45.3677247,47.548095 L45.2418889,47.5060166 L24.823072,39.2685988 C24.7016905,39.2298423 24.5580371,39.2099104 24.4077023,39.2099104 M25.7295356,87 C23.8954501,87 22.3453305,86.3134562 22.2473344,86.2691631 L1.97328444,76.6320819 C0.788422904,76.1204961 0,74.9256885 0,73.6024307 L0,49.1072138 C0,45.9081413 2.80291024,44.7388023 2.92206455,44.6900798 L23.0535748,37.2311141 C23.8742919,36.937672 24.768506,36.9232767 25.5881094,37.1901429 L46.0258574,45.43199 C47.1271996,45.7652959 49.070417,47.1062709 48.9980336,49.9886474 L48.6940231,74.6211731 C48.6940231,75.9665774 47.8744196,77.1746729 46.6071523,77.6851514 L28.6961438,86.2348359 C27.7417957,86.8095395 26.6972468,87 25.7295356,87" id="Fill-3" fill="#000000"></path>
            <path d="M2,48 L23.5032606,56.6750072 C24.4398471,57.0925567 26.1263773,57.1393222 27.0640881,56.6293552 L47,48.4197764" id="Fill-5" fill="#FFFFFF"></path>
            <path d="M25.792909,58 C24.9503727,58 24.1247548,57.8417266 23.5337387,57.5834333 L2,49.0355715 L2.85043154,47 L24.4213907,55.5632494 C25.1421146,55.8764988 26.4606218,55.8764988 27.0256964,55.5720424 L27.135102,55.5203837 L47.1349058,47.4165667 L48,49.4477418 L28.0520792,57.5306755 C27.4057964,57.8593125 26.5914574,58 25.792909,58" id="Fill-7" fill="#000000"></path>
            <path d="M26,86 L26,57" id="Fill-9" fill="#FFFFFF"></path>
            <mask id="mask-2" fill="white">
                <use xlink:href="#path-1"></use>
            </mask>
            <g id="Clip-12"></g>
            <polygon id="Fill-11" fill="#000000" mask="url(#mask-2)" points="25 86 27 86 27 57 25 57"></polygon>
            <path d="M48,50.3325553 L48,74.7466962 C48,75.6263558 48.5292906,76.4210295 49.346166,76.7709066 L69.6997938,86.3676948 C69.6997938,86.3676948 72.8721801,87.7903814 75.1784546,86.3676948 L93.2951864,77.794049 C94.138918,77.4563127 94.6917078,76.6472907 94.6917078,75.7477643 L94.9983158,51.1835183 C95.0710513,48.3337303 92.7636578,47.7134433 92.7636578,47.7134433 L71.1254094,39.1342789 C70.5412875,38.9466476 69.8956201,38.9554773 69.3193313,39.1618717 L50.238015,46.951881 C50.238015,46.951881 48,47.8492001 48,50.3325553" id="Fill-13" fill="#9BFFFF" mask="url(#mask-2)"></path>
            <path d="M70.292998,40.1940195 C70.1014603,40.1940195 69.8965594,40.2247983 69.7083624,40.2929512 L50.7672808,48.0338046 C50.7071468,48.0590871 49.2271834,48.7065399 49.2271834,50.3850806 L49.2271834,74.7002861 C49.2271834,75.1377839 49.4899911,75.5324113 49.8975657,75.7082899 L70.1883204,85.2826769 C70.1916612,85.2848753 72.8208513,86.4225895 74.5703038,85.3420359 C74.6048252,85.3211503 74.6415737,85.3002647 74.6783222,85.2837761 L92.7073722,76.7437747 C93.1917846,76.5470106 93.4657282,76.1468869 93.4657282,75.6972975 L93.7708523,51.2172058 C93.8209639,49.2506641 92.3822034,48.8406473 92.3677267,48.8362503 C92.3254103,48.8263572 92.285321,48.8120671 92.2452317,48.7955784 L70.7117085,40.2522793 C70.590327,40.2149051 70.4455601,40.1940195 70.292998,40.1940195 M72.7295367,88 C70.8954512,88 69.3453315,87.3184707 69.2473354,87.2745011 L48.9721709,77.7078088 C47.7884229,77.1999596 47,76.0138788 47,74.7002861 L47,50.3850806 C47,47.2082748 49.8029104,46.0474765 49.9220647,45.99911 L68.9032356,38.2439664 C69.7607012,37.9350798 70.6560289,37.9229881 71.4734053,38.1879051 L93.0236323,46.7356013 C94.1249745,47.0653735 96.0704192,48.396554 95.9980358,51.258977 L95.6929116,75.7115876 C95.6929116,77.0471651 94.8733081,78.2464368 93.6071543,78.7531868 L75.6950315,87.2404246 C74.741797,87.8109306 73.6972479,88 72.7295367,88" id="Fill-14" fill="#000000" mask="url(#mask-2)"></path>
            <path d="M71.792909,59 C70.9503727,59 70.1247548,58.8417266 69.5337387,58.5834333 L48,50.0355715 L48.8504315,48 L70.4213907,56.5632494 C71.1421146,56.8775979 72.4594939,56.8743006 73.0245685,56.5731415 L73.1339741,56.5203837 L93.1349058,48.4165667 L94,50.4477418 L74.0509514,58.5306755 C73.4046685,58.8593125 72.5914574,59 71.792909,59" id="Fill-15" fill="#000000" mask="url(#mask-2)"></path>
            <path d="M71,87 L71,58" id="Fill-16" fill="#FFFFFF" mask="url(#mask-2)"></path>
            <polygon id="Fill-17" fill="#000000" mask="url(#mask-2)" points="70 87 72 87 72 58 70 58"></polygon>
            <path d="M23,11.6119192 L23,36.2750853 C23,37.1637174 23.5292906,37.9676118 24.346166,38.3210577 L45.3566512,47.3612453 C45.3566512,47.3612453 48.5279185,48.7984434 50.835312,47.3612453 L68.2951864,39.3546361 C69.138918,39.0123399 69.6917078,38.1961809 69.6917078,37.2874792 L69.9983158,12.4715621 C70.0710513,9.59270613 67.7636578,8.96609224 67.7636578,8.96609224 L47.0586617,1.13564852 C46.4734207,0.946103388 45.8288724,0.955023159 45.2514645,1.1635228 L25.238015,8.19676201 C25.238015,8.19676201 23,9.10323371 23,11.6119192" id="Fill-18" fill="#F7C567" mask="url(#mask-2)"></path>
            <path d="M45.2116943,2.21591716 C45.0212703,2.21591716 44.8219375,2.24810245 44.6348542,2.31580252 L24.7115986,9.31998592 C24.7071443,9.32442527 23.2271819,9.97811945 23.2271819,11.6728411 L23.2271819,36.2224428 C23.2271819,36.6641581 23.4899894,37.0636995 23.89645,37.2412735 L44.8030065,46.2387247 C44.8464365,46.2587018 47.4778519,47.4051638 49.2239625,46.3164133 C49.2640518,46.2919969 49.3052546,46.2686903 49.3486847,46.2498231 L66.7229306,38.2789714 C67.1917524,38.0880794 67.4645822,37.6840986 67.4645822,37.2301751 L67.7708197,12.5140978 C67.8209313,10.5274889 66.3821718,10.1135196 66.3676951,10.1090803 L45.6604715,2.2825074 C45.5234998,2.23922375 45.3709378,2.21591716 45.2116943,2.21591716 M47.3831967,49 C45.5491124,49 43.9989938,48.3119009 43.8998842,48.2675074 L23.0111452,39.277825 C21.7884224,38.7473227 21,37.5486984 21,36.2224428 L21,11.6728411 C21,8.46541117 23.8017948,7.29342295 23.9220626,7.24459011 L43.8865211,0.224868993 C44.687193,-0.0614690379 45.5802929,-0.0758969232 46.4010095,0.190464036 L67.0547807,8.00149917 C68.0391951,8.26231094 70.0726122,9.6018846 69.9980016,12.5562716 L69.6917641,37.244603 C69.6917641,38.5908357 68.8743883,39.802778 67.6071218,40.3155229 L50.3397806,48.2386516 C49.388774,48.8102178 48.3464528,49 47.3831967,49" id="Fill-19" fill="#000000" mask="url(#mask-2)"></path>
            <path d="M46.7906532,20 C45.9481169,20 45.1236269,19.8417424 44.5337387,19.5834749 L23,11.0353682 L23.8504315,9 L45.4213907,17.5634929 C46.1421146,17.87781 47.458366,17.8734139 48.0245685,17.5722849 L48.1339741,17.5195324 L68.1349058,9.41652513 L69,11.4474973 L49.0509514,19.5296233 C48.4046685,19.8582276 47.5892016,20 46.7906532,20" id="Fill-20" fill="#000000" mask="url(#mask-2)"></path>
            <path d="M47.587,48 L47,19" id="Fill-21" fill="#FFFFFF" mask="url(#mask-2)"></path>
            <polygon id="Fill-22" fill="#000000" mask="url(#mask-2)" points="46.6807112 48 46 19.0509268 48.3192888 19 49 47.9490732"></polygon>
        </g>
    </g>
</svg>