<?xml version="1.0" encoding="UTF-8"?>
<svg width="91px" height="84px" viewBox="0 0 91 84" version="1.1" xmlns="http://www.w3.org/2000/svg" xmlns:xlink="http://www.w3.org/1999/xlink">
    <!-- Generator: Sketch 48.1 (47250) - http://www.bohemiancoding.com/sketch -->
    <title>Page 1Tool</title>
    <desc>Created with Sketch.</desc>
    <defs>
        <polygon id="path-1" points="0 0 71.9333333 0 71.9333333 70.4238782 0 70.4238782"></polygon>
    </defs>
    <g id="Enact---Game-Details-Page" stroke="none" stroke-width="1" fill="none" fill-rule="evenodd" transform="translate(-235.000000, -1602.000000)">
        <g id="Page-1" transform="translate(235.000000, 1602.000000)">
            <path d="M83.0413146,83.1515152 L7.09201878,83.1515152 C3.66807512,83.1515152 0.866666667,80.400782 0.866666667,77.0387748 L0.866666667,32.4157706 C0.866666667,29.0537634 3.66807512,26.3030303 7.09201878,26.3030303 L83.0413146,26.3030303 C86.4652582,26.3030303 89.2666667,29.0537634 89.2666667,32.4157706 L89.2666667,77.0387748 C89.2666667,80.400782 86.4652582,83.1515152 83.0413146,83.1515152" id="Fill-1" fill="#FA58B1"></path>
            <path d="M7.47945205,27.0552952 C4.72950685,27.0552952 2.49315068,29.2522587 2.49315068,31.9537644 L2.49315068,76.6522962 C2.49315068,79.3538019 4.72950685,81.5507654 7.47945205,81.5507654 L83.5205479,81.5507654 C86.2704932,81.5507654 88.5068493,79.3538019 88.5068493,76.6522962 L88.5068493,31.9537644 C88.5068493,29.2522587 86.2704932,27.0552952 83.5205479,27.0552952 L7.47945205,27.0552952 Z M83.5205479,84 L7.47945205,84 C3.35453425,84 0,80.7045548 0,76.6522962 L0,31.9537644 C0,27.9015058 3.35453425,24.6060606 7.47945205,24.6060606 L83.5205479,24.6060606 C87.6454658,24.6060606 91,27.9015058 91,31.9537644 L91,76.6522962 C91,80.7045548 87.6454658,84 83.5205479,84 Z" id="Fill-3" fill="#000000"></path>
            <path d="M45.9333333,26.156466 L45.9333333,80.1298281 C45.9333333,80.1298281 58.299187,68.8715658 84.9333333,81.4545455 L84.9333333,25.8249809 C84.9333333,25.8249809 63.3723577,15.2284656 45.9333333,26.156466" id="Fill-5" fill="#FFFFFF"></path>
            <path d="M62.0676631,74.0822198 C67.8456153,74.0822198 75.1785903,75.3821562 84.1545135,79.3158556 L84.1545135,26.9492382 C80.4315026,25.351551 62.4218767,18.4536578 47.5788198,27.1731565 L47.5788198,77.5608205 C50.0959973,76.099905 54.8741125,74.0822198 62.0676631,74.0822198 Z M86.6666667,83.1515152 L84.8629407,82.311519 C59.2377226,70.3579142 47.2962026,80.6896245 47.1781314,80.796137 L45.0666667,82.695206 L45.0666667,25.8429609 L45.6444619,25.4846916 C63.5196876,14.4267599 85.0676812,24.6531681 85.9758246,25.0937424 L86.6666667,25.430225 L86.6666667,83.1515152 Z" id="Fill-7" fill="#000000"></path>
            <path d="M45.0666667,26.156466 L45.0666667,80.1298281 C45.0666667,80.1298281 32.700813,68.8715658 6.06666667,81.4545455 L6.06666667,25.8249809 C6.06666667,25.8249809 27.6276423,15.2284656 45.0666667,26.156466" id="Fill-9" fill="#FFFFFF"></path>
            <path d="M6.84548648,26.9492893 L6.84548648,79.3159417 C26.9942108,70.4877079 38.8842316,74.9248213 43.4211802,77.5597356 L43.4211802,27.1744129 C28.5793794,18.4575306 10.5710096,25.3528483 6.84548648,26.9492893 Z M4.33333333,83.1515152 L4.33333333,25.4303102 L5.02417545,25.0950455 C5.93357489,24.6544811 27.4803124,14.4258817 45.3555381,25.4847756 L45.9333333,25.8430368 L45.9333333,82.6952163 L43.8206125,80.7949795 C43.7942349,80.7731933 40.7896998,78.1661169 34.7090331,77.047761 C29.0566885,76.0092876 19.5054823,76.0746461 6.13705929,82.3103275 L4.33333333,83.1515152 Z" id="Fill-11" fill="#000000"></path>
            <path d="M87.5333333,18.0836364 C87.2675762,19.009697 87.0331583,19.9442424 86.729794,20.8581818 C84.035869,28.9939394 75.3511262,33.1636364 67.0374405,30.2824242 C66.2652405,30.0157576 65.8252369,30.1260606 65.2686512,30.6642424 C59.4357833,36.3236364 53.5665619,41.9490909 47.751244,47.6242424 C47.3977369,47.9684848 47.1557976,48.7236364 47.2849155,49.1757576 C49.9851083,58.6775758 43.4627762,67.3951515 34.9723369,68.5527273 C34.8457262,68.569697 34.7303976,68.6666667 34.6088012,68.7272727 L30.4958333,68.7272727 C29.4603833,68.4242424 28.4098905,68.16 27.3919905,67.8084848 C25.6921476,67.2218182 25.6545405,66.9769697 26.9482262,65.7248485 C30.2037512,62.5721212 33.4793333,59.44 36.7072798,56.2630303 C38.1263226,54.8678788 38.4196583,53.1660606 37.6299083,51.3781818 C36.8577083,49.6242424 35.3885226,48.76 33.4266833,48.729697 C32.0239369,48.710303 30.8982298,49.3018182 29.9191905,50.2581818 C26.708794,53.390303 23.4783405,56.5042424 20.2466333,59.6169697 C19.2889048,60.5393939 18.9366512,60.5139394 18.5242262,59.3830303 C18.056644,58.1030303 17.7244476,56.7769697 17.3333333,55.470303 L17.3333333,51.4921212 C17.5865548,50.609697 17.8134512,49.72 18.0955048,48.8460606 C20.768119,40.6218182 29.4528619,36.4012121 37.8292262,39.2933333 C38.6014262,39.56 39.0426833,39.449697 39.5980155,38.9115152 C45.4308833,33.2521212 51.3001048,27.6266667 57.1154226,21.950303 C57.4689298,21.6072727 57.7096155,20.8521212 57.5817512,20.4 C54.8665155,10.7963636 61.4941476,2.15878788 69.8968369,1.02666667 C70.022194,1.00848485 70.1375226,0.909090909 70.2578655,0.848484848 L74.3708333,0.848484848 C75.4062833,1.15151515 76.4555226,1.41818182 77.4746762,1.76848485 C79.1732655,2.35151515 79.2158869,2.60727273 77.9297226,3.85454545 C75.059044,6.63515152 72.145744,9.37333333 69.3264619,12.2024242 C66.9233655,14.6157576 67.8936298,18.52 71.110294,19.5163636 C72.9580583,20.0860606 74.6077583,19.6630303 75.9992226,18.3078788 C78.893719,15.4884848 81.8208083,12.7006061 84.7052762,9.87151515 C85.4962798,9.09454545 86.0202726,9.16363636 86.352469,10.1854545 C86.773669,11.4848485 87.142219,12.7987879 87.5333333,14.1066667 L87.5333333,18.0836364 Z" id="Fill-13" fill="#9BFFFF"></path>
            <g id="Group-17" transform="translate(16.466667, 0.000000)">
                <mask id="mask-2" fill="white">
                    <use xlink:href="#path-1"></use>
                </mask>
                <g id="Clip-16"></g>
                <path d="M70.6931034,18.4787141 L70.7055057,18.4787141 L70.6931034,18.4787141 Z M14.4412368,67.995456 L18.0019368,67.995456 C18.1396023,67.9274602 18.310754,67.8618928 18.515392,67.8315375 C22.2509644,67.316712 25.6516747,65.1469168 27.8444011,61.8758322 C30.2008379,58.3667622 30.8507184,54.1291655 29.6774609,49.9462084 C29.4343759,49.0853327 29.7754391,47.8856922 30.4526046,47.2166619 C33.8818402,43.8277987 37.3309195,40.4571488 40.7787586,37.0852846 C43.1178322,34.8001394 45.4544253,32.5149941 47.7872977,30.2237778 C48.6889448,29.3398322 49.6302793,29.1346305 50.8333023,29.5559618 C54.4820586,30.834526 58.3292517,30.6523944 61.6716713,29.0387078 C65.0264931,27.4177361 67.5280368,24.5242711 68.7174172,20.8877089 C68.9170943,20.2769607 69.0857655,19.6564989 69.2544368,19.036037 L69.4528736,18.317224 L69.4528736,14.6636629 L69.1502575,13.6291551 C68.9344575,12.8824153 68.7174172,12.1356754 68.4867345,11.3937925 C66.9401678,12.9285553 65.3799586,14.451176 63.8209897,15.9737967 C62.5993632,17.1673661 61.3777368,18.3597214 60.1623115,19.559362 C58.4408724,21.256829 56.3312414,21.7813682 54.0678218,21.0698405 C52.1839126,20.479734 50.772531,19.0105386 50.2900816,17.1394393 C49.7939897,15.2173432 50.3545736,13.2017528 51.7857989,11.7459137 C53.7106356,9.79103386 55.7049253,7.85193877 57.634723,5.97719687 C58.5289287,5.10903595 59.4231345,4.23966082 60.3136195,3.36785726 L60.3830724,3.29986144 C60.364469,3.29257618 60.3458655,3.28650512 60.3272621,3.27921985 C59.6476161,3.0436629 58.9543276,2.84696071 58.2622793,2.65025852 L57.4908563,2.42805789 L53.9363575,2.42805789 C53.7999322,2.49848213 53.6275402,2.56526374 53.4229023,2.5931906 C49.6898103,3.10315925 46.2928207,5.2680976 44.0951333,8.5355396 C41.7362161,12.0373243 41.0838552,16.2785636 42.2571126,20.4785197 C42.4977172,21.343038 42.1554138,22.5414644 41.4794885,23.2092805 C38.0428115,26.6042146 34.5862908,29.9833641 31.1297701,33.3625135 C28.7993782,35.6391592 26.4702264,37.9170192 24.1460356,40.1997361 C23.246869,41.0836817 22.3067747,41.2888834 21.1012713,40.8687664 C17.4301908,39.5853452 13.5693552,39.773548 10.2306563,41.401805 C6.86467241,43.04099 4.36064828,45.9745239 3.17746897,49.6584403 C2.99391494,50.2339764 2.83392529,50.8192261 2.67517586,51.4032617 L2.48045977,52.1062899 L2.48045977,55.7586368 C2.57967816,56.0998301 2.67641609,56.4434518 2.77191379,56.7858594 C2.99143448,57.5629544 3.1997931,58.3060516 3.44411839,59.0309356 C6.57445862,55.9796232 9.70231839,52.9246681 12.8115747,49.8539283 C14.1212575,48.5583651 15.5624046,47.9488311 17.1809046,47.9634017 C19.6526828,48.0010422 21.5266701,49.2055396 22.4618034,51.3546932 C23.4527471,53.6264821 23.0372701,55.8375605 21.2922667,57.5750966 C19.0747356,59.7861749 16.8324,61.9741833 14.5925448,64.1634059 L11.6308759,67.0605135 C11.604831,67.0835835 11.5825069,67.1066535 11.5601828,67.1285093 C11.5763057,67.1345804 11.5924287,67.1406514 11.6085517,67.1467225 C12.2819966,67.379851 12.9703241,67.5765532 13.659892,67.770827 L14.4412368,67.995456 Z M18.3318379,70.4238782 L14.2626437,70.4238782 C14.1411011,70.4238782 14.0207989,70.4068792 13.902977,70.3716671 L12.9690839,70.1033264 C12.2323874,69.8944821 11.496931,69.6844236 10.7751172,69.4342961 C9.93300115,69.1392428 8.88376667,68.7725511 8.65432414,67.770827 C8.42240115,66.7678886 9.22731034,65.9774372 9.87595057,65.343619 L12.8401,62.444083 C15.0749943,60.2609315 17.3111287,58.0777799 19.5236989,55.8727726 C20.5617713,54.839479 20.776331,53.6726222 20.1797805,52.3066347 C19.6291184,51.0402125 18.6356943,50.4148938 17.1424575,50.3918238 C16.2271678,50.3833243 15.3937333,50.7500161 14.5739414,51.5623233 C11.3952322,54.7022731 8.19667931,57.8240098 4.99812644,60.9445323 C4.5690069,61.3610067 3.77277931,62.1466013 2.75827126,61.9146869 C1.76856782,61.6949147 1.40518046,60.6846911 1.24891149,60.2536462 C0.910328736,59.3138468 0.641198851,58.3558343 0.380750575,57.4293912 C0.271610345,57.0420579 0.162470115,56.6522961 0.0483689655,56.266177 C0.0173632184,56.156898 0,56.0427622 0,55.9298405 L0,51.9447998 C0,51.8355208 0.0161229885,51.7262418 0.0446482759,51.6206054 L0.279051724,50.7767287 C0.446482759,50.1586953 0.616394253,49.5406619 0.811110345,48.9311279 C2.19768736,44.6097507 5.15067471,41.1650339 9.12561149,39.2283672 C13.0757437,37.3038426 17.6261471,37.0743567 21.9347057,38.5824069 C22.1021368,38.6394748 22.1815115,38.6479743 22.2038356,38.6491885 C22.2038356,38.6431175 22.2683276,38.6030485 22.3886299,38.4864842 C24.7153011,36.201339 27.0456931,33.9222648 29.3773253,31.6444048 C32.8301253,28.268898 36.2829253,24.892177 39.7183621,21.4972428 C39.7791333,21.4243902 39.8622287,21.1754769 39.8547874,21.0710548 C38.5004563,16.2360662 39.2669184,11.2917987 42.0239494,7.19869321 C44.578823,3.40306938 48.5301954,0.865368234 52.8883632,0.215765308 C52.9416931,0.18419582 52.9851011,0.159911599 53.0285092,0.138055799 C53.2046218,0.0469899687 53.4018184,-0.000364263323 53.6014954,-0.000364263323 L57.6706897,-0.000364263323 C57.7922322,-0.000364263323 57.9125345,0.0178489028 58.0303563,0.051846813 L58.9530874,0.317759039 C59.6935046,0.529031766 60.4326816,0.739090282 61.1569759,0.991646186 C61.999092,1.28427106 63.0495667,1.64853438 63.2814897,2.65511536 C63.5158931,3.66412476 62.7134644,4.44971933 62.0697851,5.0823233 C61.1755793,5.95776949 60.2801333,6.82957304 59.3822069,7.70137659 C57.462331,9.56640481 55.476723,11.4957862 53.5717299,13.4312387 C52.7382954,14.2775438 52.4108747,15.4431864 52.6948874,16.5456901 C52.9702184,17.6129816 53.7453621,18.4192178 54.8231218,18.7567684 C56.199777,19.1865992 57.3370678,18.8988311 58.4011851,17.8473243 C59.620331,16.6452554 60.8456782,15.4504717 62.0697851,14.2544738 C63.7217713,12.639573 65.3737575,11.0258865 67.0121011,9.39884368 C67.2849517,9.12928882 68.1134253,8.30726792 69.1973862,8.55860961 C69.903077,8.72617074 70.410331,9.27985099 70.7079862,10.2050798 C71.0006805,11.1193808 71.2685701,12.0421812 71.5364598,12.9661958 L71.8849644,14.1561227 C71.9159701,14.2666159 71.9333333,14.3807517 71.9333333,14.4948876 L71.9333333,18.4787141 C71.9333333,18.5892073 71.9172103,18.6984863 71.8886851,18.8041227 L71.6505609,19.6625699 C71.4719678,20.3206723 71.2908943,20.9799889 71.0800552,21.6283776 C69.6835563,25.8963296 66.7330494,29.3021916 62.7680345,31.2157883 C58.821623,33.1257423 54.2823816,33.3443003 49.9973874,31.8423212 C49.8311966,31.7840391 49.7518218,31.7743254 49.7294977,31.7731112 C49.7282575,31.7803964 49.6637655,31.8204654 49.5434632,31.9382439 C47.2093506,34.2306744 44.8715172,36.5170339 42.5312034,38.8046075 C39.0870851,42.172829 35.6404862,45.5398364 32.2149713,48.9250568 C32.1554402,48.9991237 32.0711046,49.2468228 32.078546,49.3524591 C33.4341172,54.1692345 32.6713759,59.1074309 29.9180655,63.2102502 C27.3656724,67.011945 23.4105793,69.5557172 19.0412494,70.2113912 C18.9879195,70.2429607 18.9432713,70.2672449 18.8998632,70.2891007 C18.7249908,70.3777381 18.5290345,70.4238782 18.3318379,70.4238782 Z" id="Fill-15" fill="#000000" mask="url(#mask-2)"></path>
            </g>
        </g>
    </g>
</svg>