<?xml version="1.0" encoding="UTF-8"?>
<svg width="93px" height="99px" viewBox="0 0 93 99" version="1.1" xmlns="http://www.w3.org/2000/svg" xmlns:xlink="http://www.w3.org/1999/xlink">
    <!-- Generator: Sketch 48.1 (47250) - http://www.bohemiancoding.com/sketch -->
    <title>Page 1Guide</title>
    <desc>Created with Sketch.</desc>
    <defs></defs>
    <g id="Enact---Game-Details-Page" stroke="none" stroke-width="1" fill="none" fill-rule="evenodd" transform="translate(-234.000000, -1208.000000)">
        <g id="Page-1" transform="translate(234.000000, 1208.000000)">
            <path d="M84.8960116,97.2931034 L7.23482954,97.2931034 C3.73371068,97.2931034 0.869158879,94.4849833 0.869158879,91.0528365 L0.869158879,45.4988877 C0.869158879,42.0667408 3.73371068,39.2586207 7.23482954,39.2586207 L84.8960116,39.2586207 C88.3971304,39.2586207 91.2616822,42.0667408 91.2616822,45.4988877 L91.2616822,91.0528365 C91.2616822,94.4849833 88.3971304,97.2931034 84.8960116,97.2931034" id="Fill-1" fill="#FA58B1"></path>
            <path d="M7.64383562,40.9039282 C4.83345205,40.9039282 2.54794521,43.1453121 2.54794521,45.9014397 L2.54794521,91.5037327 C2.54794521,94.2598603 4.83345205,96.5012442 7.64383562,96.5012442 L85.3561644,96.5012442 C88.1665479,96.5012442 90.4520548,94.2598603 90.4520548,91.5037327 L90.4520548,45.9014397 C90.4520548,43.1453121 88.1665479,40.9039282 85.3561644,40.9039282 L7.64383562,40.9039282 Z M85.3561644,99 L7.64383562,99 C3.42826027,99 0,95.6379241 0,91.5037327 L0,45.9014397 C0,41.7672483 3.42826027,38.4051724 7.64383562,38.4051724 L85.3561644,38.4051724 C89.5717397,38.4051724 93,41.7672483 93,45.9014397 L93,91.5037327 C93,95.6379241 89.5717397,99 85.3561644,99 Z" id="Fill-3" fill="#000000"></path>
            <path d="M46.9345794,39.1812451 L46.9345794,94.2349732 C46.9345794,94.2349732 59.6115797,82.7513581 86.9158879,95.5862069 L86.9158879,38.8431247 C86.9158879,38.8431247 64.8124003,28.0345027 46.9345794,39.1812451" id="Fill-5" fill="#FFFFFF"></path>
            <path d="M63.4705115,88.7776532 C69.3857991,88.7776532 76.8930707,90.1205329 86.0823414,94.1841816 L86.0823414,40.0876392 C82.2708387,38.4371726 63.8331443,31.3114082 48.6372848,40.3189546 L48.6372848,92.3711691 C51.2142927,90.8619925 56.1059784,88.7776532 63.4705115,88.7776532 Z M88.6542056,98.1465517 L86.8076071,97.2788064 C60.5733065,84.9303157 48.34795,95.6033328 48.2270724,95.7133639 L46.0654206,97.6751685 L46.0654206,38.9448161 L46.6569493,38.5747115 C64.957049,27.1514823 87.0172141,37.7157187 87.946943,38.1708473 L88.6542056,38.5184456 L88.6542056,98.1465517 Z" id="Fill-7" fill="#000000"></path>
            <path d="M46.0654206,39.1812451 L46.0654206,94.2349732 C46.0654206,94.2349732 33.3884203,82.7513581 6.08411215,95.5862069 L6.08411215,38.8431247 C6.08411215,38.8431247 28.1875997,28.0345027 46.0654206,39.1812451" id="Fill-9" fill="#FFFFFF"></path>
            <path d="M6.91765858,40.0876919 L6.91765858,94.1842705 C27.5452953,85.0643971 39.7179285,89.64809 44.3627152,92.3700484 L44.3627152,40.3202525 C29.1681416,31.315409 10.7317332,38.4385127 6.91765858,40.0876919 Z M4.34579439,98.1465517 L4.34579439,38.5185336 L5.05305704,38.1721934 C5.98278595,37.717075 28.042951,27.1505751 46.3430507,38.5747982 L46.9345794,38.9448945 L46.9345794,97.675179 L44.7716417,95.7121682 C44.7446371,95.6896623 41.6686875,92.9964614 35.4434902,91.8411608 C29.6555099,90.7683816 19.8785682,90.8358991 6.19239288,97.2775756 L4.34579439,98.1465517 Z" id="Fill-11" fill="#000000"></path>
            <path d="M87.3322271,27.2762352 C87.6277111,25.8540067 87.7850467,24.3831656 87.7850467,22.8749303 C87.7850467,10.7130692 77.6682371,0.853448276 65.1875555,0.853448276 C52.7068738,0.853448276 42.588785,10.7130692 42.588785,22.8749303 C42.588785,24.6648691 42.8318238,26.3962235 43.2462689,28.0640077 C47.9407551,44.0550414 64.6822906,64.0086207 64.6822906,64.0086207 C64.6822906,64.0086207 83.2415004,43.3121421 87.3322271,27.2762352" id="Fill-13" fill="#9BFFFF"></path>
            <path d="M87.7896099,27.6981934 L87.8024145,27.6981934 L87.7896099,27.6981934 Z M65.6221356,2.49555756 C53.8546281,2.49555756 44.2805636,11.8239517 44.2805636,23.2910387 C44.2805636,24.8794611 44.4905605,26.5290246 44.9028714,28.1923138 C48.8198252,41.5323167 61.5438427,58.0067399 65.1483621,62.4999913 C69.0345847,57.9618199 83.096692,40.8709939 86.5398724,27.423682 C86.820295,26.0648509 86.9624271,24.6748254 86.9624271,23.2910387 C86.9624271,11.8239517 77.389643,2.49555756 65.6221356,2.49555756 Z M65.1163504,65.7155172 L65.0945825,65.7155172 C64.7181247,65.7092783 64.3634348,65.5408282 64.1252676,65.2575824 C63.4338145,64.4328007 47.1449721,44.8988239 42.4264449,28.8286809 C41.9539519,26.9233227 41.7196262,25.0766101 41.7196262,23.2910387 C41.7196262,10.4488995 52.4435516,0 65.6221356,0 C78.8007195,0 89.5233645,10.4488995 89.5233645,23.2910387 C89.5233645,24.8507622 89.3633059,26.4179723 89.0444692,27.9452536 C89.0419083,27.9639702 89.0367864,27.9826869 89.032945,27.9989081 C84.9098357,44.1576433 66.8475441,64.4328007 66.0805434,65.2887769 C65.8359738,65.5607927 65.4851254,65.7155172 65.1163504,65.7155172 Z" id="Fill-15" fill="#000000"></path>
            <path d="M78.2242991,22.1896552 C78.2242991,29.2601516 72.3865895,34.9913793 65.1862851,34.9913793 C57.9859806,34.9913793 52.1495327,29.2601516 52.1495327,22.1896552 C52.1495327,15.1191587 57.9859806,9.38793103 65.1862851,9.38793103 C72.3865895,9.38793103 78.2242991,15.1191587 78.2242991,22.1896552" id="Fill-17" fill="#FFFFFF"></path>
            <path d="M64.7529691,10.1660385 C58.2413521,10.1660385 52.9419639,15.3683944 52.9419639,21.7623098 C52.9419639,28.1562251 58.2413521,33.3598236 64.7529691,33.3598236 C71.2645861,33.3598236 76.562709,28.1562251 76.562709,21.7623098 C76.562709,15.3683944 71.2645861,10.1660385 64.7529691,10.1660385 M64.7529691,35.8448276 C56.8443787,35.8448276 50.411215,29.5279474 50.411215,21.7623098 C50.411215,13.9979147 56.8443787,7.68103448 64.7529691,7.68103448 C72.6602942,7.68103448 79.0934579,13.9979147 79.0934579,21.7623098 C79.0934579,29.5279474 72.6602942,35.8448276 64.7529691,35.8448276" id="Fill-19" fill="#000000"></path>
        </g>
    </g>
</svg>