<?xml version="1.0" encoding="UTF-8"?>
<svg width="459px" height="246px" viewBox="0 0 459 246" version="1.1" xmlns="http://www.w3.org/2000/svg" xmlns:xlink="http://www.w3.org/1999/xlink">
    <!-- Generator: Sketch 48.1 (47250) - http://www.bohemiancoding.com/sketch -->
    <title>Page 1nopage</title>
    <desc>Created with Sketch.</desc>
    <defs>
        <polygon id="path-1" points="0.325593373 0.675062231 139.214277 0.675062231 139.214277 50.7535236 0.325593373 50.7535236"></polygon>
        <path d="M161.699302,0.664193548 L12.1765926,0.664193548 C-0.526137566,0.664193548 0.189968254,11.5681935 0.189968254,11.5681935 L0.189968254,115.700645 L175.201016,115.700645 L175.201016,10.7720968 C175.201016,1.68948387 167.73545,0.525741935 163.907217,0.525741935 C162.587683,0.525741935 161.699302,0.664193548 161.699302,0.664193548 Z" id="path-3"></path>
        <polygon id="path-5" points="0.669033939 0.327627273 251.418737 0.327627273 251.418737 21.4318182 0.669033939 21.4318182"></polygon>
    </defs>
    <g id="Enact---Game-Details-Page-Copy-5" stroke="none" stroke-width="1" fill="none" fill-rule="evenodd" transform="translate(-435.000000, -422.000000)">
        <g id="Page-1" transform="translate(435.000000, 422.000000)">
            <g id="Group-12" transform="translate(149.000000, 95.000000)">
                <g id="Group-3" transform="translate(169.939759, 64.208333)">
                    <mask id="mask-2" fill="white">
                        <use xlink:href="#path-1"></use>
                    </mask>
                    <g id="Clip-2"></g>
                    <path d="M4.3135753,32.4271625 C4.14083434,32.4271625 3.99984036,32.5676764 3.99984036,32.7398292 C3.99984036,32.9119819 4.14083434,33.0524958 4.3135753,33.0524958 L104.155051,33.0469125 C104.346467,33.0189958 104.480925,32.8328847 104.457581,32.6895792 C103.614419,27.5836208 101.497642,23.5757181 98.3341476,21.1069542 C96.8252319,19.9288708 95.1136958,19.1146347 93.2443584,18.6875097 C91.473997,18.2808569 89.6186657,18.2352597 87.7390572,18.5414125 C85.178756,18.9610931 82.702491,20.0330931 80.578244,21.6392319 L78.239238,23.4082181 L77.6668584,20.5374542 C76.2475813,13.4224264 72.4519488,9.49920417 69.5144187,7.4612875 C67.061497,5.75930139 64.2164066,4.7059125 61.2854127,4.41744028 C58.3422801,4.13082917 55.3645994,4.6221625 52.6735753,5.8449125 C47.8218886,8.04567639 44.1868584,12.3494958 42.1578524,18.2873708 L41.405262,20.4937181 L39.4322801,19.2421208 C36.2090271,17.1967597 32.8158343,16.1871069 29.6299307,16.3499542 C27.920262,16.4318431 26.3133042,16.8394264 24.852009,17.5596764 C23.379509,18.2873708 22.0853524,19.3174958 21.0096898,20.6221347 C18.9227922,23.1541764 17.7444187,26.6251486 17.602491,30.6609681 L17.5417982,32.4271625 L4.3135753,32.4271625 Z M104.155051,36.7142319 L4.3135753,36.7142319 C2.11462952,36.7142319 0.325593373,34.9312875 0.325593373,32.7398292 C0.325593373,30.5474403 2.11462952,28.7644958 4.3135753,28.7644958 L14.0542982,28.7644958 C14.4810151,24.6560931 15.8890873,21.0660097 18.1711355,18.2976069 C19.5801416,16.5900375 21.2804729,15.2370097 23.2217078,14.2785375 C25.1377319,13.3321625 27.2349006,12.7980236 29.4506536,12.6910097 C32.7719488,12.5449125 36.1782139,13.3414681 39.4705633,15.0397319 C41.9412259,9.24237083 46.0300512,4.83712083 51.1478524,2.51259306 C54.4299307,1.02277361 58.0556235,0.418843056 61.6467681,0.774315278 C65.201497,1.12420417 68.6469789,2.39720417 71.6134548,4.45745417 C75.8768886,7.41475972 79.0161054,11.8907319 80.6258645,17.2349125 C82.6576717,16.0875375 84.8715572,15.3021486 87.1433343,14.9289958 C89.5000813,14.5428153 91.8316175,14.6079542 94.0660452,15.1188292 C96.4666777,15.6678569 98.6646898,16.7119403 100.600322,18.2250236 C104.500533,21.2698014 107.087913,26.0668153 108.084208,32.0986764 C108.255081,33.1483431 108.008575,34.1980097 107.385774,35.0587736 C107.016015,35.5715097 106.537943,35.9809542 105.991708,36.2638431 L105.991708,36.7095792 L104.155051,36.7142319 Z M28.2377319,50.7535236 L39.2044488,50.7535236 L39.2044488,47.0908569 L28.2377319,47.0908569 L28.2377319,50.7535236 Z M107.241979,50.7535236 L49.9330633,50.7535236 L49.9330633,47.0917875 L104.607913,47.0917875 C106.14484,43.1462319 108.644449,39.9451208 111.897581,37.7871625 C114.670774,35.9437319 117.898696,34.9443153 121.231196,34.8922042 C124.510473,34.8428847 127.802822,35.7399403 130.677792,37.4884542 C134.549991,39.8455514 137.503395,43.5835931 139.214931,48.3005792 L135.758244,49.5456625 C134.334298,45.6205792 131.915925,42.5320653 128.761768,40.6141903 C126.481587,39.2267319 123.911015,38.4850792 121.28722,38.5539403 C118.663425,38.5939542 116.120864,39.3821347 113.935925,40.8338014 C111.036678,42.7581903 108.865744,45.7489958 107.652822,49.4861069 L107.241979,50.7535236 Z" id="Fill-1" fill="#000000" mask="url(#mask-2)"></path>
                </g>
                <path d="M2.28933133,131.81124 L2.28933133,17.3808236 C2.28933133,17.3808236 1.46671084,2.73387917 16.0675241,2.73387917 L187.937313,2.73387917 C187.937313,2.73387917 203.455988,2.42772639 203.455988,16.4651569 L203.455988,131.81124 C203.455988,131.81124 0.911138554,130.43774 2.28933133,131.81124" id="Fill-4" fill="#EBEBEB"></path>
                <path d="M53.8343946,129.371231 C67.6340633,129.371231 84.1116837,129.402869 103.086111,129.468008 C147.35822,129.619689 192.089726,129.905369 201.618491,129.968647 L201.618491,16.4659944 C201.618491,13.0685361 200.596051,10.3475917 198.57825,8.37574444 C194.593069,4.48323056 188.049455,4.57628611 187.972889,4.56511944 L16.0676175,4.56511944 C12.317738,4.56511944 9.39888253,5.63246667 7.39135241,7.73552222 C3.86930422,11.4288972 4.12047892,17.2253278 4.12421386,17.2848833 L4.12608133,129.770439 C7.88249699,129.493133 15.9807801,129.456842 33.9467741,129.397286 C39.7863524,129.380536 46.4242741,129.371231 53.8343946,129.371231 M2.28849096,133.642481 C1.81135241,133.642481 1.34075,133.4573 0.989665663,133.106481 C0.605900602,132.724022 0.415418675,132.188953 0.451834337,131.663189 L0.451834337,17.3807306 C0.436894578,17.1843833 0.0960813253,10.0954111 4.70593072,5.23791111 C7.43430422,2.36249444 11.2570151,0.903383333 16.0676175,0.903383333 L187.936473,0.903383333 C188.210991,0.8978 196.073039,0.799161111 201.149756,5.76181389 C203.898672,8.44646667 205.292738,12.0477167 205.292738,16.4659944 L205.292738,131.812078 C205.292738,132.299689 205.097587,132.765897 204.751172,133.112064 C204.406623,133.451717 203.94069,133.642481 203.455148,133.642481 L203.443943,133.642481 C149.97828,133.279564 10.9572861,132.555592 2.99719578,133.501036 C2.99626205,133.501036 2.99439458,133.502897 2.99252711,133.502897 C2.76469578,133.597814 2.52565964,133.642481 2.28849096,133.642481" id="Fill-6" fill="#000000"></path>
                <path d="M15.1299608,129.980093 L15.1299608,26.3962319 C15.1299608,26.3962319 14.4119187,13.7192736 27.148997,13.7192736 L177.076015,13.7192736 C177.076015,13.7192736 190.614238,13.4549958 190.614238,25.6043292 L190.614238,129.980093" id="Fill-8" fill="#FF8BA7"></path>
                <path d="M190.613771,131.812171 C189.597867,131.812171 188.776181,130.992351 188.776181,129.980838 L188.776181,25.6041431 C188.776181,22.7557125 187.922747,20.4749208 186.237355,18.8203931 C182.86097,15.5038931 177.18106,15.5504208 177.109163,15.5504208 L27.1494639,15.5504208 C23.9308795,15.5504208 21.4322048,16.4567819 19.7253373,18.2453097 C16.7523253,21.3598792 16.9605482,26.2499486 16.9642831,26.2992681 L16.9661506,129.980838 C16.9661506,130.992351 16.1435301,131.812171 15.129494,131.812171 C14.1135904,131.812171 13.2919036,130.992351 13.2919036,129.980838 L13.2919036,26.3960458 C13.2788313,26.2369208 12.9781687,20.0273236 17.0371145,15.7467681 C19.4666928,13.1868097 22.8692229,11.8886847 27.1494639,11.8886847 L177.077416,11.8886847 C177.329524,11.8924069 184.305458,11.8030736 188.796723,16.1925042 C191.221633,18.5616986 192.451361,21.7283792 192.451361,25.6041431 L192.451361,129.980838 C192.451361,130.992351 191.629675,131.812171 190.613771,131.812171" id="Fill-10" fill="#000000"></path>
            </g>
            <g id="Group-18" transform="translate(164.000000, 110.000000)">
                <mask id="mask-4" fill="white">
                    <use xlink:href="#path-3"></use>
                </mask>
                <g id="Clip-14"></g>
                <polygon id="Fill-13" fill="#94C7F7" mask="url(#mask-4)" points="32.3681693 115.327387 60.938836 115.327387 60.938836 0.290935484 32.3681693 0.290935484"></polygon>
                <polygon id="Fill-15" fill="#CDFF96" mask="url(#mask-4)" points="60.4033862 115.327387 88.9749841 115.327387 88.9749841 0.290935484 60.4033862 0.290935484"></polygon>
                <polygon id="Fill-16" fill="#FCD757" mask="url(#mask-4)" points="88.4404656 115.327387 117.012063 115.327387 117.012063 0.290935484 88.4404656 0.290935484"></polygon>
                <polygon id="Fill-17" fill="#FF5555" mask="url(#mask-4)" points="116.476614 115.327387 145.04728 115.327387 145.04728 0.290935484 116.476614 0.290935484"></polygon>
            </g>
            <g id="Group-110">
                <path d="M128.551292,226.729814 L375.626919,226.729814 L375.626919,235.897041 C375.626919,235.897041 374.708197,244.146427 365.523774,244.146427 L140.490948,244.146427 C140.490948,244.146427 129.00972,244.910518 129.00972,236.354564 L128.551292,226.729814 Z" id="Fill-19" fill="#EBEBEB"></path>
                <g id="Group-23" transform="translate(126.044226, 224.568182)">
                    <mask id="mask-6" fill="white">
                        <use xlink:href="#path-5"></use>
                    </mask>
                    <g id="Clip-22"></g>
                    <path d="M4.43274201,3.99526364 L4.80060442,11.6995364 C4.80247174,13.3842636 5.29264373,14.6170591 6.29819656,15.5572636 C8.5343145,17.6426727 12.850629,17.8495364 14.3248796,17.7489 L239.479081,17.7451727 C246.471268,17.7451727 247.598197,12.2092409 247.745715,11.2066045 L247.745715,3.99526364 L4.43274201,3.99526364 Z M13.6946585,21.4323773 C11.823602,21.4323773 6.89293857,21.1332636 3.78944963,18.2343773 C2.02389681,16.5869227 1.12851597,14.41765 1.12851597,11.7861955 L0.671022113,2.24996818 C0.64768059,1.74865 0.830678133,1.25851364 1.17706634,0.896036364 C1.52345455,0.534490909 2.00335627,0.327627273 2.50659951,0.327627273 L249.582226,0.327627273 C250.597115,0.327627273 251.418737,1.14762727 251.418737,2.16144545 L251.418737,11.3286727 C251.418737,11.3966955 251.415002,11.4647182 251.408467,11.5308773 C251.027533,14.9487864 248.044486,21.4118773 239.479081,21.4118773 L14.4471892,21.4118773 C14.4154447,21.4156045 14.1428157,21.4323773 13.6946585,21.4323773 Z" id="Fill-21" fill="#000000" mask="url(#mask-6)"></path>
                </g>
                <path d="M260.766364,8.64475682 L253.418452,0.700075 L249.132015,1.31134773 L243.621548,3.14423409 L241.784103,8.64475682 L239.335111,13.5340068 L229.537273,11.7001886 L223.414324,14.1443477 L220.964398,19.6448705 L219.127887,24.5341205 L207.492604,31.2562568 L201.37059,42.2563705 L201.37059,51.4235977 L195.246708,52.6452114 C195.246708,52.6452114 186.061351,55.0903023 184.837322,60.5898932 C183.612359,66.0904159 178.101892,77.7018023 181.163366,78.313075 C184.22484,78.9234159 190.347789,94.8127795 190.347789,94.8127795 L201.982138,97.8682114 L210.555012,102.757461 C210.555012,102.757461 215.453931,104.59128 217.291376,103.980007 C219.127887,103.368734 229.537273,97.8682114 229.537273,97.8682114 L240.099779,102.146189 L239.946658,123.536075 L239.335111,176.703757 C239.335111,176.703757 239.18199,188.391552 230.149754,187.092598 C228.612015,186.871757 228.546658,183.203189 227.477617,182.351507 C225.719533,180.952848 223.414324,182.203348 223.414324,182.203348 L218.658256,180.668643 L213.211278,176.139075 L206.268575,177.31503 L200.145627,181.593007 L195.574423,180.150552 L186.755061,187.14012 L183.688919,192.440302 L220.582531,195.266507 C220.582531,195.266507 224.562727,196.640939 226.8586,198.703984 C227.860418,199.60412 257.885086,201.901052 281.586069,201.300961 C289.822826,201.093166 289.822826,193.317143 297.276241,193.204393 C297.821499,193.196007 307.974128,200.84903 308.221548,200.384984 C311.896437,193.509098 326.43914,193.967552 326.43914,193.967552 L326.28602,191.370575 L323.224545,185.870984 L316.489115,185.870984 L313.426708,181.593007 L307.916241,179.147916 L301.179877,179.759189 L295.66941,184.648439 L291.995455,184.49562 L287.632457,187.70387 L274.773145,188.391552 L266.966806,179.109711 L266.27683,132.70237 L266.04715,104.972393 L271.788231,97.8682114 L276.074668,96.6465977 L289.545528,100.924575 L304.241351,98.4794841 L312.814226,89.3131886 L317.713145,79.5346886 L316.489115,67.3120295 L312.202678,58.1457341 L306.078796,51.4235977 L306.078796,45.3118023 L303.017322,34.3116886 L298.730885,30.0337114 L291.995455,28.200825 L285.259091,27.5895523 L281.126708,29.4224386 L276.68715,17.2007114 L267.501794,14.1443477 L262.603808,14.1443477 L260.766364,8.64475682 Z" id="Fill-24" fill="#D3D3D3"></path>
                <path d="M3.98775921,171.033643 C3.81503194,171.033643 3.67404914,171.17528 3.67404914,171.347666 C3.67404914,171.51912 3.81503194,171.658893 3.98775921,171.658893 L103.821322,171.653302 C104.012722,171.627211 104.14717,171.440848 104.123828,171.299211 C103.280732,166.18353 101.164123,162.17112 97.9990123,159.697143 C96.4920835,158.519325 94.780683,157.703984 92.9096265,157.274416 C91.1394054,156.87187 89.2916904,156.823416 87.4084963,157.129984 C84.8465307,157.550234 82.3704619,158.623689 80.247317,160.232007 L77.9056953,162.005257 L77.3352285,159.127802 C76.2120344,153.490302 73.3942457,148.961666 69.1834349,146.032961 C66.7307076,144.33053 63.8858428,143.275711 60.9550811,142.986848 C58.0103145,142.698916 55.0347371,143.191848 52.342059,144.414393 C47.4935577,146.620007 43.8578821,150.929666 41.8290369,156.875598 L41.0765061,159.084939 L39.1036806,157.831643 C35.880683,155.783507 32.4896265,154.773416 29.3021081,154.935552 C27.5925749,155.017552 25.9857445,155.425689 24.5245651,156.146916 C23.0521818,156.875598 21.7581278,157.90712 20.6825504,159.21353 C18.5958182,161.747143 17.4175381,165.222825 17.2756216,169.265984 L17.2149337,171.033643 L3.98775921,171.033643 Z M103.821322,175.325598 L3.98775921,175.325598 C1.78898771,175.325598 9.33660934e-05,173.540234 9.33660934e-05,171.347666 C9.33660934e-05,169.152302 1.78898771,167.366939 3.98775921,167.366939 L13.7277101,167.366939 C14.1543931,163.251098 15.5623538,159.656143 17.8442211,156.885848 C19.2531155,155.175961 20.953312,153.821098 22.8943931,152.861325 C24.8102654,151.913666 26.9072678,151.378802 29.1228452,151.271643 C32.4382752,151.125348 35.8517396,151.922984 39.1419607,153.623552 C41.6124275,147.820189 45.6990614,143.407098 50.8183243,141.077552 C54.1020098,139.587575 57.7311499,138.98562 61.3164079,139.337848 C64.8689877,139.689143 68.3151302,140.96387 71.2823047,143.025052 C75.5454005,145.988234 78.6843686,150.472143 80.294,155.82078 C82.3256462,154.67278 84.5393563,153.886325 86.8109533,153.512666 C89.1572432,153.124098 91.4876609,153.189325 93.7312482,153.700893 C96.1335577,154.25253 98.3313956,155.29803 100.265007,156.81037 C104.166776,159.862075 106.755818,164.667461 107.750167,170.705643 C107.921027,171.75487 107.674541,172.805961 107.051789,173.669757 C106.682059,174.183189 106.204958,174.591325 105.657833,174.874598 L105.657833,175.320939 L103.821322,175.325598 Z M27.9100197,189.385802 L38.876801,189.385802 L38.876801,185.718166 L27.9100197,185.718166 L27.9100197,189.385802 Z M106.908005,189.385802 L49.6036314,189.385802 L49.6036314,185.719098 L104.274147,185.719098 C105.810953,181.768189 108.310364,178.562734 111.564172,176.399984 C114.341813,174.554052 117.569479,173.551416 120.89798,173.502961 C124.191002,173.433075 127.470953,174.351848 130.342894,176.10087 C134.214786,178.464893 137.167022,182.208007 138.878423,186.92953 L135.422943,188.17537 C133.998177,184.247757 131.579995,181.153189 128.426088,179.230848 C126.149823,177.84337 123.613066,177.093257 120.953066,177.169666 C118.33228,177.206939 115.789921,177.99712 113.599553,179.450757 C110.702403,181.37962 108.531641,184.373552 107.318816,188.116666 L106.908005,189.385802 Z" id="Fill-26" fill="#000000"></path>
                <path d="M177.18457,202.46797 C177.283538,199.576539 178.149975,197.238607 179.519656,195.54922 C180.286192,194.605289 181.206781,193.866357 182.236609,193.348266 C183.263636,192.83297 184.398968,192.538516 185.597789,192.47888 C187.701327,192.37638 189.999066,193.00722 192.243587,194.453402 C193.672088,190.194993 196.276069,187.433084 199.261916,186.053993 C201.128305,185.192061 203.135676,184.874311 205.098231,185.070925 C207.06172,185.267539 208.976658,185.973857 210.656314,187.160061 C213.260295,188.99947 215.308747,191.985016 216.094889,195.996493 C217.539263,194.885766 219.227322,194.145902 220.964865,193.856107 C222.225307,193.645516 223.515627,193.670675 224.760197,193.959539 C226.016904,194.253061 227.225995,194.814948 228.310909,195.67688 C230.306143,197.26097 231.858821,199.839311 232.466634,203.586152 C232.583342,204.311107 232.097838,204.993198 231.384521,205.110607 C231.313563,205.12272 231.242604,205.12738 231.173514,205.12738 L231.173514,205.131107 L178.502899,205.131107 C178.502899,205.131107 176.328403,205.108743 177.18457,202.46797" id="Fill-28" fill="#D3F3DA"></path>
                <path d="M178.85769,203.296916 L230.547961,203.29878 C230.00457,200.574143 228.842162,198.443075 227.167174,197.112439 C226.329681,196.444325 225.380147,195.986802 224.345651,195.745461 C223.35317,195.513439 222.321474,195.487348 221.266437,195.665325 C219.82113,195.905734 218.419705,196.521666 217.216216,197.447893 L214.862457,199.257484 L214.29199,196.348348 C213.470369,192.151439 211.282801,189.848916 209.595676,188.65712 C208.20172,187.672189 206.582752,187.061848 204.9143,186.895052 C203.248649,186.721734 201.561523,187.013393 200.034054,187.716916 C197.252678,189.002825 195.161278,191.532711 193.983931,195.036348 L193.232334,197.275507 L191.245504,195.994257 C189.40059,194.803393 187.463243,194.199575 185.688354,194.310461 C184.74629,194.357052 183.863047,194.582552 183.062899,194.98603 C182.254349,195.39137 181.543833,195.969098 180.947224,196.70337 C179.769877,198.156075 179.10231,200.171598 179.019214,202.530961 L178.93145,203.03228 C178.898771,203.135711 178.874496,203.224234 178.85769,203.296916 Z M178.502899,206.966416 C178.19199,206.962689 176.698133,206.88162 175.764472,205.589189 C175.308845,204.95462 174.882162,203.854143 175.358329,202.161961 C175.506781,199.100007 176.450713,196.418234 178.092088,194.395257 C179.017346,193.254711 180.133071,192.350848 181.412187,191.708825 C182.671695,191.077984 184.049779,190.719234 185.508157,190.648416 C187.394152,190.548711 189.391253,190.965234 191.308059,191.84953 C192.906486,188.424166 195.405897,185.815075 198.490713,184.390325 C200.612924,183.40912 202.959214,183.013098 205.281229,183.246052 C207.580835,183.477143 209.806683,184.313916 211.716953,185.663189 C214.23317,187.439234 216.134103,190.044598 217.223686,193.150348 C218.316069,192.619211 219.476609,192.247416 220.659558,192.048007 C222.194496,191.789893 223.71543,191.832757 225.17941,192.174734 C226.750762,192.540007 228.189533,193.237007 229.455577,194.244302 C231.974595,196.243052 233.643047,199.372098 234.279803,203.293189 C234.556167,205.01053 233.391892,206.636552 231.686093,206.918893 C231.531106,206.94778 231.349042,206.962689 231.174447,206.962689 L178.502899,206.966416 Z" id="Fill-30" fill="#000000"></path>
                <path d="M182.69541,194.425541 C182.544157,194.425541 182.391971,194.406905 182.239784,194.367768 C181.256639,194.119905 180.661897,193.120995 180.913985,192.139791 C181.766418,188.800155 183.385386,186.493905 185.728875,185.285336 C187.451479,184.397314 189.212364,184.306927 190.545631,184.445768 C190.878015,183.147745 191.474624,181.99695 192.314919,181.051155 C193.00116,180.273086 193.835853,179.652495 194.791921,179.210814 C195.719047,178.784973 196.729268,178.544564 197.796442,178.496109 C199.045681,178.446723 200.32573,178.65545 201.58057,179.123223 C202.751381,177.052723 204.482388,175.472359 206.584993,174.580609 C208.125533,173.932995 209.82573,173.674882 211.49885,173.823973 C213.159833,173.975859 214.772265,174.532155 216.161553,175.431359 C217.842143,176.517859 219.152069,178.068405 219.979292,179.919927 C220.628187,179.671132 221.303224,179.490359 221.989464,179.384132 C223.105189,179.214541 224.208776,179.241564 225.271283,179.469859 C226.422486,179.715859 227.481258,180.184564 228.415853,180.864791 C230.293445,182.228973 231.537081,184.358177 232.00858,187.022245 C232.186909,188.017427 231.519342,188.970677 230.520324,189.145859 C229.524108,189.326632 228.568039,188.657586 228.391577,187.659609 C228.083469,185.924564 227.36455,184.635859 226.251627,183.827973 C225.737179,183.45245 225.148973,183.192473 224.50288,183.054564 C223.87826,182.922245 223.220029,182.910132 222.545926,183.007973 C221.625337,183.149609 220.73369,183.509291 219.969956,184.046018 C219.463912,184.402905 218.816885,184.482109 218.239882,184.254745 C217.666614,184.031109 217.242732,183.533518 217.115754,182.931564 C216.59944,180.519086 215.225091,179.194041 214.162585,178.509155 C213.269071,177.930495 212.232708,177.572677 211.160865,177.4767 C210.085287,177.373268 209.001307,177.541927 208.018162,177.957518 C206.258211,178.703905 204.93428,180.17245 204.190152,182.204745 C204.001553,182.715382 203.596344,183.116995 203.083764,183.300564 C202.566516,183.481336 201.999784,183.429155 201.530152,183.153336 C200.337867,182.450745 199.098899,182.111564 197.964501,182.160018 C197.373494,182.186109 196.824501,182.315632 196.332462,182.541132 C195.845091,182.764768 195.419342,183.081586 195.070152,183.479473 C194.36057,184.275245 193.964698,185.3897 193.915214,186.703564 C193.892806,187.2962 193.586565,187.841314 193.090791,188.166518 C192.594084,188.492655 191.972265,188.555086 191.419538,188.347291 C191.410201,188.343564 189.259047,187.57295 187.38799,188.55695 C186.031381,189.269791 185.051971,190.780268 184.472167,193.045518 C184.26116,193.873905 183.515165,194.425541 182.69541,194.425541" id="Fill-32" fill="#000000"></path>
                <path d="M280.858373,188.162139 L284.393214,187.871411 C284.578079,185.755252 285.31287,184.074252 286.398717,182.88898 C287.005597,182.226457 287.718914,181.72048 288.50599,181.381298 C289.290265,181.043048 290.146432,180.871593 291.042747,180.87532 C292.613165,180.881843 294.299356,181.432548 295.915523,182.58148 C297.143287,179.513934 299.189872,177.58973 301.465204,176.694252 C302.889037,176.136093 304.395966,175.981411 305.850609,176.20132 C307.304319,176.42123 308.702943,177.013866 309.9083,177.949411 C311.777489,179.39932 313.188251,181.667366 313.619602,184.639866 C314.737194,183.881366 316.023779,183.405207 317.329037,183.259843 C318.275769,183.154548 319.235572,183.22257 320.151494,183.48348 C321.075818,183.747184 321.954393,184.20657 322.729332,184.881207 C324.155032,186.119593 326.899061,189.76673 326.285646,193.508911" id="Fill-34" fill="#D3D3D3"></path>
                <path d="M326.2877,195.342823 C326.189666,195.342823 326.090698,195.335368 325.989862,195.319527 C324.988044,195.156459 324.309273,194.212527 324.472663,193.213618 C324.942295,190.339891 322.644555,187.237868 321.522295,186.263186 C320.977971,185.787027 320.347749,185.446914 319.648437,185.248436 C318.98087,185.056482 318.268486,184.998709 317.532762,185.083505 C316.517872,185.196255 315.52259,185.567118 314.65055,186.157891 C314.124899,186.509186 313.457332,186.571618 312.876595,186.3163 C312.298658,186.060982 311.891582,185.527982 311.801017,184.902732 C311.374334,181.955391 309.923425,180.283709 308.782491,179.399414 C307.840428,178.667936 306.734039,178.188982 305.574432,178.012868 C304.421361,177.83955 303.228143,177.971868 302.139494,178.399573 C300.140526,179.187891 298.580378,180.867027 297.622442,183.260868 C297.412369,183.781755 296.976349,184.180573 296.433892,184.33805 C295.892369,184.495527 295.311631,184.39955 294.850403,184.073414 C293.600231,183.185391 292.280034,182.712959 291.032663,182.707368 L291.01399,182.707368 C290.381902,182.707368 289.782491,182.827573 289.233499,183.063323 C288.677971,183.303732 288.179396,183.66155 287.75458,184.127459 C286.892811,185.0658 286.365292,186.413209 286.223376,188.029914 C286.146816,188.9198 285.438167,189.623323 284.544654,189.6988 L281.00888,189.991391 C280.016398,190.051027 279.110747,189.321414 279.026717,188.313186 C278.943622,187.304959 279.695219,186.4188 280.707307,186.334936 L282.794973,186.16255 C283.178708,184.392095 283.942442,182.852732 285.043229,181.653482 C285.820034,180.803664 286.738757,180.144868 287.77512,179.697595 C288.798413,179.256845 289.931877,178.986618 291.049469,179.040664 C292.414482,179.046255 293.799101,179.375186 295.134236,180.0023 C296.502983,177.65505 298.461803,175.907891 300.790354,174.989118 C302.48028,174.324732 304.325194,174.116005 306.12716,174.389959 C307.905784,174.658323 309.602246,175.3898 311.037283,176.503323 C312.793499,177.864709 314.108093,179.7563 314.860624,181.966573 C315.594482,181.702868 316.356349,181.523959 317.125686,181.438232 C318.331975,181.305914 319.522393,181.398164 320.656791,181.721505 C321.879887,182.070005 322.985342,182.669164 323.936742,183.500345 C325.358708,184.735936 328.883278,188.999005 328.099002,193.804391 C327.952418,194.702664 327.171877,195.342823 326.2877,195.342823" id="Fill-36" fill="#000000"></path>
                <path d="M216.317194,95.0645568 C203.065744,101.758739 187.417587,97.5115114 181.365597,85.5795795 C175.313607,73.6476477 179.020241,52.4925795 196.930658,47.9098977" id="Fill-38" fill="#D3D3D3"></path>
                <path d="M203.215877,100.076714 C200.663248,100.076714 198.126491,99.7459182 195.659759,99.0759409 C188.548998,97.1461455 182.890079,92.6463955 179.725902,86.4069409 C175.897892,78.8554864 175.846541,68.6418273 179.595189,60.3877818 C181.925607,55.2590545 186.743297,48.6226455 196.473912,46.1328273 C197.457057,45.8775091 198.456074,46.4720091 198.710029,47.4532136 C198.960251,48.4344182 198.369243,49.4333273 197.386098,49.6849182 C189.067179,51.8141227 184.939464,57.5038045 182.940496,61.9019864 C179.684821,69.0713955 179.710029,78.2535318 183.005853,84.7529636 C185.691995,90.0540773 190.529292,93.88385 196.623297,95.5359636 C202.785459,97.2104409 209.484477,96.4603273 215.48885,93.4272591 C216.390767,92.9669409 217.498088,93.33035 217.956516,94.2360773 C218.41401,95.1390091 218.052683,96.2422818 217.146098,96.6998045 C212.718678,98.9361682 207.946737,100.076714 203.215877,100.076714" id="Fill-40" fill="#000000"></path>
                <path d="M305.92857,50.1471 C319.986703,59.5062818 324.480413,77.4186227 315.967292,90.1556455 C307.454172,102.891736 289.635253,104.936145 275.57712,95.5769636" id="Fill-42" fill="#D3D3D3"></path>
                <path d="M294.090029,103.226166 C287.577744,103.226166 280.753617,101.228348 274.557843,97.1031886 C273.71288,96.5413023 273.485066,95.4026205 274.048064,94.5611886 C274.60826,93.7169614 275.751995,93.4914614 276.596025,94.0524159 C290.008998,102.979234 306.631897,100.821143 314.438236,89.137075 C318.265312,83.4138477 319.398776,76.3786205 317.630423,69.3303477 C315.845263,62.2159159 311.326344,55.9457114 304.909292,51.6723932 C304.064329,51.1105068 303.835582,49.971825 304.399514,49.1294614 C304.95971,48.2880295 306.103445,48.0588023 306.947474,48.6216205 C314.126393,53.4018477 319.186835,60.4398705 321.194206,68.4395295 C323.218383,76.5044159 321.902855,84.5776886 317.495042,91.1712341 C312.210521,99.0777114 303.474256,103.224302 294.090029,103.226166" id="Fill-44" fill="#000000"></path>
                <path d="M219.641587,27.2265159 C218.755543,27.2265159 217.975002,26.585425 217.830285,25.6843568 C217.299966,22.4043568 218.623897,19.0777659 221.555592,16.3186523 C224.295887,13.7412432 228.169646,11.9428341 232.459818,11.2532886 C236.744388,10.5665386 240.990678,11.0594705 244.404143,12.6500841 C248.05569,14.3515841 250.359032,17.0948568 250.88655,20.3757886 C251.048074,21.3765614 250.365568,22.3167659 249.363749,22.4770386 C248.362865,22.6335841 247.420801,21.9570841 247.259278,20.958175 C246.931563,18.9146977 245.36488,17.1433114 242.849597,15.9729477 C240.099032,14.6916977 236.61741,14.2984705 233.043356,14.8734023 C229.472103,15.4474023 226.287386,16.9084932 224.075543,18.9873795 C222.057902,20.886425 221.127042,23.0584932 221.456624,25.1010386 C221.618147,26.1008795 220.936575,27.0420159 219.934757,27.2032205 C219.836722,27.2190614 219.738688,27.2265159 219.641587,27.2265159" id="Fill-46" fill="#000000"></path>
                <path d="M280.122555,28.4618273 L280.101081,28.4618273 C279.088059,28.4497136 278.27484,27.6194636 278.285111,26.6065773 C278.316855,23.8567818 277.034939,21.2355773 274.67371,19.2256455 C272.216314,17.1346455 268.910221,15.9605545 265.365111,15.9214182 C258.219803,15.8673727 252.273317,20.5003727 252.20516,26.3083955 C252.192088,27.3138273 251.372334,28.1207818 250.367715,28.1207818 L250.346241,28.1207818 C249.332285,28.1096 248.52,27.2784182 248.531204,26.2655318 C248.620835,18.4345318 256.275921,12.1894864 265.408059,12.2537818 C269.81027,12.3041 273.948256,13.7894182 277.056413,16.4367136 C280.261671,19.1641455 282.004816,22.7917136 281.96,26.6494409 C281.946929,27.6548727 281.127174,28.4618273 280.122555,28.4618273" id="Fill-48" fill="#000000"></path>
                <path d="M238.798909,11.8693136 C238.85773,6.71263182 244.581071,2.59772273 251.581661,2.67785909 C258.582251,2.75892727 264.209425,7.00335909 264.149671,12.1600409" id="Fill-50" fill="#D3D3D3"></path>
                <path d="M264.150885,13.9935795 L264.12941,13.9935795 C263.116388,13.9814659 262.30317,13.1521477 262.31344,12.1392614 C262.36199,8.00198864 257.538698,4.58035227 251.5614,4.51139773 C251.501646,4.51046591 251.440958,4.51046591 251.379337,4.51046591 C245.485135,4.51046591 240.682383,7.795125 240.6357,11.8895341 C240.623563,12.8949659 239.803808,13.7028523 238.799189,13.7028523 L238.776781,13.7028523 C237.763759,13.6907386 236.950541,12.8614205 236.961744,11.8485341 C237.033636,5.68921591 243.674767,0.785056818 251.604349,0.844693182 C259.604889,0.936943182 266.05742,6.02280682 265.988329,12.1802614 C265.975258,13.1856932 265.155504,13.9935795 264.150885,13.9935795" id="Fill-52" fill="#000000"></path>
                <path d="M271.897376,33.1581909 C279.612216,25.1501455 292.371627,24.8994864 300.395509,32.5991 C308.420324,40.2996455 308.671479,53.0338727 300.956639,61.04285" id="Fill-54" fill="#D3D3D3"></path>
                <path d="M300.957572,62.8758295 C300.500079,62.8758295 300.040717,62.7053068 299.684059,62.3642614 C298.953936,61.6626023 298.929661,60.5015568 299.633641,59.7719432 C306.633297,52.5046932 306.403617,40.9082159 299.121995,33.9205114 C291.842241,26.9356023 280.224698,27.1601705 273.221307,34.4292841 C272.517327,35.1607614 271.356786,35.1821932 270.623862,34.4796023 C269.89374,33.7779432 269.869464,32.6178295 270.573445,31.8882159 C278.977327,23.1654659 292.925287,22.8868523 301.669956,31.277875 C310.409022,39.6661023 310.685386,53.5893295 302.281504,62.3130114 C301.920177,62.6876023 301.440275,62.8758295 300.957572,62.8758295" id="Fill-56" fill="#000000"></path>
                <path d="M202.063366,63.2907682 C194.603415,53.4749955 196.52769,39.4828136 206.362875,32.0366545 C216.198059,24.5914273 230.218845,26.5119045 237.678796,36.3276773" id="Fill-58" fill="#D3D3D3"></path>
                <path d="M202.0643,65.1248659 C201.507838,65.1248659 200.960713,64.8751386 200.599386,64.3999114 C192.540025,53.793025 194.626757,38.6202295 205.251818,30.5758432 C215.883415,22.5333205 231.083415,24.6140705 239.14371,35.220025 C239.757125,36.0260477 239.596536,37.1768432 238.789853,37.7890477 C237.979435,38.3993886 236.827297,38.2409795 236.215749,37.4358886 C229.380418,28.4410477 216.487494,26.6761841 207.472998,33.498025 C198.462236,40.3198659 196.691081,53.1892068 203.526413,62.1831159 C204.139828,62.9900705 203.980172,64.1399341 203.172555,64.7521386 C202.841106,65.0027977 202.449902,65.1248659 202.0643,65.1248659" id="Fill-60" fill="#000000"></path>
                <path d="M231.775538,189.197761 C231.234015,189.197761 230.673818,189.162352 230.095882,189.088739 C229.090329,188.959216 228.379813,188.041375 228.506791,187.036875 C228.63657,186.033307 229.554359,185.335375 230.562713,185.45092 C232.737209,185.729534 234.414064,185.287852 235.670771,184.096989 C238.441877,181.46833 238.651951,175.691057 238.49883,173.686716 L238.493229,106.902375 C238.493229,103.101489 235.12458,101.936716 235.090968,101.926466 C234.129297,101.60592 233.609248,100.567875 233.92856,99.6062386 C234.248806,98.6464659 235.281435,98.1311705 236.253376,98.446125 C238.298093,99.1263523 242.168118,101.768989 242.168118,106.902375 L242.168118,173.547875 C242.191459,173.773375 242.79087,182.402943 238.200059,186.755466 C236.486791,188.379625 234.330034,189.197761 231.775538,189.197761" id="Fill-62" fill="#000000"></path>
                <path d="M278.36914,189.9858 C275.008894,189.9858 272.185504,188.958936 269.952187,186.927573 C264.790909,182.229345 264.888943,173.866277 264.894545,173.513118 L264.894545,106.902095 C264.894545,101.879595 268.599312,99.24255 270.675774,98.4943 C271.499263,98.0926864 275.615774,96.2868227 280.834939,97.2102545 C281.833956,97.3873 282.499656,98.3377545 282.321327,99.3357318 C282.143931,100.330914 281.187862,100.9953 280.191646,100.820118 C275.704472,100.023414 272.282604,101.788277 272.249926,101.806914 C272.161229,101.854436 272.067862,101.893573 271.971695,101.926186 C271.636511,102.044527 268.569435,103.2298 268.569435,106.902095 L268.569435,173.547595 C268.567568,173.650095 268.50688,180.662959 272.438526,184.227164 C274.31145,185.9268 276.780049,186.580005 279.966634,186.225914 C280.949779,186.125277 281.882506,186.838118 281.995479,187.845414 C282.106585,188.851777 281.380197,189.758436 280.371843,189.871186 C279.684668,189.945732 279.017101,189.9858 278.36914,189.9858" id="Fill-64" fill="#000000"></path>
                <path d="M256.865808,163.426186 C256.042319,163.426186 255.21883,163.421527 254.388806,163.412209 C230.922172,163.141982 205.707725,158.995391 205.804826,150.53355 C205.848708,146.676755 210.988511,143.640891 221.082319,141.507027 C222.068265,141.297368 223.049543,141.931005 223.259617,142.920595 C223.468757,143.91205 222.836668,144.8858 221.842319,145.094527 C211.727971,147.233982 209.488118,149.776914 209.478781,150.577345 C209.444236,153.510709 225.281926,159.408186 254.431754,159.745505 C266.82517,159.892732 278.47259,158.946936 287.220993,157.095414 C297.335342,154.955959 299.57426,152.412095 299.582663,151.611664 C299.592,150.7898 297.326005,148.133186 286.868069,145.733755 C285.879322,145.507323 285.260305,144.523323 285.488118,143.536527 C285.714998,142.550664 286.702811,141.931005 287.68969,142.160232 C298.065464,144.539164 303.301435,147.733436 303.257553,151.654527 C303.212737,155.509459 298.074801,158.548118 287.980993,160.681982 C279.565907,162.463618 268.594457,163.426186 256.865808,163.426186" id="Fill-66" fill="#000000"></path>
                <path d="M236.090079,94.8980409 C233.314305,103.264836 224.290472,107.809314 215.93514,105.049268 C207.579808,102.288291 203.056221,93.2673591 205.831995,84.9005636" id="Fill-68" fill="#D3D3D3"></path>
                <path d="M220.947219,107.695073 C219.072428,107.695073 217.189233,107.394095 215.357391,106.789345 C206.054393,103.715277 200.998619,93.6367318 204.08717,84.3250727 C204.405548,83.3634364 205.444713,82.8462773 206.409184,83.1612318 C207.372722,83.4799136 207.894639,84.5160955 207.575327,85.4777318 C205.123533,92.8707773 209.132673,100.870436 216.512329,103.308073 C220.088251,104.491482 223.910658,104.205414 227.278373,102.510436 C230.647956,100.812664 233.156703,97.9053909 234.34712,94.3206864 C234.663631,93.3609136 235.695327,92.8381636 236.668201,93.1568455 C237.630806,93.4755273 238.153656,94.5126409 237.83341,95.4733455 C236.336752,99.9842773 233.177243,103.645391 228.932821,105.782982 C226.411936,107.052118 223.688447,107.695073 220.947219,107.695073" id="Fill-70" fill="#000000"></path>
                <path d="M374.084044,111.27987 L373.18026,111.27987 C372.924437,111.27987 372.71343,111.070211 372.71343,110.813961 L372.71343,98.9127795 C372.71343,98.6555977 372.924437,98.4468705 373.18026,98.4468705 L374.084044,98.4468705 C374.339867,98.4468705 374.550875,98.6555977 374.550875,98.9127795 L374.550875,110.813961 C374.550875,111.070211 374.339867,111.27987 374.084044,111.27987" id="Fill-72" fill="#FEA200"></path>
                <path d="M368.585061,108.86348 L368.074349,108.119889 C367.928698,107.909298 367.98285,107.617639 368.194791,107.472275 L378.029975,100.741752 C378.24285,100.596389 378.534152,100.651366 378.679803,100.862889 L379.189582,101.60648 C379.336167,101.81707 379.281081,102.10873 379.06914,102.254093 L369.233956,108.984616 C369.022015,109.129048 368.729779,109.075002 368.585061,108.86348" id="Fill-74" fill="#FEA200"></path>
                <path d="M367.706113,102.333484 L368.118791,101.531189 C368.235499,101.303825 368.519332,101.212507 368.747145,101.329916 L379.356334,106.766143 C379.585081,106.88262 379.674713,107.164961 379.558005,107.393257 L379.145327,108.195552 C379.028619,108.422916 378.744786,108.513302 378.516973,108.396825 L367.908717,102.960598 C367.679971,102.843189 367.589405,102.56178 367.706113,102.333484" id="Fill-76" fill="#FEA200"></path>
                <path d="M358.936609,70.5101227 C360.738575,70.5101227 360.74231,67.7146682 358.936609,67.7146682 C357.13371,67.7146682 357.130909,70.5101227 358.936609,70.5101227" id="Fill-78" fill="#000000"></path>
                <path d="M117.480408,96.2106932 C119.283307,96.2106932 119.286108,93.4152386 117.480408,93.4152386 C115.677509,93.4152386 115.674708,96.2106932 117.480408,96.2106932" id="Fill-80" fill="#000000"></path>
                <path d="M99.7226437,211.713377 C101.525543,211.713377 101.528344,208.917923 99.7226437,208.917923 C97.9206781,208.917923 97.9169435,211.713377 99.7226437,211.713377" id="Fill-82" fill="#000000"></path>
                <path d="M87.5121327,121.363355 L86.6092826,121.363355 C86.3525258,121.363355 86.1424521,121.153695 86.1424521,120.897445 L86.1424521,108.996264 C86.1424521,108.740014 86.3525258,108.530355 86.6092826,108.530355 L87.5121327,108.530355 C87.7688894,108.530355 87.9789631,108.740014 87.9789631,108.996264 L87.9789631,120.897445 C87.9789631,121.153695 87.7688894,121.363355 87.5121327,121.363355" id="Fill-84" fill="#FEA200"></path>
                <path d="M82.0131499,118.946964 L81.5024373,118.203373 C81.3577199,117.992782 81.4109386,117.701123 81.6238133,117.555759 L91.4589975,110.825236 C91.6709386,110.680805 91.9622408,110.73485 92.1088256,110.946373 L92.6186044,111.689964 C92.7642555,111.900555 92.7091695,112.192214 92.4972285,112.337577 L82.6620442,119.0681 C82.4510369,119.212532 82.1578673,119.158486 82.0131499,118.946964" id="Fill-86" fill="#FEA200"></path>
                <path d="M81.1351351,112.416875 L81.5468796,111.61458 C81.6645209,111.387216 81.9474201,111.295898 82.1752334,111.413307 L92.7853563,116.849534 C93.0131695,116.966011 93.1037346,117.248352 92.9860934,117.476648 L92.5743489,118.278943 C92.4567076,118.506307 92.1738084,118.597625 91.9450614,118.480216 L81.3368059,113.043989 C81.1089926,112.92658 81.0174939,112.64517 81.1351351,112.416875" id="Fill-88" fill="#FEA200"></path>
                <path d="M278.143101,202.46797 C278.242069,199.576539 279.107572,197.238607 280.478187,195.54922 C281.243789,194.605289 282.165312,193.866357 283.19514,193.348266 C284.222167,192.83297 285.356565,192.538516 286.556319,192.47888 C288.659857,192.37638 290.957597,193.00722 293.201184,194.453402 C294.630619,190.194993 297.2346,187.433084 300.220447,186.053993 C302.085902,185.192061 304.094206,184.874311 306.056762,185.070925 C308.019317,185.267539 309.934256,185.973857 311.614845,187.160061 C314.218826,188.99947 316.267278,191.985016 317.05342,195.996493 C318.497794,194.885766 320.185853,194.145902 321.922462,193.856107 C323.183838,193.645516 324.474157,193.670675 325.718727,193.959539 C326.975435,194.253061 328.184526,194.814948 329.26944,195.67688 C331.264673,197.26097 332.816418,199.839311 333.425165,203.586152 C333.541872,204.311107 333.056369,204.993198 332.343052,205.110607 C332.272093,205.12272 332.201135,205.12738 332.132044,205.12738 L332.132044,205.131107 L279.46143,205.131107 C279.46143,205.131107 277.286934,205.108743 278.143101,202.46797" id="Fill-90" fill="#F7C567"></path>
                <path d="M278.143941,202.46797 L278.161681,202.46797 L278.143941,202.46797 Z M279.817061,203.297289 L331.507332,203.299152 C330.963941,200.57638 329.801533,198.443448 328.124678,197.110948 C327.289052,196.444698 326.337651,195.987175 325.303155,195.744902 C324.312541,195.515675 323.278978,195.485857 322.227676,195.664766 C320.778634,195.906107 319.377209,196.523902 318.17372,197.447334 C317.669543,197.835902 317.000108,197.934675 316.404432,197.71197 C315.80969,197.487402 315.371803,196.972107 315.249494,196.34872 C314.427872,192.151811 312.242172,189.849289 310.553179,188.657493 C309.159224,187.672561 307.540256,187.06222 305.874604,186.895425 C304.204285,186.722107 302.51716,187.013766 300.991558,187.717289 C298.208314,189.003198 296.118781,191.533084 294.943302,195.035789 C294.764973,195.573448 294.344826,195.998357 293.809838,196.183789 C293.268314,196.370152 292.679174,196.300266 292.204875,195.99463 C290.359961,194.802834 288.433818,194.19622 286.646791,194.310834 C285.703794,194.357425 284.82055,194.584789 284.020403,194.986402 C283.215587,195.390811 282.503204,195.968539 281.903794,196.704675 C280.727381,198.158311 280.059813,200.172902 279.978585,202.530402 C279.972983,202.700925 279.944973,202.871448 279.890821,203.033584 C279.857209,203.136084 279.833867,203.224607 279.817061,203.297289 Z M279.781582,203.607584 L279.801189,203.607584 L279.781582,203.607584 Z M279.46227,206.965857 C279.151361,206.96213 277.655636,206.881061 276.723843,205.587698 C276.267283,204.95313 275.841533,203.853584 276.3177,202.162334 C276.464285,199.102243 277.408216,196.422334 279.049592,194.397493 C279.978585,193.252289 281.096177,192.349357 282.36969,191.709198 C283.627332,191.077425 285.007283,190.719607 286.463794,190.647857 C288.374064,190.549084 290.351558,190.964675 292.26743,191.84897 C293.86399,188.424539 296.361533,185.815448 299.448216,184.390698 C301.574162,183.409493 303.929789,183.020925 306.2406,183.246425 C308.538339,183.477516 310.763253,184.314289 312.674457,185.663561 C315.190673,187.439607 317.093474,190.04497 318.181189,193.15072 C319.27544,192.619584 320.434113,192.246857 321.618929,192.047448 C323.150133,191.790266 324.671066,191.831266 326.136914,192.175107 C327.706398,192.54038 329.147037,193.235516 330.413081,194.242811 C332.933032,196.242493 334.60055,199.374334 335.239174,203.293561 C335.511803,205.013698 334.345661,206.638789 332.643597,206.918334 C332.489543,206.948152 332.31028,206.96213 332.131951,206.96213 L279.46227,206.965857 Z" id="Fill-92" fill="#000000"></path>
                <path d="M220.10655,206.309018 C220.236329,202.547268 221.362324,199.50395 223.144683,197.306723 C224.141833,196.078586 225.338786,195.116018 226.679523,194.444177 C228.015592,193.772336 229.492644,193.389359 231.052791,193.31295 C233.789351,193.178768 236.778934,193.998768 239.698491,195.881973 C241.559278,190.339518 244.945666,186.747359 248.830629,184.952677 C251.258147,183.830768 253.870531,183.417973 256.425027,183.673291 C258.97859,183.928609 261.470531,184.848314 263.656231,186.392336 C267.043553,188.784314 269.709155,192.669064 270.732447,197.889109 C272.610039,196.443859 274.807877,195.481291 277.067337,195.103905 C278.709646,194.830882 280.387435,194.862564 282.007337,195.239018 C283.642177,195.6192 285.213528,196.350677 286.625224,197.472586 C289.221735,199.533768 291.241243,202.887382 292.032988,207.764518 C292.184241,208.705655 291.553086,209.593677 290.624093,209.746495 C290.533528,209.762336 290.441096,209.769791 290.350531,209.769791 L290.350531,209.77445 L221.822619,209.77445 C221.822619,209.77445 218.992693,209.744632 220.10655,206.309018" id="Fill-94" fill="#FA58B1"></path>
                <path d="M221.718609,207.917802 C221.753155,207.917802 221.83345,207.93737 221.891337,207.942961 L290.352025,207.936439 C289.562147,204.009757 287.924506,200.846234 285.482983,198.908984 C284.329912,197.990211 283.019052,197.358439 281.589617,197.023916 C280.235808,196.708961 278.809174,196.67262 277.370403,196.912098 C275.396644,197.241961 273.490108,198.08153 271.8534,199.340416 L269.500575,201.150007 L268.929174,198.24087 C268.054334,193.775598 265.862098,190.19462 262.595219,187.889302 C260.698953,186.549348 258.502983,185.724689 256.241656,185.498257 C253.981263,185.270893 251.677921,185.657598 249.603327,186.616439 C245.841607,188.35428 243.020084,191.758211 241.441263,196.462961 L240.689666,198.703052 L238.703769,197.42087 C236.20716,195.813484 233.587307,195.011189 231.142983,195.143507 C229.839592,195.207802 228.616496,195.522757 227.507307,196.079984 C226.385047,196.643734 225.3963,197.444166 224.572811,198.461711 C222.962246,200.44462 222.051926,203.180439 221.940821,206.372848 L221.85399,206.872302 C221.603769,207.643848 221.701803,207.92153 221.703671,207.923393 C221.703671,207.919666 221.709273,207.917802 221.718609,207.917802 Z M290.352025,211.607802 L221.822246,211.607802 C221.600034,211.605939 219.788732,211.544439 218.708486,210.045143 C217.94942,208.990325 217.80657,207.62987 218.279002,205.998257 C218.459199,202.108848 219.644948,198.707711 221.716742,196.153598 C222.873548,194.730711 224.26657,193.604143 225.855661,192.805575 C227.423278,192.016325 229.142147,191.569984 230.960919,191.48053 C233.525686,191.35753 236.186619,191.958552 238.752319,193.235143 C240.762491,188.647802 244.012565,185.158143 248.059052,183.288916 C250.730256,182.054257 253.691828,181.561325 256.607651,181.849257 C259.499199,182.13812 262.302983,183.191075 264.718364,184.89537 C268.052467,187.251007 270.540673,190.769552 271.879543,194.97112 C273.414482,194.150189 275.068929,193.578052 276.764457,193.296643 C278.692467,192.973302 280.594334,193.027348 282.42431,193.45412 C284.389666,193.911643 286.189764,194.781961 287.769518,196.038984 C290.938364,198.552098 293.040968,202.505802 293.847651,207.47053 C294.082934,208.944666 293.381754,210.354507 292.188536,211.085052 L292.188536,211.603143 L290.352025,211.607802 Z" id="Fill-96" fill="#000000"></path>
                <path d="M270.402958,81.3684136 L269.499174,81.3684136 C269.243351,81.3684136 269.032344,81.1587545 269.032344,80.9025045 L269.032344,69.0003909 C269.032344,68.7441409 269.243351,68.5344818 269.499174,68.5344818 L270.402958,68.5344818 C270.659715,68.5344818 270.869789,68.7441409 270.869789,69.0003909 L270.869789,80.9025045 C270.869789,81.1587545 270.659715,81.3684136 270.402958,81.3684136" id="Fill-98" fill="#FEA200"></path>
                <path d="M264.904069,78.9520227 L264.393356,78.2084318 C264.248639,77.9969091 264.301857,77.7061818 264.513799,77.5608182 L274.349916,70.8302955 C274.561857,70.6849318 274.85316,70.7399091 274.998811,70.9514318 L275.509523,71.6940909 C275.655174,71.9056136 275.600088,72.1972727 275.388147,72.3426364 L265.552963,79.0731591 C265.341956,79.2175909 265.048786,79.1635455 264.904069,78.9520227" id="Fill-100" fill="#FEA200"></path>
                <path d="M264.02512,72.4215614 L264.437799,71.6201977 C264.55544,71.3919023 264.838339,71.3005841 265.066152,71.4179932 L275.675342,76.8542205 C275.904088,76.9716295 275.994654,77.2539705 275.877012,77.4813341 L275.464334,78.2836295 C275.347627,78.511925 275.064727,78.6023114 274.83598,78.4849023 L264.227725,73.048675 C263.998978,72.9321977 263.908413,72.6498568 264.02512,72.4215614" id="Fill-102" fill="#FEA200"></path>
                <path d="M206.115361,76.8076295 C207.91826,76.8076295 207.921061,74.012175 206.115361,74.012175 C204.313396,74.012175 204.309661,76.8076295 206.115361,76.8076295" id="Fill-104" fill="#000000"></path>
                <path d="M241.019061,55.2656705 C242.821027,55.2656705 242.823828,52.4702159 241.019061,52.4702159 C239.216162,52.4702159 239.213361,55.2656705 241.019061,55.2656705" id="Fill-106" fill="#000000"></path>
                <path d="M293.373445,73.1408318 C295.17541,73.1408318 295.179145,70.3453773 293.373445,70.3453773 C291.570545,70.3453773 291.567744,73.1408318 293.373445,73.1408318" id="Fill-108" fill="#000000"></path>
            </g>
        </g>
    </g>
</svg>