<?xml version="1.0" encoding="utf-8"?>
<!-- Generator: Adobe Illustrator 22.1.0, SVG Export Plug-In . SVG Version: 6.00 Build 0)  -->
<svg version="1.1" id="boom" xmlns="http://www.w3.org/2000/svg" xmlns:xlink="http://www.w3.org/1999/xlink" x="0px" y="0px"
	 viewBox="0 0 459 246" style="enable-background:new 0 0 459 246;" xml:space="preserve">
<style type="text/css">
	.st0{fill:#EBEBEB;}
	.st1{fill:none;}
	.st2{fill:#FF8BA7;}
	.st3{fill:#94C7F7;}
	.st4{fill:#CDFF96;}
	.st5{fill:#FCD757;}
	.st6{fill:#FF5555;}
	.st7{fill:#D3D3D3;}
	.st8{fill:#D3F3DA;}
	.st9{fill:#F7C567;}
	.st10{fill:#FA58B1;}
	.st11{fill:#FEA200;}
</style>
<g id="clouds5">
	<path d="M424.9,195.9v-0.4c0.5-0.3,1-0.7,1.4-1.2c0.6-0.9,0.9-1.9,0.7-3c-1-6-3.6-10.8-7.5-13.9c-1.9-1.5-4.1-2.6-6.5-3.1
		c-2.2-0.5-4.6-0.6-6.9-0.2c-2.3,0.4-4.5,1.2-6.5,2.3c-1.6-5.3-4.7-9.8-9-12.8c-3-2.1-6.4-3.3-10-3.7s-7.2,0.2-10.5,1.7
		c-5.1,2.3-9.2,6.7-11.7,12.5c-3.3-1.7-6.7-2.5-10-2.3c-2.2,0.1-4.3,0.6-6.2,1.6c-1.9,1-3.6,2.3-5.1,4c-2.3,2.8-3.7,6.4-4.1,10.5
		h-9.7c-2.2,0-4,1.8-4,4s1.8,4,4,4h99.8L424.9,195.9z M322.9,191.9c0-0.2,0.1-0.3,0.3-0.3h13.2l0.1-1.8c0.1-4,1.3-7.5,3.4-10
		c1.1-1.3,2.4-2.3,3.8-3.1c1.5-0.7,3.1-1.1,4.8-1.2c3.2-0.2,6.6,0.8,9.8,2.9l2,1.3l0.8-2.2c2-5.9,5.7-10.2,10.5-12.4
		c2.7-1.2,5.7-1.7,8.6-1.4s5.8,1.3,8.2,3c2.9,2,6.7,6,8.2,13.1l0.6,2.9l2.3-1.8c2.1-1.6,4.6-2.7,7.2-3.1c1.9-0.3,3.7-0.3,5.5,0.1
		c1.9,0.4,3.6,1.2,5.1,2.4c3.2,2.5,5.3,6.5,6.1,11.6c0,0.1-0.1,0.3-0.3,0.4h-99.8C323.1,192.3,322.9,192.1,322.9,191.9z"/>
	<rect x="347.2" y="206.3" width="11" height="3.7"/>
	<path d="M449.6,196.7c-2.9-1.7-6.2-2.6-9.4-2.6c-3.3,0.1-6.6,1.1-9.3,2.9c-3.3,2.2-5.8,5.4-7.3,9.3h-54.7v3.7h57.3l0.4-1.3
		c1.2-3.7,3.4-6.7,6.3-8.7c2.2-1.5,4.7-2.2,7.4-2.3c2.6-0.1,5.2,0.7,7.5,2.1c3.2,1.9,5.6,5,7,8.9l3.5-1.2
		C456.4,202.8,453.5,199.1,449.6,196.7z"/>
</g>
<g id="clouds4">
	<path d="M130.3,176.1c-2.9-1.7-6.2-2.7-9.4-2.6c-3.3,0-6.6,1.1-9.3,2.9c-3.3,2.2-5.8,5.4-7.3,9.3H49.6v3.7h57.3l0.4-1.3
		c1.2-3.7,3.4-6.7,6.3-8.7c2.2-1.5,4.7-2.2,7.4-2.3c2.7-0.1,5.2,0.7,7.5,2.1c3.2,1.9,5.6,5,7,8.9l3.5-1.2
		C137.2,182.2,134.2,178.5,130.3,176.1z"/>
	<path d="M105.7,175.3v-0.4c0.5-0.3,1-0.7,1.4-1.2c0.6-0.9,0.9-1.9,0.7-3c-1-6-3.6-10.8-7.5-13.9c-1.9-1.5-4.1-2.6-6.5-3.1
		c-2.2-0.5-4.6-0.6-6.9-0.2c-2.3,0.4-4.5,1.2-6.5,2.3c-1.6-5.3-4.7-9.8-9-12.8c-3-2.1-6.4-3.3-10-3.7s-7.2,0.2-10.5,1.7
		c-5.1,2.3-9.2,6.7-11.7,12.5c-3.3-1.7-6.7-2.5-10-2.4c-2.2,0.1-4.3,0.6-6.2,1.6c-1.9,1-3.6,2.3-5.1,4c-2.3,2.8-3.7,6.4-4.1,10.5H4
		c-2.2,0-4,1.8-4,4s1.8,4,4,4h99.8L105.7,175.3z M3.7,171.3c0-0.2,0.1-0.3,0.3-0.3h13.2l0.1-1.8c0.1-4,1.3-7.5,3.4-10.1
		c1.1-1.3,2.4-2.3,3.8-3.1c1.5-0.7,3.1-1.1,4.8-1.2c3.2-0.2,6.6,0.8,9.8,2.9l2,1.3l0.8-2.2c2-5.9,5.7-10.3,10.5-12.5
		c2.7-1.2,5.7-1.7,8.6-1.4s5.8,1.3,8.2,3c4.2,2.9,7,7.5,8.2,13.1l0.6,2.9l2.3-1.8c2.1-1.6,4.6-2.7,7.2-3.1c1.9-0.3,3.7-0.3,5.5,0.1
		c1.9,0.4,3.6,1.2,5.1,2.4c3.2,2.5,5.3,6.5,6.1,11.6c0,0.1-0.1,0.3-0.3,0.4H4.1C3.8,171.7,3.7,171.5,3.7,171.3z"/>
	<rect x="27.9" y="185.7" width="11" height="3.7"/>
</g>
<g id="laptop">
	<path class="st0" d="M336.9,97.7H165.1c-14.6,0-13.8,14.7-13.8,14.7v114.4c-1.4-1.4,201.2,0,201.2,0V111.5
		C352.5,97.4,336.9,97.7,336.9,97.7z"/>
	<g>
		<path class="st1" d="M337,99.6H165.1c-3.7,0-6.7,1.1-8.7,3.2c-3.5,3.7-3.3,9.5-3.3,9.5v112.5c3.8-0.3,11.9-0.3,29.8-0.4
			c5.8,0,12.5,0,19.9,0c13.8,0,30.3,0,49.3,0.1c44.3,0.2,89,0.4,98.5,0.5V111.5c0-3.4-1-6.1-3-8.1C343.6,99.5,337,99.6,337,99.6z"/>
		<path d="M350.1,100.8c-5.1-5-12.9-4.9-13.2-4.9H165.1c-4.8,0-8.6,1.5-11.4,4.3c-4.6,4.9-4.3,11.9-4.3,12.1v114.3
			c0,0.5,0.2,1.1,0.5,1.4c0.4,0.4,0.8,0.5,1.3,0.5c0.2,0,0.5,0,0.7-0.1l0,0c8-0.9,147-0.2,200.4,0.1l0,0c0.5,0,1-0.2,1.3-0.5
			c0.3-0.3,0.5-0.8,0.5-1.3V111.5C354.3,107,352.9,103.4,350.1,100.8z M350.6,225c-9.5-0.1-54.3-0.3-98.5-0.5
			c-19-0.1-35.5-0.1-49.3-0.1c-7.4,0-14,0-19.9,0c-18,0.1-26.1,0.1-29.8,0.4V112.3c0-0.1-0.3-5.9,3.3-9.5c2-2.1,4.9-3.2,8.7-3.2H337
			c0.1,0,6.6-0.1,10.6,3.8c2,2,3,4.7,3,8.1V225z"/>
	</g>
	<g id="Group-18">
		<path class="st2" d="M326.1,109.7H176.2c-12.7,0-12,12.7-12,12.7V226h175.4V121.6C339.6,109.5,326.1,109.7,326.1,109.7z"/>
		<rect x="196.4" y="109.7" class="st3" width="28.6" height="116.3"/>
		<rect x="224.4" y="109.7" class="st4" width="28.6" height="116.3"/>
		<rect x="252.4" y="109.7" class="st5" width="28.6" height="116.3"/>
		<rect x="280.5" y="109.7" class="st6" width="28.6" height="116.3"/>
	</g>
	<path d="M337.8,111.2c-4.5-4.4-11.5-4.3-11.7-4.3h-150c-4.3,0-7.7,1.3-10.1,3.9c-4,4.2-3.7,10.4-3.7,10.6V225c0,1,0.8,1.8,1.8,1.8
		s1.8-0.8,1.8-1.8V121.3c0,0-0.2-4.9,2.8-8.1c1.7-1.8,4.2-2.7,7.4-2.7h150c0.1,0,5.8,0,9.1,3.3c1.7,1.7,2.5,3.9,2.5,6.8V225
		c0,1,0.8,1.8,1.8,1.8s1.8-0.8,1.8-1.8V120.6C341.5,116.7,340.2,113.6,337.8,111.2z"/>
	<path class="st0" d="M128.6,226.7l0.5,9.6c0,8.6,11.5,7.8,11.5,7.8h225c9.2,0,10.1-8.2,10.1-8.2v-9.2L128.6,226.7L128.6,226.7z"/>
	<g>
		<path class="st1" d="M130.8,236.3c0,1.7,0.5,2.9,1.5,3.9c2.2,2.1,6.6,2.3,8,2.2h225.2c7,0,8.1-5.5,8.3-6.5v-7.2H130.5L130.8,236.3
			z"/>
		<path d="M375.6,224.9h-247c-0.5,0-1,0.2-1.3,0.6c-0.3,0.4-0.5,0.9-0.5,1.4l0.5,9.5c0,2.6,0.9,4.8,2.7,6.4c3.1,2.9,8,3.2,9.9,3.2
			c0.4,0,0.7,0,0.8,0h225c8.6,0,11.5-6.5,11.9-9.9c0-0.1,0-0.1,0-0.2v-9.2C377.5,225.7,376.6,224.9,375.6,224.9z M373.8,235.8
			c-0.1,1-1.3,6.5-8.3,6.5H140.3c-1.5,0.1-5.8-0.1-8-2.2c-1-0.9-1.5-2.2-1.5-3.9l-0.4-7.7h243.3L373.8,235.8L373.8,235.8z"/>
	</g>
</g>
<g id="plume">
	<path class="st7" d="M327.3,193.4c0.5-3.9-2.1-7.7-3.9-9.3c-0.9-0.8-1.9-1.3-3-1.6c-1-0.3-2.1-0.4-3.2-0.3c-1,0.1-2,0.4-2.9,0.8
		c-0.8-3-2.5-4.9-3.8-5.9s-2.9-1.7-4.5-2c-1.7-0.2-3.3-0.1-4.9,0.6c-2.4,1-4.3,2.8-5.6,5.4c-1.4-0.8-3-1.2-4.5-1.2
		c-1,0-2,0.2-2.9,0.6c-0.9,0.4-1.8,1-2.4,1.7c-1.1,1.2-1.9,2.8-2.2,4.7l-2.5,0.2l-0.4-0.2L280,187c-0.6,0.1-1.1,0.1-1.6,0.1
		c-2.7,0-4.8-0.8-6.5-2.3c-4.2-3.8-4.1-11.2-4.1-11.3v-66.6c0-4.3,3.7-5.7,3.9-5.7l7.4-2.4c13.9,6.9,29.8,3.8,37.7-8
		c4.3-6.4,5.6-14.2,3.6-22.1c-1.7-6.7-5.6-12.7-11.2-17.3l-1.8-1.5c0.1-1,0.2-2.1,0.2-3.2c-0.1-5.6-2.4-10.9-6.5-14.8
		c-5.5-5.3-13.1-7-20-5.2v-0.1v-0.1c0-3.6-1.6-6.9-4.6-9.4s-6.9-3.9-11.1-4c-0.1,0-0.2,0-0.2,0v-0.9c0-2.9-1.5-5.7-4.3-7.7
		c-2.5-1.8-5.8-2.8-9.2-2.8h-0.2c-7.2,0-12.9,4-13.5,9.3l-0.5,0.8c-1.6-0.1-3.1,0-4.7,0.3c-4.1,0.7-7.8,2.4-10.5,4.8
		c-2.7,2.5-3.9,5.5-3.5,8.4l-0.2,1.2c-4.4,0.3-8.8,1.8-12.6,4.7c-5,3.8-8.2,9.2-9,15.4c0,0.1,0,0.1,0,0.2l-1.9,0.6
		c-8.2,2.8-12.4,8.7-14.4,13.2c-3.6,7.9-3.5,18.1,0.1,25.3c3.1,6,8.5,10.4,15.4,12.2c2.8,0.8,5.7,1.1,8.7,0.9l2.2-0.1
		c2.1,3.3,5.2,5.7,8.9,6.9c4.3,1.4,8.9,1.1,12.9-1c2.2-1.1,4-2.6,5.5-4.4l1.4,0.5c0.2,0.1,3.9,1.5,3.9,5.7v66.6v0.2
		c0,0.1,0.5,7.5-3.1,10.9c-1.3,1.3-3.1,1.8-5.2,1.6c-0.7-2.6-2-4-3.1-4.8c-0.8-0.6-1.8-1-2.8-1.3c-0.9-0.2-1.9-0.2-3-0.1
		c-0.9,0.1-1.8,0.4-2.6,0.8c-0.9-2.6-2.5-4.1-3.8-4.9c-1.3-0.8-2.8-1.3-4.3-1.5c-1.5-0.1-3.1,0.1-4.5,0.7c-2.2,0.9-3.9,2.6-4.9,4.8
		c-1.4-0.6-2.8-0.9-4.1-0.9c-1,0-1.9,0.3-2.7,0.6c-0.9,0.4-1.6,0.9-2.2,1.6c-0.9,1-1.5,2.3-1.8,3.8c-1.3-0.2-3.2-0.3-5.1,0.7
		c-1.9,1-3.3,2.9-4.2,5.6l-1,3.4c0,0,98,9.1,100.8,9.1c5.4-0.1,46.5-7.4,46.5-7.4L327.3,193.4z"/>
	<path d="M323.9,183.5c-1-0.8-2.1-1.4-3.3-1.8c-1.1-0.3-2.3-0.4-3.5-0.3c-0.8,0.1-1.5,0.3-2.3,0.5c-0.8-2.2-2.1-4.1-3.8-5.5
		c-1.4-1.1-3.1-1.8-4.9-2.1s-3.6-0.1-5.3,0.6c-2.3,0.9-4.3,2.7-5.7,5c-1.3-0.6-2.7-1-4.1-1c-1.1-0.1-2.3,0.2-3.3,0.7
		c-1,0.4-2,1.1-2.7,2c-1.1,1.2-1.9,2.7-2.2,4.5l-2,0.2c-0.3-0.1-0.5-0.1-0.8-0.1c-3.2,0.4-5.7-0.3-7.5-2c-3.9-3.6-3.9-10.6-3.9-10.7
		V163c7.2-0.4,13.9-1.2,19.4-2.4c10.1-2.1,15.2-5.2,15.3-9c0-3.9-5.2-7.1-15.6-9.5c-1-0.2-2,0.4-2.2,1.4s0.4,2,1.4,2.2
		c10.5,2.4,12.7,5.1,12.7,5.9c0,0.8-2.2,3.3-12.4,5.5c-5.3,1.1-11.7,1.9-18.7,2.3v-52.5c0-3.7,3.1-4.9,3.4-5c0.1,0,0.2-0.1,0.3-0.1
		c0,0,3.5-1.8,7.9-1c0.4,0.1,0.8,0,1.1-0.2c4.2,1.7,8.6,2.6,12.8,2.6c9.4,0,18.1-4.1,23.4-12.1c4.4-6.6,5.7-14.7,3.7-22.7
		c-1.9-7.5-6.5-14.2-12.9-18.9c0.7-6.5-1.5-13.3-6.6-18.3c-5.4-5.2-12.9-7.1-19.8-5.6c-0.2-3.5-1.9-6.7-4.9-9.2s-6.9-4-11.1-4.2
		v-0.1c0.1-5.6-5.3-10.3-12.3-11.2c-0.5-0.1-1-0.1-1.5-0.1c-0.2,0-0.4,0-0.6,0c-7.3,0-13.7,4.4-14.4,10.2c-1.5-0.1-3,0-4.6,0.3
		c-0.8,0.1-1.6,0.3-2.4,0.5c-2.6,0.7-5.1,1.9-7.1,3.4c-0.5,0.4-1,0.8-1.4,1.2c-2.8,2.7-4.1,5.8-3.8,9c0,0.1,0,0.3,0,0.4v0.1
		c-0.3,0-0.7,0.1-1,0.1c-4.1,0.5-8.1,2.1-11.6,4.7c-5.2,4-8.4,9.7-9.3,15.7c-9.4,2.6-14.1,9.1-16.4,14.1c-3.7,8.3-3.7,18.5,0.1,26
		c3.2,6.2,8.8,10.7,15.9,12.7c2.5,0.7,5,1,7.6,1c0.8,0,1.6,0,2.4-0.1c0.2,0,0.4,0,0.6-0.1c0.2,0.2,0.3,0.5,0.5,0.7
		c2.1,2.8,5,5,8.6,6.2c1.8,0.6,3.7,0.9,5.6,0.9c2.7,0,5.5-0.6,8-1.9c2.1-1.1,4-2.5,5.5-4.3c0.2,0.2,0.4,0.3,0.7,0.4
		c0,0,3.4,1.2,3.4,5v52c-18.9-1.8-29-6-29-8.4c0-0.8,2.2-3.3,12.4-5.5c1-0.2,1.6-1.2,1.4-2.2c-0.2-1-1.2-1.6-2.2-1.4
		c-10.1,2.1-15.2,5.2-15.3,9c-0.1,6.5,15,10.5,32.7,12.1v11.1c0.2,2-0.1,7.8-2.8,10.4c-1,1-2.4,1.5-4,1.4c-0.6-2-1.7-3.6-3.2-4.7
		c-0.9-0.7-2-1.1-3.1-1.4c-1.1-0.2-2.2-0.3-3.3-0.1c-0.7,0.1-1.4,0.3-2,0.5c-0.8-1.9-2.1-3.4-3.8-4.5c-1.4-0.9-3-1.5-4.7-1.6
		s-3.4,0.1-4.9,0.8c-2.1,0.9-3.8,2.5-5,4.5c-1.3-0.5-2.5-0.7-3.8-0.6c-1.1,0-2.1,0.3-3,0.7c-1,0.4-1.8,1.1-2.5,1.8
		c-0.7,0.8-1.3,1.9-1.6,3c0,0.1-0.1,0.3-0.1,0.4c-0.1,0-0.2,0-0.4,0c-1.3-0.1-2.9,0.1-4.5,0.9c-2.3,1.2-4,3.5-4.8,6.9
		c-0.3,1,0.3,2,1.3,2.2c0.2,0,0.3,0.1,0.5,0.1c0.8,0,1.6-0.6,1.8-1.4c0-0.2,0.1-0.4,0.2-0.5c0.6-2,1.5-3.3,2.8-4c1.9-1,4-0.2,4-0.2
		c0.6,0.2,1.2,0.1,1.7-0.2s0.8-0.9,0.8-1.5c0-1.3,0.4-2.4,1.2-3.2c0.3-0.4,0.8-0.7,1.3-0.9s1-0.4,1.6-0.4c1.1,0,2.4,0.3,3.6,1
		c0.5,0.3,1,0.3,1.6,0.1c0.5-0.2,0.9-0.6,1.1-1.1c0.7-2,2.1-3.5,3.8-4.2c1-0.4,2.1-0.6,3.1-0.5c1.1,0.1,2.1,0.5,3,1
		c1.1,0.7,2.4,2,3,4.4c0.1,0.6,0.6,1.1,1.1,1.3c0.6,0.2,1.2,0.1,1.7-0.2c0.8-0.5,1.7-0.9,2.6-1c0.7-0.1,1.3-0.1,2,0
		c0.6,0.1,1.2,0.4,1.7,0.8c1.1,0.8,1.8,2.1,2.1,3.8c0.2,1,1.1,1.7,2.1,1.5l0,0c0.4,0,0.8,0.1,1.2,0.1c2.6,0,4.7-0.8,6.4-2.4
		c4.6-4.4,4-13,4-13.2v-10.6c4,0.3,8.2,0.4,12.2,0.5c0.8,0,1.7,0,2.5,0c2.7,0,5.4-0.1,8-0.2v10.2c0,0.4-0.1,8.7,5.1,13.4
		c2.2,2,5.1,3.1,8.4,3.1c0.6,0,1.2,0,1.9-0.1c0.2,0.1,0.5,0.1,0.8,0.1l3.5-0.3c0.9-0.1,1.6-0.8,1.7-1.7c0.1-1.6,0.7-3,1.5-3.9
		c0.4-0.5,0.9-0.8,1.5-1.1c0.5-0.2,1.1-0.4,1.8-0.4l0,0c1.2,0,2.6,0.5,3.8,1.4c0.5,0.3,1,0.4,1.6,0.3c0.5-0.2,1-0.6,1.2-1.1
		c1-2.4,2.5-4.1,4.5-4.9c1.1-0.4,2.3-0.6,3.4-0.4c1.2,0.2,2.3,0.7,3.2,1.4c1.1,0.9,2.6,2.6,3,5.5c0.1,0.6,0.5,1.2,1.1,1.4
		c0.6,0.3,1.2,0.2,1.8-0.2c0.9-0.6,1.9-1,2.9-1.1c0.7-0.1,1.4,0,2.1,0.2s1.3,0.5,1.9,1c1.1,1,3.4,4.1,3,7c0,0.3,0,0.5,0,0.8
		c0.2,0.7,0.7,1.2,1.5,1.3c0.1,0,0.2,0,0.3,0c0.9,0,1.7-0.6,1.8-1.5C328.9,189,325.4,184.7,323.9,183.5z M250.7,19.5
		c-0.8-2.9-3-5.3-6.3-6.8c-0.6-0.3-1.3-0.5-1.9-0.7h-1.8l0,0c0-4.1,4.8-7.4,10.7-7.4c0.1,0,0.1,0,0.2,0c6,0.1,10.8,3.5,10.8,7.6l0,0
		c0,0.1,0,0.2,0,0.3c-0.1,0-0.2,0-0.3,0C257.2,13.3,253.1,15.9,250.7,19.5z M254.4,159.7c-4.4-0.1-8.5-0.2-12.3-0.5v-52.3
		c0-4.9-3.6-7.6-5.7-8.4c0.5-1,1-2,1.3-3.1c0.3-1-0.2-2-1.2-2.3s-2,0.2-2.3,1.2c-1.2,3.6-3.7,6.5-7.1,8.2c-3.4,1.7-7.2,2-10.8,0.8
		c-7.4-2.4-11.4-10.4-8.9-17.8c0.3-1-0.2-2-1.2-2.3s-2,0.2-2.3,1.2c-1.4,4.1-1.1,8.3,0.3,12.1c-2.6,0.1-5.2-0.2-7.8-0.8
		c-6.1-1.7-10.9-5.5-13.6-10.8c-3.3-6.5-3.3-15.7-0.1-22.9c1.9-4.1,5.6-9.3,12.8-11.7c0.1,5,1.7,10,4.9,14.2
		c0.4,0.5,0.9,0.7,1.5,0.7c0.4,0,0.8-0.1,1.1-0.4c0.8-0.6,1-1.8,0.4-2.6c-6.8-9-5.1-21.9,3.9-28.7s21.9-5.1,28.7,3.9
		c0.6,0.8,1.8,1,2.6,0.4s1-1.8,0.4-2.6c-4.4-5.8-10.9-9-17.7-9.5c0-0.2,0.1-0.4,0-0.6c-0.3-2,0.6-4.2,2.6-6.1c2.2-2.1,5.4-3.5,9-4.1
		s7.1-0.2,9.8,1.1c2.5,1.2,4.1,2.9,4.4,5c0.2,0.9,1,1.6,1.9,1.5c-0.4,1.2-0.7,2.5-0.7,3.8c0,1,0.8,1.8,1.8,1.9l0,0
		c1,0,1.8-0.8,1.8-1.8c0.1-5.8,6-10.4,13.2-10.4c3.5,0,6.9,1.2,9.3,3.3c2.4,2,3.6,4.6,3.6,7.4v0.1c-2.8,1.1-5.5,2.8-7.7,5.2
		c-0.7,0.7-0.7,1.9,0.1,2.6c0.7,0.7,1.9,0.7,2.6-0.1c7-7.3,18.6-7.5,25.9-0.5s7.5,18.6,0.5,25.9c-0.7,0.7-0.7,1.9,0.1,2.6
		c0.4,0.3,0.8,0.5,1.3,0.5s1-0.2,1.3-0.6c2.5-2.6,4.2-5.6,5.1-8.8c5.1,4.1,8.7,9.7,10.2,15.8c1.8,7,0.6,14.1-3.2,19.8
		c-7.8,11.7-24.4,13.8-37.8,4.9c-0.8-0.6-2-0.3-2.5,0.5c-0.6,0.8-0.3,2,0.5,2.5l0,0c0.1,0,0.1,0.1,0.2,0.1c-1.3,0.2-2.4,0.6-3.2,0.9
		c-0.4,0.2-0.8,0.3-0.9,0.4c-2.1,0.7-5.8,3.4-5.8,8.4v52.7C261.5,159.7,258,159.8,254.4,159.7z"/>
</g>
<g id="cloud3">
	<path id="Fill-28" class="st8" d="M177.2,202.5l2.3-6.9l6.1-3.1l6.6,2l7-8.4l5.8-1l5.6,2.1l5.4,8.8l8.7-2l3.6,1.7l4.2,7.9l-1.1,1.5
		h-0.2l0,0h-52.7L177.2,202.5L177.2,202.5z"/>
	<path d="M234.3,203.3c-0.6-3.9-2.3-7.1-4.8-9c-1.3-1-2.7-1.7-4.3-2.1c-1.5-0.3-3-0.4-4.5-0.1c-1.2,0.2-2.3,0.6-3.4,1.1
		c-1.1-3.1-3-5.7-5.5-7.5c-1.9-1.3-4.1-2.2-6.4-2.4c-2.3-0.2-4.7,0.2-6.8,1.1c-3.1,1.4-5.6,4-7.2,7.5c-1.9-0.9-3.9-1.3-5.8-1.2
		c-1.5,0.1-2.8,0.4-4.1,1.1c-1.3,0.6-2.4,1.5-3.3,2.7c-1.6,2-2.6,4.7-2.7,7.8c-0.5,1.7,0,2.8,0.4,3.4c0.9,1.3,2.4,1.4,2.7,1.4h52.7
		c0.2,0,0.4,0,0.5,0C233.4,206.6,234.6,205,234.3,203.3z M178.9,203.3c0-0.1,0-0.2,0.1-0.3l0.1-0.5c0.1-2.4,0.8-4.4,1.9-5.8
		c0.6-0.7,1.3-1.3,2.1-1.7s1.7-0.6,2.6-0.7c1.8-0.1,3.7,0.5,5.6,1.7l2,1.3l0.8-2.2c1.2-3.5,3.3-6,6.1-7.3c1.5-0.7,3.2-1,4.9-0.8
		s3.3,0.8,4.7,1.8c1.7,1.2,3.9,3.5,4.7,7.7l0.6,2.9l2.4-1.8c1.2-0.9,2.6-1.5,4.1-1.8c1.1-0.2,2.1-0.2,3.1,0.1c1,0.2,2,0.7,2.8,1.4
		c1.7,1.3,2.8,3.5,3.4,6.2L178.9,203.3z"/>
</g>
<g id="cloud2">
	<path id="Fill-90" class="st9" d="M278.1,202.5l2.3-6.9l6.1-3.1l6.6,2l7-8.4l5.8-1l5.6,2.1l5.4,8.8l8.7-2l3.6,1.7l4.2,7.9l-1.1,1.5
		h-0.2l0,0h-52.7L278.1,202.5L278.1,202.5z"/>
	<path d="M335.2,203.3c-0.6-3.9-2.3-7.1-4.8-9.1c-1.3-1-2.7-1.7-4.3-2.1c-1.5-0.3-3-0.4-4.5-0.1c-1.2,0.2-2.3,0.6-3.4,1.1
		c-1.1-3.1-3-5.7-5.5-7.5c-1.9-1.3-4.1-2.2-6.4-2.4s-4.7,0.2-6.8,1.1c-3.1,1.4-5.6,4-7.2,7.5c-1.9-0.9-3.9-1.3-5.8-1.2
		c-1.5,0.1-2.8,0.4-4.1,1.1c-1.3,0.6-2.4,1.5-3.3,2.7c-1.6,2-2.6,4.7-2.7,7.8c-0.5,1.7-0.1,2.8,0.4,3.4c0.9,1.3,2.4,1.4,2.7,1.4
		h52.7c0.2,0,0.4,0,0.5,0C334.3,206.6,335.5,205,335.2,203.3z M279.8,203.3c0-0.1,0-0.2,0.1-0.3c0.1-0.2,0.1-0.3,0.1-0.5
		c0.1-2.4,0.7-4.4,1.9-5.8c0.6-0.7,1.3-1.3,2.1-1.7c0.8-0.4,1.7-0.6,2.6-0.7c1.8-0.1,3.7,0.5,5.6,1.7c0.5,0.3,1.1,0.4,1.6,0.2
		s1-0.6,1.1-1.1c1.2-3.5,3.3-6,6-7.3c1.5-0.7,3.2-1,4.9-0.8c1.7,0.2,3.3,0.8,4.7,1.8c1.7,1.2,3.9,3.5,4.7,7.7
		c0.1,0.6,0.6,1.1,1.2,1.4c0.6,0.2,1.3,0.1,1.8-0.3c1.2-0.9,2.6-1.5,4.1-1.8c1.1-0.2,2.1-0.1,3.1,0.1c1,0.2,2,0.7,2.8,1.4
		c1.7,1.3,2.8,3.5,3.4,6.2L279.8,203.3z"/>
</g>
<g id="cloud1">
	<path id="Fill-94" class="st10" d="M220.1,206.3c1.5-4.6,1.7-9.4,6.6-11.9c4.2-2.1,9.2-1,13,1.4c5.6-16.5,27.6-15.3,31,2
		c6.8-5.2,16.2-3,19.8,4.7c1.9,4,2,5.9-1.2,7.1c-2.1,0.8-44.4,0-54.9,0C231.8,209.8,218.3,211.9,220.1,206.3z"/>
	<path d="M293.8,207.5c-0.8-5-2.9-8.9-6.1-11.4c-1.6-1.3-3.4-2.1-5.3-2.6c-1.8-0.4-3.7-0.5-5.7-0.2c-1.7,0.3-3.3,0.9-4.9,1.7
		c-1.3-4.2-3.8-7.7-7.2-10.1c-2.4-1.7-5.2-2.8-8.1-3c-2.9-0.3-5.9,0.2-8.5,1.4c-4,1.9-7.3,5.4-9.3,9.9c-2.6-1.3-5.2-1.9-7.8-1.8
		c-1.8,0.1-3.5,0.5-5.1,1.3s-3,1.9-4.1,3.3c-2.1,2.6-3.3,6-3.4,9.8c-0.5,1.6-0.3,3,0.4,4c1.1,1.5,2.9,1.6,3.1,1.6h68.5l1.8-0.5
		C293.4,210.4,294.1,208.9,293.8,207.5z M221.9,207.9c-0.1,0-0.1,0-0.2,0l0,0c0,0-0.1-0.3,0.2-1.1l0.1-0.5c0.1-3.2,1-5.9,2.6-7.9
		c0.8-1,1.8-1.8,2.9-2.4c1.1-0.6,2.3-0.9,3.6-0.9c2.4-0.1,5.1,0.7,7.6,2.3l2,1.3l0.8-2.2c1.6-4.7,4.4-8.1,8.2-9.8
		c2.1-1,4.4-1.3,6.6-1.1c2.3,0.2,4.5,1.1,6.4,2.4c3.3,2.3,5.5,5.9,6.3,10.4l0.6,2.9l2.4-1.8c1.6-1.3,3.5-2.1,5.5-2.4
		c1.4-0.2,2.9-0.2,4.2,0.1c1.4,0.3,2.7,1,3.9,1.9c2.4,1.9,4.1,5.1,4.9,9L221.9,207.9z"/>
</g>
<g id="stars">
	<path class="st11" d="M379.4,106.8l-3.9-2l3.6-2.5c0.2-0.1,0.3-0.4,0.1-0.6l-0.5-0.7c-0.1-0.2-0.4-0.3-0.6-0.1l-3.5,2.4v-4.2
		c0-0.3-0.2-0.5-0.5-0.5h-0.9c-0.3,0-0.5,0.2-0.5,0.5v4.4l-4-2c-0.2-0.1-0.5,0-0.6,0.2l-0.4,0.8c-0.1,0.2,0,0.5,0.2,0.6l3.9,2
		l-3.6,2.5c-0.2,0.1-0.3,0.4-0.1,0.6l0.5,0.7c0.1,0.2,0.4,0.3,0.6,0.1l3.5-2.4v4.2c0,0.3,0.2,0.5,0.5,0.5h0.9c0.3,0,0.5-0.2,0.5-0.5
		v-4.4l4,2c0.2,0.1,0.5,0,0.6-0.2l0.4-0.8C379.7,107.2,379.6,106.9,379.4,106.8z"/>
	<path class="st11" d="M92.8,116.8l-3.9-2l3.6-2.5c0.2-0.1,0.3-0.4,0.1-0.6l-0.5-0.7c-0.1-0.2-0.4-0.3-0.6-0.1l-3.5,2.4V109
		c0-0.3-0.2-0.5-0.5-0.5h-0.9c-0.3,0-0.5,0.2-0.5,0.5v4.4l-4-2c-0.2-0.1-0.5,0-0.6,0.2l-0.4,0.8c-0.1,0.2,0,0.5,0.2,0.6l3.9,2
		l-3.6,2.5c-0.2,0.1-0.3,0.4-0.1,0.6l0.5,0.7c0.1,0.2,0.4,0.3,0.6,0.1l3.5-2.4v4.2c0,0.3,0.2,0.5,0.5,0.5h0.9c0.3,0,0.5-0.2,0.5-0.5
		v-4.4l4,2c0.2,0.1,0.5,0,0.6-0.2l0.4-0.8C93.1,117.2,93,117,92.8,116.8z"/>
	<path class="st11" d="M275.7,76.9l-3.9-2l3.6-2.5c0.2-0.1,0.3-0.4,0.1-0.6L275,71c-0.1-0.2-0.4-0.3-0.6-0.1l-3.5,2.4V69
		c0-0.3-0.2-0.5-0.5-0.5h-0.9c-0.3,0-0.5,0.2-0.5,0.5v4.4l-4-2c-0.2-0.1-0.5,0-0.6,0.2l-0.4,0.8c-0.1,0.2,0,0.5,0.2,0.6l3.9,2
		l-3.6,2.5c-0.2,0.1-0.3,0.4-0.1,0.6l0.5,0.7c0.1,0.2,0.4,0.3,0.6,0.1l3.5-2.4v4.2c0,0.3,0.2,0.5,0.5,0.5h0.9c0.3,0,0.5-0.2,0.5-0.5
		v-4.5l4,2c0.2,0.1,0.5,0,0.6-0.2l0.4-0.8C276,77.3,275.9,77,275.7,76.9z"/>
	<path d="M358.9,67.7c-1.8,0-1.8,2.8,0,2.8C360.7,70.5,360.7,67.7,358.9,67.7z"/>
	<path d="M117.5,93.4c-1.8,0-1.8,2.8,0,2.8C119.3,96.2,119.3,93.4,117.5,93.4z"/>
	<path d="M99.7,208.9c-1.8,0-1.8,2.8,0,2.8S101.5,208.9,99.7,208.9z"/>
	<path d="M206.1,74c-1.8,0-1.8,2.8,0,2.8C207.9,76.8,207.9,74,206.1,74z"/>
	<path d="M241,52.5c-1.8,0-1.8,2.8,0,2.8S242.8,52.5,241,52.5z"/>
	<path d="M293.4,70.3c-1.8,0-1.8,2.8,0,2.8C295.2,73.1,295.2,70.3,293.4,70.3z"/>
</g>
</svg>
