<?xml version="1.0" encoding="utf-8"?>
<!-- Generator: Adobe Illustrator 23.0.4, SVG Export Plug-In . SVG Version: 6.00 Build 0)  -->
<svg version="1.1" id="Layer_1" xmlns="http://www.w3.org/2000/svg" xmlns:xlink="http://www.w3.org/1999/xlink" x="0px" y="0px"
	 viewBox="0 0 317 211" style="enable-background:new 0 0 317 211;" xml:space="preserve">
<style type="text/css">
	.st0{fill:#FF5555;}
	.st1{fill:#9BFFFF;}
	.st2{fill:#808080;}
	.st3{fill-rule:evenodd;clip-rule:evenodd;fill:#FEA200;}
	.st4{fill:none;stroke:#263238;stroke-width:3;stroke-linecap:round;stroke-linejoin:round;stroke-miterlimit:10;}
	.st5{fill:#D5EEFF;}
	.st6{stroke:#263238;stroke-width:1.5;stroke-linejoin:round;stroke-miterlimit:10;}
	.st7{fill:#263238;stroke:#263238;stroke-linecap:round;stroke-linejoin:round;stroke-miterlimit:10;}
	.st8{fill:#FFDAA3;}
	.st9{fill:#CAC3D6;}
	.st10{fill-rule:evenodd;clip-rule:evenodd;fill:#B7F3DA;}
	.st11{fill-rule:evenodd;clip-rule:evenodd;}
</style>
<path class="st0" d="M156.2,72.6L156.2,72.6c-4.3-4.1-11-4.1-15.3,0v0c-3.6,3.5-4.4,9.1-1.8,13.5l9.5,16.1l9.5-16.1
	C160.6,81.7,159.8,76.1,156.2,72.6z M148.7,85.1c-2.7,0-4.8-2.2-4.8-4.8c0-2.7,2.2-4.8,4.8-4.8s4.8,2.2,4.8,4.8
	C153.5,83,151.4,85.1,148.7,85.1z"/>
<path class="st1" d="M212.3,146.5l-1.8-9.1l-7.3-5.2l-7.3-2.7l-5.9-0.9l-3.6-0.2l0.1,0.6c0,0-29.6-0.1-30.7-0.2
	c-1.1-0.1-17.7,0.2-18.5,0.1c-0.8-0.1-3.4-2.6-3.4-2.6s-1.9-4.6-1.9-5.1s0.1-2.5,0.1-2.5l1.4-1.8l2.3-1.6l37.9-0.4l-11.1-5.3h-41.9
	l0.1,10.3l-9.4,5l-4,5.3L108,146l-3.2,1.4l0.1,10.2l10.5,0.5l0.1-6.7l5-8.4l9-1.8l8.1,4l3.5,6.9l-0.3,4.7h40.5l0.7-7.3l6.4-6.9
	l6.9-1.1l6,1.3l6,7.3v7.3h6.6l1.3-10L212.3,146.5z"/>
<path class="st2" d="M127.9,142.4c-6.7,0-12.1,5.4-12.1,12.1s5.4,12.1,12.1,12.1c6.7,0,12.1-5.4,12.1-12.1S134.7,142.4,127.9,142.4z
	 M127.9,160.7c-3.4,0-6.2-2.8-6.2-6.2s2.8-6.2,6.2-6.2c3.4,0,6.2,2.8,6.2,6.2S131.4,160.7,127.9,160.7z"/>
<path class="st2" d="M195.1,142.4c-6.7,0-12.1,5.4-12.1,12.1s5.4,12.1,12.1,12.1c6.7,0,12.1-5.4,12.1-12.1S201.8,142.4,195.1,142.4z
	 M195.1,160.7c-3.4,0-6.2-2.8-6.2-6.2s2.8-6.2,6.2-6.2c3.4,0,6.2,2.8,6.2,6.2S198.5,160.7,195.1,160.7z"/>
<title>Page 1main_illu</title>
<desc>Created with Sketch.</desc>
<g id="Clip-2">
</g>
<g id="Clip-21">
</g>
<g id="Clip-26">
</g>
<g>
	<path id="Fill-30" class="st3" d="M201.9,37c-0.2,0-0.5-0.3-0.5-0.6v-8.7c0-0.4,0.2-0.6,0.5-0.6c0.2,0,0.5,0.3,0.5,0.6v8.7
		C202.3,36.7,202.1,37,201.9,37"/>
	<path id="Fill-32" class="st3" d="M198.5,33.7c-0.2-0.3-0.1-0.7,0.2-0.9l6.7-4.6c0.3-0.2,0.7-0.1,0.9,0.2s0.1,0.7-0.2,0.9l-6.7,4.6
		C199.1,34.1,198.7,34,198.5,33.7"/>
	<path id="Fill-34" class="st3" d="M198.5,29.4c0.2-0.3,0.5-0.5,0.8-0.3l6.7,3.7c0.3,0.2,0.4,0.6,0.3,0.9c-0.2,0.3-0.5,0.5-0.9,0.3
		l-6.7-3.7C198.4,30.1,198.3,29.7,198.5,29.4"/>
</g>
<g>
	<path id="Fill-42_1_" class="st3" d="M25.7,38.2c-0.3,0-0.5-0.3-0.5-0.7V29c0-0.4,0.2-0.7,0.5-0.7s0.5,0.3,0.5,0.7v8.6
		C26.2,37.9,26,38.2,25.7,38.2"/>
	<path id="Fill-44_1_" class="st3" d="M22.4,36c-0.2-0.3-0.1-0.7,0.2-0.9l7.5-4.6c0.3-0.2,0.8-0.1,1.1,0.2s0.1,0.7-0.2,0.9l-7.5,4.6
		C23.1,36.3,22.6,36.3,22.4,36"/>
	<path id="Fill-46_1_" class="st3" d="M21.3,31.6c0.2-0.3,0.6-0.5,1-0.3l7.6,3.7c0.3,0.2,0.5,0.6,0.3,0.9c-0.2,0.3-0.6,0.5-1,0.3
		l-7.6-3.7C21.3,32.3,21.1,31.9,21.3,31.6"/>
</g>
<path class="st4" d="M134.3,52.9c7.9-7.9,20.6-7.9,28.5,0"/>
<path class="st4" d="M139.4,58.1c5-5,13.1-5,18.1,0"/>
<path class="st4" d="M144.6,63.3c2.1-2.1,5.6-2.1,7.8,0"/>
<g>
	<path class="st4" d="M211.2,157.6h1.8c1,0,1.8-0.8,1.8-1.8v-7.3c0-1-0.8-1.8-1.8-1.8h-0.9l-0.9-5.1c-1-5.7-5.5-10.2-11.2-11.2
		l-11.5-2l-11.3-10.7c-5.1-4.9-11.9-7.6-19-7.6h-37.6c-1.3,0-2.2,1.3-1.7,2.5l2.1,5.3c0.3,0.8,0,1.7-0.7,2.2l-8.6,5.6
		c-2.6,1.7-4.1,4.6-4.1,7.7v13.4h-0.9c-1,0-1.8,0.8-1.8,1.8v7.3c0,1,0.8,1.8,1.8,1.8h3.7"/>
	<line class="st4" x1="144.6" y1="157.6" x2="178.2" y2="157.6"/>
	<circle class="st4" cx="194.7" cy="154" r="12.8"/>
	<circle class="st4" cx="194.7" cy="154" r="7.3"/>
	<circle class="st4" cx="128.1" cy="154" r="12.8"/>
	<circle class="st4" cx="128.1" cy="154" r="7.3"/>
	<path class="st4" d="M177.3,117.6c-0.8-0.8-1.6-1.4-2.5-2.1h-38.6c-3.4,0-5.6,3.6-4.1,6.6l1.8,3.7c0.8,1.6,2.4,2.5,4.1,2.5h50.5
		L177.3,117.6z"/>
	<line class="st4" x1="188.6" y1="132" x2="188.6" y2="139.3"/>
	<line class="st4" x1="154.4" y1="154" x2="154.4" y2="132"/>
	<circle class="st4" cx="118.7" cy="135.7" r="3.7"/>
	<line class="st4" x1="154.4" y1="128.3" x2="154.4" y2="115.5"/>
</g>
<path class="st4" d="M140.9,72.6L140.9,72.6c-3.6,3.5-4.4,9.1-1.8,13.5l9.5,16.1l9.5-16.1c2.6-4.4,1.8-9.9-1.8-13.5l0,0
	C151.9,68.5,145.1,68.5,140.9,72.6z"/>
<circle class="st4" cx="148.5" cy="80.4" r="5.5"/>
<g>
	<rect x="44.2" y="176.3" class="st5" width="220.5" height="5.8"/>
</g>
<g>
	<rect x="54.1" y="185.9" class="st5" width="168.4" height="5.8"/>
</g>
<g>
	<rect x="37.7" y="169.1" class="st6" width="215.1" height="1.4"/>
</g>
<g>
	<path class="st6" d="M304.6,182.8h-2v-1.4h2V182.8z M300.6,182.8h-2v-1.4h2V182.8z M296.5,182.8h-2v-1.4h2V182.8z M292.5,182.8h-2
		v-1.4h2V182.8z M288.4,182.8h-2v-1.4h2V182.8z M284.4,182.8h-2v-1.4h2V182.8z M280.4,182.8h-2v-1.4h2V182.8z M276.3,182.8h-2v-1.4
		h2V182.8z M272.3,182.8h-2v-1.4h2V182.8z M268.2,182.8h-2v-1.4h2V182.8z M264.2,182.8h-2v-1.4h2V182.8z M260.2,182.8h-2v-1.4h2
		V182.8z M256.1,182.8h-2v-1.4h2V182.8z M252.1,182.8h-2v-1.4h2V182.8z M248,182.8h-2v-1.4h2V182.8z M244,182.8h-2v-1.4h2V182.8z
		 M240,182.8h-2v-1.4h2V182.8z M235.9,182.8h-2v-1.4h2V182.8z M231.9,182.8h-2v-1.4h2V182.8z M227.8,182.8h-2v-1.4h2V182.8z
		 M223.8,182.8h-2v-1.4h2V182.8z M219.8,182.8h-2v-1.4h2V182.8z M215.7,182.8h-2v-1.4h2V182.8z M211.7,182.8h-2v-1.4h2V182.8z
		 M207.6,182.8h-2v-1.4h2V182.8z M203.6,182.8h-2v-1.4h2V182.8z M199.5,182.8h-2v-1.4h2V182.8z M195.5,182.8h-2v-1.4h2V182.8z
		 M191.5,182.8h-2v-1.4h2V182.8z M187.4,182.8h-2v-1.4h2V182.8z M183.4,182.8h-2v-1.4h2V182.8z M179.3,182.8h-2v-1.4h2V182.8z
		 M175.3,182.8h-2v-1.4h2V182.8z M171.3,182.8h-2v-1.4h2V182.8z M167.2,182.8h-2v-1.4h2V182.8z M163.2,182.8h-2v-1.4h2V182.8z
		 M159.1,182.8h-2v-1.4h2V182.8z M155.1,182.8h-2v-1.4h2V182.8z"/>
</g>
<g>
	<polygon class="st6" points="253.7,101.5 246.3,101.5 246.3,71.3 236.1,71.3 236.1,86.2 223.4,86.2 223.4,66.6 201.9,81.8 
		201.1,80.7 224.8,63.9 224.8,84.8 234.7,84.8 234.7,69.9 247.7,69.9 247.7,100.2 253.7,100.2 	"/>
</g>
<g>
	<path class="st6" d="M215.6,89.5h-5.7v-5.7h5.7V89.5z M211.3,88.1h2.9v-2.9h-2.9V88.1z"/>
</g>
<g>
	<polygon class="st6" points="237.2,104.5 232.8,104.5 232.8,103.1 235.8,103.1 235.8,100.2 207.8,100.2 207.8,103.1 213.4,103.1 
		213.4,104.5 206.4,104.5 206.4,98.8 237.2,98.8 	"/>
</g>
<g>
	<rect x="47.4" y="191.3" class="st6" width="163.8" height="1.4"/>
</g>
<g>
	<path class="st6" d="M227.6,113h-2v-1.4h2V113z M223.6,113h-2v-1.4h2V113z M219.5,113h-2v-1.4h2V113z M215.5,113h-2v-1.4h2V113z
		 M211.4,113h-2v-1.4h2V113z M207.4,113h-2v-1.4h2V113z M203.4,113h-2v-1.4h2V113z M199.3,113h-2v-1.4h2V113z M195.3,113h-2v-1.4h2
		V113z"/>
</g>
<path class="st7" d="M95.1,151.9h-6.4c-1.5,0-1.6,2.2,0,2.2h6.4c0.6,0,1.2-0.5,1.2-1.1C96.3,152.4,95.7,151.9,95.1,151.9z"/>
<path class="st7" d="M91.6,142.6H69.5c-1.5,0-1.6,2.2,0,2.2h22.1C93.1,144.8,93.1,142.6,91.6,142.6z"/>
<path class="st7" d="M95.1,133.6h-6.4c-1.5,0-1.6,2.2,0,2.2h6.4c0.6,0,1.2-0.5,1.2-1.1C96.3,134.1,95.7,133.6,95.1,133.6z"/>
<g>
	<rect x="116" y="86.4" class="st8" width="4.2" height="4.2"/>
</g>
<g>
	<polygon class="st9" points="51.2,73.9 54.9,73.9 54.9,64.6 63,64.6 63,74.8 77.7,74.8 77.7,89 81.9,89 82,70.3 67.2,70.3 
		67.2,60.6 51.2,60.6 	"/>
</g>
<g>
	<rect x="49.6" y="83.9" class="st8" width="3.2" height="3.2"/>
</g>
<g>
	<rect x="49.6" y="96.3" class="st8" width="3.2" height="3.2"/>
</g>
<g>
	<rect x="49.6" y="108.8" class="st8" width="3.2" height="3.2"/>
</g>
<g>
	<polygon class="st6" points="132.5,101.9 126.2,101.9 126.2,76.2 110.7,76.2 110.7,75 127.4,75 127.4,100.7 132.5,100.7 	"/>
</g>
<g>
	<path class="st6" d="M120.8,89h-5.4v-5.4h5.4V89z M116.6,87.9h3v-3h-3V87.9z"/>
</g>
<g>
	<path class="st6" d="M51.8,86.4h-4.4V82h4.4V86.4z M48.6,85.2h2v-2h-2V85.2z"/>
</g>
<g>
	<path class="st6" d="M51.8,98.8h-4.4v-4.4h4.4V98.8z M48.6,97.6h2v-2h-2V97.6z"/>
</g>
<g>
	<path class="st6" d="M51.8,111.3h-4.4v-4.4h4.4V111.3z M48.6,110.1h2v-2h-2V110.1z"/>
</g>
<g>
	<polygon class="st6" points="41.5,126.3 32.8,126.3 32.8,109.9 9.9,109.9 9.9,108.7 34,108.7 34,125.1 40.3,125.1 40.3,75.7 
		59.3,75.7 59.3,99.9 70.1,99.9 70.1,111.1 75.7,111.1 75.7,112.3 68.9,112.3 68.9,101.1 58.1,101.1 58.1,76.9 41.5,76.9 	"/>
</g>
<g>
	<polygon class="st6" points="82.5,129.8 81.3,129.8 81.3,83.1 105.1,83.1 105.1,95.7 115.7,95.7 115.7,96.9 103.9,96.9 103.9,84.3 
		82.5,84.3 	"/>
</g>
<g>
	<rect x="92.4" y="96.3" class="st6" width="1.2" height="20.1"/>
</g>
<g>
	<rect x="96.7" y="96.3" class="st6" width="1.2" height="20.4"/>
</g>
<g>
	<polygon class="st6" points="25.4,102.1 24.2,102.1 24.2,93.1 33.4,93.1 33.4,94.3 25.4,94.3 	"/>
</g>
<g>
	<polygon class="st6" points="82.6,76.3 81.4,76.3 81.4,70.9 66.6,70.9 66.6,61.2 51.8,61.2 51.8,73.5 50.6,73.5 50.6,60 67.8,60 
		67.8,69.7 82.6,69.7 	"/>
</g>
<g>
	<rect x="71.6" y="65.3" class="st6" width="9.4" height="1.2"/>
</g>
<g>
	<rect x="18.3" y="114.6" class="st6" width="5.7" height="1.2"/>
</g>
<g>
	<rect x="18.3" y="119.8" class="st6" width="5.7" height="1.2"/>
</g>
<g>
	<rect x="18.3" y="125.2" class="st6" width="5.7" height="1.2"/>
</g>
<g>
	<polygon class="st6" points="108.9,76.2 106.6,76.2 106.6,68.8 96.8,62 87.7,68.9 87,68 96.8,60.6 107.8,68.1 107.8,75 108.9,75 	
		"/>
</g>
<g>
	<path class="st6" d="M86.4,123.8h-1.2v-1.7h1.2V123.8z M86.4,120.3h-1.2v-1.7h1.2V120.3z M86.4,116.9h-1.2v-1.7h1.2V116.9z
		 M86.4,113.4h-1.2v-1.7h1.2V113.4z M86.4,109.9h-1.2v-1.7h1.2V109.9z M86.4,106.4h-1.2v-1.7h1.2V106.4z M86.4,102.9h-1.2v-1.7h1.2
		V102.9z M86.4,99.4h-1.2v-1.7h1.2V99.4z M86.4,95.9h-1.2v-1.7h1.2V95.9z M86.4,92.4h-1.2v-1.7h1.2V92.4z M86.4,89h-1.2v-1.7h1.2V89
		z M86.4,85.5h-1.2v-1.7h1.2V85.5z"/>
</g>
<g>
	<rect x="79.7" y="181.4" class="st6" width="60.9" height="1.4"/>
</g>
<g>
	<path id="Fill-44" class="st3" d="M276.3,150.3c-0.3,0-0.5-0.3-0.5-0.6V142c0-0.4,0.2-0.6,0.5-0.6c0.3,0,0.5,0.3,0.5,0.6v7.7
		C276.8,150,276.6,150.3,276.3,150.3"/>
	<path id="Fill-46" class="st3" d="M272.9,148c-0.2-0.3-0.1-0.7,0.2-0.9l6.7-4.6c0.3-0.2,0.7-0.1,0.9,0.2c0.2,0.3,0.1,0.7-0.2,0.9
		l-6.7,4.6C273.5,148.4,273.1,148.3,272.9,148"/>
	<path id="Fill-48" class="st3" d="M271.9,143.7c0.2-0.3,0.6-0.5,1-0.3l7.6,3.7c0.3,0.2,0.5,0.6,0.3,0.9c-0.2,0.3-0.6,0.5-1,0.3
		l-7.6-3.7C271.8,144.4,271.7,144,271.9,143.7"/>
</g>
<path id="Fill-70_1_" class="st10" d="M277.9,42.8c0-5.6-4.6-10.2-10.2-10.2c-2.1,0-4.1,0.7-5.8,1.8c-2.8-4.3-7.6-7.2-13.1-7.2
	c-8.6,0-15.5,7-15.5,15.6h0c-4.2,0-7.7,3.5-7.7,7.7c0,4.2,3.5,7.7,7.7,7.7h44.6c4.2,0,7.7-3.5,7.7-7.7
	C285.6,46.3,282.1,42.8,277.9,42.8"/>
<path id="Fill-72_1_" class="st11" d="M232.7,43.7c-3.5,0-6.3,2.9-6.3,6.4s2.8,6.4,6.3,6.4h44.8c3.5,0,6.3-2.9,6.3-6.4
	s-2.8-6.4-6.3-6.4h-1.4v-1.4c0-4.9-4-8.9-8.8-8.9c-1.8,0-3.5,0.5-5,1.6l-1.2,0.8l-0.8-1.2c-2.6-4.1-7.1-6.6-12-6.6
	c-7.8,0-14.2,6.4-14.2,14.3v1.4H232.7z M277.5,59.3h-44.8c-5,0-9.1-4.1-9.1-9.2c0-4.6,3.4-8.4,7.8-9.1c0.7-8.8,8-15.8,16.9-15.8
	c5.4,0,10.3,2.5,13.5,6.8c1.7-0.9,3.5-1.3,5.4-1.3c6,0,10.9,4.5,11.5,10.4c4.4,0.6,7.8,4.5,7.8,9.1
	C286.6,55.2,282.5,59.3,277.5,59.3z"/>
<path id="Fill-70_2_" class="st10" d="M69.3,66.6c0-5.6-4.6-10.2-10.2-10.2c-2.1,0-4.1,0.7-5.8,1.8c-2.8-4.3-7.6-7.2-13.1-7.2
	c-8.6,0-15.5,7-15.5,15.6h0c-4.2,0-7.7,3.5-7.7,7.7c0,4.2,3.5,7.7,7.7,7.7h44.6c4.2,0,7.7-3.5,7.7-7.7C77,70,73.5,66.6,69.3,66.6"/>
<path id="Fill-72_2_" class="st11" d="M24.1,67.5c-3.5,0-6.3,2.9-6.3,6.4s2.8,6.4,6.3,6.4h44.8c3.5,0,6.3-2.9,6.3-6.4
	s-2.8-6.4-6.3-6.4h-1.4v-1.4c0-4.9-4-8.9-8.8-8.9c-1.8,0-3.5,0.5-5,1.6l-1.2,0.8l-0.8-1.2c-2.6-4.1-7.1-6.6-12-6.6
	c-7.8,0-14.2,6.4-14.2,14.3v1.4H24.1z M68.9,83H24.1c-5,0-9.1-4.1-9.1-9.2c0-4.6,3.4-8.4,7.8-9.1C23.5,56,30.8,49,39.7,49
	c5.4,0,10.3,2.5,13.5,6.8c1.7-0.9,3.5-1.3,5.4-1.3c6,0,10.9,4.5,11.5,10.4c4.4,0.6,7.8,4.5,7.8,9.1C78,78.9,73.9,83,68.9,83z"/>
<path id="Fill-93" class="st11" d="M249.8,140.5c2.7,0,2.7-4,0-4C247.1,136.5,247.1,140.5,249.8,140.5"/>
<path id="Fill-100" class="st11" d="M182.8,80c2.7,0,2.7-4,0-4C180.1,76,180.1,80,182.8,80"/>
<path id="Fill-100_1_" class="st11" d="M98.4,38.6c2.7,0,2.7-4,0-4C95.7,34.6,95.7,38.6,98.4,38.6"/>
</svg>
