<?xml version="1.0" encoding="UTF-8"?>
<svg width="317px" height="211px" viewBox="0 0 317 211" version="1.1" xmlns="http://www.w3.org/2000/svg" xmlns:xlink="http://www.w3.org/1999/xlink">
    <!-- Generator: Sketch 48.1 (47250) - http://www.bohemiancoding.com/sketch -->
    <title>Page 1main_illu</title>
    <desc>Created with Sketch.</desc>
    <defs>
        <polygon id="path-1" points="0.395336842 0.936503589 106.832461 0.936503589 106.832461 39.5618358 0.395336842 39.5618358"></polygon>
        <polygon id="path-3" points="0.179958384 0.693175 191.982861 0.693175 191.982861 17 0.179958384 17"></polygon>
        <polygon id="path-5" points="0 0.2343 3.86423362 0.2343 3.86423362 4.7343 0 4.7343"></polygon>
    </defs>
    <g id="Enact---Home-Page-Copy" stroke="none" stroke-width="1" fill="none" fill-rule="evenodd" transform="translate(-849.000000, -1188.000000)">
        <g id="Page-1" transform="translate(849.000000, 1188.000000)">
            <g id="Group-3" transform="translate(210.000000, 66.000000)">
                <mask id="mask-2" fill="white">
                    <use xlink:href="#path-1"></use>
                </mask>
                <g id="Clip-2"></g>
                <path d="M3.45046842,25.4276158 C3.31812632,25.4276158 3.21112632,25.5363514 3.21112632,25.6676814 C3.21112632,25.8018358 3.31812632,25.9091593 3.45046842,25.9091593 L79.9639158,25.9049228 C80.1103368,25.8837406 80.2131132,25.7397011 80.1962184,25.6309655 C79.5499947,21.6896519 77.9266921,18.5998654 75.5037053,16.6962857 C74.3464158,15.7868604 73.0356658,15.1598654 71.6024289,14.829422 C70.2466263,14.5173366 68.8288763,14.4806207 67.3829684,14.7178621 C65.4217711,15.0426568 63.5239289,15.867353 61.8978105,17.1058095 L60.1041526,18.4727718 L59.6662974,16.2571067 C58.5765868,10.7694877 55.6678763,7.74324795 53.4180605,6.17152381 C51.5385211,4.85822332 49.3576921,4.04623645 47.1106921,3.82452874 C44.8594684,3.60282102 42.5744553,3.97986535 40.5104816,4.92459442 C36.7936395,6.62341215 34.0074158,9.94196716 32.4545079,14.5215731 L31.8772711,16.2232151 L30.3651921,15.2587159 C27.8901132,13.6785189 25.2742447,12.894775 22.8512579,13.0261051 C21.5433237,13.0896519 20.3114158,13.4031494 19.1921395,13.9595369 C18.0644158,14.5201609 17.0732579,15.315202 16.2454158,16.3234778 C14.6460474,18.2750706 13.7435868,20.952509 13.6337711,24.06489 L13.5873105,25.4276158 L3.45046842,25.4276158 Z M79.9639158,28.7334614 L3.45046842,28.7334614 C1.76662632,28.7334614 0.395336842,27.3594384 0.395336842,25.6676814 C0.395336842,23.9787488 1.76662632,22.6033136 3.45046842,22.6033136 L10.9151263,22.6033136 C11.2417579,19.4344466 12.3216132,16.6638062 14.0702184,14.530046 C15.1528895,13.2110969 16.4551921,12.1675172 17.9433368,11.4289622 C19.4117711,10.6988801 21.0167711,10.2879442 22.7146921,10.2046273 C25.2418632,10.0916552 27.8675868,10.7059409 30.3947579,12.0178292 C32.2855605,7.5455468 35.4181263,4.14791133 39.3419289,2.35447947 C41.8578368,1.20498851 44.6370211,0.738978654 47.3880474,1.01293596 C50.1137316,1.28406897 52.7549421,2.26551396 55.0272842,3.85418391 C58.2921921,6.13480788 60.6982842,9.58751724 61.9330079,13.7095862 C63.4901395,12.8255796 65.1866526,12.2183547 66.9268105,11.9302759 C68.7345474,11.632312 70.51835,11.6831494 72.2317579,12.0771396 C74.0718763,12.5007849 75.7557184,13.3071232 77.2396395,14.4735599 C80.2271921,16.8191429 82.2109158,20.5203908 82.9739947,25.1748407 C83.1063368,25.9840033 82.9162711,26.7931658 82.4389947,27.4568768 C82.1560079,27.8522791 81.7913632,28.1671888 81.3718105,28.3860722 L81.3718105,28.729225 L79.9639158,28.7334614 Z M21.7840737,39.5618358 L30.1906132,39.5618358 L30.1906132,36.7375337 L21.7840737,36.7375337 L21.7840737,39.5618358 Z M82.3319947,39.5618358 L38.4113105,39.5618358 L38.4113105,36.7375337 L80.3130737,36.7375337 C81.4886658,33.6943481 83.4034026,31.225908 85.8981921,29.5609819 C88.0255211,28.1389458 90.4991921,27.3679113 93.0517053,27.3283711 C95.5619816,27.290243 98.0877447,27.9836092 100.289692,29.3308013 C103.257534,31.1482397 105.520021,34.0318522 106.833587,37.6695534 L104.185337,38.6312282 C103.091403,35.6035764 101.237205,33.2212775 98.8212579,31.7413432 C97.0754684,30.6723448 95.1635474,30.1187816 93.0925342,30.1526732 C91.0834684,30.1837406 89.1349421,30.7909655 87.4595474,31.9108013 C85.2378895,33.3949721 83.5737579,35.7024269 82.6473632,38.5832151 L82.3319947,39.5618358 Z" id="Fill-1" fill="#000000" mask="url(#mask-2)"></path>
            </g>
            <path d="M289.5,201 C289.226,201 289,200.678571 289,200.285714 L289,191.714286 C289,191.321429 289.226,191 289.5,191 C289.775,191 290,191.321429 290,191.714286 L290,200.285714 C290,200.678571 289.775,201 289.5,201" id="Fill-4" fill="#FEA200"></path>
            <path d="M285.132562,198.703744 C284.896505,198.393613 284.98427,197.965987 285.327764,197.754223 L292.816538,193.118648 C293.160032,192.906884 293.632147,192.986124 293.866692,193.296256 C294.104262,193.606387 294.014984,194.034013 293.673003,194.245777 L286.182716,198.881352 C285.840735,199.093116 285.367107,199.013876 285.132562,198.703744" id="Fill-6" fill="#FEA200"></path>
            <path d="M285.077496,193.362613 C285.256441,193.035054 285.686762,192.905368 286.033291,193.073827 L293.614321,196.737138 C293.96227,196.905597 294.100029,197.3107 293.922504,197.636922 C293.743559,197.964481 293.313238,198.094167 292.965289,197.927045 L285.385679,194.262397 C285.03773,194.093938 284.899971,193.690172 285.077496,193.362613" id="Fill-8" fill="#FEA200"></path>
            <path d="M53.0064279,196 L53.0064279,108.234405 C53.0064279,108.234405 52.3777966,97.0004087 63.5539328,97.0004087 L195.120697,97.0004087 C195.120697,97.0004087 207,96.765899 207,107.53228 L207,196 C207,196 51.9516774,194.946813 53.0064279,196" id="Fill-10" fill="#EBEBEB"></path>
            <path d="M91.9187431,193.712878 C102.497057,193.712878 115.124012,193.738201 129.668665,193.788847 C163.59868,193.905614 197.882103,194.123672 205.183997,194.172911 L205.183997,106.958035 C205.183997,104.34837 204.401149,102.257824 202.853755,100.742671 C199.801209,97.751755 194.787316,97.8150622 194.726772,97.8136554 L62.9758689,97.8136554 C60.1021383,97.8136554 57.8648243,98.6338359 56.3272869,100.250281 C53.6281485,103.087852 53.8196366,107.543276 53.8224526,107.586887 L53.8238606,194.019567 C56.7032232,193.805729 62.9096928,193.778999 76.6799453,193.735388 C81.1531653,193.719913 86.2416819,193.712878 91.9187431,193.712878 M52.4158594,196.995007 C52.051187,196.995007 51.6907387,196.852918 51.4204025,196.584214 C51.1261302,196.290187 50.9811061,195.879393 51.0078581,195.474227 L51.0078581,107.661449 C50.9980021,107.510919 50.7361138,102.063682 54.268789,98.331368 C56.3596709,96.1212417 59.2897216,95 62.9758689,95 L194.698612,95 C194.922484,95.0056273 200.93465,94.9212176 204.824957,98.7337207 C206.932735,100.797537 208,103.564767 208,106.958035 L208,195.58818 C208,195.963803 207.850752,196.322544 207.58464,196.587027 C207.319935,196.850104 206.984831,197.032992 206.582143,196.995007 C165.607898,196.717862 59.0602174,196.160759 52.9593478,196.886682 C52.9579398,196.888089 52.9565318,196.888089 52.9551238,196.888089 C52.7805317,196.961244 52.5974915,196.995007 52.4158594,196.995007" id="Fill-12" fill="#000000"></path>
            <path d="M62.0056352,195 L62.0056352,115.704815 C62.0056352,115.704815 61.4571449,106.000349 71.1826781,106.000349 L185.662851,106.000349 C185.662851,106.000349 196,105.798523 196,115.097936 L196,195" id="Fill-14" fill="#9BFFFF"></path>
            <path d="M196.59523,196 C195.818392,196 195.19046,195.370751 195.19046,194.595427 L195.19046,114.522098 C195.19046,112.337986 194.537242,110.586483 193.249068,109.318153 C190.664291,106.773066 186.288433,106.809585 186.268766,106.809585 L71.6016079,106.809585 C69.1334271,106.809585 67.2173208,107.510467 65.9136943,108.889758 C63.6674671,111.264892 63.8135632,115.013699 63.814968,115.051622 L63.8163728,194.595427 C63.8163728,195.370751 63.1884406,196 62.4116028,196 C61.6361698,196 61.0068328,195.370751 61.0068328,194.595427 L61.0068328,115.130278 C60.9984042,115.00808 60.7680219,110.243767 63.8725636,106.959874 C65.7282647,104.996281 68.3284939,104.000438 71.6016079,104.000438 L186.244885,104.000438 C186.434529,103.997629 191.769845,103.934423 195.205913,107.30259 C197.060209,109.120108 198,111.55002 198,114.522098 L198,194.595427 C198,195.370751 197.372068,196 196.59523,196" id="Fill-16" fill="#000000"></path>
            <path d="M34,196 L223,196 L223,202.835209 C223,202.835209 222.297398,208.986897 215.271375,208.986897 L43.133829,208.986897 C43.133829,208.986897 34.3513011,209.556954 34.3513011,203.176969 L34,196 Z" id="Fill-18" fill="#EBEBEB"></path>
            <g id="Group-22" transform="translate(33.000000, 194.000000)">
                <mask id="mask-4" fill="white">
                    <use xlink:href="#path-3"></use>
                </mask>
                <g id="Clip-21"></g>
                <path d="M3.05928445,3.52650833 L3.34031408,9.48075833 C3.34171923,10.7812583 3.71689379,11.7332583 4.48691499,12.4600083 C6.19557517,14.0735917 9.49907852,14.2265917 10.6260074,14.1543417 L182.849398,14.1515083 C188.198797,14.1515083 189.060153,9.87459167 189.172565,9.099675 L189.172565,3.52650833 L3.05928445,3.52650833 Z M10.1440415,17.000425 C8.71219554,17.000425 4.94077785,16.7695083 2.56607744,14.5297583 C1.21573005,13.256175 0.531422886,11.5802583 0.531422886,9.54734167 L0.181540991,2.176425 C0.163274064,1.789675 0.303788882,1.41284167 0.569361886,1.13234167 C0.833529743,0.851841667 1.20167856,0.693175 1.58528401,0.693175 L190.577713,0.693175 C191.35476,0.693175 191.982861,1.32784167 191.982861,2.10984167 L191.982861,9.193175 C191.982861,9.24559167 191.980051,9.29800833 191.97443,9.34900833 C191.683565,11.9910917 189.401604,16.9848417 182.849398,16.9848417 L10.7187471,16.9848417 C10.6962648,16.9862583 10.4868977,17.000425 10.1440415,17.000425 Z" id="Fill-20" fill="#000000" mask="url(#mask-4)"></path>
            </g>
            <path d="M144.612245,203 L113.387755,203 C112.620327,203 112,202.328 112,201.5 C112,200.672 112.620327,200 113.387755,200 L144.612245,200 C145.379673,200 146,200.672 146,201.5 C146,202.328 145.379673,203 144.612245,203" id="Fill-23" fill="#000000"></path>
            <g id="Group-27" transform="translate(0.000000, 86.000000)">
                <mask id="mask-6" fill="white">
                    <use xlink:href="#path-5"></use>
                </mask>
                <g id="Clip-26"></g>
                <path d="M1.93173333,4.7343 C4.5064,4.7343 4.5104,0.2343 1.93173333,0.2343 C-0.642933333,0.2343 -0.646933333,4.7343 1.93173333,4.7343" id="Fill-25" fill="#000000" mask="url(#mask-6)"></path>
            </g>
            <path d="M45.9994824,39 C48.6647684,39 48.6689092,35 45.9994824,35 C43.3355767,35 43.3314359,39 45.9994824,39" id="Fill-28" fill="#000000"></path>
            <path d="M285.453,146 C285.203,146 285,145.708571 285,145.352857 L285,136.647143 C285,136.291429 285.203,136 285.453,136 C285.702,136 285.906,136.291429 285.906,136.647143 L285.906,145.352857 C285.906,145.708571 285.702,146 285.453,146" id="Fill-30" fill="#FEA200"></path>
            <path d="M282.117267,142.704103 C281.907979,142.394004 281.986648,141.966424 282.290931,141.754682 L288.948055,137.119599 C289.253822,136.906492 289.673882,136.985724 289.881685,137.297189 C290.092457,137.605921 290.013788,138.033502 289.708021,138.245243 L283.052381,142.880326 C282.746614,143.093433 282.326554,143.014201 282.117267,142.704103" id="Fill-32" fill="#FEA200"></path>
            <path d="M282.068641,138.36257 C282.227444,138.03505 282.610521,137.905379 282.918376,138.073818 L289.65636,141.736698 C289.965608,141.905137 290.089585,142.310193 289.930782,142.636376 C289.771979,142.963896 289.388902,143.094905 289.079654,142.926466 L282.34167,139.262249 C282.033815,139.095146 281.911231,138.690091 282.068641,138.36257" id="Fill-34" fill="#FEA200"></path>
            <path d="M18.5,163 C18.226,163 18,162.678571 18,162.285714 L18,153.714286 C18,153.321429 18.226,153 18.5,153 C18.775,153 19,153.321429 19,153.714286 L19,162.285714 C19,162.678571 18.775,163 18.5,163" id="Fill-36" fill="#FEA200"></path>
            <path d="M14.1314168,160.704103 C13.8968624,160.394004 13.9846311,159.966424 14.3281398,159.754682 L21.8157206,155.119599 C22.1592292,154.906492 22.6328777,154.985724 22.8674321,155.297189 C23.1034997,155.605921 23.015731,156.033502 22.6722223,156.245243 L15.1831283,160.880326 C14.8411329,161.093433 14.3659711,161.014201 14.1314168,160.704103" id="Fill-38" fill="#FEA200"></path>
            <path d="M14.0781589,155.36257 C14.2556858,155.03505 14.6874314,154.905379 15.033964,155.073818 L22.6150746,158.736698 C22.9616071,158.905137 23.1007883,159.310193 22.9218411,159.636376 C22.7443142,159.963896 22.3139889,160.094905 21.966036,159.926466 L14.3849254,156.262249 C14.0383929,156.095146 13.8992117,155.690091 14.0781589,155.36257" id="Fill-40" fill="#FEA200"></path>
            <path d="M190.5,34 C190.225,34 190,33.6785714 190,33.2857143 L190,24.7142857 C190,24.3214286 190.225,24 190.5,24 C190.774,24 191,24.3214286 191,24.7142857 L191,33.2857143 C191,33.6785714 190.774,34 190.5,34" id="Fill-42" fill="#FEA200"></path>
            <path d="M187.131822,31.7037738 C186.897267,31.3936734 186.983523,30.9660901 187.328545,30.7543475 L194.816126,26.1192348 C195.159635,25.9061262 195.63177,25.986725 195.867837,26.2968254 C196.103905,26.6069257 196.014623,27.033143 195.672628,27.2462516 L188.183533,31.8813643 C187.840025,32.0931069 187.366376,32.0138742 187.131822,31.7037738" id="Fill-44" fill="#FEA200"></path>
            <path d="M186.07723,27.3630444 C186.256168,27.035516 186.686472,26.9058415 187.034407,27.0729478 L194.613711,30.7372552 C194.961646,30.9043615 195.10082,31.3107641 194.921882,31.6369556 C194.742944,31.964484 194.312641,32.0941585 193.966126,31.9270522 L186.385401,28.2627448 C186.038887,28.0943016 185.899712,27.6905728 186.07723,27.3630444" id="Fill-46" fill="#FEA200"></path>
            <path d="M205.000259,59 C207.66382,59 207.66934,55 205.000259,55 C202.335318,55 202.331177,59 205.000259,59" id="Fill-48" fill="#000000"></path>
            <g id="Group-62" transform="translate(62.000000, 114.000000)" fill="#888888">
                <polygon id="Fill-50" points="20.4389781 76.6602562 21.334475 76.6602562 21.334475 0.913135802 20.4389781 0.913135802"></polygon>
                <polygon id="Fill-52" points="32.0298286 76.6602562 32.9239196 76.6602562 32.9239196 0.913135802 32.0298286 0.913135802"></polygon>
                <polygon id="Fill-53" points="43.6192732 76.6602562 44.5147701 76.6602562 44.5147701 0.913135802 43.6192732 0.913135802"></polygon>
                <polygon id="Fill-54" points="55.2101237 76.6602562 56.1056205 76.6602562 56.1056205 0.913135802 55.2101237 0.913135802"></polygon>
                <polygon id="Fill-55" points="66.8009741 76.6602562 67.6950652 76.6602562 67.6950652 0.913135802 66.8009741 0.913135802"></polygon>
                <polygon id="Fill-56" points="78.3904187 76.6602562 79.2859156 76.6602562 79.2859156 0.913135802 78.3904187 0.913135802"></polygon>
                <polygon id="Fill-57" points="89.9812692 76.6602562 90.8767661 76.6602562 90.8767661 0.913135802 89.9812692 0.913135802"></polygon>
                <polygon id="Fill-58" points="101.573525 76.6602562 102.467617 76.6602562 102.467617 0.913135802 101.573525 0.913135802"></polygon>
                <polygon id="Fill-59" points="113.16297 76.6602562 114.057061 76.6602562 114.057061 0.913135802 113.16297 0.913135802"></polygon>
                <polygon id="Fill-60" points="124.753821 76.6602562 125.647912 76.6602562 125.647912 0.913135802 124.753821 0.913135802"></polygon>
                <polygon id="Fill-61" points="0.725394643 39.2300401 133.77205 39.2300401 133.77205 38.3447438 0.725394643 38.3447438"></polygon>
            </g>
            <path d="M188,108 L188,155.959765 C188,159.517278 185.092854,162.427843 181.53609,162.427843 C177.977923,162.427843 175.039909,159.486404 175.039909,155.927488 L175.039909,139.82676 C175.039909,137.028463 172.747305,134.733973 169.948195,134.733973 C167.150487,134.733973 164.857883,137.029867 164.857883,139.82676 L164.857883,149.349948 C164.857883,152.907461 161.949334,155.818026 158.391167,155.818026 C154.834403,155.818026 151.927257,152.907461 151.927257,149.349948 L151.927257,136.726741 C151.927257,133.925639 149.634652,131.633955 146.835542,131.633955 C144.036432,131.633955 141.743827,133.928445 141.743827,136.726741 L141.743827,167.564133 C141.743827,171.121646 138.836681,174.030808 135.278514,174.030808 C131.72175,174.030808 128.783736,171.089369 128.783736,167.530453 L128.783736,150.831894 C128.783736,148.030791 126.491132,145.739107 123.693425,145.739107 C120.894315,145.739107 118.60171,148.030791 118.60171,150.831894 L118.60171,153.242864 C118.60171,156.800376 115.694564,159.710941 112.136397,159.710941 C108.579633,159.710941 105.669681,156.798973 105.669681,153.242864 L105.669681,145.311083 C105.669681,142.511384 103.378479,140.2197 100.579369,140.2197 C97.7802588,140.2197 95.4876542,142.511384 95.4876542,145.311083 L95.4876542,167.815335 C95.4876542,171.372847 92.5805082,174.282009 89.0237441,174.282009 C85.465577,174.282009 82.558431,171.374251 82.558431,167.815335 L82.558431,152.740461 C82.558431,149.939358 80.2658264,147.646271 77.4667162,147.646271 C74.667606,147.646271 72.3750015,149.940762 72.3750015,152.740461 L72.3750015,193 L71,193 L71,152.740461 C71,149.182948 73.9085491,146.27098 77.4667162,146.27098 C81.0248834,146.27098 83.9320294,149.182948 83.9320294,152.740461 L83.9320294,167.815335 C83.9320294,170.613631 86.2232309,172.906718 89.0237441,172.906718 C91.8214513,172.906718 94.1140558,170.616437 94.1140558,167.815335 L94.1140558,145.311083 C94.1140558,141.752167 97.0226049,138.844409 100.579369,138.844409 C104.137536,138.844409 107.044682,141.752167 107.044682,145.311083 L107.044682,153.242864 C107.044682,156.039756 109.33869,158.33565 112.136397,158.33565 C114.93691,158.33565 117.228112,156.04116 117.228112,153.242864 L117.228112,150.831894 C117.228112,147.272978 120.135258,144.363816 123.693425,144.363816 C127.250189,144.363816 130.157335,147.271575 130.157335,150.831894 L130.157335,167.530453 C130.157335,170.331556 132.480807,172.65692 135.278514,172.65692 C138.077624,172.65692 140.370229,170.36243 140.370229,167.564133 L140.370229,136.726741 C140.370229,133.169228 143.278778,130.260067 146.835542,130.260067 C150.393709,130.260067 153.300855,133.167825 153.300855,136.726741 L153.300855,149.349948 C153.300855,152.149648 155.59346,154.442735 158.391167,154.442735 C161.190277,154.442735 163.482881,152.149648 163.482881,149.349948 L163.482881,139.82676 C163.482881,136.27065 166.392834,133.358682 169.948195,133.358682 C173.506362,133.358682 176.413508,136.269247 176.413508,139.82676 L176.413508,155.927488 C176.413508,158.727187 178.735577,161.052552 181.53609,161.052552 C184.333797,161.052552 186.626402,158.759464 186.626402,155.959765 L186.626402,108" id="Fill-63" fill="#FF458A"></path>
            <path d="M73.1516489,195 L69,195 L69,153.050821 C69,148.678848 72.5050007,145.123617 76.8155244,145.123617 C81.1260482,145.123617 84.6310489,148.678848 84.6310489,153.050821 L84.6310489,168.228378 C84.6310489,170.275886 86.2755422,171.943283 88.2949243,171.943283 C90.3143065,171.943283 91.9574062,170.275886 91.9574062,168.228378 L91.9574062,145.568728 C91.9574062,141.199581 95.4638005,137.645763 99.7743243,137.645763 C104.082061,137.645763 107.588455,141.199581 107.588455,145.568728 L107.588455,153.555279 C107.588455,155.6042 109.232948,157.270185 111.252331,157.270185 C113.271713,157.270185 114.916206,155.6042 114.916206,153.555279 L114.916206,151.127662 C114.916206,146.757102 118.421207,143.201871 122.73173,143.201871 C127.040861,143.201871 130.547255,146.757102 130.547255,151.127662 L130.547255,167.942942 C130.547255,169.973493 132.236345,171.690347 134.239003,171.690347 C136.258385,171.690347 137.902879,170.024363 137.902879,167.975442 L137.902879,136.925108 C137.902879,132.555962 141.409273,129.000731 145.718403,129.000731 C150.027533,129.000731 153.533927,132.555962 153.533927,136.925108 L153.533927,149.635482 C153.533927,151.684403 155.177027,153.350387 157.197803,153.350387 C159.217185,153.350387 160.861678,151.684403 160.861678,149.635482 L160.861678,140.046533 C160.861678,135.677386 164.366679,132.120743 168.675809,132.120743 C172.986333,132.120743 176.491334,135.677386 176.491334,140.046533 L176.491334,156.258442 C176.491334,158.290406 178.183211,160.005847 180.185869,160.005847 C182.205251,160.005847 183.849745,158.339863 183.849745,156.290942 L183.849745,108 L188,108 L188,156.290942 C188,160.661502 184.494999,164.216732 180.185869,164.216732 C175.858622,164.216732 172.339685,160.645958 172.339685,156.258442 L172.339685,140.046533 C172.339685,137.999025 170.695191,136.331628 168.675809,136.331628 C166.656427,136.331628 165.013327,137.999025 165.013327,140.046533 L165.013327,149.635482 C165.013327,154.006042 161.506933,157.561273 157.197803,157.561273 C152.888673,157.561273 149.382279,154.006042 149.382279,149.635482 L149.382279,136.925108 C149.382279,134.877601 147.739179,133.210203 145.718403,133.210203 C143.699021,133.210203 142.054528,134.877601 142.054528,136.925108 L142.054528,167.975442 C142.054528,172.344589 138.549527,175.89982 134.239003,175.89982 C129.914543,175.89982 126.394212,172.330459 126.394212,167.942942 L126.394212,151.127662 C126.394212,149.078741 124.751113,147.412756 122.73173,147.412756 C120.712348,147.412756 119.067855,149.078741 119.067855,151.127662 L119.067855,153.555279 C119.067855,157.925839 115.562854,161.48107 111.252331,161.48107 C106.941807,161.48107 103.435412,157.925839 103.435412,153.555279 L103.435412,145.568728 C103.435412,143.52122 101.793706,141.856649 99.7743243,141.856649 C97.7535485,141.856649 96.1104488,143.52122 96.1104488,145.568728 L96.1104488,168.228378 C96.1104488,172.597525 92.6040544,176.152755 88.2949243,176.152755 C83.9844006,176.152755 80.4793999,172.597525 80.4793999,168.228378 L80.4793999,153.050821 C80.4793999,151.000487 78.8349065,149.33309 76.8155244,149.33309 C74.7961423,149.33309 73.1516489,151.000487 73.1516489,153.050821 L73.1516489,195 Z" id="Fill-65" fill="#FF458A"></path>
            <path d="M71.4037464,142 C71.0765455,142 70.746536,141.885373 70.4811242,141.650459 C69.8969372,141.138177 69.8365525,140.243806 70.3449075,139.655106 L89.5374148,117.484039 C90.0499827,116.895339 90.9360932,116.835903 91.5188758,117.348185 C92.1030628,117.861883 92.1634475,118.756254 91.6550925,119.344954 L72.4625852,141.514605 C72.1845347,141.835843 71.7941405,142 71.4037464,142" id="Fill-67" fill="#000000"></path>
            <path d="M72.4324371,152 C72.1014376,152 71.7690051,151.88779 71.4996202,151.660564 C70.8992357,151.155618 70.8304566,150.270559 71.3448672,149.682858 L100.479993,116.48826 C100.998702,115.900559 101.902861,115.834635 102.50038,116.338179 C103.100764,116.843125 103.169543,117.728183 102.655133,118.315885 L73.5200071,151.511885 C73.2362932,151.83449 72.8350816,152 72.4324371,152" id="Fill-69" fill="#000000"></path>
            <path d="M74.4055443,163 C74.0846471,163 73.7637499,162.890583 73.4991504,162.666065 C72.9066166,162.160188 72.8306146,161.263536 73.3302572,160.662452 L108.516354,118.505596 C109.015996,117.905934 109.904093,117.827778 110.50085,118.335076 C111.093383,118.840953 111.169385,119.737605 110.669743,120.338688 L75.4836463,162.495544 C75.2049724,162.828059 74.8066658,163 74.4055443,163" id="Fill-71" fill="#000000"></path>
            <path d="M258,166 C258,186.9875 240.9875,204 220.001389,204 C199.013889,204 182,186.9875 182,166 C182,145.013889 199.013889,128 220.001389,128 C240.9875,128 258,145.013889 258,166" id="Fill-73" fill="#FFFFFF"></path>
            <path d="M220.500696,129.785614 C200.255893,129.785614 183.785663,146.255554 183.785663,166.5 C183.785663,186.744446 200.255893,203.214386 220.500696,203.214386 C240.744107,203.214386 257.214337,186.744446 257.214337,166.5 C257.214337,146.255554 240.744107,129.785614 220.500696,129.785614 M220.500696,206 C198.7196,206 181,188.280712 181,166.5 C181,144.719288 198.7196,127 220.500696,127 C242.281793,127 260,144.719288 260,166.5 C260,188.280712 242.281793,206 220.500696,206" id="Fill-75" fill="#000000"></path>
            <path d="M220.5,136.625545 C204.026999,136.625545 190.625545,150.026999 190.625545,166.5 C190.625545,182.973001 204.026999,196.374455 220.5,196.374455 C236.973001,196.374455 250.374455,182.973001 250.374455,166.5 C250.374455,150.026999 236.973001,136.625545 220.5,136.625545 M220.5,202 C200.924511,202 185,186.074083 185,166.5 C185,146.924511 200.924511,131 220.5,131 C240.075489,131 256,146.924511 256,166.5 C256,186.074083 240.075489,202 220.5,202" id="Fill-77" fill="#FF5555"></path>
            <path d="M221.5,148.661116 C211.663515,148.661116 203.661286,156.663103 203.661286,166.499292 C203.661286,176.336897 211.663515,184.338884 221.5,184.338884 C231.336485,184.338884 239.338714,176.336897 239.338714,166.499292 C239.338714,156.663103 231.336485,148.661116 221.5,148.661116 M221.5,190 C208.542731,190 198,179.459002 198,166.499292 C198,153.542413 208.542731,143 221.5,143 C234.457269,143 245,153.542413 245,166.499292 C245,179.459002 234.457269,190 221.5,190" id="Fill-79" fill="#94C7F7"></path>
            <path d="M230,166.999301 C230,171.970024 225.970024,176 221.000699,176 C216.028578,176 212,171.970024 212,166.999301 C212,162.028578 216.028578,158 221.000699,158 C225.970024,158 230,162.028578 230,166.999301" id="Fill-81" fill="#FCD757"></path>
            <path d="M221.619763,166.813911 C222.646923,165.60342 249.315516,139 249.315516,139 L251,141.017485 L223.023982,168.550389 L221,169 L221.619763,166.813911 Z" id="Fill-83" fill="#282D37"></path>
            <polygon id="Fill-85" fill="#282D37" points="245.866397 144.839661 250.844355 145 258 137.658957 251.000674 137.658957 251.000674 130 244.154972 137.5 244 143.40352"></polygon>
            <path d="M149.2,46 L126.8,46 C125.26,46 124,44.7727273 124,43.2727273 L124,33.7272727 C124,32.2272727 125.26,31 126.8,31 L149.2,31 C150.7414,31 152,32.2272727 152,33.7272727 L152,43.2727273 C152,44.7727273 150.7414,46 149.2,46" id="Fill-87" fill="#EFEFEF"></path>
            <path d="M126.227273,32.7692308 C125.449455,32.7692308 124.818182,33.3909231 124.818182,34.1538462 L124.818182,43.8461538 C124.818182,44.6090769 125.449455,45.2307692 126.227273,45.2307692 L148.772727,45.2307692 C149.550545,45.2307692 150.181818,44.6090769 150.181818,43.8461538 L150.181818,34.1538462 C150.181818,33.3909231 149.550545,32.7692308 148.772727,32.7692308 L126.227273,32.7692308 Z M148.772727,48 L126.227273,48 C123.896636,48 122,46.1363077 122,43.8461538 L122,34.1538462 C122,31.8636923 123.896636,30 126.227273,30 L148.772727,30 C151.103364,30 153,31.8636923 153,34.1538462 L153,43.8461538 C153,46.1363077 151.103364,48 148.772727,48 Z" id="Fill-89" fill="#231F20"></path>
            <path d="M150.217391,82 L123.782609,82 C122.252174,82 121,80.7318182 121,79.1818182 L121,53.8181818 C121,52.2681818 122.252174,51 123.782609,51 L150.217391,51 C151.749217,51 153,52.2681818 153,53.8181818 L153,79.1818182 C153,80.7318182 151.749217,82 150.217391,82" id="Fill-91" fill="#EFEFEF"></path>
            <path d="M124.2,52.75 C123.4272,52.75 122.8,53.367375 122.8,54.125 L122.8,78.875 C122.8,79.632625 123.4272,80.25 124.2,80.25 L150.8,80.25 C151.5728,80.25 152.2,79.632625 152.2,78.875 L152.2,54.125 C152.2,53.367375 151.5728,52.75 150.8,52.75 L124.2,52.75 Z M150.8,83 L124.2,83 C121.8844,83 120,81.14925 120,78.875 L120,54.125 C120,51.85075 121.8844,50 124.2,50 L150.8,50 C153.1156,50 155,51.85075 155,54.125 L155,78.875 C155,81.14925 153.1156,83 150.8,83 Z" id="Fill-93" fill="#000000"></path>
            <path d="M137.5,53 C136.6705,53 136,52.3383792 136,51.5231678 L136,46.4768322 C136,45.6616208 136.6705,45 137.5,45 C138.3295,45 139,45.6616208 139,46.4768322 L139,51.5231678 C139,52.3383792 138.3295,53 137.5,53" id="Fill-95" fill="#231F20"></path>
            <path d="M137.5,32 C136.6705,32 136,31.3031111 136,30.4444444 L136,26.5555556 C136,25.6968889 136.6705,25 137.5,25 C138.3295,25 139,25.6968889 139,26.5555556 L139,30.4444444 C139,31.3031111 138.3295,32 137.5,32" id="Fill-97" fill="#231F20"></path>
            <path d="M112.375,69 C111.614625,69 111,68.3653333 111,67.5833333 L111,56.25 C111,53.1319167 113.46675,52 115.125,52 L120.625,52 C121.385375,52 122,52.6346667 122,53.4166667 C122,54.1986667 121.385375,54.8333333 120.625,54.8333333 L115.125,54.8333333 C114.50625,54.8503333 113.75,55.1095833 113.75,56.25 L113.75,67.5833333 C113.75,68.3653333 113.135375,69 112.375,69" id="Fill-99" fill="#231F20"></path>
            <path d="M163.625,69 C162.864625,69 162.25,68.3653333 162.25,67.5833333 L162.25,56.25 C162.25,55.1095833 161.49375,54.8503333 160.8585,54.8333333 L155.375,54.8333333 C154.614625,54.8333333 154,54.1986667 154,53.4166667 C154,52.6346667 154.614625,52 155.375,52 L160.875,52 C162.53325,52 165,53.1319167 165,56.25 L165,67.5833333 C165,68.3653333 164.385375,69 163.625,69" id="Fill-101" fill="#231F20"></path>
            <path d="M116.625,73 C115.864625,73 115.25,72.3728 115.25,71.6 C115.25,70.0558 114.016625,68.8 112.5,68.8 C110.983375,68.8 109.75,70.0558 109.75,71.6 C109.75,72.3728 109.135375,73 108.375,73 C107.614625,73 107,72.3728 107,71.6 C107,68.5116 109.46675,66 112.5,66 C115.53325,66 118,68.5116 118,71.6 C118,72.3728 117.385375,73 116.625,73" id="Fill-103" fill="#231F20"></path>
            <path d="M167.625,73 C166.864625,73 166.25,72.3728 166.25,71.6 C166.25,70.0558 165.016625,68.8 163.5,68.8 C161.983375,68.8 160.75,70.0558 160.75,71.6 C160.75,72.3728 160.135375,73 159.375,73 C158.614625,73 158,72.3728 158,71.6 C158,68.5116 160.46675,66 163.5,66 C166.53325,66 169,68.5116 169,71.6 C169,72.3728 168.385375,73 167.625,73" id="Fill-105" fill="#231F20"></path>
            <path d="M137.5,17.75 C135.983375,17.75 134.75,18.983375 134.75,20.5 C134.75,22.016625 135.983375,23.25 137.5,23.25 C139.016625,23.25 140.25,22.016625 140.25,20.5 C140.25,18.983375 139.016625,17.75 137.5,17.75 M137.5,26 C134.46675,26 132,23.53325 132,20.5 C132,17.46675 134.46675,15 137.5,15 C140.53325,15 143,17.46675 143,20.5 C143,23.53325 140.53325,26 137.5,26" id="Fill-107" fill="#231F20"></path>
            <path d="M128.5,87.75 C126.983375,87.75 125.75,88.983375 125.75,90.5 C125.75,92.016625 126.983375,93.25 128.5,93.25 C130.016625,93.25 131.25,92.016625 131.25,90.5 C131.25,88.983375 130.016625,87.75 128.5,87.75 M128.5,96 C125.46675,96 123,93.53325 123,90.5 C123,87.46675 125.46675,85 128.5,85 C131.53325,85 134,87.46675 134,90.5 C134,93.53325 131.53325,96 128.5,96" id="Fill-109" fill="#231F20"></path>
            <path d="M138.5,87.75 C136.983375,87.75 135.75,88.983375 135.75,90.5 C135.75,92.016625 136.983375,93.25 138.5,93.25 C140.016625,93.25 141.25,92.016625 141.25,90.5 C141.25,88.983375 140.016625,87.75 138.5,87.75 M138.5,96 C135.46675,96 133,93.53325 133,90.5 C133,87.46675 135.46675,85 138.5,85 C141.53325,85 144,87.46675 144,90.5 C144,93.53325 141.53325,96 138.5,96" id="Fill-111" fill="#231F20"></path>
            <path d="M147.5,87.75 C145.983375,87.75 144.75,88.983375 144.75,90.5 C144.75,92.016625 145.983375,93.25 147.5,93.25 C149.016625,93.25 150.25,92.016625 150.25,90.5 C150.25,88.983375 149.016625,87.75 147.5,87.75 M147.5,96 C144.46675,96 142,93.53325 142,90.5 C142,87.46675 144.46675,85 147.5,85 C150.53325,85 153,87.46675 153,90.5 C153,93.53325 150.53325,96 147.5,96" id="Fill-113" fill="#231F20"></path>
            <path d="M123.049274,86.8178173 C121.801233,86.8178173 120.785806,87.8449117 120.785806,89.1072938 L120.785806,91.8927062 C120.785806,93.1550883 121.801233,94.1821827 123.049274,94.1821827 L152.950726,94.1821827 C154.198767,94.1821827 155.214194,93.1550883 155.214194,91.8927062 L155.214194,89.1072938 C155.214194,87.8449117 154.198767,86.8178173 152.950726,86.8178173 L123.049274,86.8178173 Z M152.950726,97 L123.049274,97 C120.264861,97 118,94.7091146 118,91.8927062 L118,89.1072938 C118,86.2908854 120.264861,84 123.049274,84 L152.950726,84 C155.735139,84 158,86.2908854 158,89.1072938 L158,91.8927062 C158,94.7091146 155.735139,97 152.950726,97 Z" id="Fill-115" fill="#231F20"></path>
            <path d="M134,38.0007085 C134,39.1044988 133.104181,40 132,40 C130.895819,40 130,39.1044988 130,38.0007085 C130,36.8955012 130.895819,36 132,36 C133.104181,36 134,36.8955012 134,38.0007085" id="Fill-117" fill="#231F20"></path>
            <path d="M145,38.0007085 C145,39.1044988 144.104499,40 143.000708,40 C141.896918,40 141,39.1044988 141,38.0007085 C141,36.8955012 141.896918,36 143.000708,36 C144.104499,36 145,36.8955012 145,38.0007085" id="Fill-119" fill="#231F20"></path>
            <path d="M134,57.9992915 C134,59.1044988 133.104499,60 132.000708,60 C130.896918,60 130,59.1044988 130,57.9992915 C130,56.8955012 130.896918,56 132.000708,56 C133.104499,56 134,56.8955012 134,57.9992915" id="Fill-121" fill="#231F20"></path>
            <path d="M146,57.9992915 C146,59.1044988 145.104499,60 144.000708,60 C142.896918,60 142,59.1044988 142,57.9992915 C142,56.8955012 142.896918,56 144.000708,56 C145.104499,56 146,56.8955012 146,57.9992915" id="Fill-123" fill="#231F20"></path>
            <path d="M140,58.0007085 C140,59.1044988 139.104499,60 138.000708,60 C136.896918,60 136,59.1044988 136,58.0007085 C136,56.8955012 136.896918,56 138.000708,56 C139.104499,56 140,56.8955012 140,58.0007085" id="Fill-125" fill="#231F20"></path>
            <path d="M141.292419,75 L134.707581,75 C133.218412,75 132,73.8324095 132,72.4053544 L132,66.5946456 C132,65.1675905 133.218412,64 134.707581,64 L141.292419,64 C142.782942,64 144,65.1675905 144,66.5946456 L144,72.4053544 C144,73.8324095 142.782942,75 141.292419,75" id="Fill-127" fill="#FFFFFF"></path>
            <path d="M135.142121,65.6720107 C134.379971,65.6720107 133.761414,66.2718771 133.761414,67.008016 L133.761414,72.991984 C133.761414,73.7281229 134.379971,74.3279893 135.142121,74.3279893 L141.857879,74.3279893 C142.620029,74.3279893 143.238586,73.7281229 143.238586,72.991984 L143.238586,67.008016 C143.238586,66.2718771 142.620029,65.6720107 141.857879,65.6720107 L135.142121,65.6720107 Z M141.857879,77 L135.142121,77 C132.858432,77 131,75.2017368 131,72.991984 L131,67.008016 C131,64.7982632 132.858432,63 135.142121,63 L141.857879,63 C144.142949,63 146,64.7982632 146,67.008016 L146,72.991984 C146,75.2017368 144.142949,77 141.857879,77 Z" id="Fill-129" fill="#231F20"></path>
            <path d="M147.5625,20 C146.767562,20 146.125,19.4026667 146.125,18.6666667 C146.125,14.2546667 142.256687,10.6666667 137.5,10.6666667 C132.743313,10.6666667 128.875,14.2546667 128.875,18.6666667 C128.875,19.4026667 128.232438,20 127.4375,20 C126.642562,20 126,19.4026667 126,18.6666667 C126,12.7853333 131.159188,8 137.5,8 C143.840812,8 149,12.7853333 149,18.6666667 C149,19.4026667 148.357438,20 147.5625,20" id="Fill-131" fill="#231F20"></path>
            <path d="M151.626263,16 C150.866586,16 150.252525,15.3899574 150.252525,14.6382979 C150.252525,8.06808511 143.859152,2.72340426 136,2.72340426 C128.140848,2.72340426 121.747475,8.06808511 121.747475,14.6382979 C121.747475,15.3899574 121.133414,16 120.373737,16 C119.614061,16 119,15.3899574 119,14.6382979 C119,6.56612766 126.62699,0 136,0 C145.37301,0 153,6.56612766 153,14.6382979 C153,15.3899574 152.385939,16 151.626263,16" id="Fill-133" fill="#231F20"></path>
            <path d="M242.5,44 C241.672,44 241,44.6258 241,45.4 L241,56.6 C241,57.3728 241.672,58 242.5,58 C243.3295,58 244,57.3728 244,56.6 L244,45.4 C244,44.6258 243.3295,44 242.5,44" id="Fill-135" fill="#231F20"></path>
            <path d="M249.5,44 C248.672,44 248,44.6385714 248,45.4285714 L248,52.5714286 C248,53.36 248.672,54 249.5,54 C250.3295,54 251,53.36 251,52.5714286 L251,45.4285714 C251,44.6385714 250.3295,44 249.5,44" id="Fill-137" fill="#231F20"></path>
            <path d="M235.5,44 C234.672,44 234,44.6385714 234,45.4285714 L234,52.5714286 C234,53.36 234.672,54 235.5,54 C236.3295,54 237,53.36 237,52.5714286 L237,45.4285714 C237,44.6385714 236.3295,44 235.5,44" id="Fill-139" fill="#231F20"></path>
            <polygon id="Fill-141" fill="#F7C567" points="243 2 248.193 18.0419017 265 18.0419017 251.402095 27.9566882 256.5965 44 243 34.0838034 229.402095 44 234.5965 27.9566882 221 18.0419017 237.807 18.0419017"></polygon>
            <path d="M225.751749,19.9382772 L235.890584,27.3317943 C236.385746,27.6928335 236.593122,28.3313774 236.404085,28.9147035 L232.531663,40.8771365 L242.670497,33.4836195 C243.16707,33.1225803 243.83293,33.1225803 244.329503,33.4836195 L254.466926,40.8771365 L250.594504,28.9147035 C250.406878,28.3313774 250.612843,27.6928335 251.108005,27.3317943 L261.24684,19.9382772 L248.714016,19.9382772 C248.103175,19.9382772 247.561459,19.5432578 247.372423,18.9599317 L243.5,6.99749868 L239.627577,18.9599317 C239.438541,19.5432578 238.896825,19.9382772 238.285984,19.9382772 L225.751749,19.9382772 Z M257.151524,45.999646 C256.860916,45.999646 256.570308,45.9104481 256.322021,45.7292206 L243.5,36.3790125 L230.676568,45.7292206 C230.181406,46.0902598 229.514136,46.0902598 229.017563,45.7292206 C228.523811,45.3681814 228.316436,44.7296375 228.505472,44.1463113 L233.403487,29.0180598 L220.581466,19.6678518 C220.086303,19.3068126 219.880338,18.6682687 220.069375,18.0849425 C220.257,17.5016164 220.798716,17.106597 221.410968,17.106597 L237.260392,17.106597 L242.158407,1.97692967 C242.347443,1.39360355 242.887748,1 243.5,1 C244.112252,1 244.652557,1.39360355 244.841593,1.97692967 L249.739608,17.106597 L265.589032,17.106597 C266.201284,17.106597 266.743,17.5016164 266.930625,18.0849425 C267.119662,18.6682687 266.913697,19.3068126 266.418534,19.6678518 L253.595102,29.0180598 L258.493117,44.1463113 C258.682154,44.7296375 258.474778,45.3681814 257.981027,45.7292206 C257.73274,45.9104481 257.442132,45.999646 257.151524,45.999646 Z" id="Fill-143" fill="#231F20"></path>
        </g>
    </g>
</svg>