<?xml version="1.0" encoding="UTF-8"?>
<svg width="337px" height="206px" viewBox="0 0 337 206" version="1.1" xmlns="http://www.w3.org/2000/svg" xmlns:xlink="http://www.w3.org/1999/xlink">
    <!-- Generator: Sketch 48.1 (47250) - http://www.bohemiancoding.com/sketch -->
    <title>ease of usemain_illu</title>
    <desc>Created with Sketch.</desc>
    <defs>
        <polygon id="path-1" points="0 0.00828928571 47.98206 0.00828928571 47.98206 37.0206821 0 37.0206821"></polygon>
        <polygon id="path-3" points="0.0216578519 0.693175 192.317456 0.693175 192.317456 17 0.0216578519 17"></polygon>
        <polygon id="path-5" points="0.0532330423 0.3359 3.91733333 0.3359 3.91733333 4.8359 0.0532330423 4.8359"></polygon>
    </defs>
    <g id="Enact---Home-Page-Copy" stroke="none" stroke-width="1" fill="none" fill-rule="evenodd" transform="translate(-198.000000, -898.000000)">
        <g id="ease-of-use" transform="translate(198.000000, 898.000000)">
            <g id="Page-1">
                <path d="M55.0002586,73 C57.6638196,73 57.6693399,69 55.0002586,69 C52.3353176,69 52.3311774,73 55.0002586,73" id="Fill-1" fill="#000000"></path>
                <path d="M292,104 L284.947368,104 C284.947368,70.9443158 258.055684,44.0526316 225,44.0526316 C191.944316,44.0526316 165.052632,70.9443158 165.052632,104 L158,104 C158,67.0569053 188.056905,37 225,37 C261.943095,37 292,67.0569053 292,104 L261.833523,62.7956683" id="Fill-3" fill="#FF5555"></path>
                <path d="M279.977528,111 C279.977528,77.9443158 255.089888,51.0526316 224.5,51.0526316 C193.910112,51.0526316 169.022472,77.9443158 169.022472,111 L162,111 C162,74.0569053 190.037921,44 224.5,44 C258.962079,44 287,74.0569053 287,111 L279.977528,111 Z" id="Fill-5" fill="#FCD757"></path>
                <path d="M284,118 L276.97619,118 C276.97619,84.9443158 253.659952,58.0526316 225,58.0526316 C196.340048,58.0526316 173.02381,84.9443158 173.02381,118 L166,118 C166,81.0569053 192.467119,51 225,51 C257.532881,51 284,81.0569053 284,118" id="Fill-7" fill="#CDFF96"></path>
                <path d="M277,121 L269.972973,121 C269.972973,89.587956 249.798378,64.032967 225,64.032967 C200.201622,64.032967 180.027027,89.587956 180.027027,121 L173,121 C173,85.709978 196.326919,57 225,57 C253.673081,57 277,85.709978 277,121" id="Fill-9" fill="#94C7F7"></path>
                <g id="Group-15" transform="translate(4.000000, 127.000000)" fill="#B7F3DA">
                    <path d="M19.1733146,33.2559917 L10.1199438,33.2559917 C4.59325843,33.2559917 0.0974719101,28.719825 0.0974719101,23.1409917 C0.0974719101,17.567825 4.59325843,13.0316583 10.1199438,13.0316583 C11.1002809,13.0316583 12.0735955,13.177575 13.0047753,13.458075 C14.4921348,5.816575 21.2210674,0.0889916667 29.1339888,0.0889916667 C35.2505618,0.0889916667 40.6255618,3.470575 43.455618,8.51674167" id="Fill-11"></path>
                    <path d="M124.750421,49.6568833 L37.1282303,49.6568833 C29.4259831,49.6568833 23.1577247,43.3328833 23.1577247,35.5596333 C23.1577247,27.7878 29.4259831,21.4652167 37.1282303,21.4652167 C38.7602528,21.4652167 40.3768258,21.7528 41.8908708,22.3038833 C43.6970506,11.0583833 53.4442416,2.53005 64.9470506,2.53005 C76.576264,2.53005 86.3206461,11.1419667 88.0383427,22.5107167 C89.706882,21.8236333 98.6998596,21.4652167 100.529916,21.4652167" id="Fill-13"></path>
                </g>
                <g id="Group-18" transform="translate(0.000000, 124.000000)">
                    <mask id="mask-2" fill="white">
                        <use xlink:href="#path-1"></use>
                    </mask>
                    <g id="Clip-17"></g>
                    <path d="M21.35826,37.0206821 L11.88446,37.0206821 C5.33246,37.0206821 -0.00014,31.7125036 -0.00014,25.1897536 C-0.00014,18.6683964 5.33246,13.3643964 11.88446,13.3643964 C12.54806,13.3643964 13.21166,13.4201107 13.86406,13.5287536 C16.08166,5.61314643 23.39666,0.00828928571 31.77846,0.00828928571 C38.47606,0.00828928571 44.68366,3.61161071 47.98206,9.41286071 L45.54466,10.7834321 C42.74186,5.85550357 37.46806,2.79400357 31.77846,2.79400357 C24.24646,2.79400357 17.72666,8.123075 16.27906,15.464825 L15.98226,16.9705036 L14.50386,16.5317536 C13.64986,16.2782536 12.76926,16.1501107 11.88446,16.1501107 C6.87526,16.1501107 2.79986,20.2047179 2.79986,25.1897536 C2.79986,30.177575 6.87526,34.2349679 11.88446,34.2349679 L21.35826,34.2349679 L21.35826,37.0206821 Z" id="Fill-16" fill="#000000" mask="url(#mask-2)"></path>
                </g>
                <path d="M84.4695657,179 L40.054488,179 C31.2020658,179 24,171.768035 24,162.879507 C24,153.990979 31.2020658,146.760423 40.054488,146.760423 C41.3820706,146.760423 42.6928129,146.923825 43.9698744,147.243587 C46.6124095,135.596939 57.1979866,127 69.2290291,127 C81.3512902,127 91.9424808,135.656102 94.5260745,147.394311 C95.9729431,146.974536 97.4717362,146.760423 99,146.760423 L99,149.577706 C97.262635,149.577706 95.5729843,149.910145 93.9773591,150.565163 L92.328406,151.24272 L92.05896,149.473466 C90.3552757,138.267723 80.5401456,129.817283 69.2290291,129.817283 C58.0231649,129.817283 48.2248751,138.180387 46.4341822,149.27203 L46.1633329,150.948314 L44.5719177,150.370771 C43.1236458,149.845347 41.6023988,149.577706 40.054488,149.577706 C32.7499766,149.577706 26.8067287,155.544711 26.8067287,162.879507 C26.8067287,170.215712 32.7499766,176.182717 40.054488,176.182717 L84.4695657,176.182717 L84.4695657,179 Z" id="Fill-19" fill="#000000"></path>
                <path d="M98.0064667,191 L98.0064667,103.234399 C98.0064667,103.234399 97.3764293,92.0004017 108.553969,92.0004017 L240.119293,92.0004017 C240.119293,92.0004017 252,91.7672962 252,102.532274 L252,191 C252,191 96.9517165,189.946813 98.0064667,191" id="Fill-21" fill="#EBEBEB"></path>
                <path d="M137.921616,189.717719 C148.498516,189.717719 161.125466,189.743043 175.668704,189.792284 C209.598702,189.909057 243.882108,190.128532 251.183999,190.176366 L251.183999,102.958862 C251.183999,100.350483 250.401151,98.2584336 248.855166,96.74321 C245.798397,93.7493422 240.774651,93.8267213 240.725371,93.8140593 L108.97594,93.8140593 C106.095171,93.8140593 103.852226,94.6384985 102.313281,96.2648665 C99.6056963,99.1264864 99.8197124,103.539909 99.8211204,103.583523 L99.8239364,190.024422 C102.703298,189.810574 108.911172,189.783843 122.68001,189.738823 C127.156044,189.724754 132.24315,189.717719 137.921616,189.717719 M98.4159358,193 C98.0512636,193 97.6908155,192.856497 97.4204794,192.58778 C97.1262073,192.29374 96.9811832,191.882927 97.0079352,191.479149 L97.0079352,103.662309 C96.9980792,103.511771 96.7347831,98.0642824 100.267457,94.3317958 C102.358337,92.1215673 105.288387,91.0002737 108.97594,91.0002737 L240.697211,91.0002737 C240.912635,90.9988668 246.938877,90.9243015 250.826367,94.7341672 C252.932736,96.7980789 254,99.565437 254,102.958862 L254,191.593107 C254,191.968748 253.850752,192.326098 253.58464,192.592001 C253.321344,192.853683 252.963712,193 252.591999,193 L252.583551,193 C211.606511,192.721435 105.060291,192.164306 98.959424,192.891669 C98.958016,192.891669 98.956608,192.893076 98.9552,192.893076 C98.7806079,192.966235 98.5975679,193 98.4159358,193" id="Fill-23" fill="#000000"></path>
                <path d="M108.005677,190 L108.005677,110.704974 C108.005677,110.704974 107.453099,101.000356 117.251109,101.000356 L232.584404,101.000356 C232.584404,101.000356 243,100.797126 243,110.098085 L243,190" id="Fill-25" fill="#9BFFFF"></path>
                <path d="M243.584991,191 C242.802491,191 242.169981,190.372144 242.169981,189.5954 L242.169981,109.521954 C242.169981,107.332182 241.507757,105.577836 240.203119,104.306673 C237.579691,101.75311 233.251178,101.80789 233.184673,101.809294 L117.678882,101.809294 C115.201201,101.809294 113.276789,102.504571 111.962245,103.876866 C109.671345,106.266091 109.834071,110.017778 109.836901,110.054297 L109.836901,189.5954 C109.836901,190.372144 109.204392,191 108.421892,191 C107.640807,191 107.006883,190.372144 107.006883,189.5954 L107.006883,110.130146 C106.998393,110.007945 106.766331,105.243542 109.893502,101.959586 C111.762729,99.9959554 114.381911,99.0000939 117.678882,99.0000939 L233.157788,99.0000939 C233.357304,99.0000939 238.724434,98.9340777 242.185547,102.302309 C244.053359,104.119862 245,106.548415 245,109.521954 L245,189.5954 C245,190.372144 244.367491,191 243.584991,191" id="Fill-27" fill="#000000"></path>
                <path d="M80,191 L270,191 L270,197.835251 C270,197.835251 269.29368,203.986977 262.230483,203.986977 L89.1821561,203.986977 C89.1821561,203.986977 80.3531599,204.55567 80.3531599,198.177014 L80,191 Z" id="Fill-29" fill="#EBEBEB"></path>
                <g id="Group-33" transform="translate(79.000000, 189.000000)">
                    <mask id="mask-4" fill="white">
                        <use xlink:href="#path-3"></use>
                    </mask>
                    <g id="Clip-32"></g>
                    <path d="M2.90838321,3.52650833 L3.19013504,9.47934167 C3.1915438,10.7770083 3.56486496,11.7290083 4.33404745,12.4543417 C6.03441971,14.0608417 9.34782117,14.225175 10.4973686,14.1543417 L183.160522,14.1515083 C188.523668,14.1515083 189.387237,9.873175 189.499938,9.099675 L189.499938,3.52650833 L2.90838321,3.52650833 Z M10.0141642,17.000425 C8.57863869,17.000425 4.79471168,16.7695083 2.41390876,14.5283417 C1.06009124,13.2547583 0.374025547,11.5802583 0.374025547,9.54734167 L0.0232445255,2.17784167 C0.00493065693,1.789675 0.145806569,1.41284167 0.412062044,1.13234167 C0.676908759,0.851841667 1.04600365,0.693175 1.43059489,0.693175 L190.908697,0.693175 C191.687741,0.693175 192.317456,1.326425 192.317456,2.10984167 L192.317456,9.193175 C192.317456,9.24559167 192.314639,9.29800833 192.309004,9.34900833 C192.017391,11.9910917 189.729566,16.9848417 183.160522,16.9848417 L10.5875292,16.9848417 C10.5649891,16.987675 10.3550839,17.000425 10.0141642,17.000425 Z" id="Fill-31" fill="#000000" mask="url(#mask-4)"></path>
                </g>
                <path d="M191.571429,198 L159.428571,198 C158.638571,198 158,197.3295 158,196.5 C158,195.6705 158.638571,195 159.428571,195 L191.571429,195 C192.361429,195 193,195.6705 193,196.5 C193,197.3295 192.361429,198 191.571429,198" id="Fill-34" fill="#000000"></path>
                <path d="M103.000259,57 C105.66382,57 105.66934,53 103.000259,53 C100.335318,53 100.331177,57 103.000259,57" id="Fill-36" fill="#000000"></path>
                <path d="M81.453,87 C81.204,87 81,86.7085714 81,86.3528571 L81,77.6471429 C81,77.2914286 81.204,77 81.453,77 C81.702,77 81.906,77.2914286 81.906,77.6471429 L81.906,86.3528571 C81.906,86.7085714 81.702,87 81.453,87" id="Fill-38" fill="#FEA200"></path>
                <path d="M78.1172617,84.7041063 C77.9079835,84.3926457 77.9866484,83.9664365 78.2909181,83.7546979 L84.9477461,79.1196726 C85.2535001,78.906568 85.6735407,78.9857992 85.8828189,79.2958937 C86.0920971,79.6073543 86.0134323,80.0335635 85.7076783,80.2453021 L79.0523345,84.8803274 C78.7480648,85.093432 78.3265399,85.0142008 78.1172617,84.7041063" id="Fill-40" fill="#FEA200"></path>
                <path d="M78.0686406,79.3630444 C78.2274436,79.035516 78.6105211,78.9058415 78.918376,79.0729478 L85.6563597,82.7372552 C85.9656076,82.9043615 86.0895854,83.3094272 85.9307824,83.6369556 C85.7719794,83.964484 85.388902,84.0941585 85.079654,83.9270522 L78.3416704,80.2627448 C78.0338154,80.0956385 77.9112306,79.6905728 78.0686406,79.3630444" id="Fill-42" fill="#FEA200"></path>
                <path d="M307.5,78 C307.225,78 307,77.6785714 307,77.2857143 L307,68.7142857 C307,68.3214286 307.225,68 307.5,68 C307.774,68 308,68.3214286 308,68.7142857 L308,77.2857143 C308,77.6785714 307.774,78 307.5,78" id="Fill-44" fill="#FEA200"></path>
                <path d="M303.117175,75.7041063 C302.908682,75.3926457 302.985354,74.9664365 303.29204,74.7546979 L309.947667,70.1196726 C310.253008,69.906568 310.672684,69.9857992 310.882522,70.2958937 C311.09236,70.6073543 311.012998,71.0335635 310.709002,71.2453021 L304.05203,75.8803274 C303.746689,76.093432 303.325668,76.0142008 303.117175,75.7041063" id="Fill-46" fill="#FEA200"></path>
                <path d="M303.07723,70.3630444 C303.256168,70.035516 303.686472,69.9058415 304.034407,70.0729478 L311.613711,73.7372552 C311.961646,73.9043615 312.10082,74.3094272 311.921882,74.6369556 C311.742944,74.964484 311.312641,75.0941585 310.966126,74.9270522 L303.385401,71.2627448 C303.038887,71.0956385 302.899712,70.6905728 303.07723,70.3630444" id="Fill-48" fill="#FEA200"></path>
                <path d="M134.000259,52 C136.66382,52 136.66934,48 134.000259,48 C131.335318,48 131.331177,52 134.000259,52" id="Fill-50" fill="#000000"></path>
                <path d="M117.403836,137 C117.076614,137 116.746584,136.885372 116.481155,136.651871 C115.896931,136.138168 115.836542,135.243788 116.34493,134.655082 L135.537258,112.483793 C136.048454,111.896502 136.936025,111.835651 137.518845,112.346523 C138.103069,112.860225 138.163458,113.754606 137.65507,114.343312 L118.462742,136.514601 C118.184674,136.835842 117.794255,137 117.403836,137" id="Fill-52" fill="#000000"></path>
                <path d="M118.387611,147 C118.06697,147 117.74494,146.889193 117.483985,146.661969 C116.902389,146.155623 116.835762,145.271973 117.334075,144.684276 L145.558852,111.48849 C146.06133,110.900792 146.938582,110.834869 147.516015,111.337007 C148.097611,111.843352 148.164238,112.727002 147.665925,113.3147 L119.441148,146.510486 C119.166312,146.834491 118.777656,147 118.387611,147" id="Fill-54" fill="#000000"></path>
                <path d="M119.405544,158 C119.084647,158 118.76375,157.890578 118.49915,157.666051 C117.906617,157.160153 117.830615,156.263463 118.330257,155.662354 L153.516354,113.50515 C154.015996,112.906884 154.905501,112.827304 155.50085,113.334623 C156.093383,113.840521 156.169385,114.73721 155.669743,115.338319 L120.483646,157.495523 C120.204972,157.828052 119.806666,158 119.405544,158" id="Fill-56" fill="#000000"></path>
                <path d="M177.5,177 C175.02571,177 173,174.987464 173,172.52613 L173,147.47387 C173,145.012536 175.02571,143 177.5,143 C179.97429,143 182,145.012536 182,147.47387 L182,172.52613 C182,174.987464 179.97429,177 177.5,177" id="Fill-58" fill="#EBEBEB"></path>
                <path d="M178,144.836227 C176.279137,144.836227 174.877698,146.21747 174.877698,147.913533 L174.877698,173.086467 C174.877698,174.78253 176.279137,176.163773 178,176.163773 C179.720863,176.163773 181.122302,174.78253 181.122302,173.086467 L181.122302,147.913533 C181.122302,146.21747 179.720863,144.836227 178,144.836227 M178,179 C174.692086,179 172,176.34671 172,173.086467 L172,147.913533 C172,144.65329 174.692086,142 178,142 C181.307914,142 184,144.65329 184,147.913533 L184,173.086467 C184,176.34671 181.307914,179 178,179" id="Fill-60" fill="#000000"></path>
                <path d="M192,132.999304 C192,141.284621 185.284621,148 177.000696,148 C168.716771,148 162,141.284621 162,132.999304 C162,124.715379 168.716771,118 177.000696,118 C185.284621,118 192,124.715379 192,132.999304" id="Fill-62" fill="#FF5555"></path>
                <path d="M177.5,119.801834 C169.945614,119.801834 163.802072,125.946256 163.802072,133.498599 C163.802072,141.052343 169.945614,147.198166 177.5,147.198166 C185.054386,147.198166 191.197928,141.052343 191.197928,133.498599 C191.197928,125.946256 185.054386,119.801834 177.5,119.801834 M177.5,150 C168.401673,150 161,142.596154 161,133.498599 C161,124.401044 168.401673,117 177.5,117 C186.598327,117 194,124.401044 194,133.498599 C194,142.596154 186.598327,150 177.5,150" id="Fill-64" fill="#000000"></path>
                <path d="M188.22799,182 L167.77201,182 C165.147978,182 163,179.974763 163,177.500676 C163,175.025237 165.147978,173 167.77201,173 L188.22799,173 C190.852022,173 193,175.025237 193,177.500676 C193,179.974763 190.852022,182 188.22799,182" id="Fill-66" fill="#808080"></path>
                <path d="M167.042056,174.772323 C165.249542,174.772323 163.792077,176.220862 163.792077,178.000693 C163.792077,179.780524 165.249542,181.227677 167.042056,181.227677 L186.957944,181.227677 C188.750458,181.227677 190.207923,179.780524 190.207923,178.000693 C190.207923,176.220862 188.750458,174.772323 186.957944,174.772323 L167.042056,174.772323 Z M186.957944,184 L167.042056,184 C163.709711,184 161,181.309461 161,178.000693 C161,174.691926 163.709711,172 167.042056,172 L186.957944,172 C190.288893,172 193,174.691926 193,178.000693 C193,181.309461 190.288893,184 186.957944,184 Z" id="Fill-68" fill="#000000"></path>
                <path d="M321.170563,105.569707 C321.170563,99.9415812 316.541377,95.3785753 310.825633,95.3785753 C308.645445,95.3785753 306.622298,96.0505487 304.954263,97.1867692 C302.145909,92.8663429 297.23518,90 291.642522,90 C282.914695,90 275.83934,96.9720723 275.83934,105.569707 L275.830852,105.569707 C271.524237,105.569707 268,109.041105 268,113.286248 C268,117.528602 271.524237,121 275.830852,121 L321.170563,121 C325.477178,121 329,117.528602 329,113.286248 C329,109.041105 325.477178,105.569707 321.170563,105.569707" id="Fill-70" fill="#B7F3DA"></path>
                <path d="M275.278837,107.473015 C271.722493,107.473015 268.837131,110.326457 268.837131,113.835039 C268.837131,117.342218 271.722493,120.194256 275.270325,120.194256 L320.731093,120.194256 C324.277507,120.194256 327.162869,117.342218 327.162869,113.835039 C327.162869,110.326457 324.277507,107.473015 320.731093,107.473015 L319.312528,107.473015 L319.312528,106.070144 C319.312528,101.189553 315.296569,97.2180228 310.358542,97.2180228 C308.537104,97.2180228 306.779502,97.7609341 305.278659,98.7892391 L304.070042,99.6155306 L303.277064,98.3908236 C300.605905,94.2677835 296.06224,91.8057435 291.124213,91.8057435 C283.168898,91.8057435 276.697402,98.2056445 276.697402,106.070144 L276.697402,107.473015 L275.278837,107.473015 Z M320.731093,123 L275.270325,123 C270.159234,123 266,118.889586 266,113.835039 C266,109.237828 269.44144,105.417808 273.909921,104.765473 C274.586577,95.9610497 282.048231,89 291.124213,89 C296.571505,89 301.614505,91.5013203 304.87295,95.7548275 C306.561043,94.8738241 308.432131,94.4122793 310.358542,94.4122793 C316.41298,94.4122793 321.41626,98.9491665 322.075893,104.762667 C326.552886,105.409391 330,109.232217 330,113.835039 C330,118.889586 325.842185,123 320.731093,123 Z" id="Fill-72" fill="#000000"></path>
                <path d="M136.85476,55.2294843 C137.099774,55.4351232 137.219464,55.7548494 137.388439,56.0126022 C138.081236,57.0436136 138.712075,58.0394129 139.273917,59 L156.920522,59 C160.878757,52.1308162 168.743128,44.0207566 171.331259,33.2078134 C171.331259,33.2078134 173.382895,22.9441795 170.299104,16.7355754 C166.752041,8.29593022 158.52015,2.3211347 148.856198,2.02816971 L148.79424,2.02816971 L148.759037,2.02816971 C148.546411,2.0098594 148.323927,2 148.100036,2 L148.091587,2 C141.442427,2 135.422699,4.69443278 131.050475,9.05228694 C126.69374,13.4101411 124,19.4285997 124,26.0808767 C124,30.0133683 124.770244,33.6204996 125.989679,36.9586103 C125.989679,36.9586103 131.831983,51.0265635 136.85476,55.2294843" id="Fill-74" fill="#E58BE5"></path>
                <path d="M139.541741,57.1744096 L155.640862,57.1744096 C156.779698,55.2911535 158.164386,53.3330194 159.619722,51.2745768 C163.440331,45.8734606 167.769602,39.751819 169.53296,32.3883303 C169.540025,32.3417081 171.446091,22.5369093 168.604654,16.8221526 C165.134455,8.57425416 157.182388,3.12086463 148.311905,2.85384633 C148.286472,2.85243354 148.164958,2.85102074 148.138112,2.84819515 C147.962907,2.8340672 147.779223,2.82559043 147.59554,2.82559043 C141.515628,2.82559043 135.79743,5.19202242 131.485115,9.48691987 C127.191168,13.7804045 124.825895,19.4909228 124.825895,25.567355 C124.825895,29.065436 125.450417,32.4773364 126.736199,35.9937837 C126.771523,36.074313 132.502437,49.7770138 137.217442,53.7229509 C137.589048,54.032353 137.796751,54.4053309 137.933807,54.6525701 L138.028474,54.8136288 C138.583762,55.6429396 139.085359,56.4242153 139.541741,57.1744096 M156.446242,60 L138.739187,60 C138.236177,60 137.772731,59.7343945 137.5184,59.3006664 C136.991371,58.3978902 136.371087,57.4159976 135.674504,56.3790059 C135.595379,56.2589183 135.52897,56.1430691 135.463975,56.0258071 C135.43289,55.9678825 135.404631,55.9099579 135.367894,55.8576844 C130.132925,51.4356354 124.348318,37.6086086 124.103879,37.0208858 C122.681041,33.1300478 122,29.403094 122,25.567355 C122,18.7364901 124.659167,12.3167487 129.488621,7.48781464 C134.33503,2.6588806 140.762527,0 147.587063,0 C147.859761,0 148.12257,0.0113023617 148.375487,0.0339070852 C158.372089,0.332006876 167.311807,6.46071252 171.173392,15.6452942 C174.407628,22.1498034 172.380049,32.5536274 172.292446,32.9944195 C170.390619,40.9399797 165.893208,47.2975582 161.927065,52.9063552 C160.327608,55.1682404 158.815755,57.3057995 157.669855,59.2921896 C157.416937,59.7315689 156.950664,60 156.446242,60" id="Fill-76" fill="#000000"></path>
                <path d="M140.29429,55 C139.651077,55 139.0338,54.6230718 138.745911,53.981492 L137.159924,50.5022579 C136.761807,49.6214222 137.132692,48.5735085 137.987283,48.1645013 C138.841874,47.7554941 139.857268,48.1350956 140.255386,49.0159312 L141.840076,52.4991752 C142.238193,53.3800109 141.867308,54.4252514 141.012717,54.8355952 C140.779293,54.9478716 140.535495,55 140.29429,55" id="Fill-78" fill="#000000"></path>
                <path d="M153.549483,60 C153.317187,60 153.079294,59.9546721 152.849797,59.8583503 C151.909419,59.4673969 151.46162,58.3781104 151.847847,57.4262241 C152.574121,55.6371878 153.434735,53.7914916 154.344327,51.8367251 C157.007332,46.1239907 160.022979,39.6491808 161.044521,31.7196279 C161.051517,31.657302 161.968106,23.7546626 160.358828,17.4342509 C158.273764,9.23698003 153.328382,3.72822135 148.052749,3.72822135 C144.634083,3.72822135 141.367948,5.93937391 138.847679,9.95656074 C136.162284,14.2329666 134.684547,19.9612824 134.684547,26.084801 C134.684547,29.6076302 135.097362,33.0412201 135.952378,36.5796308 C135.960774,36.6079607 137.995462,44.1408943 139.688702,47.2982672 C139.988167,47.8606166 140.233058,48.4357146 140.47375,49.0065631 C140.591297,49.2841966 140.706045,49.5575806 140.82919,49.8267151 C141.258797,50.7616035 140.857178,51.8693045 139.934991,52.3013362 C139.014204,52.7404504 137.917097,52.3310827 137.488889,51.3961943 C137.350351,51.0930639 137.21881,50.7842674 137.087269,50.4712215 C136.891357,50.0051938 136.692646,49.5306672 136.449155,49.074555 C134.554405,45.5375608 132.473539,37.8374805 132.386778,37.5116861 C131.449198,33.6318995 131,29.9093442 131,26.084801 C131,19.2615327 132.683445,12.8235516 135.738274,7.95646631 C138.95823,2.82591246 143.328469,0 148.042954,0 C155.144768,0 161.374772,6.47905945 163.925828,16.5050286 C165.711427,23.5181076 164.741662,31.8343642 164.699681,32.1856556 C163.602573,40.7101374 160.453986,47.4668304 157.676232,53.4274517 C156.786231,55.3383068 155.945208,57.1415081 155.253919,58.8455546 C154.96145,59.5637188 154.275757,60 153.549483,60" id="Fill-80" fill="#000000"></path>
                <path d="M150.233876,55 C150.099047,55 149.964217,54.9859761 149.826518,54.9565259 C148.808123,54.7377529 148.165531,53.751872 148.389291,52.7561744 L148.776568,51.0508669 C150.391656,43.9603779 152.223332,35.9232749 152.223332,25.3338204 C152.223332,12.4724923 149.59989,4.71306279 147.736657,3.31067177 C146.910466,2.68801016 146.755556,1.52963517 147.392411,0.721857946 C148.026398,-0.0873216727 149.211178,-0.240182294 150.038804,0.385284101 C154.155414,3.48316587 156,15.146852 156,25.3338204 C156,36.3299683 154.036362,44.936442 152.461436,51.8530346 L152.075593,53.5513301 C151.880521,54.4123982 151.100229,55 150.233876,55" id="Fill-82" fill="#000000"></path>
                <path d="M146.214554,59 C145.378448,59 144.63178,58.3900135 144.465101,57.5114091 C144.145294,55.8171577 143.760442,54.0431603 143.356618,52.1698302 C141.860572,45.2613135 140,36.6613435 140,25.6661972 C140,14.5913049 141.864637,5.16589443 144.749675,1.65287593 C145.386579,0.875003253 146.509968,0.778468695 147.262057,1.43742199 C148.014145,2.09497623 148.106293,3.25758809 147.470744,4.03266266 C145.530221,6.39426172 143.568016,14.5843096 143.568016,25.6661972 C143.568016,36.2556185 145.303917,44.2833765 146.836551,51.3667746 C147.249861,53.2736819 147.640134,55.0798575 147.966716,56.8062871 C148.155077,57.8038109 147.524949,58.7705555 146.557397,58.9664228 C146.442213,58.9888076 146.327028,59 146.214554,59" id="Fill-84" fill="#000000"></path>
                <path d="M142.678231,66.6892649 L142.678231,68.6649062 C142.678231,70.6755766 144.308498,72.3107351 146.314552,72.3107351 L149.688242,72.3107351 C151.691502,72.3107351 153.321769,70.6755766 153.321769,68.6635051 L153.321769,66.6892649 L142.678231,66.6892649 Z M149.688242,76 L146.314552,76 C142.28149,76 139,72.7086657 139,68.6649062 L139,64.845333 C139,63.8266868 139.824214,63 140.839814,63 L155.161583,63 C156.175786,63 157,63.8266868 157,64.845333 L157,68.6635051 C157,72.7086657 153.71851,76 149.688242,76 Z" id="Fill-86" fill="#000000"></path>
                <path d="M141,66 C139.895137,66 139,65.131331 139,64.0624264 L139,62.9375736 C139,61.8671967 139.895137,61 141,61 C142.104863,61 143,61.8671967 143,62.9375736 L143,64.0624264 C143,65.131331 142.104863,66 141,66" id="Fill-88" fill="#000000"></path>
                <path d="M155,66 C153.895137,66 153,65.131331 153,64.0624264 L153,62.9375736 C153,61.8671967 153.895137,61 155,61 C156.104863,61 157,61.8671967 157,62.9375736 L157,64.0624264 C157,65.131331 156.104863,66 155,66" id="Fill-90" fill="#000000"></path>
                <path d="M291.000259,161 C293.66382,161 293.66934,157 291.000259,157 C288.335318,157 288.331177,161 291.000259,161" id="Fill-92" fill="#000000"></path>
                <path d="M192.000259,15 C194.66382,15 194.66934,11 192.000259,11 C189.335318,11 189.331177,15 192.000259,15" id="Fill-94" fill="#000000"></path>
                <g id="Group-98" transform="translate(333.000000, 154.000000)">
                    <mask id="mask-6" fill="white">
                        <use xlink:href="#path-5"></use>
                    </mask>
                    <g id="Clip-97"></g>
                    <path d="M1.98573333,4.8359 C4.55906667,4.8359 4.5644,0.3359 1.98573333,0.3359 C-0.588933333,0.3359 -0.592933333,4.8359 1.98573333,4.8359" id="Fill-96" fill="#000000" mask="url(#mask-6)"></path>
                </g>
                <path d="M296.000259,47 C298.66382,47 298.66934,43 296.000259,43 C293.335318,43 293.331177,47 296.000259,47" id="Fill-99" fill="#000000"></path>
            </g>
        </g>
    </g>
</svg>