<?xml version="1.0" encoding="UTF-8"?>
<svg width="611px" height="433px" viewBox="0 0 611 433" version="1.1" xmlns="http://www.w3.org/2000/svg" xmlns:xlink="http://www.w3.org/1999/xlink">
    <!-- Generator: Sketch 48.1 (47250) - http://www.bohemiancoding.com/sketch -->
    <title>main-illustrationmain_illu</title>
    <desc>Created with Sketch.</desc>
    <defs>
        <polygon id="path-1" points="0.473834201 0.834121654 46.4435836 0.834121654 46.4435836 46.8616807 0.473834201 46.8616807"></polygon>
        <polygon id="path-3" points="0 0.692459055 43.5111918 0.692459055 43.5111918 4.10190787 0 4.10190787"></polygon>
        <polygon id="path-5" points="0 0.332919746 105.999757 0.332919746 105.999757 31.83245 0 31.83245"></polygon>
    </defs>
    <g id="Enact---Home-Page-Copy" stroke="none" stroke-width="1" fill="none" fill-rule="evenodd" transform="translate(-162.000000, -232.000000)">
        <g id="main-illustration" transform="translate(162.000000, 232.000000)">
            <g id="Page-1" transform="translate(154.000000, 0.000000)">
                <g id="Group-5" transform="translate(276.000000, 360.000000)" fill="#B7F3DA">
                    <path d="M99.0928192,10.5264756 C102.517886,4.39906103 109.019736,0.295774129 116.416929,0.295774129 C125.990466,0.295774129 134.128397,7.24866136 135.927576,16.5249101 C137.053975,16.1826829 138.23304,16.00727 139.417203,16.00727 C146.102539,16.00727 151.54255,21.5121406 151.54255,28.2792965 C151.54255,35.0498919 146.102539,40.558202 139.417203,40.558202 L128.465824,40.558202" id="Fill-1"></path>
                    <path d="M30.053431,26.2441625 C32.2688511,26.2441625 43.1454765,26.6792554 45.1638193,27.5133267 C47.2433241,13.7107363 59.0305823,3.25990879 73.0978204,3.25990879 C87.0104548,3.25990879 98.8011108,13.6109917 100.98595,27.2622454 C102.817409,26.5915489 104.771192,26.2441625 106.748761,26.2441625 C116.064058,26.2441625 123.646436,33.921058 123.646436,43.3538027 C123.646436,52.7899867 116.064058,60.4651625 106.748761,60.4651625 L0.75517963,60.4651625" id="Fill-3"></path>
                </g>
                <polygon id="Fill-6" fill="#FFCD6F" points="213.454545 104 189.69697 117.74359 188 148.666667 216.848485 171 244 152.102564 244 119.461538"></polygon>
                <polygon id="Fill-7" fill="#FFFFFF" points="250.413021 87.303386 247 118 262 87.2933593 261.976263 76 250.39098 76.0100267"></polygon>
                <g id="Group-221">
                    <path d="M252.46237,77.3293677 L252.481098,87.1434661 C252.481098,87.2065409 252.477693,87.2696157 252.470883,87.3326906 L250.124697,108.761076 L260.711477,86.7496748 L260.691046,77.3225488 L252.46237,77.3293677 Z M247.351158,120.165683 C247.196221,120.165683 247.037879,120.145226 246.882942,120.099198 C246.086124,119.870765 245.568533,119.10023 245.658771,118.275143 L249.075894,87.0548205 L249.05376,75.6297575 C249.052057,75.1763008 249.232533,74.7433008 249.55092,74.4228126 C249.871009,74.1023244 250.301767,73.9216236 250.754659,73.9216236 L262.388541,73.9113953 L262.390243,73.9113953 C263.33008,73.9113953 264.091143,74.6717024 264.092845,75.6127102 L264.116682,87.1332378 C264.116682,87.3906512 264.060496,87.6446551 263.948124,87.8764976 L248.885202,119.200809 C248.59576,119.802576 247.991336,120.165683 247.351158,120.165683 Z" id="Fill-8" fill="#000000"></path>
                    <path d="M418.460979,401.00147 L406.941172,401.00147 L406.941172,397.592022 L418.460979,397.592022 C424.554593,397.592022 429.510868,392.626159 429.510868,386.521541 C429.510868,380.420333 424.554593,375.45788 418.460979,375.45788 C417.379827,375.45788 416.30889,375.61301 415.277113,375.924974 L413.479165,376.463667 L413.116511,374.619156 C411.357723,365.633553 403.430407,359.111278 394.268704,359.111278 C387.351031,359.111278 380.935626,362.858262 377.527016,368.889577 L374.564488,367.212128 C378.574117,360.111951 386.125158,355.701829 394.268704,355.701829 C404.462184,355.701829 413.35828,362.56164 416.0535,372.249589 C416.846912,372.11662 417.652243,372.048431 418.460979,372.048431 C426.432563,372.048431 432.916072,378.540022 432.916072,386.521541 C432.916072,394.504766 426.432563,401.00147 418.460979,401.00147" id="Fill-10" fill="#000000"></path>
                    <path d="M384.096337,421.714554 L330.212381,421.714554 L330.212381,418.305105 L384.096337,418.305105 C392.958381,418.305105 400.168902,411.083893 400.168902,402.205688 C400.168902,393.329188 392.958381,386.107975 384.096337,386.107975 C382.216664,386.107975 380.372746,386.431873 378.612255,387.06603 L376.683207,387.763263 L376.354604,385.736345 C374.183787,372.313345 362.294515,362.194101 348.702642,362.194101 C334.976262,362.194101 323.068262,372.420743 321.001303,385.981826 L320.676106,388.124664 L318.673846,387.301282 C316.741393,386.51029 314.691459,386.107975 312.581935,386.107975 L312.581935,382.698526 C314.437772,382.698526 316.256151,382.95594 318.009831,383.465652 C321.142619,369.258479 333.992158,358.784652 348.702642,358.784652 C363.297348,358.784652 376.140077,369.188585 379.346077,383.283247 C380.893742,382.896274 382.485675,382.698526 384.096337,382.698526 C394.838054,382.698526 403.574106,391.448877 403.574106,402.205688 C403.574106,412.962499 394.838054,421.714554 384.096337,421.714554" id="Fill-12" fill="#000000"></path>
                    <path d="M120.984531,415.366842 L120.984531,308.821567 C120.984531,308.821567 120.223468,295.183771 133.754048,295.183771 L293.037594,295.183771 C293.037594,295.183771 307.419475,294.899082 307.419475,307.969204 L307.419475,415.366842 C307.419475,415.366842 119.707579,414.088299 120.984531,415.366842" id="Fill-14" fill="#EBEBEB"></path>
                    <path d="M168.750526,413.094274 C181.542176,413.094274 196.811113,413.124959 214.400697,413.184624 C255.430005,413.326117 296.886667,413.592054 305.716362,413.650014 L305.716362,307.969034 C305.716362,304.80677 304.769715,302.271845 302.898555,300.435857 C299.207314,296.811613 293.147752,296.896849 293.071135,296.888325 L133.753537,296.888325 C130.278526,296.888325 127.573091,297.88218 125.713849,299.839203 C122.449961,303.279337 122.681514,308.676494 122.68492,308.731046 L122.686622,413.465904 C126.168444,413.206786 133.673514,413.174396 150.324964,413.119845 C155.734132,413.102798 161.887336,413.094274 168.750526,413.094274 M120.98402,417.071396 C120.543046,417.071396 120.10718,416.897514 119.78028,416.571912 C119.424436,416.215624 119.249068,415.717845 119.281418,415.228589 L119.281418,308.821396 C119.2695,308.638991 118.952816,302.038298 123.224645,297.513959 C125.753009,294.837542 129.296124,293.478876 133.753537,293.478876 L293.037083,293.478876 C293.295879,293.475467 300.577909,293.381707 305.282199,298.00151 C307.830994,300.502341 309.121567,303.855534 309.121567,307.969034 L309.121567,415.366672 C309.121567,415.821833 308.941091,416.254833 308.619299,416.577026 C308.300912,416.894105 307.868451,417.071396 307.418964,417.071396 L307.407046,417.071396 C257.857916,416.733861 129.016897,416.060494 121.641225,416.940132 C121.639522,416.940132 121.637819,416.941837 121.636117,416.941837 C121.424994,417.030483 121.203656,417.071396 120.98402,417.071396" id="Fill-16" fill="#000000"></path>
                    <path d="M132.884529,413.662118 L132.884529,317.217334 C132.884529,317.217334 132.220514,305.412118 144.024655,305.412118 L282.97232,305.412118 C282.97232,305.412118 295.518796,305.166637 295.518796,316.477484 L295.518796,413.662118" id="Fill-18" fill="#9BFFFF"></path>
                    <path d="M295.517945,415.366842 C294.576406,415.366842 293.815343,414.60483 293.815343,413.662118 L293.815343,316.477484 C293.815343,313.828342 293.023633,311.702551 291.462346,310.16148 C288.329558,307.072519 283.048086,307.106614 283.002116,307.116842 L144.023804,307.116842 C141.032332,307.116842 138.709982,307.965795 137.129967,309.641539 C134.407506,312.525933 134.582874,317.075842 134.584577,317.120165 L134.58628,413.662118 C134.58628,414.60483 133.825216,415.366842 132.883677,415.366842 C131.943841,415.366842 131.181075,414.60483 131.181075,413.662118 L131.181075,317.217334 C131.170859,317.069023 130.891633,311.284893 134.656086,307.299248 C136.905224,304.916043 140.056741,303.707393 144.023804,303.707393 L282.973172,303.707393 C283.211536,303.707393 289.669506,303.627271 293.834071,307.7152 C296.081506,309.922819 297.220547,312.870287 297.220547,316.477484 L297.220547,413.662118 C297.220547,414.60483 296.459484,415.366842 295.517945,415.366842" id="Fill-20" fill="#000000"></path>
                    <path d="M86.6481517,425.595189 L56.5614677,425.595189 C46.4684416,425.595189 38.2584937,417.293181 38.2584937,407.0887 C38.2584937,396.88422 46.4684416,388.583917 56.5614677,388.583917 C57.9558989,388.585622 59.3264937,388.740752 60.6596312,389.051011 C60.472345,387.550854 60.3769993,386.033649 60.3769993,384.516444 C60.3769993,364.862677 76.1839584,348.874067 95.6157576,348.874067 C99.552174,348.877476 103.420486,349.530385 107.111728,350.815748 C108.732605,351.378307 109.59923,353.166563 109.045884,354.799689 L105.821155,353.703551 C105.775185,353.839929 105.8501,353.98483 105.993118,354.034267 C102.661126,352.876759 99.1690885,352.286925 95.614055,352.283515 C78.0619286,352.283515 63.7822037,366.744693 63.7822037,384.516444 C63.7822037,386.756452 64.0103524,388.993051 64.461542,391.168279 L65.1102335,394.308381 L62.146003,393.091208 C60.3769993,392.364996 58.499029,391.99507 56.5597651,391.993366 C48.3464119,391.993366 41.6636981,398.764531 41.6636981,407.0887 C41.6636981,415.41287 48.3464119,422.18574 56.5614677,422.18574 L86.6481517,422.18574 C86.4915123,422.18574 86.3655197,422.30507 86.3655197,422.453381 L89.7707242,422.453381 C89.7707242,424.185381 88.3711851,425.595189 86.6481517,425.595189" id="Fill-22" fill="#000000"></path>
                    <path d="M199.026539,411.975634 C196.08274,411.975634 193.150859,411.310791 190.419885,409.991335 C180.566926,405.230039 176.421089,393.331063 181.174755,383.465823 C181.581677,382.62028 182.603238,382.263992 183.447729,382.673126 C184.293922,383.080555 184.649766,384.09998 184.239439,384.948933 C180.303022,393.119677 183.738874,402.978098 191.899446,406.921126 C200.060019,410.865858 209.906167,407.42402 213.844286,399.251571 C214.251208,398.404323 215.27277,398.04974 216.11726,398.457169 C216.963454,398.866303 217.319297,399.885728 216.910673,400.732976 C214.607052,405.513024 210.583803,409.106583 205.581558,410.85563 C203.439684,411.604004 201.229706,411.975634 199.026539,411.975634" id="Fill-24" fill="#000000"></path>
                    <path d="M233.651632,406 C229.016617,406 224.51763,403.536092 222.138854,399.185702 C221.839821,398.640918 222.039926,397.956562 222.584032,397.658282 C223.130385,397.356624 223.812766,397.55923 224.110675,398.104014 C226.984091,403.358249 233.59205,405.290881 238.840869,402.416134 C244.089688,399.539136 246.022162,392.921815 243.147621,387.667579 C242.849712,387.122796 243.048693,386.437314 243.593923,386.139034 C244.139152,385.838502 244.821532,386.042233 245.119441,386.585891 C248.588676,392.929694 246.257116,400.915728 239.921211,404.390412 C237.930279,405.48223 235.777465,406 233.651632,406" id="Fill-26" fill="#000000"></path>
                    <path d="M260.233727,393.624787 C255.897199,393.624787 251.570887,391.913244 248.361482,388.519137 C247.714493,387.835543 247.743437,386.756452 248.426181,386.110362 C249.110627,385.462567 250.188374,385.491547 250.83366,386.175141 C255.74056,391.360913 263.948805,391.589346 269.131526,386.672921 C271.639459,384.291421 273.074753,381.076311 273.168396,377.614015 C273.262039,374.15513 272.003816,370.865011 269.628686,368.352248 C268.981697,367.668653 269.008939,366.589563 269.693385,365.943472 C270.376129,365.295677 271.453876,365.322952 272.099162,366.008252 C278.298337,372.561212 278.015705,382.941279 271.472604,389.146476 C268.31598,392.139972 264.270597,393.623082 260.233727,393.624787" id="Fill-28" fill="#000000"></path>
                    <path d="M165.519789,398.713652 C161.183261,398.713652 156.856949,397.002109 153.647544,393.608002 C147.450072,387.055042 147.731001,376.67327 154.275804,370.468073 C154.958548,369.821983 156.034592,369.845849 156.681581,370.532853 C157.326867,371.214743 157.299626,372.293833 156.616882,372.941628 C151.435863,377.856349 151.212823,386.074825 156.119722,391.264006 C158.496555,393.77677 161.709365,395.212148 165.165648,395.305908 C168.620228,395.408191 171.907953,394.141581 174.417588,391.761786 C175.098629,391.113991 176.178079,391.141266 176.823365,391.826565 C177.470354,392.508455 177.44141,393.58925 176.758666,394.235341 C173.602042,397.228837 169.556659,398.713652 165.519789,398.713652" id="Fill-30" fill="#000000"></path>
                    <path d="M367.936599,385.848687 C359.18352,367.009777 344.512197,373.044502 343.890747,373.312143 L342.550799,370.17886 C342.731275,370.102147 360.894636,362.60136 371.021714,384.409899 L367.936599,385.848687 Z" id="Fill-32" fill="#000000"></path>
                    <path d="M404.357984,373.659225 C397.234297,363.166646 386.053308,369.148524 385.581687,369.411052 L383.931865,366.429489 C384.073181,366.349367 398.286505,358.654241 407.174088,371.74141 L404.357984,373.659225 Z" id="Fill-34" fill="#000000"></path>
                    <path d="M388.382808,302.854861 C388.382808,313.211061 379.997492,321.606829 369.654184,321.606829 C359.310875,321.606829 350.925559,313.211061 350.925559,302.854861 C350.925559,292.49866 359.310875,284.102892 369.654184,284.102892 C379.997492,284.102892 388.382808,292.49866 388.382808,302.854861" id="Fill-36" fill="#D3F3DA"></path>
                    <path d="M369.654184,285.807617 C360.266035,285.807617 352.628161,293.45501 352.628161,302.854861 C352.628161,312.254711 360.266035,319.902105 369.654184,319.902105 C379.042332,319.902105 386.680206,312.254711 386.680206,302.854861 C386.680206,293.45501 379.042332,285.807617 369.654184,285.807617 M369.654184,323.311554 C358.388065,323.311554 349.222957,314.135022 349.222957,302.854861 C349.222957,291.574699 358.388065,282.398168 369.654184,282.398168 C380.920303,282.398168 390.08541,291.574699 390.08541,302.854861 C390.08541,314.135022 380.920303,323.311554 369.654184,323.311554" id="Fill-38" fill="#000000"></path>
                    <path d="M455.06863,296.603807 C455.06863,308.373224 445.539165,317.912862 433.786102,317.912862 C422.031336,317.912862 412.503574,308.373224 412.503574,296.603807 C412.503574,284.836094 422.031336,275.294752 433.786102,275.294752 C445.539165,275.294752 455.06863,284.836094 455.06863,296.603807" id="Fill-40" fill="#D3F3DA"></path>
                    <g id="Group-44" transform="translate(410.327138, 272.755906)">
                        <mask id="mask-2" fill="white">
                            <use xlink:href="#path-1"></use>
                        </mask>
                        <g id="Clip-43"></g>
                        <path d="M23.4589643,4.24357047 C12.6627636,4.24357047 3.87903866,13.0382437 3.87903866,23.8479012 C3.87903866,34.6575587 12.6627636,43.4522319 23.4589643,43.4522319 C34.2551651,43.4522319 43.03889,34.6575587 43.03889,23.8479012 C43.03889,13.0382437 34.2551651,4.24357047 23.4589643,4.24357047 M23.4589643,46.8616807 C10.7847933,46.8616807 0.473834201,36.5378697 0.473834201,23.8479012 C0.473834201,11.1579327 10.7847933,0.834121654 23.4589643,0.834121654 C36.1331353,0.834121654 46.4440944,11.1579327 46.4440944,23.8479012 C46.4440944,36.5378697 36.1331353,46.8616807 23.4589643,46.8616807" id="Fill-42" fill="#000000" mask="url(#mask-2)"></path>
                    </g>
                    <path d="M428.236129,293.878464 C430.02897,293.878464 430.95178,294.903003 430.95178,294.903003 L430.129423,296.242917 C430.129423,296.242917 429.320687,295.501361 428.316152,295.501361 C426.928531,295.501361 426.271326,296.525901 426.271326,297.570897 C426.271326,298.646578 426.979609,299.751239 428.316152,299.751239 C429.410925,299.751239 430.241795,298.859669 430.241795,298.859669 L431.15439,300.158669 C431.15439,300.158669 430.129423,301.374137 428.236129,301.374137 C425.966561,301.374137 424.437624,299.761468 424.437624,297.610106 C424.437624,295.501361 426.058501,293.878464 428.236129,293.878464" id="Fill-45" fill="#282D37"></path>
                    <path d="M432.618968,298.990932 C432.618968,298.990932 433.43792,299.741011 434.352217,299.741011 C434.714871,299.741011 435.111578,299.599519 435.111578,299.164814 C435.111578,298.302224 431.849392,298.331204 431.849392,296.09972 C431.849392,294.761511 432.973109,293.878464 434.411808,293.878464 C435.973094,293.878464 436.742671,294.698436 436.742671,294.698436 L435.991823,296.150861 C435.991823,296.150861 435.263109,295.51159 434.391377,295.51159 C434.02702,295.51159 433.621801,295.673539 433.621801,296.079263 C433.621801,296.992995 436.883987,296.829342 436.883987,299.122196 C436.883987,300.329141 435.962879,301.374137 434.331786,301.374137 C432.629184,301.374137 431.685942,300.341074 431.685942,300.341074 L432.618968,298.990932 Z" id="Fill-47" fill="#282D37"></path>
                    <path d="M438.491584,298.990932 C438.491584,298.990932 439.312238,299.741011 440.224833,299.741011 C440.58919,299.741011 440.984193,299.599519 440.984193,299.164814 C440.984193,298.302224 437.722007,298.331204 437.722007,296.09972 C437.722007,294.761511 438.847428,293.878464 440.286126,293.878464 C441.84571,293.878464 442.615286,294.698436 442.615286,294.698436 L441.866141,296.150861 C441.866141,296.150861 441.137428,295.51159 440.265695,295.51159 C439.899636,295.51159 439.496119,295.673539 439.496119,296.079263 C439.496119,296.992995 442.758305,296.829342 442.758305,299.122196 C442.758305,300.329141 441.835494,301.374137 440.204401,301.374137 C438.501799,301.374137 437.56026,300.341074 437.56026,300.341074 L438.491584,298.990932 Z" id="Fill-49" fill="#282D37"></path>
                    <polygon id="Fill-51" fill="#282D37" points="356.736711 300.337835 358.296294 300.337835 358.296294 302.889807 360.611833 302.889807 360.611833 300.337835 362.171417 300.337835 362.171417 306.716914 360.611833 306.716914 360.611833 304.217788 358.296294 304.217788 358.296294 306.716914 356.736711 306.716914"></polygon>
                    <polygon id="Fill-53" fill="#282D37" points="364.892346 301.676214 362.956487 301.676214 362.956487 300.338006 368.384383 300.338006 368.384383 301.676214 366.451929 301.676214 366.451929 306.717084 364.892346 306.717084"></polygon>
                    <path d="M369.497885,300.337835 L371.191974,300.337835 L372.11819,303.033004 C372.261208,303.442138 372.439981,304.084819 372.439981,304.084819 L372.457007,304.084819 C372.457007,304.084819 372.635781,303.442138 372.777097,303.033004 L373.705015,300.337835 L375.397401,300.337835 L375.914993,306.716914 L374.357112,306.716914 L374.15961,303.844453 C374.123855,303.362016 374.15961,302.773886 374.15961,302.773886 L374.140881,302.773886 C374.140881,302.773886 373.928056,303.442138 373.785037,303.844453 L373.115914,305.692374 L371.779372,305.692374 L371.110249,303.844453 C370.968933,303.442138 370.754405,302.773886 370.754405,302.773886 L370.739082,302.773886 C370.739082,302.773886 370.773134,303.362016 370.739082,303.844453 L370.54158,306.716914 L368.971781,306.716914 L369.497885,300.337835 Z" id="Fill-55" fill="#282D37"></path>
                    <polygon id="Fill-57" fill="#282D37" points="377.216121 300.337835 378.775705 300.337835 378.775705 305.378705 381.377281 305.378705 381.377281 306.716914 377.216121 306.716914"></polygon>
                    <path d="M1.70260223,329.324798 L1.70260223,309.248259 C1.70260223,298.176074 10.6974498,289.170015 21.7558513,289.170015 C32.8125502,289.170015 41.8091004,298.176074 41.8091004,309.248259 L41.8091004,329.324798 C41.8091004,340.396983 32.8125502,349.403043 21.7558513,349.403043 C10.6974498,349.403043 1.70260223,340.396983 1.70260223,329.324798" id="Fill-59" fill="#FFFFFF"></path>
                    <path d="M21.7563621,290.875251 C11.637797,290.875251 3.40571524,299.117593 3.40571524,309.247066 L3.40571524,329.32531 C3.40571524,339.456487 11.637797,347.69883 21.7563621,347.69883 C31.8732245,347.69883 40.1053063,339.456487 40.1053063,329.32531 L40.1053063,309.247066 C40.1053063,299.117593 31.8732245,290.875251 21.7563621,290.875251 M21.7563621,351.108278 C9.75982677,351.108278 0.000510780669,341.336798 0.000510780669,329.32531 L0.000510780669,309.247066 C0.000510780669,297.235578 9.75982677,287.465802 21.7563621,287.465802 C33.7528974,287.465802 43.5105108,297.235578 43.5105108,309.247066 L43.5105108,329.32531 C43.5105108,341.336798 33.7528974,351.108278 21.7563621,351.108278" id="Fill-61" fill="#000000"></path>
                    <path d="M114.830816,327.683319 L73.9513361,327.683319 C67.5784959,327.683319 62.3940721,322.415721 62.3940721,315.939473 L62.3940721,280.803398 C62.3940721,269.75167 53.5779978,260.757544 42.7443398,260.757544 C31.9106818,260.757544 23.09631,269.75167 23.09631,280.803398 L23.09631,307.969886 C23.09631,308.910894 22.3352468,309.674611 21.3937078,309.674611 C20.4521688,309.674611 19.6911056,308.910894 19.6911056,307.969886 L19.6911056,280.803398 C19.6911056,267.869654 30.0327115,257.348095 42.7443398,257.348095 C55.4576706,257.348095 65.7992766,267.869654 65.7992766,280.803398 L65.7992766,315.939473 C65.7992766,320.53541 69.4564662,324.27387 73.9513361,324.27387 L114.830816,324.27387 C115.772355,324.27387 116.533418,325.035882 116.533418,325.978595 C116.533418,326.921307 115.772355,327.683319 114.830816,327.683319" id="Fill-63" fill="#000000"></path>
                    <path d="M386.680206,332.797493 L310.630072,332.797493 C309.688533,332.797493 308.92747,332.035481 308.92747,331.092768 C308.92747,330.150056 309.688533,329.388044 310.630072,329.388044 L386.680206,329.388044 C396.715343,329.388044 403.706228,324.996674 403.706228,321.053646 L403.706228,244.895083 C403.706228,243.95237 404.467291,243.190359 405.40883,243.190359 C406.35037,243.190359 407.111433,243.95237 407.111433,244.895083 L407.111433,321.053646 C407.111433,327.640701 398.137016,332.797493 386.680206,332.797493" id="Fill-65" fill="#000000"></path>
                    <g id="Group-69" transform="translate(0.000000, 306.850394)">
                        <mask id="mask-4" fill="white">
                            <use xlink:href="#path-3"></use>
                        </mask>
                        <g id="Clip-68"></g>
                        <path d="M41.8085896,4.10190787 L1.70209145,4.10190787 C0.762255019,4.10190787 -0.000510780669,3.33989606 -0.000510780669,2.39718346 C-0.000510780669,1.45447087 0.762255019,0.692459055 1.70209145,0.692459055 L41.8085896,0.692459055 C42.7501286,0.692459055 43.5111918,1.45447087 43.5111918,2.39718346 C43.5111918,3.33989606 42.7501286,4.10190787 41.8085896,4.10190787" id="Fill-67" fill="#000000" mask="url(#mask-4)"></path>
                    </g>
                    <polygon id="Fill-70" fill="#FFFFFF" points="311.757365 60.9704913 401.676897 126.45748 411.368109 116.755893 321.446874 51.2672"></polygon>
                    <path d="M314.369497,60.7649016 L401.503572,124.221563 L408.756657,116.961142 L321.622583,53.5027756 L314.369497,60.7649016 Z M401.677237,128.162886 C401.328204,128.162886 400.975765,128.055488 400.676107,127.835579 L310.756575,62.3485906 C310.353059,62.055378 310.099371,61.6002165 310.060211,61.1041417 C310.021051,60.6063622 310.201527,60.1171063 310.553966,59.7659331 L320.243475,50.0626417 C320.834278,49.4693976 321.774114,49.3960945 322.448345,49.8887598 L412.369579,115.377453 C412.773096,115.670665 413.025081,116.125827 413.065943,116.623606 C413.103401,117.119681 412.924628,117.608937 412.572189,117.961815 L402.880977,127.663402 C402.552375,127.994118 402.114806,128.162886 401.677237,128.162886 Z" id="Fill-72" fill="#000000"></path>
                    <path d="M323.507704,63.0315031 C317.625213,68.921326 308.087236,68.921326 302.206448,63.0315031 C296.323957,57.1416803 296.323957,47.5935189 302.206448,41.7036961 C308.087236,35.815578 317.625213,35.815578 323.507704,41.7036961 C329.388492,47.5935189 329.388492,57.1416803 323.507704,63.0315031" id="Fill-74" fill="#FFFFFF"></path>
                    <path d="M312.856565,38.9921614 C309.287911,38.9921614 305.933784,40.3832165 303.410528,42.9096181 C298.202268,48.1243701 298.202268,56.6104882 303.410528,61.8269449 C305.933784,64.3533465 309.287911,65.7444016 312.856565,65.7444016 C316.425219,65.7444016 319.779346,64.3516417 322.304305,61.8269449 C327.510862,56.6104882 327.510862,48.1243701 322.304305,42.9096181 C319.779346,40.3832165 316.425219,38.9921614 312.856565,38.9921614 M312.856565,69.1538504 C308.378721,69.1538504 304.168186,67.4082126 301.003048,64.2374252 C294.466758,57.6929882 294.466758,47.0435748 301.003048,40.4991378 C304.168186,37.3283504 308.378721,35.5827126 312.856565,35.5827126 C317.334409,35.5827126 321.544944,37.3283504 324.711784,40.4991378 C331.248074,47.0435748 331.248074,57.6929882 324.711784,64.2374252 C321.546647,67.4065079 317.334409,69.1538504 312.856565,69.1538504" id="Fill-76" fill="#000000"></path>
                    <path d="M312.856565,68.8923457 C308.448528,68.8923457 304.304394,67.1739835 301.186929,64.0526331 C294.752796,57.6087748 294.752796,47.1264244 301.186929,40.6842709 C304.304394,37.5629205 308.448528,35.8445583 312.856565,35.8445583 C317.264602,35.8445583 321.408736,37.5629205 324.526201,40.6842709 C330.962037,47.1264244 330.962037,57.6087748 324.526201,64.0526331 C321.408736,67.1739835 317.264602,68.8923457 312.856565,68.8923457" id="Fill-78" fill="#808080"></path>
                    <path d="M312.856565,37.5489417 C308.903123,37.5489417 305.184639,39.0900126 302.392372,41.8891701 C296.62055,47.6664811 296.62055,57.0697409 302.392372,62.847052 C305.186342,65.6462094 308.903123,67.1872803 312.856565,67.1872803 C316.810007,67.1872803 320.526788,65.6462094 323.322461,62.847052 C329.094283,57.0680362 329.094283,47.6681858 323.322461,41.8891701 C320.528491,39.0900126 316.810007,37.5489417 312.856565,37.5489417 M312.856565,70.5967291 C307.993933,70.5967291 303.420743,68.7010756 299.98319,65.2575323 C292.886743,58.1505362 292.886743,46.5856858 299.98319,39.4786898 C303.420743,36.0351465 307.99223,34.1394929 312.856565,34.1394929 C317.719197,34.1394929 322.292387,36.0351465 325.731643,39.4786898 C332.828089,46.5856858 332.828089,58.1505362 325.731643,65.2575323 C322.292387,68.7010756 317.719197,70.5967291 312.856565,70.5967291" id="Fill-80" fill="#000000"></path>
                    <path d="M419.741336,129.821242 C419.741336,109.973135 392.014459,109.973135 392.014459,129.821242 L392.014459,184.94521 L419.741336,184.94521 L419.741336,129.821242 Z" id="Fill-82" fill="#FFFFFF"></path>
                    <path d="M393.71672,183.240315 L418.038393,183.240315 L418.038393,129.821071 C418.038393,120.765575 411.73536,116.640142 405.878408,116.640142 C400.019754,116.640142 393.71672,120.765575 393.71672,129.821071 L393.71672,183.240315 Z M419.740996,186.649764 L392.014118,186.649764 C391.072579,186.649764 390.311516,185.886048 390.311516,184.94504 L390.311516,129.821071 C390.311516,118.929587 398.143486,113.230693 405.878408,113.230693 C413.61333,113.230693 421.443598,118.929587 421.443598,129.821071 L421.443598,184.94504 C421.443598,185.886048 420.682535,186.649764 419.740996,186.649764 Z" id="Fill-84" fill="#000000"></path>
                    <path d="M390.572695,184.94504 L390.572695,129.821071 C390.572695,119.100059 398.271862,113.491516 405.877387,113.491516 C413.482911,113.491516 421.183781,119.100059 421.183781,129.821071 L421.183781,184.94504" id="Fill-86" fill="#FFFFFF"></path>
                    <path d="M421.182929,186.649764 C420.24139,186.649764 419.480327,185.886048 419.480327,184.94504 L419.480327,129.821071 C419.480327,120.220063 412.635866,115.196241 405.878238,115.196241 C399.118907,115.196241 392.274446,120.220063 392.274446,129.821071 L392.274446,184.94504 C392.274446,185.886048 391.513383,186.649764 390.571844,186.649764 C389.632007,186.649764 388.869242,185.886048 388.869242,184.94504 L388.869242,129.821071 C388.869242,117.98176 397.42652,111.786792 405.878238,111.786792 C414.329955,111.786792 422.885532,117.98176 422.885532,129.821071 L422.885532,184.94504 C422.885532,185.886048 422.124468,186.649764 421.182929,186.649764" id="Fill-88" fill="#000000"></path>
                    <path d="M426.126094,121.585718 C426.126094,132.782348 417.059738,141.860006 405.875343,141.860006 C394.694355,141.860006 385.6297,132.782348 385.6297,121.585718 C385.6297,110.390793 394.694355,101.313135 405.875343,101.313135 C417.059738,101.313135 426.126094,110.390793 426.126094,121.585718" id="Fill-90" fill="#FFFFFF"></path>
                    <path d="M405.876025,143.301691 C393.918649,143.301691 384.18998,133.559191 384.18998,121.585207 C384.18998,109.611222 393.918649,99.8704272 405.876025,99.8704272 C417.836805,99.8704272 427.567177,109.611222 427.567177,121.585207 C427.567177,133.559191 417.836805,143.301691 405.876025,143.301691" id="Fill-92" fill="#808080"></path>
                    <path d="M405.876025,101.575152 C394.856783,101.575152 385.892582,110.55223 385.892582,121.585207 C385.892582,132.619888 394.856783,141.596967 405.876025,141.596967 C416.898671,141.596967 425.864575,132.619888 425.864575,121.585207 C425.864575,110.55223 416.898671,101.575152 405.876025,101.575152 M405.876025,145.006415 C392.978813,145.006415 382.487378,134.500199 382.487378,121.585207 C382.487378,108.671919 392.978813,98.1657028 405.876025,98.1657028 C418.774939,98.1657028 429.269779,108.671919 429.269779,121.585207 C429.269779,134.500199 418.774939,145.006415 405.876025,145.006415" id="Fill-94" fill="#000000"></path>
                    <path d="M411.193422,121.585718 C411.193422,124.524663 408.814886,126.907868 405.877897,126.907868 C402.940909,126.907868 400.562373,124.524663 400.562373,121.585718 C400.562373,118.646773 402.940909,116.263569 405.877897,116.263569 C408.814886,116.263569 411.193422,118.646773 411.193422,121.585718" id="Fill-96" fill="#FFFFFF"></path>
                    <path d="M405.877727,117.707641 C403.740961,117.707641 402.004307,119.448164 402.004307,121.585889 C402.004307,123.725318 403.740961,125.464137 405.877727,125.464137 C408.014493,125.464137 409.751147,123.725318 409.751147,121.585889 C409.751147,119.448164 408.014493,117.707641 405.877727,117.707641" id="Fill-98" fill="#FFFFFF"></path>
                    <path d="M405.877727,119.412365 C404.680798,119.412365 403.706909,120.387467 403.706909,121.585889 C403.706909,122.78431 404.680798,123.759412 405.877727,123.759412 C407.074657,123.759412 408.048545,122.78431 408.048545,121.585889 C408.048545,120.387467 407.074657,119.412365 405.877727,119.412365 M405.877727,127.168861 C402.802828,127.168861 400.301705,124.664621 400.301705,121.585889 C400.301705,118.507156 402.802828,116.002916 405.877727,116.002916 C408.952627,116.002916 411.453749,118.507156 411.453749,121.585889 C411.453749,124.664621 408.952627,127.168861 405.877727,127.168861" id="Fill-100" fill="#000000"></path>
                    <path d="M214.832136,24.5403602 C211.799801,21.838372 212.029653,17.8084035 213.822493,15.2257461 C215.598307,12.6703642 219.236768,11.0713327 223.358768,13.2619035 L311.15856,41.4580453 C312.057534,41.8296752 312.895214,42.3462067 313.591578,42.9667264 C316.623913,45.6704193 316.394062,49.6986831 314.601222,52.2796358 C312.825407,54.8350177 309.186946,56.4357539 305.064946,54.2451831 L217.263452,26.0490413 C216.364478,25.6774114 215.5285,25.1608799 214.832136,24.5403602" id="Fill-102" fill="#FFFFFF"></path>
                    <path d="M219.484326,13.9308374 C217.551873,13.9308374 216.062096,14.9877665 215.22101,16.1998256 C213.855523,18.1653728 213.673345,21.2253531 215.965048,23.267613 C216.511583,23.7551642 217.185813,24.1728217 217.912825,24.4728531 L305.584921,52.6212626 C305.68197,52.6519476 305.775613,52.6911563 305.862445,52.7388886 C309.281271,54.5544201 311.956059,53.1036996 313.202364,51.3069201 C314.569553,49.3413728 314.751732,46.2830972 312.458326,44.2391327 C311.911791,43.7515815 311.237561,43.333924 310.508847,43.0338925 L222.838453,14.8854831 C222.743107,14.854798 222.649464,14.8155894 222.560929,14.7678571 C221.447427,14.1763177 220.41565,13.9308374 219.484326,13.9308374 M308.898185,56.973424 C307.486728,56.973424 305.968007,56.627365 304.40672,55.8244398 L216.743137,27.6726209 C215.537694,27.1799555 214.529754,26.5526169 213.700587,25.8144713 C209.929323,22.4527547 210.203442,17.452798 212.425338,14.2530303 C214.538267,11.2100972 219.058676,9.13203819 224.016654,11.6823059 L311.678535,39.8341248 C312.883977,40.3267902 313.891917,40.952424 314.722787,41.6922744 C318.495754,45.0574004 318.219932,50.0539476 315.999739,53.2537154 C314.549122,55.3385933 311.971382,56.973424 308.898185,56.973424" id="Fill-104" fill="#000000"></path>
                    <path d="M177.365012,76.3106244 L218.137228,56.9654118 C220.182053,55.9954236 221.062298,53.525278 220.093517,51.4779039 C219.123034,49.4305299 216.657666,48.5491874 214.612841,49.5191756 L173.840625,68.8643882 C171.7958,69.8360811 170.915555,72.304522 171.884335,74.3518961 L171.884335,74.3536008 C172.854819,76.3992701 175.320187,77.2806126 177.365012,76.3106244" id="Fill-106" fill="#FFFFFF"></path>
                    <path d="M216.363457,50.8287449 C216.01272,50.8287449 215.66539,50.9054575 215.341895,51.0605874 L174.56968,70.4058 C173.990795,70.6802606 173.551523,71.1678118 173.336996,71.7781031 C173.119062,72.3883945 173.148007,73.0430087 173.422126,73.622615 C173.696245,74.2005165 174.184891,74.6403354 174.794423,74.8568354 C175.402252,75.0750402 176.059457,75.0460598 176.634936,74.7698945 L217.407152,55.4246819 C217.986036,55.1502213 218.425308,54.6626701 218.641538,54.0523787 C218.859471,53.4420874 218.828825,52.7874732 218.554706,52.2078669 C218.280587,51.6299654 217.793642,51.1901465 217.182408,50.9719417 C216.9151,50.8764772 216.639278,50.8287449 216.363457,50.8287449 M175.611672,78.4111858 C173.432341,78.4111858 171.339843,77.1820795 170.347226,75.0835638 C168.971523,72.1804181 170.21272,68.6993709 173.110549,67.3236583 L213.882765,47.9784457 C216.787404,46.6044378 220.260713,47.8454772 221.631308,50.7469181 C223.005308,53.6500638 221.765813,57.1294063 218.867984,58.5051189 L178.094066,77.8520362 C177.292141,78.2321898 176.445947,78.4111858 175.611672,78.4111858" id="Fill-108" fill="#000000"></path>
                    <path d="M254.339488,76.3106244 L213.568975,56.9654118 C211.52415,55.9954236 210.642202,53.525278 211.610983,51.4779039 C212.581466,49.4305299 215.046834,48.5491874 217.091659,49.5191756 L257.863875,68.8643882 C259.9087,69.8360811 260.788946,72.304522 259.820165,74.3518961 L259.820165,74.3536008 C258.851384,76.3992701 256.384314,77.2806126 254.339488,76.3106244" id="Fill-110" fill="#FFFFFF"></path>
                    <path d="M215.332701,50.8270402 C214.430322,50.8270402 213.561995,51.3367528 213.149965,52.2078669 C212.581296,53.4114024 213.095482,54.8535992 214.299222,55.4246819 L255.069735,74.7698945 C255.646917,75.0443551 256.300716,75.0767449 256.91195,74.8568354 C257.521482,74.6403354 258.006723,74.2005165 258.280842,73.6243197 C258.556664,73.0430087 258.585608,72.3883945 258.367675,71.7781031 C258.151445,71.1678118 257.713876,70.6802606 257.134991,70.4058 L216.361073,51.0605874 C216.029065,50.902048 215.678329,50.8270402 215.332701,50.8270402 M256.087891,78.4128906 C255.239995,78.4128906 254.397207,78.2236661 253.608902,77.8520362 L212.838389,58.5051189 C211.43885,57.8402764 210.379831,56.667426 209.85543,55.1979535 C209.332731,53.7301858 209.409348,52.1482016 210.073363,50.7486228 C211.44566,47.8454772 214.915564,46.6010283 217.821906,47.9784457 L258.594121,67.3236583 C259.99366,67.9885008 261.054381,69.1630559 261.575378,70.6325283 C262.099779,72.1002961 262.021459,73.6805756 261.357445,75.0818591 C260.696835,76.4831425 259.523742,77.5434811 258.056099,78.0685362 C257.414218,78.298674 256.7485,78.4128906 256.087891,78.4128906" id="Fill-112" fill="#000000"></path>
                    <path d="M218.922468,53.333326 L211.437828,53.333326 C210.64101,53.333326 209.995724,52.6872354 209.995724,51.8894244 L209.995724,28.0352157 C209.995724,27.2374047 210.64101,26.5913142 211.437828,26.5913142 L218.922468,26.5913142 C219.719286,26.5913142 220.364572,27.2374047 220.364572,28.0352157 L220.364572,51.8894244 C220.364572,52.6872354 219.719286,53.333326 218.922468,53.333326" id="Fill-114" fill="#FFFFFF"></path>
                    <path d="M211.698156,51.6292835 L218.661799,51.6292835 L218.661799,28.2967205 L211.698156,28.2967205 L211.698156,51.6292835 Z M218.922297,55.0387323 L211.437658,55.0387323 C209.702706,55.0387323 208.292952,53.6255157 208.292952,51.8901063 L208.292952,28.0341929 C208.292952,26.2987835 209.702706,24.8872717 211.437658,24.8872717 L218.922297,24.8872717 C220.657249,24.8872717 222.067004,26.2987835 222.067004,28.0341929 L222.067004,51.8901063 C222.067004,53.6255157 220.657249,55.0387323 218.922297,55.0387323 Z" id="Fill-116" fill="#000000"></path>
                    <polygon id="Fill-118" fill="#FFFFFF" points="181.777646 87.1465346 185.206687 118.460617 170.143765 87.1363063 170.165899 75.6157787 181.801483 75.6260071"></polygon>
                    <path d="M171.846367,86.7495043 L182.431445,108.760906 L180.085259,87.3325201 C180.078449,87.2694453 180.075044,87.2063705 180.075044,87.1432957 L180.095475,77.3291972 L171.865096,77.3223783 L171.846367,86.7495043 Z M185.206687,120.165512 C184.566509,120.165512 183.960382,119.802406 183.67094,119.200638 L168.60972,87.8763272 C168.497349,87.6444846 168.441163,87.3904807 168.441163,87.1330673 L168.463297,75.6125398 C168.464999,74.6732366 169.226062,73.9112248 170.165899,73.9112248 L170.167601,73.9112248 L181.803185,73.9214531 C182.254375,73.9231579 182.686836,74.1021539 183.006925,74.4226421 C183.325312,74.7431303 183.505787,75.177835 183.504085,75.629587 L183.480248,87.05465 L186.899074,118.274973 C186.989312,119.100059 186.47172,119.870595 185.674903,120.099028 C185.518263,120.145056 185.359921,120.165512 185.206687,120.165512 Z" id="Fill-119" fill="#000000"></path>
                    <path d="M182.675599,72.8836169 C182.668788,76.2487429 179.941219,78.9711878 176.580283,78.9643689 C173.219346,78.95755 170.503695,76.2248768 170.508803,72.8614555 C170.513911,69.4980343 173.243182,66.7738846 176.604119,66.7807035 C179.963353,66.7875224 182.680706,69.5201957 182.675599,72.8836169" id="Fill-120" fill="#FFFFFF"></path>
                    <path d="M182.675599,72.8836169 L182.692625,72.8836169 L182.675599,72.8836169 Z M176.592201,68.485428 C174.179613,68.485428 172.21481,70.4475657 172.211405,72.864865 C172.208,75.2821642 174.169398,77.2545303 176.583688,77.2596445 L176.592201,77.2596445 C179.004788,77.2596445 180.967888,75.2975067 180.972996,72.8802075 C180.976401,70.4612035 179.015004,68.4905421 176.600714,68.485428 L176.592201,68.485428 Z M176.593903,80.6690933 L176.576877,80.6690933 C172.284617,80.6605697 168.79939,77.157361 168.806201,72.8580461 C168.813011,68.5638453 172.305048,65.0759791 176.592201,65.0759791 L176.607524,65.0759791 C180.898082,65.0845028 184.385011,68.5877114 184.378201,72.8853217 L184.378201,72.8870264 C184.374796,74.9701996 183.560952,76.9255185 182.086498,78.3949909 C180.617152,79.8627587 178.667673,80.6690933 176.593903,80.6690933 Z" id="Fill-121" fill="#000000"></path>
                    <path d="M176.59186,80.4075886 L176.578239,80.4075886 C172.428998,80.399065 169.059548,77.0134823 169.066358,72.8590689 C169.074871,68.7114744 172.449429,65.3378248 176.593563,65.3378248 C180.754723,65.3446437 184.124172,68.7319311 184.117362,72.8863445 C184.110552,77.033939 180.734291,80.4075886 176.59186,80.4075886" id="Fill-122" fill="#FFFFFF"></path>
                    <path d="M176.590158,67.0418673 C173.387563,67.0418673 170.775771,69.6535051 170.768961,72.8617965 C170.763853,76.075202 173.370537,78.6953634 176.581645,78.7021823 L176.59186,80.4069067 L176.59186,78.7021823 C179.79786,78.7021823 182.409652,76.0922492 182.41476,72.8839579 C182.419868,69.6688476 179.808076,67.0469815 176.590158,67.0418673 M176.59186,82.1116311 L176.578239,82.1116311 C171.487459,82.1014028 167.355243,77.9486941 167.363756,72.8566823 C167.373972,67.7697846 171.5147,63.6324185 176.593563,63.6324185 C181.689451,63.6409421 185.828477,67.7936508 185.819964,72.889072 C185.811451,77.974265 181.670723,82.1116311 176.59186,82.1116311" id="Fill-123" fill="#000000"></path>
                    <path d="M207.785576,54.4279295 C207.795792,59.2130909 211.676022,63.0862248 216.455227,63.0759965 C221.234431,63.0674728 225.101041,59.1807012 225.090825,54.3955398 C225.082312,49.6103783 221.203784,45.7389492 216.422877,45.7474728 C211.643673,45.7577012 207.778766,49.6427681 207.785576,54.4279295" id="Fill-124" fill="#FFFFFF"></path>
                    <path d="M209.488178,54.4246906 C209.491584,56.2845449 210.218595,58.0301827 211.533004,59.3428205 C212.84571,60.6520488 214.58577,61.3714425 216.436498,61.3714425 L216.451822,61.3714425 C218.309361,61.3680331 220.052825,60.6401157 221.363829,59.3240685 C222.67313,58.0080213 223.391628,56.258974 223.388223,54.3991197 C223.384818,52.5392654 222.659509,50.7936276 221.3451,49.4809898 C220.032394,48.1734661 218.292335,47.4523677 216.439903,47.4523677 L216.426283,47.4523677 C212.595428,47.4608913 209.483071,50.5890606 209.488178,54.4246906 Z M216.436498,64.7808913 C213.678283,64.7808913 211.083517,63.7086197 209.130632,61.758415 C207.170937,59.8030961 206.088082,57.2016866 206.082974,54.4315094 L206.082974,54.4298047 C206.074461,48.7138638 210.712349,44.054852 216.419472,44.0429189 L216.439903,44.0429189 C219.199822,44.0429189 221.794587,45.1168953 223.749175,47.0671 C225.707167,49.0207142 226.78832,51.6221236 226.793428,54.3923008 C226.798535,57.162478 225.727599,59.7690016 223.776416,61.7311394 C221.823532,63.6932772 219.225361,64.7757772 216.458632,64.7808913 L216.436498,64.7808913 Z" id="Fill-125" fill="#000000"></path>
                    <path d="M216.438371,64.519898 C210.88278,64.519898 206.355561,59.9938547 206.343642,54.431339 C206.335129,48.8568902 210.855538,44.3155043 216.419642,44.305276 C221.995665,44.305276 226.524587,48.8313193 226.5331,54.3955398 C226.53991,57.0941185 225.49281,59.6324531 223.5893,61.5451539 C221.687494,63.4578547 219.155724,64.5147839 216.458802,64.519898 L216.438371,64.519898 Z" id="Fill-126" fill="#808080"></path>
                    <path d="M216.419983,46.0100004 C211.797418,46.018524 208.039775,49.7961933 208.046585,54.4279295 C208.056801,59.0528469 211.821254,62.8151736 216.438712,62.8151736 L216.45744,62.8151736 C218.696362,62.8100594 220.800778,61.9321264 222.384199,60.3433232 C223.967619,58.7511106 224.834243,56.6406618 224.829135,54.3989492 C224.824028,49.7723272 221.051061,46.0100004 216.419983,46.0100004 M216.460845,66.2246224 L216.438712,66.2246224 C209.946689,66.2246224 204.655001,60.9348626 204.641381,54.4347484 C204.631165,47.9209965 209.91434,42.6124846 216.416578,42.6005516 C222.923923,42.6005516 228.225827,47.8903114 228.23434,54.3921303 C228.242853,57.5441657 227.022087,60.5120909 224.795083,62.7486894 C222.571485,64.9835831 219.612362,66.2178035 216.460845,66.2246224" id="Fill-127" fill="#000000"></path>
                    <path d="M225.918971,29.3256921 C220.03648,35.215515 210.498503,35.215515 204.617714,29.3256921 C198.735224,23.4358693 198.733521,13.8877079 204.617714,7.99788504 C210.498503,2.1080622 220.03648,2.10976693 225.918971,7.99788504 C231.801462,13.8877079 231.801462,23.4358693 225.918971,29.3256921" id="Fill-128" fill="#FFFFFF"></path>
                    <path d="M215.267832,35.1865346 C210.859795,35.1865346 206.715661,33.4681724 203.598196,30.346822 C200.480732,27.2254717 198.764509,23.0761724 198.764509,18.6626409 C198.764509,14.2474047 200.480732,10.0981055 203.598196,6.97845984 C206.715661,3.85710945 210.859795,2.13874724 215.267832,2.13874724 C219.675869,2.13874724 223.820003,3.85710945 226.937468,6.97845984 C233.373304,13.4206134 233.373304,23.9029638 226.937468,30.3451173 C223.820003,33.4681724 219.675869,35.1865346 215.267832,35.1865346" id="Fill-129" fill="#808080"></path>
                    <path d="M215.267832,3.84313071 C211.31439,3.84313071 207.597609,5.38420157 204.803639,8.18335906 C202.006263,10.9825165 200.467111,14.7039299 200.467111,18.6623 C200.467111,22.6206701 202.006263,26.3420835 204.803639,29.1412409 C207.597609,31.9403984 211.31439,33.4814693 215.267832,33.4814693 C219.221274,33.4814693 222.938055,31.9403984 225.733728,29.1395362 C228.524293,26.3471976 230.061743,22.6257843 230.061743,18.6623 C230.061743,14.6988157 228.524293,10.9774024 225.733728,8.18335906 C222.938055,5.38420157 219.221274,3.84313071 215.267832,3.84313071 M215.267832,36.8909181 C210.4052,36.8909181 205.83201,34.9952646 202.394457,31.5517213 C198.9552,28.108178 197.061906,23.5309929 197.061906,18.6623 C197.061906,13.7919024 198.9552,9.21471732 202.394457,5.77287874 C205.83201,2.32933543 210.4052,0.43368189 215.267832,0.43368189 C220.130464,0.43368189 224.701951,2.32933543 228.14291,5.77287874 C231.575356,9.20960315 233.466947,13.7867882 233.466947,18.6623 C233.466947,23.5361071 231.575356,28.1132921 228.14291,31.5500165 C224.703654,34.9935598 220.130464,36.8909181 215.267832,36.8909181" id="Fill-130" fill="#000000"></path>
                    <path d="M408.692639,124.439938 L422.601197,135.420068" id="Fill-131" fill="#FFFFFF"></path>
                    <path d="M422.599494,137.125474 C422.23003,137.125474 421.858862,137.006144 421.547286,136.758959 L407.638729,125.778829 C406.899799,125.195813 406.773807,124.123541 407.356097,123.383691 C407.940089,122.645545 409.009323,122.519396 409.74655,123.100707 L423.655108,134.082541 C424.394037,134.665557 424.52003,135.737829 423.93774,136.475974 C423.602327,136.90386 423.103465,137.125474 422.599494,137.125474" id="Fill-132" fill="#000000"></path>
                    <path d="M411.193422,121.585718 L427.148507,119.620171" id="Fill-133" fill="#FFFFFF"></path>
                    <path d="M411.191719,123.290443 C410.343823,123.290443 409.610001,122.65799 409.50444,121.793694 C409.388663,120.859506 410.052678,120.008848 410.985704,119.892927 L426.94079,117.92738 C427.87041,117.816572 428.721712,118.478006 428.837488,119.412194 C428.953265,120.344679 428.289251,121.197041 427.356225,121.311257 L411.401139,123.278509 C411.331332,123.287033 411.259823,123.290443 411.191719,123.290443" id="Fill-134" fill="#000000"></path>
                    <path d="M409.228108,117.744974 L416.985164,109.97825" id="Fill-135" fill="#FFFFFF"></path>
                    <path d="M409.228108,119.449698 C408.792242,119.449698 408.356375,119.282635 408.024368,118.950214 C407.358651,118.283667 407.358651,117.206281 408.024368,116.539734 L415.781424,108.773009 C416.445439,108.106462 417.523186,108.106462 418.188903,108.773009 C418.852918,109.437852 418.852918,110.516943 418.188903,111.18349 L410.431848,118.950214 C410.09984,119.282635 409.663974,119.449698 409.228108,119.449698" id="Fill-136" fill="#000000"></path>
                    <path d="M405.877727,126.907868 L405.877727,135.956545" id="Fill-137" fill="#FFFFFF"></path>
                    <path d="M405.877727,137.660587 C404.936188,137.660587 404.175125,136.896871 404.175125,135.955863 L404.175125,126.907186 C404.175125,125.966178 404.936188,125.202461 405.877727,125.202461 C406.819266,125.202461 407.580329,125.966178 407.580329,126.907186 L407.580329,135.955863 C407.580329,136.896871 406.819266,137.660587 405.877727,137.660587" id="Fill-138" fill="#000000"></path>
                    <path d="M320.591317,51.5904157 C320.591317,56.3227307 316.758759,60.1600654 312.032335,60.1600654 C307.304209,60.1600654 303.471651,56.3227307 303.471651,51.5904157 C303.471651,46.8581008 307.304209,43.0207661 312.032335,43.0207661 C316.758759,43.0207661 320.591317,46.8581008 320.591317,51.5904157" id="Fill-139" fill="#FFFFFF"></path>
                    <path d="M312.031825,44.7248087 C308.250345,44.7248087 305.175445,47.8052457 305.175445,51.5897339 C305.175445,55.3759268 308.250345,58.4563638 312.031825,58.4563638 C315.813304,58.4563638 318.888204,55.3759268 318.888204,51.5897339 C318.888204,47.8052457 315.813304,44.7248087 312.031825,44.7248087 M312.031825,61.8658126 C306.374077,61.8658126 301.770241,57.2562378 301.770241,51.5897339 C301.770241,45.9249346 306.374077,41.3153598 312.031825,41.3153598 C317.689572,41.3153598 322.293408,45.9249346 322.293408,51.5897339 C322.293408,57.2562378 317.689572,61.8658126 312.031825,61.8658126" id="Fill-140" fill="#000000"></path>
                    <path d="M263.808511,255.122577 C263.341998,255.122577 262.95721,254.739014 262.95721,254.270215 L262.95721,244.041869 C262.95721,243.573069 263.341998,243.189506 263.808511,243.189506 C264.276726,243.189506 264.659812,243.573069 264.659812,244.041869 L264.659812,254.270215 C264.659812,254.739014 264.276726,255.122577 263.808511,255.122577" id="Fill-141" fill="#FEA200"></path>
                    <path d="M258.893609,252.529862 C258.629706,252.142889 258.728457,251.609311 259.114947,251.345078 L267.539423,245.560948 C267.927616,245.296716 268.458828,245.39559 268.722732,245.782563 C268.988338,246.169535 268.889587,246.703114 268.504799,246.967346 L260.076917,252.751476 C259.692129,253.015708 259.159215,252.916834 258.893609,252.529862" id="Fill-142" fill="#FEA200"></path>
                    <path d="M258.50797,246.430869 C258.722497,246.013212 259.238386,245.847854 259.653821,246.062649 L268.742312,250.733594 C269.159449,250.948389 269.324601,251.46492 269.111776,251.880873 C268.897248,252.298531 268.38136,252.463889 267.964222,252.250798 L258.877434,247.578149 C258.460297,247.363354 258.293442,246.848527 258.50797,246.430869" id="Fill-143" fill="#FEA200"></path>
                    <path d="M299.563158,289.217065 C299.096645,289.217065 298.711857,288.833502 298.711857,288.364703 L298.711857,278.136357 C298.711857,277.667557 299.096645,277.283994 299.563158,277.283994 C300.031373,277.283994 300.414459,277.667557 300.414459,278.136357 L300.414459,288.364703 C300.414459,288.833502 300.031373,289.217065 299.563158,289.217065" id="Fill-144" fill="#FEA200"></path>
                    <path d="M294.648256,286.625032 C294.384352,286.236355 294.483103,285.704481 294.869594,285.440248 L303.29407,279.656119 C303.682263,279.390181 304.213475,279.489056 304.477378,279.876028 C304.742984,280.264705 304.644233,280.796579 304.259445,281.060811 L295.831564,286.844941 C295.446776,287.110878 294.913862,287.012004 294.648256,286.625032" id="Fill-145" fill="#FEA200"></path>
                    <path d="M294.262616,280.525357 C294.477144,280.1077 294.993033,279.942342 295.408468,280.155432 L304.496958,284.828082 C304.914096,285.041172 305.079248,285.557704 304.866423,285.975361 C304.651895,286.393019 304.136007,286.558377 303.718869,286.345287 L294.632081,281.672637 C294.214943,281.459546 294.048088,280.943015 294.262616,280.525357" id="Fill-146" fill="#FEA200"></path>
                    <path d="M124.195128,287.512341 C123.728615,287.512341 123.343827,287.128778 123.343827,286.659979 L123.343827,276.431632 C123.343827,275.962833 123.728615,275.57927 124.195128,275.57927 C124.663343,275.57927 125.046429,275.962833 125.046429,276.431632 L125.046429,286.659979 C125.046429,287.128778 124.663343,287.512341 124.195128,287.512341" id="Fill-147" fill="#FEA200"></path>
                    <path d="M119.280226,284.920307 C119.016323,284.53163 119.115074,283.999756 119.501564,283.735524 L127.92604,277.951394 C128.314233,277.685457 128.845445,277.784331 129.109349,278.171304 C129.374955,278.559981 129.276204,279.091855 128.891416,279.356087 L120.463535,285.140217 C120.078746,285.406154 119.545832,285.30728 119.280226,284.920307" id="Fill-148" fill="#FEA200"></path>
                    <path d="M118.894587,278.820633 C119.109114,278.402976 119.625003,278.237617 120.040438,278.450708 L129.128929,283.123357 C129.546066,283.336448 129.711219,283.85298 129.498393,284.270637 C129.283865,284.688294 128.767977,284.853653 128.350839,284.640562 L119.264051,279.967913 C118.846914,279.754822 118.680059,279.238291 118.894587,278.820633" id="Fill-149" fill="#FEA200"></path>
                    <path d="M250.37566,72.8836169 C250.382471,76.2487429 253.110039,78.9711878 256.470976,78.9643689 C259.83021,78.95755 262.547564,76.2248768 262.542456,72.8614555 C262.537348,69.4980343 259.808077,66.7738846 256.44714,66.7807035 C253.087906,66.7875224 250.36885,69.5201957 250.37566,72.8836169" id="Fill-150" fill="#FFFFFF"></path>
                    <path d="M256.459399,68.4852575 L256.450886,68.4852575 C255.281198,68.4869622 254.181317,68.9472378 253.355555,69.7757339 C252.52809,70.6059346 252.0769,71.7088913 252.078603,72.880037 C252.083711,75.2973362 254.046811,77.259474 256.459399,77.259474 L256.467912,77.259474 C258.883904,77.2543598 260.843599,75.2836984 260.838491,72.8646945 C260.836789,71.6918441 260.380491,70.5905921 259.549622,69.7638008 C258.723859,68.9387142 257.627384,68.4852575 256.459399,68.4852575 Z M256.457696,80.6689228 C254.383926,80.6689228 252.434447,79.8625882 250.963399,78.3948205 C249.490648,76.925348 248.676804,74.9700291 248.673399,72.8868559 C248.669993,70.8053874 249.473622,68.8449543 250.942967,67.3703677 C252.41061,65.8940764 254.365198,65.0792181 256.444075,65.0758087 L256.461101,65.0758087 C258.534871,65.0758087 260.48435,65.883848 261.955399,67.349911 C263.428149,68.8193835 264.240291,70.7764071 264.243696,72.8578756 C264.252209,77.1554858 260.766982,80.6603992 256.474722,80.6689228 L256.457696,80.6689228 Z" id="Fill-151" fill="#000000"></path>
                    <path d="M256.459399,80.4075886 C252.316967,80.4075886 248.94241,77.033939 248.933897,72.8863445 C248.930491,70.8747697 249.708581,68.9808209 251.128551,67.5539665 C252.546819,66.1288169 254.436707,65.3412343 256.445778,65.3378248 C260.60183,65.3378248 263.976387,68.7114744 263.983198,72.8590689 C263.991711,77.0134823 260.622261,80.399065 256.473019,80.4075886 L256.459399,80.4075886 Z" id="Fill-152" fill="#FFFFFF"></path>
                    <path d="M256.459399,78.7028642 L256.473019,78.7028642 C258.022387,78.6994547 259.481517,78.0891634 260.581399,76.984502 C261.679577,75.8798406 262.284001,74.4154823 262.280596,72.8624783 C262.275488,69.6524823 259.658588,67.0425492 256.445778,67.0425492 C254.894707,67.0442539 253.433874,67.6545453 252.335696,68.757502 C251.237517,69.8604587 250.633094,71.3248169 250.636499,72.882935 C250.643309,76.0912264 253.255101,78.7028642 256.459399,78.7028642 M256.476425,82.112313 L256.459399,82.112313 C251.382239,82.112313 247.24151,77.9732421 247.231294,72.8897539 C247.227889,70.4196083 248.183049,68.0977736 249.923109,66.3504311 C251.663168,64.6030886 253.978707,63.6365098 256.442372,63.6331004 C261.531451,63.6331004 265.677287,67.7704665 265.6858,72.8556594 C265.690908,75.3206909 264.734045,77.6408209 262.993986,79.3915728 C261.252224,81.1406201 258.938387,82.1071988 256.476425,82.112313" id="Fill-153" fill="#000000"></path>
                    <polygon id="Fill-154" fill="#FFFFFF" points="188.042712 117.04007 215.284347 103.402275 245.931187 118.744795 216.986949 135.792039"></polygon>
                    <path d="M191.469539,117.229806 L217.030706,133.789499 L242.36713,118.866342 L215.283836,105.308669 L191.469539,117.229806 Z M216.986439,137.497275 C216.664647,137.497275 216.342855,137.40522 216.061926,137.222814 L187.117688,118.470846 C186.605204,118.138424 186.308952,117.557113 186.343004,116.945117 C186.377056,116.334826 186.734602,115.789314 187.281138,115.514854 L214.522773,101.877058 C215.001204,101.638397 215.566468,101.638397 216.046602,101.877058 L246.693442,117.219578 C247.251896,117.499153 247.612848,118.061712 247.631576,118.685641 C247.65371,119.311275 247.333621,119.8977 246.793896,120.213074 L217.849658,137.260318 C217.584052,137.418857 217.284394,137.497275 216.986439,137.497275 Z" id="Fill-155" fill="#000000"></path>
                    <path d="M216.986949,171.591252 C216.62089,171.591252 216.256533,171.473626 215.95347,171.240078 L187.009232,149.078661 C186.588689,148.756468 186.340109,148.256984 186.340109,147.72511 L186.340109,117.04007 C186.340109,116.099063 187.101172,115.335346 188.042712,115.335346 C188.984251,115.335346 189.745314,116.099063 189.745314,117.04007 L189.745314,146.882976 L217.068674,167.803354 L244.228585,150.207189 L244.228585,118.744795 C244.228585,117.803787 244.989648,117.04007 245.931187,117.04007 C246.872726,117.04007 247.63379,117.803787 247.63379,118.744795 L247.63379,151.134559 C247.63379,151.71246 247.340942,152.251153 246.8557,152.564822 L217.911462,171.316791 C217.630533,171.500901 217.307039,171.591252 216.986949,171.591252" id="Fill-156" fill="#000000"></path>
                    <path d="M216.986949,171.591252 C216.04541,171.591252 215.284347,170.827535 215.284347,169.886527 L215.284347,135.792039 C215.284347,134.851031 216.04541,134.087315 216.986949,134.087315 C217.928488,134.087315 218.689552,134.851031 218.689552,135.792039 L218.689552,169.886527 C218.689552,170.827535 217.928488,171.591252 216.986949,171.591252" id="Fill-157" fill="#000000"></path>
                    <path d="M215.284347,128.973141 C214.342808,128.973141 213.581745,128.209425 213.581745,127.268417 L213.581745,103.402275 C213.581745,102.461267 214.342808,101.697551 215.284347,101.697551 C216.225886,101.697551 216.986949,102.461267 216.986949,103.402275 L216.986949,127.268417 C216.986949,128.209425 216.225886,128.973141 215.284347,128.973141" id="Fill-158" fill="#000000"></path>
                    <path d="M188.044414,149.429834 C187.40083,149.429834 186.784488,149.063319 186.496749,148.439389 C186.101745,147.583618 186.474615,146.571011 187.329321,146.17722 L209.46315,135.948874 C210.321262,135.555082 211.329202,135.928417 211.722503,136.782484 C212.117507,137.638256 211.744637,138.650862 210.889931,139.044653 L188.756102,149.273 C188.524548,149.380397 188.282778,149.429834 188.044414,149.429834" id="Fill-159" fill="#000000"></path>
                    <path d="M245.929655,152.839283 C245.674265,152.839283 245.413767,152.781322 245.170294,152.660287 L221.333863,140.727216 C220.492778,140.304444 220.150555,139.28161 220.571097,138.439476 C220.993343,137.595637 222.016607,137.254693 222.85599,137.675759 L246.692421,149.60883 C247.533506,150.031602 247.875729,151.054437 247.455187,151.89657 C247.155529,152.494929 246.55451,152.839283 245.929655,152.839283 L245.170294,137.675759" id="Fill-160" fill="#000000"></path>
                    <path d="M99.5523442,415.082153 L328.552344,415.082153 L328.552344,423.605775 C328.552344,423.605775 327.701043,431.277035 319.188032,431.277035 L110.619259,431.277035 C110.619259,431.277035 99.9779948,431.987905 99.9779948,424.031956 L99.5523442,415.082153 Z" id="Fill-161" fill="#EBEBEB"></path>
                    <path d="M101.338033,416.786878 L101.678554,423.95013 C101.680257,425.516771 102.134851,426.664051 103.067877,427.538574 C105.139944,429.478551 109.144465,429.672889 110.506546,429.57572 L319.187691,429.572311 C325.669498,429.572311 326.713193,424.424043 326.849401,423.493263 L326.849401,416.786878 L101.338033,416.786878 Z M109.922554,433.000511 C108.187602,433.000511 103.617818,432.722641 100.74042,430.027472 C99.1042193,428.494925 98.275052,426.478236 98.275052,424.031956 L97.8511041,415.16398 C97.8289703,414.696885 97.9992305,414.243429 98.3210223,413.905893 C98.6411115,413.568358 99.0871933,413.377429 99.5520037,413.377429 L328.552004,413.377429 C329.493543,413.377429 330.254606,414.139441 330.254606,415.082153 L330.254606,423.605775 C330.254606,423.66885 330.251201,423.731925 330.24439,423.793295 C329.891952,426.972606 327.126926,432.981759 319.187691,432.981759 L110.618918,432.981759 C110.591677,432.985169 110.337989,433.000511 109.922554,433.000511 Z" id="Fill-162" fill="#000000"></path>
                    <path d="M233.206619,423.038102 L194.898069,423.038102 C193.95653,423.038102 193.195467,422.27609 193.195467,421.333378 C193.195467,420.390665 193.95653,419.628653 194.898069,419.628653 L233.206619,419.628653 C234.148158,419.628653 234.909222,420.390665 234.909222,421.333378 C234.909222,422.27609 234.148158,423.038102 233.206619,423.038102" id="Fill-163" fill="#000000"></path>
                    <path d="M362.843775,176.705425 C362.843775,178.587441 361.318243,180.114874 359.43857,180.114874 C357.558897,180.114874 356.033366,178.587441 356.033366,176.705425 C356.033366,174.823409 357.558897,173.295976 359.43857,173.295976 C361.318243,173.295976 362.843775,174.823409 362.843775,176.705425" id="Fill-164" fill="#FEA200"></path>
                    <path d="M282.254503,179.830867 C285.540526,179.830867 285.547336,174.716693 282.254503,174.716693 C278.966778,174.716693 278.961671,179.830867 282.254503,179.830867" id="Fill-165" fill="#000000"></path>
                    <path d="M231.622007,351.569406 L231.639033,351.569406 L231.622007,351.569406 Z M230.893294,353.449717 C229.682743,353.449717 228.514758,352.78658 227.929063,351.634186 L227.63281,351.052875 C227.230996,350.261883 227.16119,349.361788 227.435309,348.516245 C227.709428,347.672406 228.296825,346.987107 229.086833,346.583087 C230.724736,345.747772 232.721888,346.407501 233.552758,348.037217 L233.849011,348.618528 C234.678178,350.24995 234.026082,352.254706 232.394989,353.088316 C232.394989,353.09002 232.393286,353.09002 232.393286,353.09002 C231.913152,353.333796 231.398967,353.449717 230.893294,353.449717 Z M236.319487,360.810717 L236.336513,360.810717 L236.319487,360.810717 Z M235.590773,362.691028 C234.37852,362.691028 233.210535,362.026186 232.62484,360.873792 L232.331993,360.297595 C231.501123,358.662765 232.153219,356.656304 233.784312,355.826103 C235.422216,354.990788 237.419368,355.647107 238.250238,357.280233 L238.543086,357.85643 C239.375658,359.491261 238.723561,361.497721 237.092468,362.329627 C237.092468,362.329627 237.090766,362.329627 237.090766,362.329627 C236.610632,362.575107 236.096446,362.691028 235.590773,362.691028 Z M240.28655,371.934044 C239.076,371.934044 237.906312,371.270906 237.32232,370.118513 L237.02777,369.537202 C236.624253,368.747914 236.554446,367.84782 236.830268,367.002276 C237.104387,366.158438 237.690082,365.471434 238.480089,365.069119 C240.119695,364.237213 242.11855,364.891828 242.947717,366.524954 L243.240565,367.097741 C244.071435,368.737686 243.417636,370.742442 241.786543,371.572643 C241.304706,371.818123 240.792223,371.934044 240.28655,371.934044 Z M245.712743,379.298454 L245.72977,379.298454 L245.712743,379.298454 Z M244.982327,381.180469 C244.636699,381.180469 244.287665,381.125918 243.948848,381.013406 C243.106059,380.738946 242.421613,380.15252 242.018097,379.359824 L241.726952,378.783627 C240.894379,377.150501 241.546476,375.14404 243.177569,374.312135 C244.815472,373.47682 246.81603,374.131434 247.643494,375.76456 L247.939747,376.345871 C248.341561,377.136863 248.411368,378.036957 248.137249,378.882501 C247.86313,379.728044 247.275732,380.413343 246.485725,380.815658 C246.485725,380.817363 246.484022,380.817363 246.484022,380.817363 C246.010699,381.059434 245.498216,381.180469 244.982327,381.180469 Z" id="Fill-166" fill="#000000"></path>
                    <path d="M194.898069,349.390257 L194.915095,349.390257 L194.898069,349.390257 Z M196.423601,350.133517 L196.41679,350.162497 C196.420196,350.153974 196.423601,350.143745 196.423601,350.133517 Z M196.338471,353.452615 C195.822582,353.452615 195.308396,353.33158 194.835073,353.087804 C194.045065,352.687194 193.457668,351.998485 193.181846,351.154647 C192.907727,350.310808 192.977534,349.409009 193.379348,348.618017 L193.673898,348.038411 C194.079117,347.245714 194.763564,346.657584 195.606352,346.383123 C196.450842,346.110367 197.349816,346.176852 198.141526,346.584281 C198.931534,346.984891 199.518932,347.671895 199.793051,348.517438 C200.06717,349.361277 199.997363,350.263076 199.593846,351.055773 L199.300999,351.63197 C198.900887,352.422962 198.213036,353.011092 197.370248,353.287257 C197.03143,353.398064 196.684099,353.452615 196.338471,353.452615 Z M190.202292,358.631568 L190.219318,358.631568 L190.202292,358.631568 Z M191.727824,359.374828 L191.721013,359.402104 C191.726121,359.39358 191.727824,359.385056 191.727824,359.374828 Z M191.642694,362.693926 C191.125103,362.693926 190.610917,362.571186 190.137593,362.329115 C188.5065,361.500619 187.854404,359.494159 188.685274,357.859328 L188.976419,357.283131 C189.810694,355.646596 191.812954,354.993686 193.444047,355.825592 C195.073437,356.655793 195.727236,358.658844 194.901474,360.293674 L194.603519,360.874985 C194.203407,361.665978 193.515556,362.254107 192.671065,362.528568 C192.33395,362.63767 191.988322,362.693926 191.642694,362.693926 Z M185.504813,367.874584 L185.521839,367.874584 L185.504813,367.874584 Z M187.032047,368.605911 L187.023534,368.646824 C187.030344,368.633186 187.032047,368.619548 187.032047,368.605911 Z M186.941809,371.935237 C186.434433,371.935237 185.923653,371.817611 185.440114,371.572131 C184.650106,371.168111 184.064411,370.482812 183.790292,369.638974 C183.514471,368.79343 183.584277,367.893336 183.987794,367.102344 L184.280642,366.526147 C185.109809,364.893021 187.108664,364.233293 188.744865,365.066903 C189.538277,365.470922 190.123972,366.157926 190.398091,367.00347 C190.673913,367.847308 190.604106,368.747403 190.198887,369.5401 L189.907742,370.114592 C189.322047,371.26869 188.152359,371.935237 186.941809,371.935237 Z M180.809036,377.119304 L180.824359,377.119304 L180.809036,377.119304 Z M182.331162,377.867678 L182.327757,377.88643 C182.329459,377.881316 182.331162,377.874497 182.331162,377.867678 Z M182.246032,381.179958 C181.730143,381.179958 181.21766,381.058922 180.744337,380.816852 C179.954329,380.414537 179.366932,379.727533 179.092813,378.881989 C178.818694,378.039856 178.8885,377.139761 179.288612,376.348769 L179.581459,375.770867 C180.417437,374.130922 182.419697,373.479718 184.05079,374.311623 C185.680181,375.140119 186.33398,377.144875 185.504813,378.779706 L185.210262,379.361017 C184.808448,380.152009 184.1223,380.740139 183.279512,381.016304 C182.940694,381.125407 182.59166,381.179958 182.246032,381.179958 Z" id="Fill-167" fill="#000000"></path>
                    <path d="M213.699906,349.841327 L213.716932,349.841327 L213.699906,349.841327 Z M213.614775,353.167244 C211.784478,353.167244 210.294701,351.675611 210.294701,349.841327 L210.294701,349.193532 C210.294701,347.359248 211.784478,345.867615 213.614775,345.867615 C215.446775,345.867615 216.936552,347.359248 216.936552,349.193532 L216.936552,349.841327 C216.936552,351.675611 215.446775,353.167244 213.614775,353.167244 Z M213.699906,360.211166 L213.716932,360.211166 L213.699906,360.211166 Z M213.614775,363.537083 C211.784478,363.537083 210.294701,362.045449 210.294701,360.211166 L210.294701,359.56337 C210.294701,357.729087 211.784478,356.237453 213.614775,356.237453 C215.446775,356.237453 216.936552,357.729087 216.936552,359.56337 L216.936552,360.211166 C216.936552,362.045449 215.446775,363.537083 213.614775,363.537083 Z M213.699906,370.581004 L213.716932,370.581004 L213.699906,370.581004 Z M213.614775,373.906922 C211.784478,373.906922 210.294701,372.415288 210.294701,370.581004 L210.294701,369.934914 C210.294701,368.10063 211.784478,366.608996 213.614775,366.608996 C215.446775,366.608996 216.936552,368.10063 216.936552,369.934914 L216.936552,370.581004 C216.936552,372.415288 215.446775,373.906922 213.614775,373.906922 Z M213.699906,380.952548 L213.716932,380.952548 L213.699906,380.952548 Z M213.614775,384.278465 C211.784478,384.278465 210.294701,382.786831 210.294701,380.952548 L210.294701,380.304752 C210.294701,378.470469 211.784478,376.978835 213.614775,376.978835 C215.446775,376.978835 216.936552,378.470469 216.936552,380.304752 L216.936552,380.952548 C216.936552,382.786831 215.446775,384.278465 213.614775,384.278465 Z M213.699906,391.322386 L213.716932,391.322386 L213.699906,391.322386 Z M213.614775,394.648304 C211.784478,394.648304 210.294701,393.15667 210.294701,391.322386 L210.294701,390.672886 C210.294701,388.840307 211.784478,387.348674 213.614775,387.348674 C215.446775,387.348674 216.936552,388.840307 216.936552,390.672886 L216.936552,391.322386 C216.936552,393.15667 215.446775,394.648304 213.614775,394.648304 Z" id="Fill-168" fill="#000000"></path>
                    <path d="M203.248141,228.597065 L203.248141,231.176313 L203.248141,228.597065 Z" id="Fill-169" fill="#FFFFFF"></path>
                    <path d="M203.248141,232.796483 C202.35768,232.796483 201.630669,232.071976 201.630669,231.175291 L201.630669,228.597747 C201.630669,227.701062 202.35768,226.976554 203.248141,226.976554 C204.14371,226.976554 204.867316,227.701062 204.867316,228.597747 L204.867316,231.175291 C204.867316,232.071976 204.14371,232.796483 203.248141,232.796483" id="Fill-170" fill="#63246B"></path>
                    <path d="M203.248141,240.767434 L203.248141,243.348387 L203.248141,240.767434 Z" id="Fill-171" fill="#FFFFFF"></path>
                    <path d="M203.248141,244.968386 C202.35768,244.968386 201.630669,244.243878 201.630669,243.347193 L201.630669,240.767945 C201.630669,239.87126 202.35768,239.146752 203.248141,239.146752 C204.14371,239.146752 204.867316,239.87126 204.867316,240.767945 L204.867316,243.347193 C204.867316,244.243878 204.14371,244.968386 203.248141,244.968386" id="Fill-172" fill="#63246B"></path>
                    <path d="M210.620579,235.974431 L208.039434,235.974431 L210.620579,235.974431 Z" id="Fill-173" fill="#FFFFFF"></path>
                    <path d="M210.620579,237.595112 L208.039434,237.595112 C207.145568,237.595112 206.421962,236.870604 206.421962,235.973919 C206.421962,235.078939 207.145568,234.354431 208.039434,234.354431 L210.620579,234.354431 C211.512743,234.354431 212.239754,235.078939 212.239754,235.973919 C212.239754,236.870604 211.512743,237.595112 210.620579,237.595112" id="Fill-174" fill="#63246B"></path>
                    <path d="M198.459572,235.974431 L195.878428,235.974431 L198.459572,235.974431 Z" id="Fill-175" fill="#FFFFFF"></path>
                    <path d="M198.459572,237.595112 L195.878428,237.595112 C194.986264,237.595112 194.260955,236.870604 194.260955,235.973919 C194.260955,235.078939 194.986264,234.354431 195.878428,234.354431 L198.459572,234.354431 C199.351736,234.354431 200.078747,235.078939 200.078747,235.973919 C200.078747,236.870604 199.351736,237.595112 198.459572,237.595112" id="Fill-176" fill="#63246B"></path>
                    <polygon id="Fill-177" fill="#FFFFFF" points="266.146354 301.819411 266.146354 320.276462 160.239387 320.276462 160.239387 301.819411 213.190317 286.004683"></polygon>
                    <path d="M161.941819,318.572079 L264.443581,318.572079 L264.443581,303.089772 L213.191849,287.783051 L161.941819,303.089772 L161.941819,318.572079 Z M266.146184,321.981528 L160.239217,321.981528 C159.297678,321.981528 158.536615,321.219516 158.536615,320.276803 L158.536615,301.819752 C158.536615,301.064559 159.03037,300.401421 159.752273,300.186626 L212.703202,284.371898 C213.023291,284.274728 213.358704,284.274728 213.678793,284.371898 L266.633128,300.186626 C267.355031,300.401421 267.848786,301.064559 267.848786,301.819752 L267.848786,320.276803 C267.848786,321.219516 267.087723,321.981528 266.146184,321.981528 Z" id="Fill-178" fill="#000000"></path>
                    <path d="M277.582393,338.033213 L264.269746,338.033213 L264.269746,294.281461 C266.263493,274.769185 275.592051,274.769185 277.582393,294.281461 L277.582393,338.033213 Z" id="Fill-179" fill="#FFFFFF"></path>
                    <path d="M265.971667,336.328488 L275.879109,336.328488 L275.879109,294.370106 C274.862656,284.535551 272.107845,281.351126 270.926239,281.351126 C269.748039,281.351126 266.991526,284.535551 265.971667,294.370106 L265.971667,336.328488 Z M277.581712,339.737937 L264.269065,339.737937 C263.327526,339.737937 262.566462,338.975925 262.566462,338.033213 L262.566462,294.281461 C262.566462,294.2235 262.569868,294.165539 262.574975,294.107579 C263.608455,283.98663 266.731028,277.941677 270.926239,277.941677 C275.123154,277.941677 278.244024,283.98663 279.275801,294.107579 C279.280909,294.167244 279.284314,294.2235 279.284314,294.281461 L279.284314,338.033213 C279.284314,338.975925 278.523251,339.737937 277.581712,339.737937 Z" id="Fill-180" fill="#333366"></path>
                    <path d="M164.193,338.033213 L150.880353,338.033213 L150.880353,294.281461 C152.8741,274.769185 162.202658,274.769185 164.193,294.281461 L164.193,338.033213 Z" id="Fill-181" fill="#FFFFFF"></path>
                    <path d="M152.582445,336.328488 L162.489887,336.328488 L162.489887,294.370106 C161.473433,284.535551 158.718623,281.351126 157.537017,281.351126 C156.358816,281.351126 153.602303,284.535551 152.582445,294.370106 L152.582445,336.328488 Z M164.192489,339.737937 L150.879842,339.737937 C149.938303,339.737937 149.17724,338.975925 149.17724,338.033213 L149.17724,294.281461 C149.17724,294.2235 149.180645,294.165539 149.185753,294.107579 C150.219233,283.98663 153.341805,277.941677 157.537017,277.941677 C161.733932,277.941677 164.854801,283.98663 165.886578,294.107579 C165.891686,294.167244 165.895091,294.2235 165.895091,294.281461 L165.895091,338.033213 C165.895091,338.975925 165.134028,339.737937 164.192489,339.737937 Z" id="Fill-182" fill="#000000"></path>
                    <path d="M189.083683,327.633371 L181.609259,338.637367 C181.609259,338.637367 184.095058,344.360127 213.994456,344.360127 C240.078322,344.360127 247.111772,338.783973 247.111772,338.783973 L239.637348,326.752028" id="Fill-183" fill="#FFFFFF"></path>
                    <path d="M181.60977,338.637537 L181.626796,338.637537 L181.60977,338.637537 Z M213.994967,346.063317 C184.475249,346.063317 180.53713,340.444545 180.048483,339.316018 C179.815227,338.780734 179.873115,338.163624 180.201717,337.679482 L187.676141,326.673781 C188.203948,325.898132 189.266372,325.693565 190.041056,326.223734 C190.817442,326.752199 191.020052,327.812537 190.492245,328.591596 L183.829963,338.400581 C185.833926,339.70299 192.727762,342.653868 213.994967,342.653868 C233.04368,342.653868 241.696305,339.617754 244.728639,338.175557 L238.190647,327.653998 C237.69519,326.854482 237.940364,325.802667 238.738885,325.304888 C239.534,324.812222 240.587911,325.050884 241.085071,325.852104 L248.557792,337.884049 C249.015792,338.618785 248.847234,339.583659 248.169599,340.120648 C247.86313,340.364423 240.368275,346.063317 213.994967,346.063317 Z" id="Fill-184" fill="#000000"></path>
                    <path d="M182.928775,318.610606 L182.928775,263.58892 C182.928775,246.764995 196.677288,196.025578 213.481972,196.025578 C230.284954,196.025578 244.033467,246.764995 244.033467,263.58892 L244.033467,318.610606 C244.033467,328.953169 230.284954,331.593787 213.481972,331.593787 C196.677288,331.593787 182.928775,327.633712 182.928775,318.610606 Z" id="Fill-185" fill="#6699FF"></path>
                    <path d="M213.481972,197.730473 C198.66082,197.730473 184.631378,245.653685 184.631378,263.589091 L184.631378,318.610776 C184.631378,326.926422 199.535958,329.889233 213.481972,329.889233 C232.893341,329.889233 242.330865,326.200209 242.330865,318.610776 L242.330865,263.589091 C242.330865,245.653685 228.301422,197.730473 213.481972,197.730473 M213.481972,333.298681 C193.284002,333.298681 181.226173,327.807764 181.226173,318.610776 L181.226173,263.589091 C181.226173,247.360115 194.972984,194.321024 213.481972,194.321024 C231.989259,194.321024 245.736069,247.360115 245.736069,263.589091 L245.736069,318.610776 C245.736069,331.774658 227.329236,333.298681 213.481972,333.298681" id="Fill-186" fill="#463464"></path>
                    <path d="M220.924217,338.033213 L207.61157,338.033213 L207.61157,294.281461 C209.605317,274.769185 218.933875,274.769185 220.924217,294.281461 L220.924217,338.033213 Z" id="Fill-187" fill="#FFFFFF"></path>
                    <path d="M209.313662,336.328488 L219.221104,336.328488 L219.221104,294.370106 C218.204651,284.535551 215.44984,281.351126 214.268234,281.351126 C213.090033,281.351126 210.33352,284.535551 209.313662,294.370106 L209.313662,336.328488 Z M220.923706,339.737937 L207.611059,339.737937 C206.66952,339.737937 205.908457,338.975925 205.908457,338.033213 L205.908457,294.281461 C205.908457,294.2235 205.911862,294.165539 205.91697,294.107579 C206.95045,283.98663 210.073022,277.941677 214.268234,277.941677 C218.465149,277.941677 221.586019,283.98663 222.617796,294.107579 C222.622903,294.167244 222.626309,294.2235 222.626309,294.281461 L222.626309,338.033213 C222.626309,338.975925 221.865245,339.737937 220.923706,339.737937 Z" id="Fill-188" fill="#000000"></path>
                    <path d="M190.224256,288.318164 L190.224256,328.350207 L190.224256,288.318164 Z" id="Fill-189" fill="#FFFFFF"></path>
                    <path d="M190.224256,330.055614 C189.282717,330.055614 188.521654,329.293602 188.521654,328.350889 L188.521654,288.318846 C188.521654,287.376133 189.282717,286.614122 190.224256,286.614122 C191.165795,286.614122 191.926858,287.376133 191.926858,288.318846 L191.926858,328.350889 C191.926858,329.293602 191.165795,330.055614 190.224256,330.055614" id="Fill-190" fill="#000000"></path>
                    <path d="M238.091555,288.318164 L238.091555,328.350207 L238.091555,288.318164 Z" id="Fill-191" fill="#FFFFFF"></path>
                    <path d="M238.091555,330.055614 C237.150016,330.055614 236.388953,329.293602 236.388953,328.350889 L236.388953,288.318846 C236.388953,287.376133 237.150016,286.614122 238.091555,286.614122 C239.033094,286.614122 239.794158,287.376133 239.794158,288.318846 L239.794158,328.350889 C239.794158,329.293602 239.033094,330.055614 238.091555,330.055614" id="Fill-192" fill="#000000"></path>
                    <path d="M197.33892,298.749543 L197.33892,329.185693 L197.33892,298.749543 Z" id="Fill-193" fill="#FFFFFF"></path>
                    <path d="M197.33892,330.889735 C196.397381,330.889735 195.636317,330.127724 195.636317,329.185011 L195.636317,298.748861 C195.636317,297.807854 196.397381,297.044137 197.33892,297.044137 C198.280459,297.044137 199.041522,297.807854 199.041522,298.748861 L199.041522,329.185011 C199.041522,330.127724 198.280459,330.889735 197.33892,330.889735" id="Fill-194" fill="#000000"></path>
                    <path d="M231.460771,299.139243 L231.460771,329.575393 L231.460771,299.139243 Z" id="Fill-195" fill="#FFFFFF"></path>
                    <path d="M231.460771,331.279265 C230.519232,331.279265 229.758169,330.517253 229.758169,329.574541 L229.758169,299.138391 C229.758169,298.197383 230.519232,297.433667 231.460771,297.433667 C232.40231,297.433667 233.163373,298.197383 233.163373,299.138391 L233.163373,329.574541 C233.163373,330.517253 232.40231,331.279265 231.460771,331.279265" id="Fill-196" fill="#000000"></path>
                    <path d="M212.544349,202.565924 C211.132892,206.14755 204.754944,214.132479 202.287874,221.524164" id="Fill-197" fill="#FFFFFF"></path>
                    <path d="M202.287022,223.229911 C202.109952,223.229911 201.926071,223.200931 201.747297,223.141265 C200.855134,222.842939 200.375,221.878065 200.672955,220.984789 C202.258078,216.228608 205.32787,211.349687 207.793238,207.430525 C209.233639,205.14108 210.478242,203.1636 210.960078,201.939608 C211.305706,201.065084 212.288108,200.637198 213.170056,200.979848 C214.043491,201.325907 214.472546,202.316352 214.128621,203.19258 C213.529305,204.71149 212.269379,206.714541 210.675743,209.247761 C208.307424,213.013498 205.360219,217.69808 203.901089,222.06388 C203.664428,222.778159 203.000413,223.229911 202.287022,223.229911" id="Fill-198" fill="#000000"></path>
                    <path d="M229.748294,236.031028 L213.36245,245.251882 L196.954472,236.024209 L196.954472,228.970059 L213.343721,236.992492 L229.748294,228.96324 L229.748294,236.031028 Z M229.746591,257.14063 L213.359045,269.014035 L196.954472,257.130402 L196.954472,250.076252 L213.345424,260.795559 L229.746591,250.072843 L229.746591,257.14063 Z M196.954472,239.329669 L213.343721,248.886354 L224.85161,242.176559 L224.85161,249.607453 L213.357342,257.133811 L196.954472,246.387228 L196.954472,239.329669 Z" id="Fill-199" fill="#FFFFFF"></path>
                    <path d="M213.348999,236.989935 L213.348999,245.244211 L213.36262,245.25103 L229.748464,236.03188 L229.748464,228.964093 L213.348999,236.989935 Z M213.348999,248.882093 L213.348999,257.127844 L213.357512,257.132959 L224.85178,249.608305 L224.85178,242.177411 L213.348999,248.882093 Z M213.348999,260.793002 L213.348999,269.006364 L213.359215,269.013183 L229.746761,257.139778 L229.746761,250.073695 L213.348999,260.793002 Z" id="Fill-200" fill="#E0EBFF"></path>
                    <polygon id="Fill-202" fill="#FFFFFF" points="196.955323 255.267138 203.394565 255.267138 203.394565 232.756252 196.955323 232.756252"></polygon>
                    <path d="M83.6170089,266.77113 C86.9047338,266.77113 86.9098416,261.656956 83.6170089,261.656956 C80.329284,261.656956 80.3241762,266.77113 83.6170089,266.77113" id="Fill-203" fill="#000000"></path>
                    <path d="M315.737879,235.518246 C319.025604,235.518246 319.030712,230.404073 315.737879,230.404073 C312.451857,230.404073 312.445046,235.518246 315.737879,235.518246" id="Fill-204" fill="#000000"></path>
                    <path d="M429.812228,348.030057 C433.099953,348.030057 433.105061,342.915884 429.812228,342.915884 C426.526206,342.915884 426.519396,348.030057 429.812228,348.030057" id="Fill-205" fill="#000000"></path>
                    <path d="M292.470117,114.482984 C295.756139,114.482984 295.762949,109.368811 292.470117,109.368811 C289.182392,109.368811 289.177284,114.482984 292.470117,114.482984" id="Fill-206" fill="#000000"></path>
                    <path d="M408.247068,46.2940075 C411.533091,46.2940075 411.539901,41.1798343 408.247068,41.1798343 C404.959343,41.1798343 404.954236,46.2940075 408.247068,46.2940075" id="Fill-207" fill="#000000"></path>
                    <path d="M129.020303,15.6089681 C132.306325,15.6089681 132.313135,10.4947949 129.020303,10.4947949 C125.732578,10.4947949 125.72747,15.6089681 129.020303,15.6089681" id="Fill-208" fill="#000000"></path>
                    <path d="M443.687415,241.455802 L372.237712,241.455802 C370.358039,241.455802 368.832508,239.928369 368.832508,238.046353 L368.832508,189.843565 C368.832508,187.96155 370.358039,186.434117 372.237712,186.434117 L443.687415,186.434117 C445.567088,186.434117 447.092619,187.96155 447.092619,189.843565 L447.092619,238.046353 C447.092619,239.928369 445.567088,241.455802 443.687415,241.455802" id="Fill-209" fill="#0B0045"></path>
                    <path d="M442.86608,243.571706 L373.059388,243.571706 C369.562243,243.571706 366.717195,240.724816 366.717195,237.223312 L366.717195,190.665583 C366.717195,187.165784 369.562243,184.31719 373.059388,184.31719 L442.86608,184.31719 C446.363225,184.31719 449.208273,187.165784 449.208273,190.665583 L449.208273,237.223312 C449.208273,240.724816 446.363225,243.571706 442.86608,243.571706" id="Fill-210" fill="#000000"></path>
                    <path d="M373.059388,186.022255 C370.50208,186.022255 368.419797,188.105428 368.419797,190.665924 L368.419797,237.223653 C368.419797,239.784149 370.50208,241.867322 373.059388,241.867322 L442.86608,241.867322 C445.423388,241.867322 447.505671,239.784149 447.505671,237.223653 L447.505671,190.665924 C447.505671,188.105428 445.423388,186.022255 442.86608,186.022255 L373.059388,186.022255 Z M442.86608,245.276771 L373.059388,245.276771 C368.624109,245.276771 365.014593,241.66446 365.014593,237.223653 L365.014593,190.665924 C365.014593,186.225117 368.624109,182.612806 373.059388,182.612806 L442.86608,182.612806 C447.301358,182.612806 450.910875,186.225117 450.910875,190.665924 L450.910875,237.223653 C450.910875,241.66446 447.301358,245.276771 442.86608,245.276771 Z" id="Fill-211" fill="#000000"></path>
                    <path d="M447.092619,199.131415 L368.832508,199.131415 L368.832508,189.844077 C368.832508,187.960356 370.358039,186.434628 372.237712,186.434628 L443.687415,186.434628 C445.567088,186.434628 447.092619,187.960356 447.092619,189.844077 L447.092619,199.131415 Z" id="Fill-212" fill="#D2E2EC"></path>
                    <path d="M447.092619,197.999478 L368.832508,197.999478 C367.666225,197.999478 366.717876,197.053356 366.717876,195.883915 L366.717876,190.665754 C366.717876,187.165955 369.562924,184.31736 373.060069,184.31736 L442.866761,184.31736 C446.362203,184.31736 449.207251,187.165955 449.207251,190.665754 L449.207251,195.883915 C449.207251,197.053356 448.260604,197.999478 447.092619,197.999478" id="Fill-213" fill="#FFFFFF"></path>
                    <path d="M373.059388,186.022255 C370.50208,186.022255 368.419797,188.105428 368.419797,190.665924 L368.419797,195.884086 C368.419797,196.109109 368.605381,196.294924 368.833529,196.294924 L447.091938,196.294924 C447.320087,196.294924 447.505671,196.109109 447.505671,195.884086 L447.505671,190.665924 C447.505671,188.105428 445.423388,186.022255 442.86608,186.022255 L373.059388,186.022255 Z M447.091938,199.704373 L368.833529,199.704373 C366.72741,199.704373 365.014593,197.991125 365.014593,195.884086 L365.014593,190.665924 C365.014593,186.225117 368.624109,182.612806 373.059388,182.612806 L442.86608,182.612806 C447.301358,182.612806 450.910875,186.225117 450.910875,190.665924 L450.910875,195.884086 C450.910875,197.991125 449.198057,199.704373 447.091938,199.704373 Z" id="Fill-214" fill="#000000"></path>
                    <polygon id="Fill-215" fill="#FFFFFF" points="389.011409 218.622552 400.759364 213.390753 400.759364 216.10297 392.285513 219.601064 392.285513 219.650501 400.759364 223.145186 400.759364 225.860812 389.011409 220.629013"></polygon>
                    <polygon id="Fill-216" fill="#FFFFFF" points="408.837361 208.37767 411.496825 208.37767 405.272112 227.64617 402.633078 227.64617"></polygon>
                    <polygon id="Fill-217" fill="#FFFFFF" points="413.203684 223.145698 421.679238 219.649308 421.679238 219.601576 413.203684 216.103481 413.203684 213.38956 424.949937 218.623064 424.949937 220.62782 413.203684 225.861324"></polygon>
                    <path d="M432.994732,192.463215 C432.412442,193.046231 431.469201,193.046231 430.888613,192.463215 C430.306323,191.8802 430.306323,190.935782 430.888613,190.354471 C431.469201,189.771456 432.412442,189.771456 432.994732,190.354471 C433.577022,190.935782 433.577022,191.8802 432.994732,192.463215" id="Fill-218" fill="#463464"></path>
                    <path d="M437.773256,192.463215 C437.190966,193.046231 436.247724,193.046231 435.667137,192.463215 C435.084847,191.8802 435.084847,190.935782 435.667137,190.354471 C436.247724,189.771456 437.190966,189.771456 437.773256,190.354471 C438.355546,190.935782 438.355546,191.8802 437.773256,192.463215" id="Fill-219" fill="#463464"></path>
                    <path d="M442.553482,192.463215 C441.971192,193.046231 441.02795,193.046231 440.447363,192.463215 C439.865073,191.8802 439.865073,190.935782 440.447363,190.354471 C441.02795,189.771456 441.971192,189.771456 442.553482,190.354471 C443.135772,190.935782 443.135772,191.8802 442.553482,192.463215" id="Fill-220" fill="#463464"></path>
                </g>
            </g>
            <g id="Page-1" transform="translate(0.000000, 110.000000)">
                <g id="Group-3" transform="translate(0.000000, 11.000000)">
                    <mask id="mask-6" fill="white">
                        <use xlink:href="#path-5"></use>
                    </mask>
                    <g id="Clip-2"></g>
                    <path d="M76.8183493,18.91745 C69.7357577,-8.55055 33.6778423,-4.16755 32.310293,22.84745 C23.618293,12.75695 3.51412394,12.43145 -0.000298591549,31.83245 L105.962377,31.83245 C106.876068,14.67245 90.8670817,8.41295 76.8183493,18.91745" id="Fill-1" fill="#B7F3DA" mask="url(#mask-6)"></path>
                </g>
                <path d="M131.078687,62.9799909 C125.999847,43.7957114 100.146767,46.8567246 99.1681254,65.7240849 C92.933923,58.6756791 78.5201147,58.4501789 76,72 L151.973215,72 C152.628118,60.0149676 141.150236,55.6436153 131.078687,62.9799909" id="Fill-4" fill="#B7F3DA"></path>
                <path d="M223,55 C223,71.5689689 209.568969,85 193,85 C176.432524,85 163,71.5689689 163,55 C163,38.4310311 176.432524,25 193,25 C209.568969,25 223,38.4310311 223,55" id="Fill-6" fill="#FA62B4"></path>
                <path d="M192.500747,25.9864189 C176.777996,25.9864189 163.986277,38.7772511 163.986277,54.5007466 C163.986277,70.2227489 176.777996,83.0135811 192.500747,83.0135811 C208.222004,83.0135811 221.013723,70.2227489 221.013723,54.5007466 C221.013723,38.7772511 208.222004,25.9864189 192.500747,25.9864189 M192.500747,86 C175.131064,86 161,71.869759 161,54.5007466 C161,37.130241 175.131064,23 192.500747,23 C209.868936,23 224,37.130241 224,54.5007466 C224,71.869759 209.868936,86 192.500747,86" id="Fill-8" fill="#000000"></path>
                <g id="Group-12" transform="translate(152.000000, 28.000000)" fill="#F9B5FF">
                    <path d="M73.2677037,54.9302838 C70.4395556,54.9302838 66.6943704,54.1156892 62.0528889,52.4879865 C53.7462222,49.574473 43.5832593,44.3673108 33.4351111,37.8267703 C14.1121481,25.3715 -3.18414815,9.22974324 1.13733333,2.47812162 C3.1477037,-0.658364865 8.81585185,-0.619716216 17.9862222,2.59555405 C18.7580741,2.86758108 19.164,3.71487838 18.8958519,4.48933784 C18.6247407,5.26528378 17.7817778,5.67406757 17.006963,5.40204054 C8.43066667,2.39487838 4.44103704,2.81406757 3.63066667,4.08501351 C1.54918519,7.33447297 12.4914074,20.7916351 35.0351111,35.3250135 C44.9951111,41.7436622 54.9358519,46.8423108 63.0306667,49.6815 C71.6054815,52.6886622 75.5936296,52.2679865 76.406963,50.998527 C77.3091852,49.5923108 75.4677037,45.3350135 69.3225185,38.9951486 C68.7521481,38.4065 68.7654815,37.4640676 69.3506667,36.8932568 C69.9373333,36.319473 70.8751111,36.3328514 71.446963,36.9215 C78.4380741,44.1354189 80.9462222,49.4124459 78.9002963,52.6069054 C77.9091852,54.1558243 76.0232593,54.9302838 73.2677037,54.9302838" id="Fill-10"></path>
                </g>
                <path d="M203,70.5 C203,74.0900642 200.090398,77 196.500746,77 C192.909602,77 190,74.0900642 190,70.5 C190,66.9099358 192.909602,64 196.500746,64 C200.090398,64 203,66.9099358 203,70.5" id="Fill-13" fill="#FFFFFF"></path>
                <path d="M196,64.9861889 C193.234789,64.9861889 190.986189,67.2347891 190.986189,70 C190.986189,72.7637178 193.234789,75.0138111 196,75.0138111 C198.765211,75.0138111 201.013811,72.7637178 201.013811,70 C201.013811,67.2347891 198.765211,64.9861889 196,64.9861889 M196,78 C191.587906,78 188,74.410601 188,70 C188,65.5879059 191.587906,62 196,62 C200.412094,62 204,65.5879059 204,70 C204,74.410601 200.412094,78 196,78" id="Fill-15" fill="#F9B5FF"></path>
                <path d="M209,7.5 C209,11.0900642 206.090398,14 202.500746,14 C198.909602,14 196,11.0900642 196,7.5 C196,3.90993575 198.909602,1 202.500746,1 C206.090398,1 209,3.90993575 209,7.5" id="Fill-17" fill="#00A4D6"></path>
                <path d="M203,2.98618888 C200.234789,2.98618888 197.986189,5.2347891 197.986189,8 C197.986189,10.7652109 200.234789,13.0138111 203,13.0138111 C205.765211,13.0138111 208.013811,10.7652109 208.013811,8 C208.013811,5.2347891 205.765211,2.98618888 203,2.98618888 M203,16 C198.587906,16 195,12.4120941 195,8 C195,3.58939903 198.587906,0 203,0 C207.412094,0 211,3.58939903 211,8 C211,12.4120941 207.412094,16 203,16" id="Fill-19" fill="#000000"></path>
                <path d="M179.498212,46 C179.169698,46 178.839684,45.8919973 178.562172,45.6714918 L168.562749,37.6717917 C167.916221,37.1542787 167.811217,36.2107551 168.328739,35.5627389 C168.846261,34.9162228 169.789801,34.8112201 170.437828,35.3287331 L180.437251,43.3284332 C181.083779,43.8459461 181.188783,44.7894697 180.671261,45.4374859 C180.374249,45.8079952 179.93923,46 179.498212,46" id="Fill-21" fill="#000000"></path>
                <path d="M206.499288,43 C205.972275,43 205.463279,42.7301535 205.18701,42.2531817 C197.046088,28.1015574 184.138027,27.8375455 181.63359,27.9250632 C180.921897,27.9629876 180.141137,27.4553845 180,26.7523251 L181.471432,26.4693509 L181.465426,25.01218 C184.315199,24.9027827 198.813308,25.19305 207.808562,40.8295592 C208.213956,41.5326186 207.954203,42.4223827 207.230499,42.814754 C206.997773,42.9401962 206.747029,43 206.499288,43" id="Fill-23" fill="#000000"></path>
                <path d="M199.500298,50 C199.053056,50 198.610316,49.8052851 198.314656,49.4348876 C186.182091,34.2207745 177.169715,33.0129566 175.485804,32.9265793 C174.774419,32.8885148 174.105057,32.3614669 174,31.6733768 L176.968606,31.2473465 L175.484303,31.4567016 L175.611872,30 C178.332844,30.1420101 188.076116,31.825635 200.682937,47.637069 C201.193214,48.2753825 201.074649,49.1947881 200.420295,49.6925554 C200.147148,49.8989825 199.821471,50 199.500298,50" id="Fill-25" fill="#000000"></path>
                <path d="M5.5517617,42.0168021 L109.02715,42.0168021 C109.039007,34.5423997 106.206815,28.8608993 101.137118,26.3057903 C95.6065384,23.5194835 88.4807143,25.0140656 82.0670265,30.3062587 L80.2220134,31.8291813 L79.6749024,29.4948289 C76.0428581,13.9523678 65.2478218,9.31946146 57.114005,10.0712273 C47.9885495,10.9184555 38.4720879,18.5181522 37.7807655,33.5907596 L37.5964129,37.6076356 L35.1254929,34.440971 C30.8734885,28.9966348 23.5543914,26.3132483 17.3191095,27.9122424 C11.3648166,29.4426229 7.22877602,34.4215802 5.5517617,42.0168021 Z M111.892012,45 L2,45 L2.28544925,43.2652704 C3.87177396,33.5982176 9.08270939,26.9486695 16.5831857,25.0230152 C22.9834929,23.37629 30.0780961,25.3914402 35.1418467,30.0765525 C36.766826,19.2848341 43.836155,8.30666577 56.8404495,7.10145382 C69.8938056,5.89027547 78.6773167,15.7094714 81.9807971,26.6160429 C88.8672601,21.7056992 96.4004441,20.579542 102.470701,23.640303 C108.955751,26.9069047 112.413849,34.1754664 111.960401,43.5799978 L111.892012,45 Z" id="Fill-27" fill="#000000"></path>
                <path d="M79.4027924,72.3442309 L158.771595,72.3442309 C158.912865,72.3442309 159.025882,72.2295232 159.025882,72.0894905 C159.025882,71.9494577 158.912865,71.8362398 158.771595,71.8362398 L148.06477,71.8362398 L148.015697,70.3986694 C147.901193,67.1138584 146.946501,64.2893678 145.257202,62.232078 C144.385786,61.1699146 143.338896,60.3312078 142.144788,59.7383031 C140.964063,59.1513573 139.662886,58.8206416 138.279921,58.7536047 C135.726641,58.6299587 132.957737,59.4418508 130.344974,61.1088365 L128.747873,62.1263086 L128.138178,60.3312078 C126.497952,55.5000776 123.555062,51.9992586 119.629227,50.2071372 C117.449198,49.2105211 115.03124,48.8082993 112.656407,49.0451632 C110.284548,49.2805374 107.981093,50.1371208 105.995869,51.5210616 C103.618062,53.1805988 100.544311,56.371558 99.3963012,62.1620616 L98.9353129,64.4979272 L97.0393126,63.0588672 C95.3202724,61.7509016 93.3157168,60.8794211 91.2457306,60.5382775 C89.7214951,60.2850268 88.2225396,60.3252489 86.7875276,60.6559646 C85.2737015,61.0045568 83.8892495,61.6674778 82.668374,62.6253615 C80.1091454,64.6320012 78.3945663,67.8929768 77.7090321,72.0522477 C77.6926745,72.1654657 77.7997427,72.3174162 77.9157333,72.3352927 L79.4027924,72.3442309 Z M158.771595,75.3236514 L76.4688249,75.3236514 L76.4688249,74.9556929 C76.0256813,74.7262776 75.64202,74.3940722 75.3416341,73.9769533 C74.8390082,73.2767895 74.6367681,72.4231856 74.7750646,71.5710713 C75.5840247,66.6594968 77.6778039,62.7549663 80.8348302,60.2790679 C82.4007034,59.050057 84.179226,58.1994325 86.1228122,57.7525194 C87.931076,57.3354006 89.8166669,57.2832607 91.7275377,57.5990793 C93.5655427,57.9014904 95.3574489,58.5405761 97.0021362,59.4746244 C98.3047999,55.1246706 100.846184,51.4838188 104.296161,49.0764471 C106.696274,47.4020129 109.485997,46.3666643 112.363456,46.0806399 C115.270657,45.7916361 118.206111,46.2832405 120.863486,47.4943749 C125.007919,49.3877966 128.316626,52.9720393 130.313746,57.6899516 C132.980043,56.3060108 135.756382,55.6475589 138.422679,55.7771637 C140.217559,55.8635669 141.914293,56.2985622 143.465296,57.0687424 C145.040092,57.8493506 146.414134,58.9502464 147.554708,60.340146 C149.401636,62.5910982 150.54221,65.5139096 150.887208,68.8568193 L158.771595,68.8568193 C160.551604,68.8568193 162,70.3063074 162,72.0894905 C162,73.8726736 160.551604,75.3236514 158.771595,75.3236514 Z M130.529369,86.7467493 L139.407112,86.7467493 L139.407112,83.7673288 L130.529369,83.7673288 L130.529369,86.7467493 Z M38.9741181,87 L36,87 C36,85.2183066 37.4469085,83.7673288 39.2269181,83.7673288 L49.9619974,83.7673288 C51.3865999,80.3901558 53.6275979,77.7027186 56.4901866,75.9537988 C58.8129728,74.5311255 61.4420932,73.8041469 64.132183,73.8413897 C66.8282211,73.8816119 69.4409838,74.6964834 71.6894171,76.1951318 C74.3229987,77.9529899 76.346886,80.5570033 77.5885803,83.7673288 L121.844945,83.7673288 L121.844945,86.7467493 L75.4561377,86.7467493 L75.1245235,85.7143801 C74.1445516,82.6753713 72.3868478,80.2411848 70.0402686,78.6754993 C68.2691813,77.4941591 66.2110916,76.852094 64.0890583,76.8208101 C61.9982533,76.7895262 59.8821683,77.3690235 58.0397021,78.4967341 C55.4879088,80.0564607 53.529452,82.5696018 52.3740072,85.7635405 L52.0186,86.7467493 L39.2269181,86.7467493 C39.0886216,86.7467493 38.9741181,86.861457 38.9741181,87 Z" id="Fill-29" fill="#000000"></path>
                <path d="M53,29 C55.6645964,29 55.6687361,25 53,25 C50.3354036,25 50.3312639,29 53,29" id="Fill-31" fill="#000000"></path>
            </g>
        </g>
    </g>
</svg>