<?xml version="1.0" encoding="UTF-8"?>
<svg width="49px" height="66px" viewBox="0 0 49 66" version="1.1" xmlns="http://www.w3.org/2000/svg" xmlns:xlink="http://www.w3.org/1999/xlink">
    <!-- Generator: Sketch 48.1 (47250) - http://www.bohemiancoding.com/sketch -->
    <title>Page 1 Copy 3threestarts</title>
    <desc>Created with Sketch.</desc>
    <defs>
        <polygon id="path-1" points="0.328687173 0.75 4.6755 0.75 4.6755 5.25 0.328687173 5.25"></polygon>
    </defs>
    <g id="Enact---Home-Page-Copy" stroke="none" stroke-width="1" fill="none" fill-rule="evenodd" transform="translate(-888.000000, -258.000000)">
        <g id="Page-1-Copy-3" transform="translate(888.000000, 258.000000)">
            <path d="M4.5,66 C4.225,66 4,65.6785714 4,65.2857143 L4,56.7142857 C4,56.3214286 4.225,56 4.5,56 C4.775,56 5,56.3214286 5,56.7142857 L5,65.2857143 C5,65.6785714 4.775,66 4.5,66" id="Fill-1" fill="#FEA200"></path>
            <path d="M0.116814905,63.7037442 C-0.0916778684,63.3936128 -0.0136612177,62.9659868 0.291679812,62.7542231 L6.94730719,58.1186475 C7.25264822,57.9068839 7.67366911,57.9861245 7.88216188,58.2962558 C8.09199977,58.6063872 8.01398312,59.0340132 7.70864209,59.2457769 L1.0516696,63.8813525 C0.746328569,64.0931161 0.326652793,64.0138755 0.116814905,63.7037442" id="Fill-3" fill="#FEA200"></path>
            <path d="M0.0774981908,58.3626132 C0.25644866,58.0350543 0.686781932,57.9053677 1.03332094,58.0738266 L8.61457178,61.7371378 C8.96111078,61.9055966 9.10029448,62.3107 8.92276425,62.6369219 C8.74381378,62.9644807 8.31348051,63.0941673 7.96552126,62.9270454 L0.385690666,59.2623973 C0.0377314198,59.0939384 -0.100032037,58.690172 0.0774981908,58.3626132" id="Fill-5" fill="#FEA200"></path>
            <path d="M19.0002586,4 C21.6638196,4 21.6693399,0 19.0002586,0 C16.3353176,0 16.3311774,4 19.0002586,4" id="Fill-7" fill="#000000"></path>
            <g id="Group-11" transform="translate(44.000000, 45.000000)">
                <mask id="mask-2" fill="white">
                    <use xlink:href="#path-1"></use>
                </mask>
                <g id="Clip-10"></g>
                <path d="M2.50275,5.25 C5.39925,5.25 5.40375,0.75 2.50275,0.75 C-0.39375,0.75 -0.39825,5.25 2.50275,5.25" id="Fill-9" fill="#000000" mask="url(#mask-2)"></path>
            </g>
        </g>
    </g>
</svg>