<?xml version="1.0" encoding="utf-8"?>
<!-- Generator: Adobe Illustrator 22.1.0, SVG Export Plug-In . SVG Version: 6.00 Build 0)  -->
<svg version="1.1" id="stars" xmlns="http://www.w3.org/2000/svg" xmlns:xlink="http://www.w3.org/1999/xlink" x="0px" y="0px"
	 viewBox="0 0 49 66" style="enable-background:new 0 0 49 66;" xml:space="preserve">
<style type="text/css">
	.st0{fill:#FEA200;}
</style>
<path class="st0" d="M8.6,62.2l-3.1-1.5l2.2-1.5C8,59,8.1,58.6,7.9,58.3c-0.2-0.3-0.6-0.4-0.9-0.2l-2.1,1.5v-2.9
	c0-0.4-0.3-0.7-0.7-0.7c-0.4,0-0.7,0.3-0.7,0.7v3L1,58.6c-0.3-0.2-0.8,0-1,0.3c-0.2,0.3,0,0.7,0.3,0.9L2.9,61l-2.6,1.8
	C0,63-0.1,63.4,0.1,63.7c0.2,0.3,0.6,0.4,0.9,0.2l2.4-1.7v3.1c0,0.4,0.3,0.7,0.7,0.7c0.4,0,0.7-0.3,0.7-0.7v-3.4L8,63.4
	c0.3,0.2,0.8,0,1-0.3C9.1,62.8,9,62.4,8.6,62.2z"/>
<circle cx="19" cy="2.5" r="2"/>
<circle cx="46.5" cy="48" r="2.2"/>
</svg>
