<?xml version="1.0" encoding="utf-8"?>
<!-- Generator: Adobe Illustrator 22.1.0, SVG Export Plug-In . SVG Version: 6.00 Build 0)  -->
<svg version="1.1" id="flying-saucer" xmlns="http://www.w3.org/2000/svg" xmlns:xlink="http://www.w3.org/1999/xlink" x="0px"
	 y="0px" viewBox="0 0 97 85" style="enable-background:new 0 0 97 85;" xml:space="preserve">
<style type="text/css">
	.st0{fill:#F7F7F7;}
	.st1{fill:#00FFFB;}
</style>
<g id="woowoo3">
	<path d="M65.1,48.2l-0.2-0.5c-0.4-0.8-1-1.3-1.8-1.6c-0.8-0.3-1.6-0.2-2.4,0.1c-1.5,0.7-2.2,2.6-1.4,4.2l0.2,0.5
		c0.5,1.1,1.6,1.8,2.8,1.8c0.4,0,0.9-0.1,1.3-0.3C65.2,51.6,65.8,49.8,65.1,48.2z"/>
	<path d="M68.7,58c0.3-0.8,0.2-1.6-0.1-2.4l-0.2-0.5c-0.7-1.5-2.6-2.2-4.1-1.5c-0.7,0.4-1.3,1-1.6,1.8c-0.3,0.8-0.2,1.6,0.1,2.4
		l0.2,0.5c0.5,1.1,1.6,1.8,2.8,1.8c0.4,0,0.9-0.1,1.3-0.3C67.9,59.5,68.5,58.8,68.7,58z"/>
	<path d="M72.2,63.1l-0.2-0.5c-0.4-0.8-1-1.3-1.8-1.6c-0.8-0.3-1.6-0.2-2.4,0.1c-0.7,0.4-1.3,1-1.6,1.8c-0.3,0.8-0.2,1.6,0.1,2.4
		l0.2,0.5c0.4,0.8,1,1.3,1.8,1.6c0.3,0.1,0.7,0.2,1,0.2c0.5,0,0.9-0.1,1.3-0.3C72.2,66.5,72.9,64.6,72.2,63.1z"/>
	<path d="M75.7,70.5l-0.2-0.5c-0.4-0.8-1-1.3-1.8-1.6c-0.8-0.3-1.6-0.2-2.4,0.1c-1.5,0.7-2.2,2.6-1.4,4.2l0.2,0.5
		c0.4,0.8,1,1.3,1.8,1.6c0.3,0.1,0.7,0.2,1,0.2c0.5,0,0.9-0.1,1.3-0.3c0.7-0.4,1.3-1,1.6-1.8C76.1,72.1,76.1,71.3,75.7,70.5z"/>
</g>
<g id="woowoo2">
	<path d="M24.8,67.6c-1.5-0.8-3.4-0.2-4.2,1.3l-0.2,0.5c-0.4,0.7-0.5,1.6-0.2,2.4c0.2,0.8,0.8,1.5,1.5,1.9c0.5,0.3,1,0.4,1.5,0.4
		c1.1,0,2.2-0.6,2.7-1.7l0.2-0.5c0.4-0.7,0.5-1.6,0.2-2.4C26,68.6,25.5,68,24.8,67.6z"/>
	<path d="M37.9,47.3c-0.2-0.8-0.8-1.5-1.5-1.9c-0.7-0.4-1.6-0.5-2.3-0.2c-0.8,0.2-1.4,0.8-1.8,1.5l-0.2,0.5c0,0,0,0,0,0
		c-0.8,1.5-0.2,3.5,1.3,4.3c0.5,0.3,1,0.4,1.5,0.4c1.1,0,2.2-0.6,2.7-1.7l0.2-0.5C38,48.9,38.1,48.1,37.9,47.3z"/>
	<path d="M32.5,52.8c-1.5-0.8-3.4-0.2-4.2,1.3l-0.2,0.5l0,0c-0.8,1.5-0.2,3.5,1.3,4.3c0.5,0.3,1,0.4,1.5,0.4c0.3,0,0.6,0,0.9-0.1
		c0.8-0.2,1.4-0.8,1.8-1.5l0.2-0.5C34.6,55.5,34,53.6,32.5,52.8z"/>
	<path d="M28.6,60.2c-1.5-0.8-3.4-0.2-4.2,1.3l-0.2,0.5c-0.4,0.7-0.5,1.6-0.2,2.4c0.2,0.8,0.8,1.5,1.5,1.9c0.5,0.3,1,0.4,1.5,0.4
		c1.1,0,2.2-0.6,2.7-1.7l0.2-0.5C30.7,62.9,30.1,61,28.6,60.2z"/>
</g>
<g id="woowoo1">
	<path d="M48.9,45c-0.9,0-1.6,0.3-2.2,0.9c-0.6,0.6-0.9,1.4-1,2.2l0,0.5c0,0.8,0.3,1.6,0.9,2.2c0.6,0.6,1.4,1,2.2,1h0.1
		c0.8,0,1.6-0.3,2.2-0.9c0.6-0.6,0.9-1.4,1-2.2l0-0.5C52,46.5,50.7,45,48.9,45z"/>
	<path d="M48.2,78.2c-0.8,0-1.6,0.3-2.2,0.9c-0.6,0.6-0.9,1.4-1,2.2l0,0.5c0,1.7,1.3,3.2,3.1,3.2h0.1c1.7,0,3.1-1.4,3.1-3.1l0-0.5
		c0-0.8-0.3-1.6-0.9-2.2C49.8,78.6,49.1,78.2,48.2,78.2z"/>
	<path d="M48.8,53.3c-1.7,0-3.2,1.3-3.2,3.1l0,0.5c0,0.8,0.3,1.6,0.9,2.2c0.6,0.6,1.4,0.9,2.2,1h0h0.1c1.7,0,3.1-1.4,3.1-3.1l0-0.5
		C51.9,54.8,50.5,53.3,48.8,53.3z"/>
	<path d="M48.6,61.6c-1.8,0-3.2,1.3-3.2,3.1l0,0.5c0,0.8,0.3,1.6,0.9,2.2c0.6,0.6,1.4,1,2.2,1h0.1c1.7,0,3.1-1.4,3.1-3.1l0-0.5
		c0-0.8-0.3-1.6-0.9-2.2C50.2,62,49.4,61.6,48.6,61.6z"/>
	<path d="M48.4,69.9c-1.8,0-3.2,1.3-3.2,3.1l0,0.5c0,0.8,0.3,1.6,0.9,2.2c0.6,0.6,1.4,1,2.2,1h0.1c1.7,0,3.1-1.4,3.1-3.1l0-0.5
		c0-0.8-0.3-1.6-0.9-2.2C50,70.3,49.2,69.9,48.4,69.9z"/>
</g>
<g id="saucer" transform="translate(0.000000, 18.000000)">
	<path class="st0" d="M48.6,1C22.9,0.9,2,7,2,14.7C2,22.5,22.7,28.8,48.4,29C74.1,29.1,95,23,95,15.3C95,7.5,74.3,1.2,48.6,1z"/>
	<path d="M48.3-0.8C35.7-0.9,23.9,0.5,15,3.2C5.2,6,0,10,0,14.6c-0.1,10.2,24.8,15.9,48.1,16c0.3,0,0.6,0,0.8,0
		c23.1,0,47.4-5.4,47.5-15.4v0C96.5,5,71.7-0.7,48.3-0.8z M80.5,23.2c-8.6,2.5-20,3.8-32.3,3.8C20.5,26.8,3.6,19.7,3.7,14.7
		c0-2.1,3.3-5.3,12.3-8c8.4-2.5,19.5-3.8,31.4-3.8c0.3,0,0.6,0,0.9,0C75.9,3,92.8,10.1,92.8,15.2C92.8,17.3,89.5,20.5,80.5,23.2z"/>
</g>
<g id="dome">
	<path id="Fill-12" class="st1" d="M72,24.7C71.9,37.2,24.9,37,25,24.5C25.1,12,35.6,1.9,48.6,2C61.6,2.1,72.1,12.3,72,24.7"/>
	<path d="M66.3,7.3C61.6,2.6,55.2,0,48.4,0h-0.1C34.4,0,23,11,22.9,24.5c0,2,0.8,4.8,4.9,7.2c4.7,2.8,12.8,4.2,20.8,4.2
		c7.8,0,15.5-1.3,20.1-4c4.1-2.3,4.9-5.2,4.9-7.1C73.7,18.2,71.1,12,66.3,7.3z M66.9,28.7c-8.4,4.8-28.9,4.7-37.3-0.2
		c-2-1.2-3.1-2.5-3.1-4c0-1.3,0.2-2.6,0.4-3.9l11.5,4.2c0.2,0.1,0.4,0.1,0.7,0.1c0.7,0,1.4-0.4,1.7-1.1c0.4-0.9-0.1-1.9-1-2.2
		L28,17.3c0.5-1.3,1.1-2.5,1.8-3.6c2.4-0.3,9.5-0.4,21.3,8c0.3,0.2,0.7,0.3,1,0.3c0.6,0,1.1-0.3,1.5-0.8c0.6-0.8,0.4-1.9-0.4-2.5
		C43.9,12.2,37,10.4,32.8,10c0.5-0.5,1.1-1,1.6-1.5c2.1-0.7,12.4-3.5,22.5,5.9c0.4,0.3,0.8,0.5,1.3,0.5c0.5,0,1-0.2,1.3-0.6
		c0.7-0.7,0.7-1.9-0.1-2.6c-5.5-5.1-11.1-7.1-15.7-7.7c1.5-0.3,3-0.5,4.6-0.5h0.1c5.8,0,11.3,2.2,15.4,6.3c4.1,4,6.3,9.2,6.3,14.8
		C70,26.2,69,27.5,66.9,28.7z"/>
</g>
</svg>
