<?xml version="1.0" encoding="UTF-8"?>
<svg width="97px" height="85px" viewBox="0 0 97 85" version="1.1" xmlns="http://www.w3.org/2000/svg" xmlns:xlink="http://www.w3.org/1999/xlink">
    <!-- Generator: Sketch 48.1 (47250) - http://www.bohemiancoding.com/sketch -->
    <title>Page 1UFO</title>
    <desc>Created with Sketch.</desc>
    <defs>
        <polygon id="path-1" points="0.000445593362 0.197543676 96.4454528 0.197543676 96.4454528 31.6290333 0.000445593362 31.6290333"></polygon>
        <polygon id="path-3" points="0.944025316 0.99345 51.6910236 0.99345 51.6910236 36.94006 0.944025316 36.94006"></polygon>
    </defs>
    <g id="Enact---Home-Page-Copy" stroke="none" stroke-width="1" fill="none" fill-rule="evenodd" transform="translate(-1125.000000, -239.000000)">
        <g id="Page-1" transform="translate(1125.000000, 238.000000)">
            <path d="M62.5610547,49.8840531 L62.562862,49.8858825 C62.562862,49.8840531 62.562862,49.8840531 62.5610547,49.8840531 M62.3080355,53.7000986 C61.1640273,53.7000986 60.0597791,53.0525051 59.5284388,51.9420834 L59.3043361,51.4701085 C58.5687731,49.9224697 59.2121648,48.0546929 60.742931,47.3083139 C61.4875304,46.9497593 62.3224938,46.9021959 63.0978169,47.1747706 C63.8767546,47.4491747 64.4984589,48.014447 64.8581077,48.766314 L65.0785958,49.2273128 C65.8159661,50.7786103 65.1707671,52.6463871 63.6418082,53.3927661 C63.2098683,53.6013132 62.756241,53.7000986 62.3080355,53.7000986 M65.8430753,61.1327893 C64.699067,61.1327893 63.5948189,60.4833664 63.0652859,59.369286 L62.8429904,58.9009698 C62.4869562,58.1564202 62.439967,57.3094264 62.7092517,56.5228015 C62.9803437,55.7361766 63.5387932,55.1032179 64.279778,54.7410046 C65.8105442,53.9946256 67.6575845,54.6477072 68.396762,56.1971754 L68.6172502,56.6636622 C68.9732843,57.4118706 69.0202736,58.2588643 68.7491816,59.0436599 C68.4762823,59.8302848 67.9196401,60.4632434 67.1786552,60.8236274 C66.7467153,61.0340038 66.2912807,61.1327893 65.8430753,61.1327893 M69.3799223,68.5673093 C69.0383464,68.5673093 68.6949632,68.5087698 68.3624237,68.3916907 C67.583486,68.1154573 66.9617816,67.550185 66.6021329,66.8001473 L66.3816447,66.3373192 C66.0256106,65.5909402 65.976814,64.7439464 66.247906,63.9573215 C66.5171907,63.1688672 67.0774476,62.537738 67.8184324,62.1736953 C68.5630318,61.8133113 69.3961879,61.7639186 70.1751256,62.040152 C70.952256,62.3127266 71.5757676,62.8798283 71.933609,63.629866 L72.1559045,64.0926942 C72.8914675,65.6421623 72.2444612,67.5099391 70.7173096,68.2563181 C70.2907915,68.4630358 69.8371642,68.5673093 69.3799223,68.5673093 M72.9185767,76 C72.5770007,76 72.2354248,75.9414605 71.9028853,75.8243814 C71.1239476,75.5499774 70.500436,74.9847051 70.1425945,74.2346674 L69.9202991,73.7718392 C69.1829288,72.2205417 69.8281278,70.3527649 71.3552794,69.6063859 C72.0998788,69.2441726 72.9366495,69.1984386 73.7119726,69.4710133 C74.4909103,69.7454173 75.1126146,70.3106896 75.4722634,71.0625567 L75.6927515,71.5235555 C76.050593,72.2772519 76.0975823,73.1242457 75.824683,73.9090412 C75.553591,74.6956661 74.9951414,75.3267954 74.2559639,75.6890088 C73.8294458,75.8957265 73.3758185,76 72.9185767,76" id="Fill-1" fill="#000000"></path>
            <path d="M34.4376252,48.9172163 C34.4376252,48.9172163 34.4358142,48.9172163 34.4358142,48.9190775 L34.4376252,48.9172163 Z M34.6621894,52.8089746 C34.171408,52.8089746 33.6715717,52.687997 33.2097664,52.4330133 C31.7120684,51.608504 31.145225,49.6821674 31.9474986,48.1392369 C31.9474986,48.1373757 31.9493096,48.1373757 31.9493096,48.1355145 L32.1919837,47.672077 C32.579538,46.9294603 33.2278764,46.382269 34.0192839,46.1365913 C34.8088805,45.8927748 35.641941,45.9765286 36.3681525,46.3785466 C37.097986,46.7805647 37.6304203,47.4468724 37.8676615,48.2583534 C38.1049026,49.0698343 38.0215966,49.9278451 37.6304203,50.6760454 L37.3913682,51.1338993 C36.8317688,52.2022251 35.7632781,52.8089746 34.6621894,52.8089746 Z M30.6725537,56.959439 C30.7069628,56.9966629 30.7504268,57.0283032 30.7975128,57.0543599 C30.8445989,57.0804166 30.8934959,57.0990286 30.9423929,57.1083346 L30.6725537,56.959439 Z M31.2810501,57.2925928 L31.2810501,57.2907316 L31.2810501,57.2925928 Z M30.8047568,60.2072239 C30.3031095,60.2072239 29.8050842,60.0806626 29.3505229,59.8294013 C27.8510139,59.0030308 27.2859815,57.0766942 28.086444,55.535625 C28.086444,55.535625 28.088255,55.5337638 28.088255,55.5337638 L28.3309292,55.0703263 C29.1350137,53.5273958 31.013022,52.946703 32.5107199,53.7749347 C34.0084179,54.6013052 34.5734503,56.5276418 33.7729878,58.0687111 L33.5285026,58.535871 C33.1409484,59.2784877 32.4926099,59.8256789 31.7012024,60.0713567 C31.4060092,60.1625552 31.105383,60.2072239 30.8047568,60.2072239 Z M25.8245035,63.8086358 L25.8426136,63.8086358 L25.8245035,63.8086358 Z M26.9437023,67.6017507 C26.45111,67.6017507 25.9512736,67.4807731 25.4912793,67.2239282 C24.7632568,66.8256325 24.2308225,66.1574636 23.9917703,65.3459827 C23.7563402,64.5345017 23.8378352,63.6764909 24.2290115,62.9301518 L24.4698747,62.4685755 C25.2775812,60.9256451 27.1592114,60.3505359 28.6496654,61.173184 C30.1473634,61.9995544 30.7123958,63.925891 29.9119332,65.4669603 L29.6710701,65.9285366 C29.1132817,66.9950012 28.044791,67.6017507 26.9437023,67.6017507 Z M21.963449,71.2087462 L21.981559,71.2087462 L21.963449,71.2087462 Z M23.0808367,75 C22.5900554,75 22.0920301,74.8790223 21.6302248,74.6240387 C20.9022023,74.2238818 20.369768,73.5557128 20.1325268,72.7423707 C19.8952856,71.932751 19.9785917,71.0747402 20.366146,70.3284011 L20.6051981,69.868686 C21.4183376,68.3220331 23.2999679,67.7450627 24.7886109,68.569572 C25.5148223,68.9697289 26.0472567,69.6360366 26.2863089,70.4493788 C26.525361,71.2608597 26.440244,72.1188705 26.0490677,72.8670708 L25.8100155,73.3249247 C25.2522272,74.3932505 24.1837365,75 23.0808367,75 Z" id="Fill-3" fill="#000000"></path>
            <path d="M48.308755,49.6437284 L48.308755,49.6474108 L48.308755,49.6437284 Z M49.3973802,49.6658228 L49.3973802,49.667664 L49.3973802,49.6658228 Z M48.3823108,49.3859609 C48.4705777,49.5590334 48.6489504,49.67687 48.8530676,49.6823936 C48.9817902,49.67687 49.1344184,49.6289988 49.2392353,49.5295742 C49.2760132,49.4927503 49.3091133,49.452244 49.3366967,49.406214 C49.3109522,49.3620253 49.2815299,49.3178366 49.2465909,49.2810127 C49.1454517,49.1779056 49.0075347,49.1153049 48.864101,49.1116226 L48.8659399,49.1134638 C48.7905452,49.1079402 48.5809113,49.1631761 48.4779333,49.2644419 C48.4393165,49.2994246 48.4080553,49.3417722 48.3823108,49.3859609 Z M48.8549065,52.7940161 L48.7850285,52.7940161 C47.9483319,52.7774453 47.166802,52.4331415 46.5875504,51.8273878 C46.0101378,51.2216341 45.7012036,50.4262371 45.7195926,49.5866513 L45.7306259,49.0711162 C45.747176,48.2333717 46.0892102,47.4527043 46.6923674,46.8727273 C47.2973635,46.2927503 48.0347599,46.0036824 48.93214,46 C50.6570224,46.0368239 52.032515,47.4729574 51.9994149,49.2018412 L51.9865427,49.7302647 C51.9681537,50.5606444 51.6279584,51.343153 51.0229623,51.92313 C50.4345163,52.4865362 49.6658587,52.7940161 48.8549065,52.7940161 Z M48.6746949,61.0959724 L48.6066558,61.0959724 C48.6066558,61.0959724 48.6048169,61.0959724 48.6048169,61.0959724 C47.7681203,61.0757192 46.9884293,60.7332566 46.4110166,60.1293441 C45.8299262,59.5235903 45.520992,58.7281933 45.539381,57.8886076 L45.5504143,57.3712313 C45.5890311,55.6386651 47.0362405,54.2945915 48.7519285,54.3001151 C50.4786497,54.336939 51.8541423,55.7749137 51.8192033,57.5037975 L51.80817,58.0248562 C51.7695532,59.7334868 50.370155,61.0959724 48.6746949,61.0959724 Z M47.963043,65.7302647 L47.963043,65.7321059 L47.963043,65.7302647 Z M49.036957,66.2678941 L49.036957,66.2697353 L49.036957,66.2678941 Z M48.4963222,69.3979287 L48.4264442,69.3979287 C47.5879087,69.3795167 46.8100566,69.0352129 46.2289661,68.4294591 C45.6515535,67.8237054 45.3426193,67.0264672 45.3591694,66.1887227 L45.3702027,65.6750288 C45.4106584,63.9406214 46.7714398,62.5670886 48.5735558,62.6020713 C49.4120913,62.6204833 50.1899434,62.9647871 50.7710339,63.5705409 C51.3484465,64.1762946 51.6573807,64.9716916 51.6408306,65.8094361 L51.6297973,66.3249712 C51.5893416,68.0336018 50.1899434,69.3979287 48.4963222,69.3979287 Z M47.7828314,74.0303797 L47.7828314,74.0322209 L47.7828314,74.0303797 Z M48.8585843,74.5698504 L48.8585843,74.5716916 L48.8585843,74.5698504 Z M48.3161106,77.6998849 L48.2480715,77.6998849 C47.409536,77.681473 46.629845,77.3371692 46.0487546,76.7314154 C45.4713419,76.1256617 45.1624077,75.3302647 45.1807967,74.4925201 L45.19183,73.9751438 C45.2304468,72.2425777 46.6390395,70.9058688 48.3933442,70.9021864 C49.2318797,70.9224396 50.0115707,71.2649022 50.5889834,71.8706559 C51.1700738,72.4764097 51.479008,73.2718067 51.460619,74.1113924 L51.4495857,74.6269275 C51.4109689,76.3373993 50.0115707,77.6998849 48.3161106,77.6998849 Z M47.6026198,82.332336 L47.6026198,82.3341772 L47.6026198,82.332336 Z M48.135899,86 L48.06786,86 C46.3429776,85.9631761 44.967485,84.5252014 45.0005851,82.7963176 L45.0116184,82.2752589 C45.0318463,81.4356732 45.3738805,80.6550058 45.9770377,80.0750288 C46.5838727,79.4950518 47.3929859,79.1673188 48.2149715,79.2059839 C49.0516681,79.2225547 49.8313591,79.5668585 50.4124496,80.1726122 C50.9898622,80.7783659 51.2987964,81.5737629 51.2804074,82.4115075 L51.2693741,82.9288838 C51.2307573,84.6375144 49.8313591,86 48.135899,86 Z" id="Fill-5" fill="#000000"></path>
            <path d="M94.9999359,34.2681137 C94.9559097,41.999034 74.1003269,48.1453097 48.4202053,47.9973849 C22.7382493,47.8494601 1.95604361,41.4628066 2.00006982,33.7318863 C2.04226161,26.000966 22.8978443,19.8546903 48.5779659,20.0026151 C74.259922,20.1505399 95.0421277,26.5371934 94.9999359,34.2681137" id="Fill-7" fill="#F7F7F7"></path>
            <g id="Group-11" transform="translate(0.000000, 18.000000)">
                <mask id="mask-2" fill="white">
                    <use xlink:href="#path-1"></use>
                </mask>
                <g id="Clip-10"></g>
                <path d="M94.6158132,16.1795333 L94.6341151,16.1795333 L94.6158132,16.1795333 Z M47.3859642,3.86503333 C35.5062094,3.86503333 24.3878132,5.2107 15.9872472,7.67103333 C6.91683208,10.3293667 3.67373774,13.5395333 3.66092642,15.6570333 C3.6316434,20.6877 20.544417,27.8010333 48.1546434,27.9587 C60.411417,28.0063667 71.8446057,26.6772 80.4574736,24.1563667 C89.5278887,21.4980333 92.7728132,18.2878667 92.7856245,16.1685333 C92.8149075,11.1397 75.9003038,4.02636667 48.2900774,3.8687 C47.9899264,3.86686667 47.6879453,3.86503333 47.3859642,3.86503333 Z M48.9837189,31.6290333 C48.7000396,31.6290333 48.4181906,31.6272 48.1345113,31.6253667 C24.7575113,31.4915333 -0.0580169811,25.8430333 0.000549056604,15.6387 C0.0261716981,10.9838667 5.20011509,7.01286667 14.9605113,4.15286667 C23.9028132,1.53303333 35.6855679,0.1067 48.3120396,0.202033333 C71.6890396,0.335866667 96.5027377,5.98436667 96.4460019,16.1887 L96.4460019,16.1905333 C96.3874358,26.2702 72.1081528,31.6290333 48.9837189,31.6290333 Z" id="Fill-9" fill="#000000" mask="url(#mask-2)"></path>
            </g>
            <path d="M71.9997095,25.7486615 C71.9358687,38.2451996 24.9362241,38.0012842 25.000065,25.5047461 C25.0657299,13.0082081 35.6377771,2.93248457 48.6175369,3.00034074 C61.5954726,3.06636295 72.0635504,13.2521235 71.9997095,25.7486615" id="Fill-12" fill="#00FFFB"></path>
            <g id="Group-16" transform="translate(22.000000, 0.000000)">
                <mask id="mask-4" fill="white">
                    <use xlink:href="#path-3"></use>
                </mask>
                <g id="Clip-15"></g>
                <path d="M26.3055448,4.69271 C14.3842,4.69271 4.65778621,14.02596 4.59930345,25.55516 C4.5919931,26.98706 5.62092414,28.32461 7.65502759,29.52711 C15.9906483,34.45921 36.5509931,34.56651 44.9377862,29.72321 C46.9846828,28.54106 48.0282345,27.21461 48.0355448,25.78086 C48.0629586,20.19386 45.8406138,14.92506 41.7778897,10.94386 C37.6914069,6.94231 32.2397172,4.72416 26.4243379,4.69271 L26.3055448,4.69271 Z M26.6162345,36.94006 C18.6059241,36.94006 10.5554069,35.52851 5.8109931,32.72206 C1.7702,30.33186 0.933165517,27.49581 0.944131034,25.53481 C1.01357931,11.97431 12.3775103,0.99271 26.3055448,0.99271 L26.4426138,0.99271 C33.2046828,1.02786 39.5537172,3.61786 44.3182345,8.28541 C49.1065103,12.97331 51.7236138,19.19301 51.6907172,25.80121 L49.863131,25.79011 L51.6907172,25.80121 C51.6797517,27.76036 50.8153034,30.58901 46.7507517,32.93666 C42.1196483,35.60991 34.387131,36.94006 26.6162345,36.94006 Z" id="Fill-14" fill="#000000" mask="url(#mask-4)"></path>
            </g>
            <path d="M58.1437732,16 C57.6835151,16 57.223257,15.8340452 56.8650723,15.4966644 C46.6855737,5.97705673 36.3130637,8.91318094 34.3346963,9.60070816 C33.4754241,9.89614426 32.4342758,9.56605825 32,8.77822865 L33.631318,7.90833346 L33.0578513,6.17401413 C35.4389445,5.35335829 47.6784692,1.87013019 59.4224741,12.8559763 C60.1666818,13.5489746 60.19452,14.7051875 59.4892858,15.4328356 C59.1218217,15.8103373 58.6337254,16 58.1437732,16" id="Fill-17" fill="#000000"></path>
            <path d="M52.1911616,23 C51.8351603,23 51.4737376,22.8932016 51.1592999,22.6741742 C37.7649749,13.3066831 30.4660436,14.5122385 29.1360081,14.8525454 C28.3047359,15.0661423 27.3740725,14.6751514 27,13.9022202 L28.624595,13.1129978 L28.2252229,11.3481081 C30.4913432,10.7724826 38.9124919,9.69363724 53.2266376,19.7055394 C54.04526,20.2775446 54.2458496,21.407074 53.6748018,22.2252587 C53.3224147,22.7302887 52.7604024,23 52.1911616,23" id="Fill-19" fill="#000000"></path>
            <path d="M39.1634212,26 C38.9413836,26 38.713841,25.9619777 38.4954735,25.8807482 L26.1678024,21.3370823 C25.2227666,20.9896967 24.7566712,19.9872904 25.1273455,19.098951 C25.4961847,18.2106116 26.5660019,17.7716268 27.5036977,18.1190124 L39.8313688,22.66095 C40.7764046,23.0100639 41.2425,24.0124702 40.8736607,24.9008096 C40.5873975,25.5817546 39.8955946,26 39.1634212,26" id="Fill-21" fill="#000000"></path>
        </g>
    </g>
</svg>