<?xml version="1.0" encoding="UTF-8"?>
<svg width="296px" height="191px" viewBox="0 0 296 191" version="1.1" xmlns="http://www.w3.org/2000/svg" xmlns:xlink="http://www.w3.org/1999/xlink">
    <!-- Generator: Sketch 48.1 (47250) - http://www.bohemiancoding.com/sketch -->
    <title>Page 1main_illu</title>
    <desc>Created with Sketch.</desc>
    <defs>
        <polygon id="path-1" points="0.71288 0.0642182056 48.6934 0.0642182056 48.6934 36.8914334 0.71288 36.8914334"></polygon>
        <polygon id="path-3" points="0.251678866 0.6524 189.558423 0.6524 189.558423 16 0.251678866 16"></polygon>
    </defs>
    <g id="Enact---Home-Page-Copy" stroke="none" stroke-width="1" fill="none" fill-rule="evenodd" transform="translate(-216.000000, -1490.000000)">
        <g id="Page-1" transform="translate(216.000000, 1490.000000)">
            <path d="M26.2733214,132.861105 C23.5188044,138.957919 26.3544985,146.549631 32.4331479,149.349118 C38.5503221,152.166533 46.1919742,149.300851 48.9753848,143.14198 C51.7312777,137.049303 48.8955836,129.460349 42.8169341,126.651209 C36.710767,123.831036 29.0553561,126.703613 26.2733214,132.861105 M72.9996714,145.26297 C70.9661169,149.840063 68.9325624,154.414397 66.8990078,158.99011 C66.1257618,159.607928 65.3442605,159.740317 64.341242,159.423134 C61.9196886,158.659136 59.4637381,157.993051 56.991277,157.412468 C56.4340445,157.281458 55.6594226,157.507623 55.1517219,157.831702 C53.7139246,158.748775 52.3284108,159.756866 50.9993081,160.827015 C50.6085575,161.14144 50.2948562,161.768911 50.2632109,162.273646 C50.0926015,164.997285 50.0416938,167.72644 49.910985,170.452837 C49.8339356,172.024963 49.3468731,172.522802 47.8389057,172.677257 C43.6121943,173.108902 39.3827311,173.533652 35.1546438,173.951506 C33.3315993,174.130784 32.9518557,173.874279 32.4771762,172.132529 C31.8167525,169.719178 31.1604565,167.305827 30.5481887,164.880065 C30.3294234,164.00988 30.0088427,163.520314 29.0127037,163.244503 C27.6574593,162.870778 26.3668814,162.160563 25.1450976,161.431042 C24.1833557,160.858733 23.4224926,160.654632 22.3809494,161.30279 C20.5757914,162.423963 18.6908322,163.42378 16.79349,164.383604 C15.8702728,164.851105 14.8452402,165.117263 13.8669877,165.47306 C13.6977541,165.397212 13.5285206,165.321363 13.359287,165.245515 C10.7327271,161.618594 8.10891888,157.987535 5.47960717,154.360614 C4.06107218,152.40511 4.11060396,151.725234 5.81945018,150.100705 C7.55856583,148.447214 9.33758207,146.832338 11.0230383,145.122307 C11.4000301,144.738929 11.6573202,144.02044 11.6201714,143.479849 C11.4922143,141.640186 11.2404278,139.806039 10.9569959,137.982925 C10.9005847,137.613338 10.5676211,137.194104 10.241537,136.976213 C8.04700416,135.524066 5.77954959,134.176726 3.62629327,132.665279 C2.94385548,132.186746 2.53384246,131.315182 2,130.624274 C4.10922807,125.878937 6.21845615,121.133599 8.32630834,116.388262 C8.89867551,116.345511 9.51094328,116.148306 10.0337787,116.286212 C12.843331,117.036419 15.621238,117.907983 18.4362939,118.637505 C18.9054699,118.758862 19.58378,118.521664 20.0226866,118.230683 C21.4068245,117.314989 22.7648207,116.342753 24.0443915,115.287774 C24.4998087,114.911291 24.941467,114.247965 24.9827435,113.686688 C25.1767429,110.964428 25.21114,108.233894 25.3446006,105.507497 C25.42165,103.950541 25.9045848,103.478904 27.4510769,103.321691 C31.6791642,102.891425 35.9058757,102.462538 40.133963,102.046063 C41.9184828,101.869543 42.302354,102.141218 42.7852888,103.90917 C43.4691025,106.41078 44.107512,108.926181 44.8215951,111.419517 C44.9426728,111.844267 45.2605017,112.353139 45.6292382,112.539312 C47.226638,113.346061 48.9107183,113.981806 50.4943592,114.813378 C51.2951229,115.23537 51.868866,115.240886 52.6338567,114.751321 C54.8944319,113.308826 57.2072906,111.950455 59.5036387,110.564502 C60.8657625,109.742583 61.5000444,109.836359 62.4328928,111.100955 C65.0993533,114.70857 67.7300409,118.343766 70.3923738,121.954139 C71.187634,123.029803 71.1367263,123.945498 70.1488426,124.883257 C68.1689475,126.758775 66.2124424,128.657738 64.3027173,130.60083 C63.9766331,130.933183 63.7468607,131.544105 63.7771301,132.00471 C63.8940802,133.803002 64.0908314,135.598535 64.3550008,137.381656 C64.423795,137.847778 64.7333686,138.417328 65.1131122,138.676591 C67.1342838,140.058407 69.1884765,141.396093 71.2825699,142.666205 C72.3034748,143.286781 73.0175579,144.003891 72.9996714,145.26297" id="Fill-1" fill="#FCD757"></path>
            <path d="M26.9929241,133.91394 C24.5231759,139.381585 27.0412423,146.121 32.4915308,148.632712 C35.0827647,149.825603 38.177888,149.908635 40.9761997,148.859666 C43.7841751,147.80793 46.0730754,145.705841 47.25618,143.088955 C49.7259283,137.629613 47.2078619,130.88743 41.7561929,128.368798 C39.1787641,127.178676 36.0877824,127.09426 33.2853291,128.139077 C30.4690706,129.192197 28.1746483,131.29567 26.9929241,133.915323 L26.9929241,133.91394 Z M36.9588898,152.356689 C35.0109777,152.356689 33.0865344,151.951217 31.337417,151.145809 C24.5369811,148.012742 21.3935396,139.597467 24.4776187,132.773636 L24.4776187,132.772252 C25.9616765,129.488344 28.8193506,126.853468 32.3189659,125.545717 C35.8075371,124.244885 39.6688483,124.356978 42.9116872,125.855702 C49.7135036,128.998456 52.854184,137.413731 49.7714854,144.232026 C48.2874276,147.513167 45.4338951,150.145275 41.9411824,151.453026 C40.3287364,152.056391 38.6348397,152.356689 36.9588898,152.356689 Z M72.6190726,145.788873 L72.6328778,145.788873 L72.6190726,145.788873 Z M23.0694895,160.092487 C23.9185086,160.092487 24.6584667,160.435685 25.3073106,160.823167 C26.4379555,161.498492 27.6472901,162.166898 28.8511025,162.499025 C30.6029809,162.984761 31.1041093,164.104307 31.3636468,165.135285 C31.9738362,167.559814 32.6309632,169.973272 33.2908512,172.385347 C33.4799823,173.078662 33.5862822,173.244726 33.6152731,173.279322 C33.5793796,173.235039 33.787838,173.271019 34.5112299,173.200442 C38.7535643,172.781132 42.9931378,172.353518 47.2327112,171.921752 C47.8097681,171.862246 47.9464395,171.76676 47.9533421,171.761224 C47.9492005,171.761224 48.0430758,171.607615 48.0734472,170.998715 C48.1272874,169.895776 48.165942,168.791453 48.205977,167.688514 C48.2653393,166.048635 48.3260821,164.410141 48.42686,162.77303 C48.4848418,161.8666 48.9887312,160.88544 49.6803712,160.329127 C51.0898809,159.191591 52.5339037,158.150926 53.9696433,157.234808 C54.647478,156.801659 55.8140165,156.3865 56.8714939,156.632828 C59.4434006,157.237576 61.9573254,157.925356 64.3456231,158.678178 C64.8357073,158.833171 65.1187136,158.805493 65.3906759,158.651885 L71.2247486,145.525939 C71.1695278,145.142609 70.9306981,144.821552 70.1810763,144.367645 C68.1724214,143.148461 66.1278729,141.825488 63.9273259,140.322612 C63.1445717,139.78844 62.6862394,138.812817 62.5785589,138.082137 C62.3024551,136.208385 62.1036604,134.354008 61.9876968,132.57436 C61.9324761,131.713597 62.3024551,130.72275 62.9085029,130.105547 C64.6438151,128.339737 66.575161,126.450763 68.8088406,124.332068 C69.2768365,123.889232 69.2878806,123.753613 68.8944327,123.220826 C67.6160723,121.488229 66.3459949,119.75148 65.074537,118.013347 C63.6884961,116.11607 62.3024551,114.220177 60.9067506,112.32982 C60.6223637,111.945106 60.4774092,111.83578 60.4359936,111.809487 C60.4401352,111.828861 60.2496236,111.877296 59.7899108,112.154069 L58.0960142,113.173976 C56.3620825,114.213258 54.6295313,115.252539 52.925971,116.338872 C51.7497689,117.09031 50.6619201,117.124907 49.3959843,116.459269 C48.5870002,116.033039 47.7531668,115.663547 46.8696347,115.27053 C46.0855,114.921796 45.3013653,114.573062 44.5351773,114.185581 C43.7151491,113.773189 43.2057377,112.862607 43.0179871,112.206656 C42.567938,110.634587 42.1468797,109.048679 41.7258215,107.465539 C41.4759475,106.528664 41.2274541,105.591788 40.9706776,104.656296 C40.7829271,103.965748 40.6724856,103.777543 40.6379726,103.730491 C40.6559193,103.766472 40.450222,103.731875 39.7792899,103.798301 C35.5355749,104.216228 31.2960014,104.646609 27.0578085,105.078375 C26.4586633,105.139265 26.3068062,105.2306 26.287479,105.245822 C26.293001,105.245822 26.2101699,105.400815 26.1825595,105.962663 C26.1314803,107.008864 26.0942063,108.053681 26.0569323,109.099882 C25.9989505,110.768822 25.9382077,112.494499 25.8153415,114.200803 C25.7380325,115.289904 24.9911718,116.269679 24.3754603,116.777557 C23.17717,117.76702 21.8187394,118.760634 20.2242401,119.816522 C19.5436443,120.267661 18.4709812,120.657911 17.5239452,120.408815 C15.9860472,120.011646 14.4591933,119.571578 12.9295784,119.130125 C11.651218,118.762017 10.371477,118.392526 9.08483338,118.047944 C9.019949,118.034105 8.84324258,118.056247 8.67481928,118.08254 L2.95947118,130.945552 C2.97741792,130.970462 2.99260363,130.996755 3.01055037,131.021665 C3.28665415,131.439592 3.54895273,131.833993 3.80434872,132.013895 C5.09099231,132.916174 6.45356443,133.782473 7.77195994,134.621094 C8.65549202,135.181559 9.53764357,135.742023 10.4101315,136.319094 C10.9361092,136.667828 11.5973777,137.390205 11.7312881,138.27311 C11.9880646,139.918524 12.2683099,141.876691 12.4105033,143.904051 C12.4740072,144.84231 12.0653736,145.960472 11.4151492,146.620575 C10.1989121,147.854981 8.92193216,149.052023 7.68912881,150.208933 C7.17695631,150.68775 6.66754485,151.166567 6.16227495,151.646767 C5.00401962,152.746939 5.00401962,152.746939 5.98694905,154.104509 L13.5287236,164.522234 L13.7841196,164.437818 C14.4384855,164.220552 15.056958,164.017124 15.6008824,163.741735 C17.2575051,162.903113 19.2054172,161.887358 21.1008696,160.708306 C21.8173589,160.262702 22.4717248,160.092487 23.0694895,160.092487 Z M33.9176067,175.999998 C32.0442426,176.001382 31.1993651,175.211196 30.6278303,173.116027 C29.9638007,170.685962 29.3025322,168.254514 28.6868208,165.813379 C28.5584325,165.301349 28.522539,165.280591 28.115286,165.167114 C26.5980957,164.747804 25.1899665,163.975608 23.8964203,163.202028 C23.1302323,162.745353 22.9659506,162.806243 22.557317,163.060874 C20.5707503,164.29528 18.5551928,165.347017 16.8461104,166.211931 C16.1171965,166.580039 15.3703358,166.827751 14.6497049,167.065775 C14.3515129,167.164029 14.0533208,167.263668 13.7592703,167.370225 C13.4224237,167.494773 13.0469225,167.482318 12.718359,167.330093 L12.2172307,167.105907 C11.9949672,167.007653 11.803075,166.851276 11.6608816,166.653384 L3.75465004,155.731932 C1.93236514,153.216069 2.05523132,151.736718 4.26130047,149.638781 C4.77209245,149.154429 5.28702598,148.671461 5.800579,148.188492 C7.0154356,147.049573 8.27170777,145.871905 9.45067088,144.674863 C9.54868772,144.572457 9.66465131,144.243097 9.65360716,144.095024 C9.52107735,142.172837 9.25049565,140.286631 9.00338277,138.696572 C9.00890485,138.740856 8.93159579,138.65644 8.88603867,138.627379 C8.03149749,138.059995 7.16315112,137.510601 6.29480476,136.958439 C4.95017938,136.104596 3.55861636,135.220307 2.22089358,134.282047 C1.53615623,133.800463 1.09577071,133.136208 0.709225425,132.552218 C0.571173538,132.344638 0.437263208,132.137059 0.288167171,131.946086 C-0.0224495741,131.543381 -0.0873339608,131.002291 0.119743869,130.537313 L6.46736961,116.250305 C6.67306693,115.783943 7.11897452,115.469806 7.62838598,115.433826 C7.77334046,115.422755 7.9224365,115.397845 8.07015202,115.374319 C8.55471414,115.298207 9.15800088,115.20272 9.79442008,115.374319 C11.1003909,115.721669 12.3980787,116.096696 13.6930054,116.470339 C15.1977709,116.903489 16.701156,117.336638 18.2169657,117.731039 C18.2431955,117.719968 18.5068746,117.636936 18.7029083,117.508237 C20.215957,116.504936 21.498459,115.56806 22.6208209,114.640872 C22.8665532,114.438828 23.0474012,114.108084 23.0625869,113.994608 C23.1813115,112.34781 23.2406738,110.648425 23.2972751,109.003012 C23.3359296,107.944356 23.3732036,106.8857 23.4242828,105.825661 C23.5333438,103.600408 24.5369811,102.552824 26.7775632,102.324486 C31.0212782,101.891337 35.2636126,101.462339 39.5073276,101.044412 C41.9729343,100.805004 42.97243,101.501087 43.635079,103.925616 C43.890475,104.866643 44.14311,105.809055 44.3929839,106.75285 C44.8099006,108.319383 45.2268173,109.8873 45.6727249,111.445531 C45.7099989,111.571462 45.8024937,111.718152 45.8480508,111.758284 C46.5024167,112.082108 47.2465164,112.410084 47.9892355,112.740827 C48.8741481,113.132461 49.7894321,113.539316 50.6784863,114.007062 C51.0940225,114.225713 51.1395796,114.199419 51.4432937,114.002911 C53.1675618,112.902739 54.9222013,111.851003 56.6782213,110.797883 L58.3665959,109.783511 C60.3531625,108.582317 61.7750969,108.854938 63.1266249,110.684406 C64.5250905,112.576147 65.912512,114.476192 67.301314,116.376237 C68.5700108,118.111602 69.8373271,119.846967 71.1129266,121.575412 C72.3402078,123.237432 72.1952533,124.931281 70.707054,126.342822 C68.4954628,128.439375 66.5889662,130.304823 64.8743618,132.047108 C64.819141,132.110765 64.744593,132.312809 64.7432125,132.401377 C64.853654,134.100761 65.0441656,135.877642 65.3106058,137.678048 C65.3285525,137.794293 65.4348525,137.989418 65.4997368,138.04754 C67.6395411,139.510284 69.645435,140.80558 71.6099133,141.999854 C72.649444,142.630896 74.0272019,143.71031 73.9995915,145.808247 C73.9968305,145.995068 73.9567954,146.180506 73.8794864,146.352105 L67.7582657,160.127083 C67.668532,160.330511 67.5304801,160.509029 67.3565347,160.647416 C66.2176067,161.556614 64.9585734,161.778032 63.5159312,161.317206 C61.1938985,160.585142 58.7462385,159.915352 56.2419773,159.32721 C56.1246332,159.306452 55.7311853,159.390868 55.4537011,159.568002 C54.1021731,160.430149 52.7409815,161.412692 51.4101613,162.485187 C51.3176665,162.564067 51.1906588,162.824233 51.1823757,162.946013 C51.0829783,164.558214 51.023616,166.174567 50.9656342,167.789536 C50.9255992,168.903546 50.8855641,170.01894 50.8317239,171.134334 C50.7199019,173.387264 49.7300698,174.447303 47.5129565,174.675641 C43.2706221,175.10879 39.0255265,175.53502 34.7818116,175.954331 C34.4711948,175.984776 34.1840469,175.999998 33.9176067,175.999998 Z" id="Fill-3" fill="#231F20"></path>
            <path d="M22.3395068,151 C21.9616759,151 21.585234,150.850179 21.3115844,150.55326 C17.6360674,146.581636 15.7594145,141.444131 16.0247296,136.088703 C16.2914338,130.733276 18.668157,125.79871 22.7187268,122.197553 C31.0824034,114.759611 44.0564508,115.379326 51.639462,123.57727 C52.1548123,124.134333 52.1131398,124.995124 51.5436152,125.50043 C50.9768688,126.005736 50.0989675,125.964875 49.5822282,125.407813 C43.0271393,118.32127 31.8144508,117.788723 24.5856561,124.213329 C21.0851637,127.328248 19.0293189,131.592705 18.7987309,136.220818 C18.569532,140.850294 20.1919825,145.29045 23.3674292,148.722718 C23.8827795,149.27978 23.841107,150.140571 23.2729715,150.645877 C23.0062673,150.882867 22.6728871,151 22.3395068,151" id="Fill-5" fill="#231F20"></path>
            <g id="Group-11" transform="translate(168.000000, 87.000000)" fill="#B7F3DA">
                <path d="M80.1038248,8.19819753 C82.8791358,3.35955556 88.147546,0.119308642 94.1414467,0.119308642 C101.898826,0.119308642 108.492943,5.60980247 109.950807,12.9349877 C110.863521,12.6660988 111.818911,12.5262222 112.778431,12.5262222 C118.195518,12.5262222 122.603527,16.8746173 122.603527,22.2170864 C122.603527,27.5649877 118.195518,31.9133827 112.778431,31.9133827 L103.904594,31.9133827" id="Fill-7"></path>
                <path d="M24.1616232,20.6101358 C25.9553882,20.6101358 34.7700291,20.953716 36.4054801,21.612358 C38.0904904,10.7142099 47.6416349,2.4601358 59.0402334,2.4601358 C70.3135575,2.4601358 79.8674553,10.6340864 81.6378174,21.4154444 C83.1218378,20.8858148 84.7049765,20.6101358 86.3073882,20.6101358 C93.8555181,20.6101358 99.9994728,26.672358 99.9994728,34.1211235 C99.9994728,41.573963 93.8555181,47.6348272 86.3073882,47.6348272 L0.421426131,47.6348272" id="Fill-9"></path>
            </g>
            <g id="Group-14" transform="translate(247.000000, 84.000000)">
                <mask id="mask-2" fill="white">
                    <use xlink:href="#path-1"></use>
                </mask>
                <g id="Clip-13"></g>
                <path d="M36.80768,36.8914334 L27.33528,36.8914334 L27.33528,34.1196564 L36.80768,34.1196564 C41.81828,34.1196564 45.89368,30.0825632 45.89368,25.1196964 C45.89368,20.1596015 41.81828,16.1252801 36.80768,16.1252801 C35.92288,16.1252801 35.04228,16.2527818 34.18828,16.5050135 L32.70988,16.9415684 L32.41308,15.4434229 C30.96688,8.13840462 24.44848,2.83599521 16.91508,2.83599521 C11.22688,2.83599521 5.95168,5.88217814 3.14888,10.7854517 L0.71288,9.42173737 C4.00988,3.64951176 10.21888,0.0642182056 16.91508,0.0642182056 C25.29688,0.0642182056 32.61188,5.64241943 34.82808,13.5170379 C35.48328,13.4089386 36.14408,13.353503 36.80768,13.353503 C43.36248,13.353503 48.69368,18.6309665 48.69368,25.1196964 C48.69368,31.6098123 43.36248,36.8914334 36.80768,36.8914334" id="Fill-12" fill="#000000" mask="url(#mask-2)"></path>
            </g>
            <path d="M256.159572,137 L212.33808,137 L212.33808,134.236896 L256.159572,134.236896 C263.36669,134.236896 269.230694,128.38464 269.230694,121.189516 C269.230694,113.995774 263.36669,108.143519 256.159572,108.143519 C254.630915,108.143519 253.129952,108.406014 251.70099,108.921333 L250.130794,109.487769 L249.863556,107.843722 C248.098123,96.9653799 238.429093,88.7631044 227.374025,88.7631044 C216.212338,88.7631044 206.528077,97.0510362 204.847108,108.041284 L204.582639,109.776514 L202.954288,109.111987 C201.379938,108.469565 199.712816,108.143519 198,108.143519 L198,105.380414 C199.507887,105.380414 200.985311,105.59041 202.414273,106.002113 C204.962034,94.4896384 215.412009,86 227.374025,86 C239.243269,86 249.687705,94.4316132 252.296391,105.854287 C253.55504,105.540675 254.84969,105.380414 256.159572,105.380414 C264.895346,105.380414 272,112.471922 272,121.189516 C272,129.907111 264.895346,137 256.159572,137" id="Fill-15" fill="#000000"></path>
            <path d="M56.0063408,177 L56.0063408,91.0074411 C56.0063408,91.0074411 55.3885767,80.0003936 66.3483722,80.0003936 L195.350736,80.0003936 C195.350736,80.0003936 207,79.7719973 207,90.3195006 L207,177 C207,177 54.9721376,175.968089 56.0063408,177" id="Fill-17" fill="#EBEBEB"></path>
            <path d="M95.1396744,175.78211 C105.514468,175.78211 117.900138,175.806938 132.16548,175.855213 C165.447134,175.969694 199.075443,176.184864 206.237808,176.23176 L206.237808,90.725276 C206.237808,88.1680675 205.469918,86.1170595 203.953475,84.6315614 C200.955115,81.6964268 196.032889,81.7474607 195.979026,81.7598743 L66.7471005,81.7598743 C63.9213779,81.7598743 61.7212918,82.5681397 60.2117537,84.1626019 C57.5559059,86.968083 57.7658325,91.2949238 57.7672136,91.3376819 L57.7699758,176.082796 C60.5943173,175.873144 66.6835701,175.846937 80.189309,175.8028 C84.5798135,175.789007 89.5697138,175.78211 95.1396744,175.78211 M56.3888797,179 C56.0311758,179 55.6776152,178.859312 55.4124447,178.595867 C55.1237957,178.307595 54.9815428,177.904842 55.0077836,177.508985 L55.0077836,91.4149222 C54.9981159,91.2673379 54.7398509,85.9267171 58.2050211,82.267454 C60.2559488,80.1005853 63.1300098,79.0012892 66.7471005,79.0012892 L195.951404,79.0012892 C196.169617,78.9930134 202.073803,78.9268074 205.887009,82.6619316 C207.953129,84.6853538 209,87.3984223 209,90.725276 L209,177.620707 C209,177.988979 208.853604,178.339319 208.592577,178.600005 C208.334312,178.856554 207.983513,179 207.618904,179 L207.610617,179 C167.415196,178.7269 62.9062722,178.179321 56.9219828,178.893794 C56.9206017,178.893794 56.9192206,178.895174 56.9178395,178.895174 C56.7465836,178.966897 56.5670411,179 56.3888797,179" id="Fill-19" fill="#000000"></path>
            <path d="M66.0055511,177 L66.0055511,98.5959296 C66.0055511,98.5959296 65.4652528,89.0003523 75.0455285,89.0003523 L187.815862,89.0003523 C187.815862,89.0003523 198,88.7994051 198,97.9958595 L198,177" id="Fill-21" fill="#9BFFFF"></path>
            <path d="M198.615752,177 C197.850263,177 197.231504,176.385795 197.231504,175.62594 L197.231504,97.2935137 C197.231504,95.1513538 196.583675,93.4351526 195.307399,92.191628 C192.741003,89.6935865 188.51074,89.7622895 188.441528,89.7485489 L75.4467328,89.7485489 C73.0229142,89.7485489 71.1403367,90.4287087 69.8543701,91.7711656 C67.6132723,94.1084421 67.7724609,97.778557 67.7752294,97.8142825 L67.7752294,175.62594 C67.7752294,176.385795 67.1564704,177 66.3909812,177 C65.6268762,177 65.006733,176.385795 65.006733,175.62594 L65.006733,97.8884818 C64.9984275,97.7689385 64.7714108,93.1081262 67.8305993,89.8955734 C69.6591911,87.9746372 72.2214345,87.0004285 75.4467328,87.0004285 L188.415227,87.0004285 C188.610406,86.9976803 193.860859,86.9358476 197.24673,90.2308441 C199.073938,92.008878 200,94.3846282 200,97.2935137 L200,175.62594 C200,176.385795 199.381241,177 198.615752,177" id="Fill-23" fill="#000000"></path>
            <path d="M39,177 L225,177 L225,184.36104 C225,184.36104 224.30855,190.985975 217.394052,190.985975 L47.9888476,190.985975 C47.9888476,190.985975 39.3457249,191.598414 39.3457249,184.729092 L39,177 Z" id="Fill-25" fill="#EBEBEB"></path>
            <g id="Group-29" transform="translate(38.000000, 175.000000)">
                <mask id="mask-4" fill="white">
                    <use xlink:href="#path-3"></use>
                </mask>
                <g id="Clip-28"></g>
                <path d="M3.09353285,3.31906667 L3.37090511,8.92173333 C3.37229197,10.1430667 3.73981022,11.0390667 4.4970365,11.7217333 C6.1709781,13.2337333 9.43287591,13.3870667 10.5645547,13.3217333 L180.543825,13.3190667 C185.823606,13.3190667 186.673752,9.2924 186.784701,8.5644 L186.784701,3.31906667 L3.09353285,3.31906667 Z M10.0888613,16.0004 C8.67564964,16.0004 4.95054015,15.7830667 2.60674453,13.6737333 C1.2739708,12.4750667 0.598569343,10.8990667 0.598569343,8.98573333 L0.253240876,2.04973333 C0.235211679,1.6844 0.37389781,1.32973333 0.636014599,1.06573333 C0.896744526,0.801733333 1.26010219,0.6524 1.63871533,0.6524 L188.171562,0.6524 C188.938496,0.6524 189.558423,1.2484 189.558423,1.98573333 L189.558423,8.6524 C189.558423,8.70173333 189.55565,8.75106667 189.550102,8.79906667 C189.263022,11.2857333 187.010759,15.9857333 180.543825,15.9857333 L10.6533139,15.9857333 C10.6311241,15.9884 10.4244818,16.0004 10.0888613,16.0004 Z" id="Fill-27" fill="#000000" mask="url(#mask-4)"></path>
            </g>
            <path d="M147.612245,184 L116.387755,184 C115.620327,184 115,183.3295 115,182.5 C115,181.6705 115.620327,181 116.387755,181 L147.612245,181 C148.379673,181 149,181.6705 149,182.5 C149,183.3295 148.379673,184 147.612245,184" id="Fill-30" fill="#000000"></path>
            <path d="M243.000259,77 C245.66382,77 245.66934,72 243.000259,72 C240.335318,72 240.331177,77 243.000259,77" id="Fill-32" fill="#000000"></path>
            <path d="M41,53 C40.4503311,53 40,52.7085714 40,52.3528571 L40,43.6471429 C40,43.2914286 40.4503311,43 41,43 C41.5518764,43 42,43.2914286 42,43.6471429 L42,52.3528571 C42,52.7085714 41.5518764,53 41,53" id="Fill-34" fill="#FEA200"></path>
            <path d="M37.1035259,50.7037623 C36.9191005,50.3936498 36.9879353,49.9660498 37.2554819,49.754299 L43.0804651,45.119006 C43.3480118,44.9072552 43.7155636,44.9851249 43.8973914,45.2966034 C44.080518,45.6067159 44.0116832,46.0329497 43.7454354,46.2447005 L37.9217509,50.8813597 C37.6542043,51.0931105 37.2866524,51.0138747 37.1035259,50.7037623" id="Fill-36" fill="#FEA200"></path>
            <path d="M37.0692537,46.4348078 C37.2266637,46.0433682 37.6111341,45.8861506 37.9189891,46.0882875 L44.6569727,50.4839622 C44.9662206,50.686099 45.0888054,51.1721901 44.9313954,51.5636297 C44.7711994,51.9566736 44.389515,52.1138912 44.080267,51.9117543 L37.3422834,47.5160796 C37.0344285,47.3139428 36.9104507,46.8278517 37.0692537,46.4348078" id="Fill-38" fill="#FEA200"></path>
            <path d="M197,23 C196.452,23 196,22.6785714 196,22.2857143 L196,13.7142857 C196,13.3228571 196.452,13 197,13 C197.55,13 198,13.3228571 198,13.7142857 L198,22.2857143 C198,22.6785714 197.55,23 197,23" id="Fill-40" fill="#FEA200"></path>
            <path d="M192.116815,20.7037623 C191.908322,20.3936498 191.986339,19.967416 192.29168,19.754299 L198.947307,15.119006 C199.253993,14.9072552 199.673669,14.9851249 199.882162,15.2966034 C200.092,15.6067159 200.013983,16.0329497 199.708642,16.2447005 L193.05167,20.8813597 C192.747674,21.0931105 192.326653,21.0138747 192.116815,20.7037623" id="Fill-42" fill="#FEA200"></path>
            <path d="M192.078159,15.4348078 C192.255686,15.0433682 192.687431,14.8861506 193.033964,15.0882875 L200.615075,19.4839622 C200.961607,19.686099 201.100788,20.1721901 200.921841,20.5636297 C200.744314,20.9566736 200.313989,21.1138912 199.966036,20.9117543 L192.384925,16.5160796 C192.038393,16.3139428 191.899212,15.8278517 192.078159,15.4348078" id="Fill-44" fill="#FEA200"></path>
            <path d="M75.3400252,125 C75.0276772,125 74.7126481,124.889959 74.4592842,124.665801 C73.9016156,124.172654 73.843972,123.314063 74.3292509,122.748914 L92.6492004,101.464805 C93.138501,100.898297 93.9843877,100.843956 94.5407158,101.333027 C95.0983844,101.826174 95.156028,102.684766 94.6707491,103.249915 L76.3507996,124.534024 C76.0853708,124.84241 75.712698,125 75.3400252,125" id="Fill-46" fill="#000000"></path>
            <path d="M76.3876113,134 C76.0669699,134 75.7449403,133.892274 75.4839854,133.671368 C74.902389,133.179102 74.8357622,132.320023 75.3340751,131.748667 L103.558852,99.4759194 C104.06133,98.9031999 104.937194,98.8391098 105.516015,99.3286487 C106.097611,99.8209148 106.164238,100.679994 105.665925,101.25135 L77.4411476,133.524097 C77.166312,133.839093 76.7776557,134 76.3876113,134" id="Fill-48" fill="#000000"></path>
            <path d="M78.4055443,146 C78.0846471,146 77.7637499,145.893008 77.4991504,145.673467 C76.9066166,145.178805 76.8306146,144.302031 77.3302572,143.714272 L112.516354,102.493359 C113.015996,101.908379 113.905501,101.831957 114.50085,102.326619 C115.093383,102.821281 115.169385,103.698056 114.669743,104.285814 L79.4836463,145.506727 C79.2049724,145.83187 78.8066658,146 78.4055443,146" id="Fill-50" fill="#000000"></path>
            <path d="M89.0002586,36 C91.6638196,36 91.6693399,31 89.0002586,31 C86.3353176,31 86.3311774,36 89.0002586,36" id="Fill-52" fill="#000000"></path>
            <path d="M124.000259,60 C126.66382,60 126.66934,55 124.000259,55 C121.335318,55 121.331177,60 124.000259,60" id="Fill-54" fill="#000000"></path>
            <path d="M155,133.969717 C155,136.072687 152.944452,137.791823 150.431046,137.791823 C147.917641,137.791823 145.840093,136.053765 145.840093,133.950796 L145.840093,124.08333 C145.840093,122.427715 144.219029,121.073489 142.241853,121.073489 C140.263303,121.073489 138.643613,122.427715 138.643613,124.08333 L138.643613,125.507835 C138.643613,127.610804 136.588065,129.328589 134.073285,129.328589 C131.559879,129.328589 129.502956,127.609452 129.502956,125.507835 L129.502956,120.820754 C129.502956,119.166491 127.883267,117.812265 125.906091,117.812265 C123.92754,117.812265 122.307851,119.166491 122.307851,120.820754 L122.307851,134.118385 C122.307851,136.221354 120.252303,137.940491 117.737522,137.940491 C115.222742,137.940491 113.167194,136.221354 113.167194,134.118385 L113.167194,125.211851 C113.167194,123.556236 111.547504,122.200659 109.568954,122.200659 C107.591778,122.200659 105.970714,123.557588 105.970714,125.211851 L105.970714,149 L105,149 L105,125.211851 C105,123.108882 107.054173,121.388394 109.568954,121.388394 C112.083734,121.388394 114.139282,123.108882 114.139282,125.211851 L114.139282,134.118385 C114.139282,135.772649 115.758972,137.126874 117.737522,137.126874 C119.716073,137.126874 121.335762,135.774 121.335762,134.118385 L121.335762,120.820754 C121.335762,118.719137 123.392685,117 125.906091,117 C128.419497,117 130.475045,118.719137 130.475045,120.820754 L130.475045,125.507835 C130.475045,127.160747 132.096109,128.517675 134.073285,128.517675 C136.053211,128.517675 137.671525,127.162098 137.671525,125.507835 L137.671525,124.08333 C137.671525,121.980361 139.728448,120.259872 142.241853,120.259872 C144.756634,120.259872 146.810807,121.979009 146.810807,124.08333 L146.810807,133.950796 C146.810807,135.60506 148.452496,136.979558 150.431046,136.979558 C152.408222,136.979558 154.029286,135.623981 154.029286,133.969717" id="Fill-58" fill="#FF458A"></path>
            <path d="M106.738251,150 L103,150 L103,124.643845 C103,121.76773 105.678665,119.425945 108.972084,119.425945 C112.266884,119.425945 114.945549,121.76773 114.945549,124.643845 L114.945549,133.627955 C114.945549,134.533045 115.969217,135.2991 117.180764,135.2991 C118.390929,135.2991 119.413215,134.533045 119.413215,133.627955 L119.413215,120.216536 C119.413215,117.340421 122.091881,115 125.386681,115 C128.680099,115 131.358764,117.340421 131.358764,120.216536 L131.358764,124.943724 C131.358764,125.850177 132.38105,126.616232 133.592597,126.616232 C134.804144,126.616232 135.827812,125.850177 135.827812,124.943724 L135.827812,123.505667 C135.827812,120.629552 138.506477,118.287767 141.799896,118.287767 C145.093314,118.287767 147.77198,120.629552 147.77198,123.505667 L147.77198,133.458932 C147.77198,134.359933 148.826039,135.149161 150.027916,135.149161 C151.239463,135.149161 152.261749,134.384469 152.261749,133.478015 L156,133.478015 C156,136.35413 153.321335,138.695915 150.027916,138.695915 C146.722064,138.695915 144.033729,136.345952 144.033729,133.458932 L144.033729,123.505667 C144.033729,122.599213 143.011443,121.834521 141.799896,121.834521 C140.588349,121.834521 139.566063,122.599213 139.566063,123.505667 L139.566063,124.943724 C139.566063,127.821202 136.886016,130.16026 133.592597,130.16026 C130.299179,130.16026 127.619132,127.821202 127.619132,124.943724 L127.619132,120.216536 C127.619132,119.310083 126.596846,118.545391 125.386681,118.545391 C124.175134,118.545391 123.152848,119.310083 123.152848,120.216536 L123.152848,133.627955 C123.152848,136.505433 120.472801,138.844491 117.180764,138.844491 C113.885964,138.844491 111.205917,136.505433 111.205917,133.627955 L111.205917,124.643845 C111.205917,123.737391 110.183631,122.971336 108.972084,122.971336 C107.760537,122.971336 106.738251,123.737391 106.738251,124.643845 L106.738251,150 Z" id="Fill-60" fill="#FF458A"></path>
            <path d="M208.265421,147.455823 L252.150545,175.524985 L252.154675,175.53762 C253.484611,176.393986 254.386379,177.69819 254.777374,179.14559 C255.171123,180.60422 255.052723,182.197623 254.340946,183.619753 C253.620909,185.054518 252.417633,186.090581 251.027121,186.614228 C249.636608,187.136471 248.060235,187.146298 246.595379,186.534206 L198.681899,166.527523 L196,165.405823 L197.693396,163.010805 C197.70441,162.995363 198.944858,160.509092 200.419351,157.573581 C202.480339,153.470042 204.910294,148.614023 204.946089,148.531194 L205.989662,146 L208.265421,147.455823 Z" id="Fill-62" fill="#FFFFFF"></path>
            <path d="M197.529145,163.813802 L198.598971,164.252005 L246.702458,183.88848 C247.805458,184.340463 249.028709,184.359755 250.149677,183.949112 C251.270645,183.53709 252.184282,182.730961 252.724724,181.676793 C253.258255,180.633648 253.378507,179.426522 253.061982,178.278649 C252.746839,177.140423 252.022564,176.166178 251.021848,175.536433 C250.980382,175.508873 250.94168,175.482691 250.902978,175.450997 L206.962692,147.973712 L206.055965,147.407355 L205.638539,148.396757 C205.545932,148.613103 201.095233,157.279334 201.04962,157.366148 L199.015015,161.337539 C198.270006,162.791327 198.270006,162.791327 198.200896,162.885031 L197.529145,163.813802 Z M248.502089,187 C247.534546,187 246.568384,186.812592 245.653365,186.439155 L194.858725,165.700281 C194.466179,165.540434 194.170387,165.211092 194.0529,164.804582 C193.936795,164.399451 194.014198,163.961248 194.261613,163.619504 L195.903672,161.349941 C195.994897,161.173557 196.225726,160.722952 196.551926,160.084938 L198.589296,156.109414 C200.737242,151.929945 202.997146,147.514839 203.116016,147.269555 L204.137465,144.8429 C204.295036,144.470841 204.608797,144.185595 204.994432,144.064331 C205.381449,143.943067 205.80164,143.994053 206.145809,144.210399 L252.491132,173.192458 C252.538127,173.221396 252.583739,173.254468 252.626588,173.288918 C254.144248,174.287966 255.241719,175.794118 255.725491,177.546932 C256.228613,179.360378 256.035104,181.273039 255.186431,182.930771 C254.329464,184.602283 252.880913,185.883821 251.107545,186.535615 C250.261635,186.845664 249.381171,187 248.502089,187 Z" id="Fill-64" fill="#000000"></path>
            <path d="M178.517869,154.996442 C176.557692,155.029907 174.589343,154.827724 172.661859,154.371766 C170.779327,153.924174 168.926763,153.243723 167.146394,152.312285 C163.41266,150.358777 160.385897,147.536577 158.183253,144.206828 C155.90024,140.757164 154.509455,136.766485 154.133494,132.637763 L154,131.173678 L155.235497,130.427691 C158.726763,128.320802 162.701603,127.138379 166.770433,127.011491 C170.694872,126.888787 174.699679,127.746323 178.4375,129.701226 C180.227404,130.638241 181.855208,131.777439 183.314103,133.079778 C184.80024,134.40861 186.106571,135.917315 187.222196,137.564063 L188,138.713021 L187.388381,139.93867 L180.494391,153.742906 L179.880048,154.972738 L178.517869,154.996442 Z" id="Fill-66" fill="#B7F3DA"></path>
            <path d="M154.948891,132.155733 L155.003422,132.72368 C155.368363,136.525393 156.726055,140.203462 158.926887,143.361139 C161.113736,146.502511 164.11576,149.078654 167.60577,150.811029 C169.29065,151.649362 171.08739,152.285246 172.945653,152.703733 C174.78434,153.116785 176.697134,153.311083 178.618317,153.278474 L179.176215,153.268962 L186.747691,138.875987 L186.426096,138.423532 C185.334069,136.893607 184.06167,135.507708 182.645251,134.303877 C181.210656,133.089177 179.622254,132.042959 177.923391,131.19919 C174.431983,129.465457 170.523899,128.590438 166.625603,128.726311 C162.70074,128.841802 158.837399,129.927424 155.452257,131.866324 L154.948891,132.155733 Z M178.210031,156 C176.210546,156 174.229238,155.782604 172.315046,155.351888 C170.234463,154.883128 168.220996,154.169797 166.33337,153.232277 C162.425286,151.290659 159.062516,148.403368 156.610001,144.88427 C154.1463,141.350226 152.62781,137.230571 152.218126,132.976403 L152,130.691027 L154.033043,129.525241 C157.822276,127.355357 162.147036,126.137939 166.54031,126.00886 C170.905619,125.897445 175.28491,126.837683 179.195791,128.779301 C181.097399,129.724973 182.87736,130.894836 184.483939,132.256278 C186.075137,133.60821 187.501343,135.162591 188.724804,136.877303 L190,138.664026 L180.903043,155.960597 L178.664459,155.995924 C178.513449,155.998641 178.361041,156 178.210031,156 Z" id="Fill-68" fill="#000000"></path>
            <path d="M203.902228,147.143007 C203.835479,147.480242 201.865703,151.446503 199.900015,155.303537 C197.932964,159.157842 195.878731,163.081777 195.644429,163.332996 L195.640342,163.3289 C194.863875,164.174035 193.840845,164.720164 192.746979,164.91677 C191.6572,165.112011 190.507484,164.968652 189.466745,164.434811 L183.832588,161.547155 C182.554823,160.893166 181.662566,159.781794 181.253899,158.51341 C180.84387,157.245025 180.91743,155.819629 181.569935,154.541688 L188.558142,140.83795 C189.212009,139.557278 190.320859,138.664358 191.585002,138.253396 C192.85187,137.843799 194.272669,137.917526 195.549073,138.571516 L201.184592,141.459172 L201.196852,141.475556 C202.243039,142.02305 203.02768,142.87228 203.494923,143.858043 C203.971701,144.861554 204.12427,146.015251 203.895417,147.141642 L203.902228,147.143007 Z" id="Fill-70" fill="#FFFFFF"></path>
            <path d="M193.698643,139.755892 C193.296607,139.755892 192.893193,139.81926 192.499418,139.947374 C191.516356,140.265591 190.715037,140.948864 190.244158,141.869077 L183.180982,155.6957 C182.710103,156.617291 182.626116,157.666995 182.944166,158.651955 C183.263592,159.638291 183.945127,160.440034 184.867608,160.909784 L190.563584,163.824712 C191.315338,164.21043 192.160716,164.338544 193.007471,164.180124 C193.83495,164.032724 194.599095,163.613945 195.162222,163.002306 C195.170483,162.992663 195.180121,162.98302 195.189758,162.973377 C195.425198,162.578016 196.950734,159.716813 199.254183,155.210797 C201.506689,150.80121 202.917947,147.916589 203.179546,147.287041 C203.333752,146.47841 203.224982,145.625698 202.871135,144.881812 C202.509026,144.117264 201.91561,143.504247 201.154218,143.107508 C201.111536,143.08409 201.070231,143.059293 201.030303,143.03312 L195.456865,140.182937 C194.903376,139.899159 194.303075,139.755892 193.698643,139.755892 M192.2984,167 C191.260264,167 190.245535,166.757549 189.309286,166.278156 L183.614686,163.364605 C182.03683,162.55873 180.869272,161.186675 180.325421,159.500535 C179.780193,157.814395 179.923384,156.01805 180.730211,154.440738 L187.792011,140.615493 C188.597461,139.039558 189.968791,137.871383 191.652663,137.324489 C193.339289,136.781729 195.134685,136.92224 196.711164,137.728116 L202.405764,140.643044 C202.45946,140.670595 202.51178,140.702279 202.561346,140.735341 C203.793616,141.413103 204.758779,142.435256 205.35908,143.698484 C205.949743,144.94518 206.139747,146.368205 205.897424,147.725107 C205.893293,147.773322 205.887786,147.821537 205.878148,147.872506 C205.835466,148.080519 205.739087,148.568177 201.70633,156.464381 C197.673573,164.356452 197.333494,164.722885 197.18755,164.87855 C197.154506,164.915744 197.118708,164.948805 197.08291,164.980489 C196.126008,165.972336 194.856564,166.648721 193.493495,166.89255 C193.094212,166.964183 192.694929,167 192.2984,167" id="Fill-72" fill="#000000"></path>
            <path d="M155.024912,132.816495 C155.024912,132.816495 154.342985,140.627141 160.114721,145.855574 C162.897204,148.376499 161.130765,146.371744 162.178305,143.337373 C163.225844,140.300278 164.969004,139.401407 167.824062,139.833138 C170.677751,140.264868 170.501107,137.116095 167.462558,134.550227 C164.42264,131.987082 169.133144,130.30238 171.576033,131.033734 C174.018922,131.76645 165.561925,124.975887 155.024912,132.816495" id="Fill-74" fill="#FF458A"></path>
            <path d="M205.349718,45.2631045 C198.853807,58.9867433 182.462166,64.8464129 168.738391,58.3505663 C155.013248,51.8547197 149.15352,35.4632416 155.649431,21.7382346 C162.145342,8.01322765 178.538351,2.15355811 192.262126,8.6494047 C205.98727,15.1452513 211.846998,31.5367294 205.349718,45.2631045 Z" id="Fill-76" fill="#FA58B1"></path>
            <path d="M180.008992,8.74975214 C177.03078,8.74975214 174.044321,9.26239747 171.156816,10.2945601 C164.555822,12.6543779 159.268704,17.4441071 156.271251,23.781393 C153.271049,30.1173045 152.919216,37.2407382 155.278972,43.8432802 C157.638728,50.4444479 162.426956,55.7317042 168.762701,58.7292363 C175.09982,61.7295172 182.221692,62.0813596 188.825435,59.7215418 C195.426429,57.361724 200.712172,52.5733691 203.711,46.2360832 C206.711202,39.9001717 207.064409,32.7739893 204.704653,26.174196 C202.344898,19.5716539 197.555294,14.2843976 191.218175,11.2868655 C187.653116,9.59912162 183.8393,8.74975214 180.008992,8.74975214 M179.945772,64 C175.795241,64 171.581489,63.1052758 167.587634,61.2154975 C153.137738,54.3751869 146.946299,37.0551963 153.785055,22.60492 C157.098609,15.6038065 162.939588,10.3138014 170.231879,7.70659447 C177.521422,5.10076189 185.395062,5.48971264 192.394617,8.80060436 C199.394172,12.1142448 204.685412,17.955378 207.292551,25.247861 C209.899689,32.5417183 209.510749,40.4114427 206.197195,47.4125562 C201.246793,57.8674974 190.811368,64 179.945772,64" id="Fill-78" fill="#000000"></path>
            <path d="M150.078272,61 C147.379148,61 145.553721,60.2579346 144.617319,58.7724244 C142.76681,55.8358866 145.08134,51.0814265 151.498203,44.6414572 C152.03747,44.0980115 152.919528,44.0924943 153.468549,44.6276641 C154.016178,45.162834 154.021751,46.034554 153.481091,46.5779997 C147.485051,52.5972814 146.232334,56.1227818 146.982013,57.3117417 C147.731693,58.5034602 151.481482,58.9406995 159.580246,56.2565743 C167.228924,53.7241726 176.641717,49.1172979 186.089346,43.2842222 C195.534189,37.4539052 203.855906,31.1104871 209.517516,25.4249969 C215.514949,19.4057152 216.766272,15.8802147 216.016593,14.6912549 C215.18888,13.3740197 210.841299,13.2319515 202.99475,15.8898698 C202.270153,16.131248 201.47449,15.7519395 201.225061,15.0305636 C200.975633,14.3091877 201.364407,13.5257432 202.093184,13.2788478 C211.018268,10.2567932 216.495942,10.2402416 218.382681,13.2305722 C220.23319,16.1671099 217.91866,20.92157 211.501797,27.3615394 C205.691087,33.1973737 197.189614,39.6828601 187.563622,45.6262801 C177.937631,51.5683207 168.314426,56.2731259 160.46509,58.8731136 C156.183001,60.2910379 152.71469,61 150.078272,61" id="Fill-80" fill="#F9B5FF"></path>
            <path d="M197.567007,31.5776763 C200.560719,32.9953971 201.839412,36.5727335 200.4217,39.5664644 C199.005365,42.5601952 195.428052,43.8388968 192.43434,42.4225524 C189.439252,41.006208 188.160559,37.4288717 189.57827,34.4337644 C190.995982,31.4386571 194.571919,30.1613319 197.567007,31.5776763" id="Fill-82" fill="#FFFFFF"></path>
            <path d="M195.509904,32.8021302 C193.748085,32.8021302 192.056236,33.7971606 191.255791,35.4919312 C190.71703,36.6269097 190.654058,37.9032357 191.07667,39.084397 C191.499283,40.2669578 192.357102,41.2144059 193.491999,41.7504069 C195.831761,42.8587952 198.641715,41.8553679 199.748624,39.512638 C200.858332,37.1713075 199.854977,34.3625507 197.513815,33.2527628 C196.865902,32.9476761 196.181606,32.8021302 195.509904,32.8021302 M195.490313,45 C194.416989,45 193.326872,44.7690858 192.29413,44.2806672 C190.483334,43.4241852 189.11614,41.9141461 188.441639,40.0262472 C187.767138,38.1397478 187.867894,36.1049036 188.725713,34.2939761 C189.582133,32.4830487 191.092064,31.1157565 192.978427,30.441207 C194.860592,29.768057 196.899488,29.8674201 198.710284,30.723902 L198.710284,30.7253015 C202.448026,32.4942445 204.048916,36.9739808 202.278701,40.7091936 C200.999669,43.4143889 198.300266,45 195.490313,45" id="Fill-84" fill="#F9B5FF"></path>
            <path d="M148.566236,2.57770135 C151.561343,3.99410721 152.838668,7.5715988 151.422324,10.5668361 C150.004603,13.5606969 146.428643,14.839454 143.433536,13.4216716 C140.439805,12.0052658 139.161103,8.42777417 140.577448,5.43391337 C141.996545,2.43867609 145.571128,1.16129548 148.566236,2.57770135" id="Fill-86" fill="#00A4D6"></path>
            <path d="M146.509887,2.79897518 C144.748127,2.79897518 143.056334,3.79263515 142.253117,5.48745518 C141.717173,6.62106726 141.654203,7.89743049 142.076802,9.07862629 C142.4994,10.2612216 143.357191,11.2086974 144.492049,11.744714 C145.625509,12.2835296 146.903099,12.3451085 148.084136,11.9238527 C149.265172,11.5011973 150.21252,10.6418913 150.749864,9.50827926 C151.856736,7.16548096 150.853414,4.35664215 148.512331,3.24962097 C147.86584,2.94452537 147.181566,2.79897518 146.509887,2.79897518 M146.497293,15 C145.403015,15 144.312935,14.7578829 143.294221,14.2736486 C141.483485,13.4185412 140.116337,11.9084579 139.441859,10.0219035 C138.76738,8.13534908 138.868132,6.0990459 139.723125,4.28946513 C141.49328,0.551344315 145.972543,-1.04690876 149.70876,0.719286845 C153.446377,2.48688198 155.048613,6.96814849 153.279857,10.7048698 C152.422066,12.5158501 150.912186,13.8845817 149.025886,14.5577513 C148.201679,14.8530503 147.348087,15 146.497293,15" id="Fill-88" fill="#000000"></path>
            <path d="M152.187737,33 C152.09114,33 151.993182,32.987896 151.897945,32.9650329 L152.231274,31.6604908 L151,31.0916029 C152.024474,28.7272885 157.877445,17.1168642 174.547936,16.0019514 C175.290781,15.9629496 175.946554,16.5130091 175.996893,17.2540428 C176.047232,17.9950765 175.479894,18.6365884 174.730246,18.6863493 C159.642043,19.6950159 154.416274,30.0398999 153.52105,32.1029592 C153.296563,32.6220863 152.746912,33 152.187737,33" id="Fill-90" fill="#000000"></path>
            <path d="M154.169539,41 C154.046134,41 153.924132,40.9818599 153.804935,40.9469752 L154.621088,38.2775946 L154.208804,39.6115872 L153,38.9097062 C154.207402,36.6812687 159.560076,29.1796534 178.292334,25.0311597 C179.038371,24.8720853 179.795627,25.3367501 179.96671,26.0902605 C180.133587,26.8423756 179.656796,27.5889091 178.900943,27.7563559 C160.875457,31.7471706 156.230957,38.8287735 155.483518,40.208814 C155.22549,40.6804557 154.699618,41 154.169539,41" id="Fill-92" fill="#000000"></path>
            <path d="M252,58 C251.450331,58 251,57.7085714 251,57.3528571 L251,48.6471429 C251,48.2914286 251.450331,48 252,48 C252.549669,48 253,48.2914286 253,48.6471429 L253,57.3528571 C253,57.7085714 252.549669,58 252,58" id="Fill-94" fill="#FEA200"></path>
            <path d="M247.102604,54.7041224 C246.919486,54.3926788 246.988317,53.9664928 247.254553,53.7547658 L253.079278,49.118627 C253.346813,48.9069 253.714348,48.9861269 253.897467,49.2962045 C254.080585,49.6062821 254.011753,50.0338341 253.744219,50.2455611 L247.920793,54.8803339 C247.654557,55.0934269 247.285722,55.0142 247.102604,54.7041224" id="Fill-96" fill="#FEA200"></path>
            <path d="M247.068641,49.4357154 C247.227444,49.0426253 247.610521,48.8869936 247.918376,49.0875498 L254.65636,53.4837419 C254.965608,53.6859026 255.089585,54.1720508 254.930782,54.565141 C254.771979,54.9566267 254.388902,55.1138628 254.079654,54.9117021 L247.34167,50.51551 C247.033815,50.3149538 246.911231,49.8272011 247.068641,49.4357154" id="Fill-98" fill="#FEA200"></path>
        </g>
    </g>
</svg>