<svg xmlns="http://www.w3.org/2000/svg" width="700" height="700" viewBox="0 0 700 700"><defs><style>.a,.b{fill:#fff;}.b{opacity:0.8;}</style></defs><polygon class="a" points="349.9 527.8 199.9 429.8 199.9 374.4 350.1 472.7 349.9 348.5 199.9 261.1 199.9 209.3 350 293.6 350 293.6 350.2 293.7 349.9 169.3 102.7 48.5 102.7 472.6 350.1 651.6 349.9 527.8"/><polygon class="b" points="350.1 651.6 597.3 472.8 597.3 366.3 349.9 527.8 350.1 651.6"/><polygon class="b" points="350.1 472.7 523.5 359.3 523.5 247.4 349.9 348.5 350.1 472.7"/><polygon class="b" points="350 293.6 350 293.6 350.2 293.7 597.3 154.8 597.3 48.4 349.9 169.3 350 293.6"/></svg>