<?xml version="1.0" encoding="utf-8"?>
<svg version="1.1" id="Layer_1" xmlns="http://www.w3.org/2000/svg" xmlns:xlink="http://www.w3.org/1999/xlink" x="0px" y="0px"
	 viewBox="0 0 450 450" style="enable-background:new 0 0 450 450;" xml:space="preserve">
<style type="text/css">
	.st0{opacity:0.8;fill:#FFFFFF;enable-background:new    ;}
	.st1{fill:#FFFFFF;}
	.st2{opacity:0.2;fill:#FFFFFF;enable-background:new    ;}
	.st3{opacity:0.3;fill:#FFFFFF;enable-background:new    ;}
</style>
<polygon class="st0" points="114.9,60.4 93.2,69.9 93.2,157.8 114.9,147.4 "/>
<polygon class="st0" points="201.4,105.8 201.4,22.4 180.3,31.6 180.3,115.9 "/>
<polygon class="st0" points="158.9,126.2 158.9,41.1 137.1,50.7 137.1,136.7 "/>
<polygon class="st1" points="137.1,50.7 118.6,41.1 118.6,145.6 137.1,136.7 "/>
<polygon class="st1" points="180.3,31.6 161.8,22.4 161.8,124.8 180.3,115.9 "/>
<polygon class="st2" points="202,105.5 201.4,105.8 180.3,115.9 161.8,124.8 158.9,126.2 137.1,136.7 118.6,145.6 114.9,147.4
	93.2,157.8 93.1,157.9 93.2,158 98,163.3 150.5,221.5 150.5,191.4 241.2,146.5 "/>
<polygon class="st0" points="385.3,356 275.8,424.5 275.8,296.6 385.3,234.2 "/>
<path class="st3" d="M211.3,257.9v-31l89.4-47.3l-41.6-42l-17.9,8.9l-90.7,44.9l18.7,20.5L211.3,257.9z"/>
<path class="st2" d="M319.6,169.6l-18.9,10l-89.4,47.3l19.1,20.6l45.4,49.1l109.6-62.3L319.6,169.6z"/>
<path class="st1" d="M230.4,247.5l-19.1-20.6v31l-60.8-66.5v30.1l-57.4-63.6V70L74.7,60v232.2l136.6,89.9V320l21.1,13.2v62.7
	l43.4,28.6V296.6L230.4,247.5z M111.9,287.1L93.1,275v-29.3l18.8,11.8L111.9,287.1z M150.5,311.9L131,299.4v-29.8l19.5,12.2V311.9z
	 M190.6,337.7l-20.3-13v-30.4l20.3,12.7V337.7z"/>
<polygon class="st0" points="170.3,324.7 190.6,337.8 190.6,307 170.3,294.3 "/>
<polygon class="st0" points="131,299.4 150.5,311.9 150.5,281.8 131,269.6 "/>
<polygon class="st0" points="93.1,275 111.9,287.1 111.9,257.5 93.1,245.7 "/>
</svg>
